<svg width="24" height="24" viewBox="0 0 24 24" fill="none" xmlns="http://www.w3.org/2000/svg">
<path fill-rule="evenodd" clip-rule="evenodd" d="M15.6451 9.51957L18.2183 7.14229L19.7943 4.61714C18.8145 2.90347 17.1761 1.58808 15.2074 0.985901L12.2573 3.00043L10.5087 6.40708C11.0681 5.78452 11.8794 5.39283 12.7823 5.39283C14.47 5.39283 15.8382 6.761 15.8382 8.44872C15.8382 8.82544 15.7699 9.18633 15.6451 9.51957ZM10.4411 6.48493L10.4321 6.49535L10.4323 6.4955L10.4411 6.48493Z" fill="#4285F4"/>
<path fill-rule="evenodd" clip-rule="evenodd" d="M9.32324 16.9894L14.3121 11.0946C14.9205 10.7421 15.3961 10.1859 15.6455 9.51929L19.7943 4.617C20.4227 5.7161 20.7806 6.9786 20.7806 8.32167C20.7806 9.98912 20.2295 11.5325 19.2931 12.7929H19.2932C19.2932 12.7929 15.0839 18.659 14.4237 19.9983C13.7635 21.3377 13.6315 22.5072 13.3484 22.941C13.0654 23.3747 12.4242 23.1674 12.2733 22.5449C12.1224 21.9223 11.5941 20.6397 10.4246 18.6778C10.14 18.2003 9.75015 17.6096 9.32324 16.9894Z" fill="#34A853"/>
<path fill-rule="evenodd" clip-rule="evenodd" d="M5.79492 12.0687L10.432 6.49536L10.4321 6.4955C9.99151 7.02508 9.72631 7.70596 9.72631 8.44872C9.72631 10.1364 11.0945 11.5046 12.7822 11.5046C13.3396 11.5046 13.862 11.3553 14.3119 11.0946L9.32292 16.9894C7.99595 15.0608 6.31052 12.8449 6.31052 12.8449H6.31109C6.1235 12.5969 5.95113 12.3376 5.79492 12.0687Z" fill="#FBBC04"/>
<path fill-rule="evenodd" clip-rule="evenodd" d="M6.54704 3.50189L10.4723 6.44797L5.79502 12.0686C5.15135 10.9598 4.78418 9.91224 4.78418 8.32163C4.78418 6.73101 5.44865 4.81987 6.54704 3.50189Z" fill="#EA4335"/>
<path fill-rule="evenodd" clip-rule="evenodd" d="M15.2072 0.985913L10.4721 6.44802L6.54688 3.50194C8.01271 1.74807 10.261 0.625305 12.7821 0.625305C13.6275 0.625305 14.4423 0.751919 15.2072 0.985913Z" fill="#1A73E8"/>
</svg>
