<svg width="24" height="24" viewBox="0 0 24 24" fill="none" xmlns="http://www.w3.org/2000/svg">
<g clip-path="url(#clip0_1564_3292)">
<path d="M19.1627 14.7375C20.2877 13.2 20.8502 11.4 20.8502 9.52499C20.8502 7.94999 20.4377 6.37499 19.6127 5.02499C18.0377 2.36249 15.2252 0.712488 12.1127 0.674988C12.0002 0.674988 11.9252 0.674988 11.8127 0.674988C8.70019 0.712488 5.9252 2.36249 4.3127 5.02499C3.5252 6.37499 3.0752 7.94999 3.0752 9.52499C3.0752 11.4 3.6752 13.2375 4.7627 14.7375C6.2627 16.8 8.5502 18.075 11.0627 18.3375V18.8625C10.4627 19.0875 9.97519 19.575 9.7502 20.175H6.1502C5.7002 20.175 5.2877 20.55 5.2877 21.0375C5.2877 21.525 5.6627 21.9 6.1502 21.9H9.7502C10.0877 22.7625 10.9127 23.3625 11.8877 23.3625C12.8627 23.3625 13.6877 22.7625 14.0252 21.9H17.6252C18.0752 21.9 18.4877 21.525 18.4877 21.0375C18.4877 20.55 18.1127 20.175 17.6252 20.175H14.0252C13.8002 19.575 13.3127 19.0875 12.7127 18.8625V18.3375C15.3752 18.1125 17.6252 16.8 19.1627 14.7375ZM10.2377 9.52499C10.2377 8.84999 10.2752 8.13749 10.3877 7.46249C10.9127 7.49999 11.4377 7.49999 12.0002 7.49999C12.5627 7.49999 13.0877 7.46249 13.6127 7.42499C13.7252 8.09999 13.7627 8.81249 13.7627 9.48749C13.7627 10.4625 13.6502 11.4375 13.4627 12.375C12.4877 12.3 11.5127 12.3 10.5377 12.375C10.3502 11.4375 10.2377 10.5 10.2377 9.52499ZM12.9752 14.0625C12.7127 14.8125 12.3752 15.525 12.0002 16.2C11.6252 15.4875 11.2877 14.775 11.0252 14.0625C11.6627 14.025 12.3377 14.025 12.9752 14.0625ZM10.7627 5.77499C11.0627 4.76249 11.4752 3.74999 12.0002 2.81249C12.5252 3.74999 12.9377 4.76249 13.2377 5.77499C12.4127 5.84999 11.5877 5.84999 10.7627 5.77499ZM13.7627 16.4625C14.1377 15.7125 14.4377 14.9625 14.7002 14.2125C15.4502 14.325 16.2377 14.475 16.9502 14.6625C16.0877 15.5625 15.0002 16.1625 13.7627 16.4625ZM18.1127 13.2375C17.1377 12.9375 16.1627 12.7125 15.1502 12.5625C15.3752 11.55 15.4502 10.5375 15.4502 9.52499C15.4502 8.77499 15.3752 8.02499 15.2627 7.27499C16.3502 7.08749 17.4377 6.82499 18.4502 6.48749C18.9002 7.42499 19.1252 8.47499 19.1252 9.52499C19.1627 10.8375 18.8252 12.1125 18.1127 13.2375ZM17.5877 4.98749C16.7252 5.24999 15.8627 5.43749 14.9627 5.58749C14.7002 4.53749 14.2877 3.52499 13.8002 2.54999C15.2627 2.96249 16.6127 3.78749 17.5877 4.98749ZM10.2377 2.54999C9.75019 3.52499 9.3377 4.53749 9.0752 5.58749C8.1752 5.43749 7.3127 5.24999 6.4502 4.98749C7.3877 3.78749 8.73769 2.96249 10.2377 2.54999ZM4.8377 9.52499C4.8377 8.47499 5.0627 7.42499 5.5127 6.48749C6.5627 6.82499 7.6127 7.08749 8.7002 7.27499C8.5877 8.02499 8.5127 8.77499 8.5127 9.52499C8.5127 10.575 8.6252 11.5875 8.8127 12.5625C7.8002 12.7125 6.8252 12.9375 5.8502 13.2375C5.1752 12.1125 4.8377 10.8375 4.8377 9.52499ZM7.0127 14.6625C7.7627 14.475 8.5127 14.2875 9.2627 14.2125C9.5252 15 9.8252 15.75 10.2002 16.4625C9.0002 16.1625 7.9127 15.5625 7.0127 14.6625ZM12.0002 21.675C11.6627 21.675 11.3627 21.4125 11.3627 21.075C11.3627 20.7375 11.6627 20.4375 12.0002 20.4375C12.3377 20.4375 12.6377 20.7 12.6377 21.0375C12.6377 21.375 12.3377 21.675 12.0002 21.675Z" fill="#083344"/>
</g>
<defs>
<clipPath id="clip0_1564_3292">
<rect width="24" height="24" fill="white"/>
</clipPath>
</defs>
</svg>
