<svg width="59" height="44" viewBox="0 0 59 44" fill="none" xmlns="http://www.w3.org/2000/svg">
<path d="M10.5 13C10.5 8.58172 14.0817 5 18.5 5H40.5C44.9183 5 48.5 8.58172 48.5 13V31C48.5 35.4183 44.9183 39 40.5 39H18.5C14.0817 39 10.5 35.4183 10.5 31V13Z" fill="#14B8A6"/>
<path d="M29.5 22L29.5 24.625M29.5 20.0543V20.0312M24.25 22C24.25 19.1005 26.6005 16.75 29.5 16.75C32.3995 16.75 34.75 19.1005 34.75 22C34.75 24.8995 32.3995 27.25 29.5 27.25C26.6005 27.25 24.25 24.8995 24.25 22Z" stroke="#FAFAFA" stroke-width="2" stroke-linecap="round" stroke-linejoin="round"/>
</svg>
