<svg width="38" height="34" viewBox="0 0 38 34" fill="none" xmlns="http://www.w3.org/2000/svg">
<path d="M0 8C0 3.58172 3.58172 0 8 0H30C34.4183 0 38 3.58172 38 8V26C38 30.4183 34.4183 34 30 34H8C3.58172 34 0 30.4183 0 26V8Z" fill="#14B8A6"/>
<path d="M14.8 19.1L17.25 21.2M19 22.95H24.6M14.45 19.1L21.3517 11.9574C22.0948 11.2142 23.2996 11.2142 24.0427 11.9574C24.7858 12.7005 24.7858 13.9053 24.0427 14.6484L16.9 21.55L13.4 22.6L14.45 19.1Z" stroke="white" stroke-width="2" stroke-linecap="round" stroke-linejoin="round"/>
</svg>
