<svg width="22" height="22" viewBox="0 0 22 22" fill="none" xmlns="http://www.w3.org/2000/svg">
<path d="M4.3999 18.2004C4.86107 17.6839 7.02095 15.3071 7.65391 15.3071H14.3463C15.2635 15.3071 17.1359 17.2773 17.5999 17.9718M20.5999 11.0004C20.5999 16.3023 16.3018 20.6004 10.9999 20.6004C5.69797 20.6004 1.3999 16.3023 1.3999 11.0004C1.3999 5.69846 5.69797 1.40039 10.9999 1.40039C16.3018 1.40039 20.5999 5.69846 20.5999 11.0004ZM14.4387 7.72835C14.4387 5.89684 12.8926 4.40039 11.0002 4.40039C9.10781 4.40039 7.56164 5.89684 7.56164 7.72835C7.56164 9.55986 9.10781 11.0563 11.0002 11.0563C12.8926 11.0563 14.4387 9.55986 14.4387 7.72835Z" stroke="black" stroke-width="2"/>
</svg>
