<svg width="40" height="40" viewBox="0 0 40 40" fill="none" xmlns="http://www.w3.org/2000/svg">
<path d="M0 8C0 3.58172 3.58172 0 8 0H32C36.4183 0 40 3.58172 40 8V32C40 36.4183 36.4183 40 32 40H8C3.58172 40 0 36.4183 0 32V8Z" fill="#ECFEFF"/>
<path d="M23.7124 7.5C29.9624 7.5 32.4624 10 32.4624 16.25V23.75C32.4624 30 29.9624 32.5 23.7124 32.5M23.7124 7.5H16.2124C9.9624 7.5 7.4624 10 7.4624 16.25V23.75C7.4624 30 9.9624 32.5 16.2124 32.5H23.7124M23.7124 7.5V32.5M14.9624 16.8L18.1624 20L14.9624 23.2" stroke="#0E7490" stroke-width="3" stroke-linecap="round" stroke-linejoin="round"/>
</svg>
