<svg width="125" height="116" viewBox="0 0 125 116" fill="none" xmlns="http://www.w3.org/2000/svg">
<g filter="url(#filter0_d_1012_22195)">
<path d="M50 24C50 19.5817 53.5817 16 58 16H82C86.4183 16 90 19.5817 90 24V48C90 52.4183 86.4183 56 82 56H58C53.5817 56 50 52.4183 50 48V24Z" fill="#ECFEFF" shape-rendering="crispEdges"/>
<path d="M64.9624 23.5V48.5M73.7124 32.8L70.5124 36L73.7124 39.2M82.4624 39.75V32.25C82.4624 26 79.9624 23.5 73.7124 23.5H66.2124C59.9624 23.5 57.4624 26 57.4624 32.25V39.75C57.4624 46 59.9624 48.5 66.2124 48.5H73.7124C79.9624 48.5 82.4624 46 82.4624 39.75Z" stroke="#0E7490" stroke-width="3" stroke-linecap="round" stroke-linejoin="round"/>
</g>
<defs>
<filter id="filter0_d_1012_22195" x="0" y="-24" width="140" height="140" filterUnits="userSpaceOnUse" color-interpolation-filters="sRGB">
<feFlood flood-opacity="0" result="BackgroundImageFix"/>
<feColorMatrix in="SourceAlpha" type="matrix" values="0 0 0 0 0 0 0 0 0 0 0 0 0 0 0 0 0 0 127 0" result="hardAlpha"/>
<feMorphology radius="10" operator="dilate" in="SourceAlpha" result="effect1_dropShadow_1012_22195"/>
<feOffset dy="10"/>
<feGaussianBlur stdDeviation="20"/>
<feComposite in2="hardAlpha" operator="out"/>
<feColorMatrix type="matrix" values="0 0 0 0 0 0 0 0 0 0 0 0 0 0 0 0 0 0 0.08 0"/>
<feBlend mode="normal" in2="BackgroundImageFix" result="effect1_dropShadow_1012_22195"/>
<feBlend mode="normal" in="SourceGraphic" in2="effect1_dropShadow_1012_22195" result="shape"/>
</filter>
</defs>
</svg>
