<svg width="38" height="34" viewBox="0 0 38 34" fill="none" xmlns="http://www.w3.org/2000/svg">
<path d="M0 8C0 3.58172 3.58172 0 8 0H30C34.4183 0 38 3.58172 38 8V26C38 30.4183 34.4183 34 30 34H8C3.58172 34 0 30.4183 0 26V8Z" fill="#EF4444"/>
<path d="M17.8334 18.75L17.8334 17" stroke="white" stroke-width="2" stroke-linecap="round"/>
<path d="M20.1666 18.75L20.1666 17" stroke="white" stroke-width="2" stroke-linecap="round"/>
<path d="M13.75 14.0834H24.25V14.0834C23.2835 14.0834 22.5 14.8669 22.5 15.8334V18.1667C22.5 19.5712 22.5 20.2734 22.1629 20.7778C22.017 20.9962 21.8295 21.1837 21.6111 21.3296C21.1067 21.6667 20.4045 21.6667 19 21.6667V21.6667C17.5955 21.6667 16.8933 21.6667 16.3889 21.3296C16.1705 21.1837 15.983 20.9962 15.8371 20.7778C15.5 20.2734 15.5 19.5712 15.5 18.1667V15.8334C15.5 14.8669 14.7165 14.0834 13.75 14.0834V14.0834Z" stroke="white" stroke-width="2" stroke-linecap="round"/>
<path d="M17.873 11.9662C17.9395 11.9042 18.086 11.8494 18.2897 11.8103C18.4935 11.7712 18.7431 11.75 19 11.75C19.2568 11.75 19.5064 11.7712 19.7102 11.8103C19.9139 11.8494 20.0604 11.9042 20.1269 11.9662" stroke="white" stroke-width="2" stroke-linecap="round"/>
</svg>
