<svg width="70" height="52" viewBox="0 0 70 52" fill="none" xmlns="http://www.w3.org/2000/svg">
<path d="M6.05172 8.745L17.2131 6.88477V40.7372L12.3018 41.7712C9.01306 42.4636 5.79705 40.3199 5.17081 37.0179L1.14319 15.7814C0.515988 12.4743 2.73148 9.29837 6.05172 8.745Z" stroke="#06B6D4" stroke-width="2"/>
<path d="M63.9483 8.745L52.7869 6.88477V40.7372L57.6982 41.7712C60.9869 42.4636 64.203 40.3199 64.8292 37.0179L68.8568 15.7814C69.484 12.4743 67.2685 9.29837 63.9483 8.745Z" stroke="#06B6D4" stroke-width="2"/>
<g filter="url(#filter0_dd_3351_5984)">
<rect x="17.0656" y="1" width="35.8689" height="42.7541" rx="5" stroke="#06B6D4" stroke-width="2" shape-rendering="crispEdges"/>
</g>
<path d="M47.9344 43.7536H22.0655C19.3041 43.7536 17.0656 41.5151 17.0656 38.7536L17.0656 35.2925L29.4724 22.1447L38.9825 33.0886C39.7832 34.01 41.2154 34.0054 42.0102 33.079L47.2456 26.976L52.9344 33.0974V38.7536C52.9344 41.5151 50.6958 43.7536 47.9344 43.7536Z" fill="#CCFBF1" stroke="#06B6D4" stroke-width="2"/>
<circle cx="39.5902" cy="14.3446" r="4.16393" fill="#CCFBF1" stroke="#06B6D4" stroke-width="2"/>
<defs>
<filter id="filter0_dd_3351_5984" x="13.0656" y="0" width="43.8688" height="51.7539" filterUnits="userSpaceOnUse" color-interpolation-filters="sRGB">
<feFlood flood-opacity="0" result="BackgroundImageFix"/>
<feColorMatrix in="SourceAlpha" type="matrix" values="0 0 0 0 0 0 0 0 0 0 0 0 0 0 0 0 0 0 127 0" result="hardAlpha"/>
<feOffset dy="2"/>
<feGaussianBlur stdDeviation="1"/>
<feComposite in2="hardAlpha" operator="out"/>
<feColorMatrix type="matrix" values="0 0 0 0 0 0 0 0 0 0 0 0 0 0 0 0 0 0 0.06 0"/>
<feBlend mode="normal" in2="BackgroundImageFix" result="effect1_dropShadow_3351_5984"/>
<feColorMatrix in="SourceAlpha" type="matrix" values="0 0 0 0 0 0 0 0 0 0 0 0 0 0 0 0 0 0 127 0" result="hardAlpha"/>
<feOffset dy="4"/>
<feGaussianBlur stdDeviation="1.5"/>
<feComposite in2="hardAlpha" operator="out"/>
<feColorMatrix type="matrix" values="0 0 0 0 0 0 0 0 0 0 0 0 0 0 0 0 0 0 0.07 0"/>
<feBlend mode="normal" in2="effect1_dropShadow_3351_5984" result="effect2_dropShadow_3351_5984"/>
<feBlend mode="normal" in="SourceGraphic" in2="effect2_dropShadow_3351_5984" result="shape"/>
</filter>
</defs>
</svg>
