<svg width="22" height="22" viewBox="0 0 22 22" fill="none" xmlns="http://www.w3.org/2000/svg">
<path d="M4.3999 18.1999C4.86107 17.6834 7.02095 15.3066 7.65391 15.3066H14.3463C15.2635 15.3066 17.1359 17.2768 17.5999 17.9713M20.5999 10.9999C20.5999 16.3018 16.3018 20.5999 10.9999 20.5999C5.69797 20.5999 1.3999 16.3018 1.3999 10.9999C1.3999 5.69797 5.69797 1.3999 10.9999 1.3999C16.3018 1.3999 20.5999 5.69797 20.5999 10.9999ZM14.4387 7.72786C14.4387 5.89635 12.8926 4.3999 11.0002 4.3999C9.10781 4.3999 7.56164 5.89635 7.56164 7.72786C7.56164 9.55937 9.10781 11.0558 11.0002 11.0558C12.8926 11.0558 14.4387 9.55937 14.4387 7.72786Z" stroke="#083344" stroke-width="2"/>
</svg>
