<svg width="10" height="10" viewBox="0 0 10 10" fill="none" xmlns="http://www.w3.org/2000/svg">
<g clip-path="url(#clip0_2336_2659)">
<path d="M8.33331 2.91669H1.66665C1.20641 2.91669 0.833313 3.28978 0.833313 3.75002V7.91669C0.833313 8.37692 1.20641 8.75002 1.66665 8.75002H8.33331C8.79355 8.75002 9.16665 8.37692 9.16665 7.91669V3.75002C9.16665 3.28978 8.79355 2.91669 8.33331 2.91669Z" stroke="#0D9488" stroke-linecap="round" stroke-linejoin="round"/>
<path d="M6.66665 8.75V2.08333C6.66665 1.86232 6.57885 1.65036 6.42257 1.49408C6.26629 1.3378 6.05433 1.25 5.83331 1.25H4.16665C3.94563 1.25 3.73367 1.3378 3.57739 1.49408C3.42111 1.65036 3.33331 1.86232 3.33331 2.08333V8.75" stroke="#0D9488" stroke-linecap="round" stroke-linejoin="round"/>
</g>
<defs>
<clipPath id="clip0_2336_2659">
<rect width="10" height="10" fill="white"/>
</clipPath>
</defs>
</svg>
