<svg width="20" height="20" viewBox="0 0 20 20" fill="none" xmlns="http://www.w3.org/2000/svg">
<path d="M5 6.6665C5 5.34042 5.52678 4.06865 6.46447 3.13097C7.40215 2.19329 8.67392 1.6665 10 1.6665C11.3261 1.6665 12.5979 2.19329 13.5355 3.13097C14.4732 4.06865 15 5.34042 15 6.6665C15 12.4998 17.5 14.1665 17.5 14.1665H2.5C2.5 14.1665 5 12.4998 5 6.6665Z" stroke="#1F2937" stroke-linecap="round" stroke-linejoin="round"/>
<path d="M8.58398 17.5C8.72347 17.7537 8.92852 17.9653 9.17773 18.1127C9.42693 18.26 9.71113 18.3378 10.0007 18.3378C10.2902 18.3378 10.5744 18.26 10.8236 18.1127C11.0728 17.9653 11.2778 17.7537 11.4173 17.5" stroke="#1F2937" stroke-linecap="round" stroke-linejoin="round"/>
</svg>
