<svg width="46" height="46" viewBox="0 0 46 46" fill="none" xmlns="http://www.w3.org/2000/svg">
<path d="M18 19.6667C18 18.3406 18.5268 17.0688 19.4645 16.1311C20.4021 15.1935 21.6739 14.6667 23 14.6667C24.3261 14.6667 25.5979 15.1935 26.5355 16.1311C27.4732 17.0688 28 18.3406 28 19.6667C28 25.5 30.5 27.1667 30.5 27.1667H15.5C15.5 27.1667 18 25.5 18 19.6667Z" stroke="#1F2937" stroke-linecap="round" stroke-linejoin="round"/>
<path d="M21.5834 30.5C21.7229 30.7537 21.9279 30.9653 22.1771 31.1127C22.4263 31.26 22.7105 31.3378 23 31.3378C23.2896 31.3378 23.5738 31.26 23.823 31.1127C24.0722 30.9653 24.2772 30.7537 24.4167 30.5" stroke="#1F2937" stroke-linecap="round" stroke-linejoin="round"/>
</svg>
