<svg width="79" height="94" viewBox="0 0 79 94" fill="none" xmlns="http://www.w3.org/2000/svg">
<g clip-path="url(#clip0_2012_7838)">
<rect y="0.5" width="79" height="73" rx="36.5" fill="#ECFEFF"/>
<path d="M42.5504 40.2915C42.4305 40.2781 42.3124 40.252 42.198 40.2139L41.2484 39.963C40.448 39.7569 39.3341 39.5001 38.0888 39.2911C36.8435 39.082 35.6998 38.9656 34.8815 38.8999L33.902 38.8282C33.7815 38.8257 33.6615 38.8117 33.5436 38.7864C33.6628 38.7648 33.7841 38.7578 33.905 38.7655C34.1379 38.7655 34.4724 38.7655 34.8875 38.7894C35.9694 38.8437 37.0472 38.9603 38.1157 39.1388C39.1794 39.3216 40.2314 39.567 41.2663 39.8734C41.6635 39.9899 41.986 40.0914 42.204 40.172C42.324 40.1972 42.4404 40.2373 42.5504 40.2915Z" fill="#FAFAFA"/>
<path d="M44.8052 40.0434C44.0872 40.1747 43.3541 40.2029 42.6282 40.127C42.9834 40.0377 43.3491 39.9975 43.7152 40.0076C44.0783 39.9664 44.4456 39.9784 44.8052 40.0434Z" fill="#FAFAFA"/>
<path d="M45.25 36.4153C45.25 36.4153 45.2112 36.4363 45.1365 36.4631C45.0618 36.49 44.9454 36.5348 44.7961 36.5736C44.3731 36.6891 43.9401 36.7641 43.503 36.7976C42.3951 36.9081 40.8571 36.7468 39.2116 36.3795C37.8219 36.0291 36.4143 35.754 34.9949 35.5553C34.5646 35.5063 34.132 35.4804 33.6989 35.4776C33.5388 35.4883 33.3782 35.4883 33.2181 35.4776C33.2574 35.4639 33.2988 35.4568 33.3405 35.4567C33.4211 35.4567 33.5406 35.4328 33.6959 35.4269C34.1331 35.4077 34.571 35.4177 35.0069 35.4567C36.4361 35.6237 37.8528 35.8851 39.2475 36.2392C40.637 36.5876 42.0681 36.7424 43.5 36.699C43.932 36.6761 44.3615 36.6182 44.7841 36.5258C44.9371 36.4798 45.0927 36.4429 45.25 36.4153Z" fill="#FAFAFA"/>
<path d="M44.644 27.7517L37.0438 27.3844L34.1829 27.8174L35.4043 32.3835L40.9679 36.7674C40.9679 36.7674 43.6287 36.8361 44.5933 35.1817C45.5578 33.5273 46.4955 27.8562 46.4955 27.8562L44.644 27.7517Z" fill="#FFBE9D"/>
<path d="M30.7517 19.8951C31.0503 19.5965 31.2115 19.1933 31.4803 18.8738C31.6574 18.6814 31.8707 18.526 32.1082 18.4165C32.3456 18.3071 32.6023 18.2457 32.8636 18.236C33.1249 18.2263 33.3855 18.2684 33.6304 18.3599C33.8753 18.4515 34.0996 18.5906 34.2904 18.7693L34.4189 19.3038C34.9101 20.1394 35.2257 21.0664 35.3464 22.0282C35.4671 22.9899 35.3903 23.9662 35.1206 24.8972C33.7781 24.4368 32.4622 23.9024 31.1787 23.2965C30.8575 23.1617 30.5562 22.9838 30.2828 22.768C29.575 22.1707 29.3869 21.1613 29.2167 20.2385C29.4794 20.3277 29.7616 20.3429 30.0324 20.2823C30.3031 20.2217 30.552 20.0878 30.7517 19.8951Z" fill="#263238"/>
<path d="M34.7381 18.0166C35.0517 17.9747 35.2936 18.2704 35.4668 18.5332L36.0043 21.1223C35.9167 21.2515 35.7858 21.3451 35.6351 21.3862C35.4845 21.4273 35.3242 21.4131 35.1831 21.3463C34.9019 21.2031 34.6792 20.9666 34.553 20.6774C34.248 20.0844 34.1323 19.412 34.2215 18.7512C34.2663 18.4317 34.4186 18.0733 34.7381 18.0166Z" fill="#0E7490"/>
<path d="M48.5711 10.2343C51.1065 9.81324 53.2596 13.3909 51.7874 16.8819C50.6795 19.5069 50.8646 22.2961 48.6159 24.0491C48.4784 24.1751 48.3108 24.2636 48.1291 24.3059C47.5946 24.3835 47.281 23.7325 47.1436 23.2099C46.1641 19.483 45.1786 15.7083 45.1279 11.8619L48.5711 10.2343Z" fill="#263238"/>
<path d="M39.1162 11.853L39.3223 10.6794L46.6119 10.7331C48.8218 10.9332 50.733 13.5672 50.4404 15.7681C50.1149 18.2139 49.7864 21.4809 49.1413 23.2339C47.8483 26.7398 44.8112 27.0146 44.8112 27.0146L44.4946 28.4122C44.4102 28.9551 44.2196 29.476 43.9337 29.9452C43.6478 30.4144 43.2723 30.8226 42.8285 31.1465C42.3847 31.4705 41.8815 31.7038 41.3475 31.8331C40.8135 31.9624 40.2593 31.9852 39.7165 31.9002C39.1617 31.8143 38.63 31.6176 38.1529 31.3218C37.6758 31.026 37.2632 30.6371 36.9396 30.1784C36.616 29.7197 36.3882 29.2005 36.2696 28.6518C36.151 28.1031 36.1441 27.5361 36.2494 26.9847L39.1162 11.853Z" fill="#FFBE9D"/>
<path d="M48.3559 18.3929C48.3334 18.5143 48.2641 18.6219 48.1631 18.6928C48.062 18.7637 47.9372 18.7922 47.8154 18.7722C47.7553 18.7652 47.6972 18.7463 47.6446 18.7165C47.5919 18.6868 47.5457 18.6468 47.5087 18.5989C47.4717 18.5511 47.4446 18.4963 47.4291 18.4379C47.4136 18.3794 47.4099 18.3184 47.4182 18.2585C47.4415 18.1375 47.5109 18.0303 47.6118 17.9596C47.7126 17.8888 47.8371 17.86 47.9588 17.8793C48.0189 17.8862 48.0769 17.9052 48.1296 17.9349C48.1823 17.9647 48.2285 18.0046 48.2655 18.0525C48.3025 18.1003 48.3295 18.1551 48.3451 18.2136C48.3606 18.272 48.3643 18.333 48.3559 18.3929Z" fill="#263238"/>
<path d="M49.3685 17.1562C49.2998 17.204 48.9982 16.8755 48.4995 16.7769C48.0008 16.6784 47.5827 16.8575 47.5409 16.7769C47.52 16.7471 47.6006 16.6485 47.7828 16.5649C48.0285 16.456 48.3021 16.4268 48.5652 16.4813C48.8255 16.533 49.0628 16.6657 49.2431 16.8605C49.3715 17.0128 49.4044 17.1323 49.3685 17.1562Z" fill="#263238"/>
<path d="M43.5481 17.5567C43.5248 17.6779 43.4556 17.7854 43.3548 17.8566C43.254 17.9279 43.1296 17.9574 43.0076 17.9389C42.9477 17.9316 42.8898 17.9124 42.8373 17.8825C42.7849 17.8527 42.7388 17.8127 42.7019 17.7649C42.665 17.7172 42.6379 17.6626 42.6222 17.6043C42.6065 17.546 42.6025 17.4851 42.6104 17.4253C42.633 17.3038 42.7021 17.1958 42.8031 17.1244C42.904 17.0531 43.0288 17.0239 43.1509 17.043C43.2109 17.0504 43.2687 17.0696 43.3212 17.0995C43.3737 17.1293 43.4197 17.1693 43.4567 17.2171C43.4936 17.2648 43.5207 17.3194 43.5364 17.3777C43.5521 17.436 43.5561 17.4968 43.5481 17.5567Z" fill="#263238"/>
<path d="M44.438 16.2813C44.3663 16.3291 44.0647 16.0006 43.566 15.9021C43.0673 15.8035 42.6492 15.9827 42.6074 15.9021C42.5656 15.8214 42.6671 15.7707 42.8493 15.687C43.0954 15.5796 43.3688 15.5514 43.6317 15.6064C43.8917 15.6571 44.129 15.7888 44.3096 15.9827C44.441 16.135 44.4708 16.2544 44.438 16.2813Z" fill="#263238"/>
<path d="M45.5161 20.3429C45.7963 20.3121 46.0792 20.3171 46.3582 20.3578C46.4866 20.3578 46.615 20.3578 46.6568 20.2832C46.6968 20.1548 46.6968 20.0173 46.6568 19.889C46.5971 19.5575 46.5374 19.2081 46.4717 18.8438C46.2208 17.3506 46.0685 16.1411 46.1282 16.1322C46.188 16.1232 46.4269 17.3267 46.6897 18.8199C46.7494 19.1872 46.8032 19.5366 46.8569 19.8711C46.908 20.0407 46.8963 20.223 46.8241 20.3847C46.7961 20.4256 46.7593 20.4597 46.7164 20.4845C46.6735 20.5093 46.6256 20.5242 46.5762 20.5281C46.5028 20.5377 46.4286 20.5377 46.3552 20.5281C46.069 20.5005 45.7873 20.4383 45.5161 20.3429Z" fill="#263238"/>
<path d="M44.8113 27.0083C44.8113 27.0083 41.8907 27.0441 39.7644 25.1149C39.7644 25.1149 40.7887 27.504 44.6023 27.931L44.8113 27.0083Z" fill="#EB996E"/>
<path d="M43.8135 20.9938C43.9724 20.9047 44.1476 20.8482 44.3286 20.8277C44.5096 20.8072 44.6929 20.823 44.8677 20.8743C44.9493 20.896 45.0262 20.9324 45.0947 20.9818C45.1763 21.0551 45.2331 21.152 45.2571 21.259C45.2812 21.366 45.2714 21.4779 45.2291 21.5791C45.1854 21.6788 45.1222 21.7687 45.0432 21.8436C44.9642 21.9185 44.8711 21.9768 44.7692 22.0151C44.5539 22.1098 44.311 22.1205 44.0883 22.045C43.9789 22.0062 43.881 21.9404 43.8037 21.8538C43.7265 21.7671 43.6723 21.6624 43.6463 21.5492C43.6213 21.4337 43.6343 21.3132 43.6833 21.2056C43.7322 21.098 43.8146 21.009 43.9181 20.952" fill="#EB996E"/>
<path d="M45.0024 22.3317C44.9188 22.3317 44.8919 21.7881 44.4051 21.4178C43.9184 21.0475 43.3271 21.1401 43.3211 21.0625C43.3211 21.0296 43.4465 20.949 43.6944 20.9311C44.015 20.9115 44.3322 21.0056 44.5903 21.1969C44.8406 21.3818 45.0088 21.6572 45.0591 21.9643C45.095 22.1943 45.0412 22.3317 45.0024 22.3317Z" fill="#263238"/>
<path d="M42.1862 14.7525C42.216 14.6092 42.7267 14.5973 43.309 14.4539C43.8913 14.3106 44.3453 14.0627 44.4408 14.1732C44.4856 14.227 44.4199 14.3703 44.2467 14.5316C44.0137 14.7324 43.7379 14.8774 43.4403 14.9556C43.1427 15.0337 42.8313 15.0429 42.5296 14.9825C42.2996 14.9108 42.1623 14.8212 42.1862 14.7525Z" fill="#263238"/>
<path d="M48.0632 15.0242C48.2095 14.9704 48.5231 15.2631 48.9591 15.49C49.3951 15.717 49.8102 15.8335 49.855 15.9858C49.855 16.0574 49.7564 16.1291 49.5414 16.147C49.2554 16.154 48.9728 16.0838 48.7232 15.9439C48.469 15.8137 48.2553 15.6164 48.105 15.3736C47.9945 15.1884 47.9975 15.054 48.0632 15.0242Z" fill="#263238"/>
<path d="M49.1177 10.2253C48.5801 11.5572 47.087 12.1813 45.7371 12.6711C44.2649 13.2086 42.6881 13.7521 41.1591 13.4087C41.0815 14.7167 40.9859 16.0964 40.2841 17.1983C39.8959 17.8165 39.1105 18.3481 38.9522 19.0618C38.6685 20.334 36.7782 23.5413 36.7841 24.1386C36.5213 23.4368 35.5896 21.9376 35.3149 20.7222C34.4608 16.8191 35.4911 12.9249 36.9275 10.7359C37.6502 9.63945 38.6446 8.74878 39.8137 8.15062C40.9828 7.55245 42.2869 7.26718 43.5989 7.32256C44.293 7.38265 44.9811 7.4985 45.6565 7.66898C46.4532 7.81177 47.2184 8.09381 47.9172 8.50216C48.265 8.70916 48.5579 8.99688 48.771 9.341C48.9841 9.68511 49.1112 10.0755 49.1416 10.4791" fill="#263238"/>
<path d="M35.0966 16.1167C35.0887 16.0562 35.0887 15.995 35.0966 15.9345C35.1071 15.7611 35.129 15.5885 35.1623 15.4179C35.2814 14.7864 35.4822 14.173 35.7595 13.5933C36.1578 12.7226 36.6853 11.9172 37.3244 11.2042C38.091 10.315 39.0472 9.60889 40.1226 9.13767C41.2154 8.70081 42.399 8.53979 43.5688 8.66882C44.5207 8.76722 45.4467 9.03844 46.3013 9.46915C46.8759 9.7574 47.4076 10.1243 47.881 10.5592C48.0104 10.6755 48.1331 10.7991 48.2484 10.9295C48.329 11.0161 48.3708 11.0639 48.3648 11.0698C48.3588 11.0758 48.1886 10.9056 47.8362 10.6069C47.3531 10.1951 46.8192 9.84687 46.2475 9.57069C45.4034 9.16129 44.4934 8.90449 43.5598 8.81216C42.4144 8.69542 41.2577 8.8573 40.1883 9.284C39.1335 9.74688 38.1935 10.4361 37.4349 11.3028C36.8027 12.0002 36.2737 12.7846 35.8641 13.6321C35.5831 14.2023 35.3706 14.8038 35.231 15.4239C35.1354 15.8688 35.1115 16.1197 35.0966 16.1167Z" fill="#455A64"/>
<path d="M35.0967 16.117C35.0967 16.0901 35.473 16.0812 36.0673 15.9856C37.6254 15.7346 39.0849 15.0612 40.287 14.0385C40.7469 13.6473 40.9977 13.3666 41.0186 13.3845C41.0395 13.4025 40.9708 13.4682 40.8604 13.5996C40.7056 13.7844 40.539 13.9589 40.3616 14.1222C39.1766 15.2113 37.68 15.9016 36.0822 16.0961C35.8425 16.1259 35.6011 16.1399 35.3595 16.1379C35.2714 16.1455 35.1826 16.1385 35.0967 16.117Z" fill="#455A64"/>
<path d="M52.1454 13.3847C51.9303 13.4231 51.7092 13.4098 51.5003 13.3459C50.9919 13.2129 50.5101 12.9937 50.0759 12.6979C49.6416 12.4151 49.2266 12.1039 48.8335 11.7661C48.6613 11.6378 48.5049 11.4895 48.3677 11.3242C48.5606 11.4187 48.7403 11.5382 48.9022 11.6795C49.2218 11.9125 49.6548 12.2439 50.1595 12.5754C50.5833 12.8573 51.0434 13.0804 51.5272 13.2384C51.9005 13.3519 52.1454 13.3578 52.1454 13.3847Z" fill="#455A64"/>
<path d="M30.3453 22.6751C30.4405 22.4444 30.5693 22.2291 30.7275 22.036C31.4344 21.0612 32.3534 20.2596 33.4152 19.6918C33.6263 19.5593 33.8557 19.4587 34.0961 19.3931C33.3758 19.8155 32.6898 20.2938 32.0445 20.8236C31.4309 21.3958 30.8628 22.0148 30.3453 22.6751Z" fill="#455A64"/>
<path d="M33.3497 24.0937C33.3564 22.9692 33.7677 21.8847 34.5084 21.0387C34.5472 21.0656 34.1142 21.6688 33.7977 22.5169C33.4811 23.365 33.3975 24.0967 33.3497 24.0937Z" fill="#455A64"/>
<path d="M28.9297 57.0719C28.9297 57.0719 26.8393 66.0309 26.8393 74.6733C26.8393 83.3157 27.1529 88.1625 27.1529 88.1625C27.1529 88.1625 25.1013 93.6932 25.1013 98.8028C25.1013 103.912 26.5437 116.094 26.5437 116.094H33.024C33.024 116.094 35.6908 99.3702 36.9331 96.0106C38.47 91.6125 39.6308 87.0919 40.4032 82.4975C40.7765 79.8964 44.0555 62.289 44.0555 62.289L43.5388 59.2848L28.9297 57.0719Z" fill="#FFBE9D"/>
<path d="M42.9569 59.1651C43.0763 59.7236 42.276 88.2669 43.3929 90.8679C44.5098 93.469 45.5132 94.9622 45.6983 97.3781C45.8835 99.7941 48.7534 115.371 49.0311 116.025H54.4901C54.4901 116.025 57.1091 105.05 56.8314 98.5458C56.5536 92.0416 55.4368 88.7895 55.4368 88.7895C55.4368 88.7895 54.9709 83.5873 55.8071 80.5203C56.6432 77.4534 58.9666 69.5575 58.5963 64.5405C58.226 59.5235 54.8783 55.8085 54.8783 55.8085L42.9569 59.1651Z" fill="#FFBE9D"/>
<path d="M58.5871 62.6142C58.2469 60.3475 57.7011 58.1165 56.9565 55.9487L27.5054 57.848L26.4781 70.955L42.1742 73.5442L42.5863 72.3825V73.7652L58.9394 70.5041C59.0651 67.8689 58.9472 65.2277 58.5871 62.6142Z" fill="#263238"/>
<path d="M32.5644 27.7938L34.183 27.8177C34.183 27.8177 37.7666 32.978 41.5711 32.978C45.3757 32.978 46.3433 27.8386 46.3433 27.8386L51.1662 28.4179C51.1662 28.4179 52.0621 34.1487 52.4205 36.8035C52.7788 39.4584 52.0621 45.1473 52.0621 45.1473C52.0621 45.1473 56.6133 48.8922 57.2075 56.6267C47.7498 62.7786 37.008 63.7223 27.1681 60.1476C27.1984 57.3964 27.4089 54.65 27.7982 51.9263C28.4194 47.9455 30.683 42.3163 30.683 42.3163L32.5644 27.7938Z" fill="#0E7490"/>
<g opacity="0.3">
<path d="M28.8642 51.1739H28.9329C28.906 51.1381 28.8762 51.1052 28.8493 51.0724L28.8642 51.1739Z" fill="black"/>
</g>
<g opacity="0.3">
<path d="M28.9331 51.1735C29.9962 52.4516 31.7104 53.0788 33.3768 53.0967C35.0879 53.1176 36.7573 52.5651 38.3131 51.8544C39.869 51.1436 41.3473 50.2656 42.9121 49.5758C38.2803 50.3582 33.6276 51.1466 28.9331 51.1735Z" fill="black"/>
</g>
<path d="M32.5641 27.7938C32.5641 27.7938 28.2638 27.1757 27.3709 30.6279C26.4392 34.2443 24.4413 46.9183 27.5083 50.1943C30.5752 53.4703 42.3473 50.3615 49.1054 47.2259L47.6421 43.6064L34.1827 42.5343C33.8721 42.3402 32.5641 27.7938 32.5641 27.7938Z" fill="#FFBE9D"/>
<path d="M55.0783 47.9783C55.2843 47.5154 54.687 46.6404 54.687 46.6404C54.8184 46.3418 54.2719 45.0845 54.2719 45.0845C54.2506 44.7423 54.1719 44.4061 54.039 44.0901C53.8658 43.8273 51.2916 42.7791 50.4972 42.7552C49.7029 42.7313 47.3735 43.4868 47.3735 43.4868L49.1056 47.2257C49.1056 47.2257 51.9127 48.1545 52.5638 48.3784C52.98 48.5036 53.4282 48.4663 53.818 48.2739L55.4784 49.1698C55.7352 48.8742 55.0783 47.9783 55.0783 47.9783Z" fill="#FFBE9D"/>
<path d="M47.5197 25.9122L46.9672 28.5999C46.8627 29.4958 43.9242 40.4676 45.268 42.7671C46.6119 45.0665 48.2991 45.6787 49.3981 45.5413C50.4971 45.404 53.1519 45.1233 54.5167 41.459C55.1139 39.8703 54.7138 32.3507 53.4416 30.3947C52.8537 29.5582 52.0904 28.8601 51.2048 28.3491C51.0747 27.5675 51.0107 26.7763 51.0137 25.9839L47.5197 25.9122Z" fill="#FFBE9D"/>
<path d="M51.6019 42.1011C51.6019 42.1011 51.7124 41.895 51.9006 41.5218C52.1601 40.9935 52.3681 40.4415 52.5217 39.8733C52.7487 39.0313 52.8731 38.165 52.892 37.2931C52.911 36.2242 52.8109 35.1564 52.5934 34.1097C52.3756 33.0614 52.0913 32.028 51.7423 31.0159C51.4623 30.1811 51.2545 29.3239 51.1211 28.4536C51.03 27.8675 50.9792 27.2758 50.9688 26.6827C50.9688 26.4737 50.9688 26.3094 50.9688 26.2019C50.9619 26.1454 50.9619 26.0882 50.9688 26.0317C50.9821 26.0864 50.9882 26.1426 50.9867 26.1989C50.9867 26.3094 50.9868 26.4737 51.0136 26.6797C51.0488 27.2682 51.1156 27.8544 51.2137 28.4357C51.363 29.2965 51.5797 30.1442 51.8617 30.9711C52.2226 31.9861 52.513 33.0248 52.7308 34.0798C52.9546 35.1367 53.0548 36.2161 53.0294 37.2961C53.0023 38.1792 52.8628 39.0553 52.6143 39.9032C52.4498 40.4751 52.2246 41.0277 51.9424 41.5516C51.8378 41.7338 51.7572 41.8741 51.6915 41.9637C51.6681 42.0134 51.638 42.0596 51.6019 42.1011Z" fill="#EB996E"/>
<path d="M32.1373 43.6057C32.3788 43.2285 32.733 42.937 33.1496 42.7725C33.544 42.5627 33.9934 42.4793 34.4367 42.5336C34.0208 42.6309 33.6125 42.7587 33.2153 42.9159C32.8386 43.1174 32.4781 43.348 32.1373 43.6057Z" fill="#EB996E"/>
<path d="M42.431 67.4016C42.5192 67.7021 42.5723 68.0117 42.5893 68.3244C42.6674 69.0734 42.7073 69.826 42.7088 70.5791C42.7088 71.46 42.6938 72.2574 42.667 72.8337C42.6676 73.146 42.6417 73.4577 42.5893 73.7655C42.554 73.4552 42.543 73.1427 42.5565 72.8307C42.5565 72.2096 42.5565 71.4361 42.5565 70.5791C42.5565 69.722 42.5206 68.9067 42.4848 68.3333C42.4488 68.0241 42.4308 67.713 42.431 67.4016Z" fill="#455A64"/>
<path d="M41.9293 67.0251C41.4801 66.6135 41.0064 66.2296 40.5108 65.8753C39.983 65.5677 39.4376 65.2915 38.8773 65.0481C40.1062 65.296 41.1944 66.0029 41.9203 67.0251H41.9293Z" fill="#455A64"/>
<path d="M46.4266 62.734C46.2211 62.9332 46.0037 63.1197 45.7756 63.2925C44.7187 64.1829 43.8025 65.228 43.058 66.3923C42.9172 66.6425 42.7596 66.883 42.5862 67.112C42.6806 66.8392 42.8069 66.5786 42.9625 66.3355C43.6651 65.1265 44.595 64.0647 45.7009 63.2088C45.9227 63.0218 46.1664 62.8623 46.4266 62.734Z" fill="#455A64"/>
<path d="M47.4988 26.0081C47.6062 25.6052 47.7755 25.2214 48.0005 24.8703C48.2991 24.4522 49.0039 23.186 49.0039 23.186L49.0457 22.6306C49.0457 22.6306 47.9766 20.4894 48.4484 19.704L48.7082 19.6233C48.7082 19.6233 48.2872 19.053 48.7082 18.605L49.0995 18.6259L50.7001 20.9761L49.7535 18.5423C49.7535 18.5423 49.7774 17.945 50.1925 17.8345L51.9066 20.5431C51.9066 20.5431 51.3093 19.3337 51.3571 19.05C51.4049 18.7663 51.387 18.4706 51.7274 18.2586L52.6442 19.922L52.7637 22.7202L50.9719 26.038" fill="#FFBE9D"/>
<path d="M50.9812 26.0315C50.9882 26.0107 50.9972 25.9907 51.008 25.9717C51.0289 25.9239 51.0588 25.8672 51.0917 25.7985L51.4351 25.1356L52.7341 22.6898V22.7166C52.6953 21.8924 52.6505 20.9517 52.6027 19.9184V19.9483L51.68 18.2849L51.7785 18.3118C51.6975 18.3576 51.6283 18.4217 51.5765 18.4989C51.5246 18.5762 51.4916 18.6645 51.4799 18.7568C51.465 18.8553 51.45 18.9568 51.4321 19.0554C51.4325 19.148 51.4486 19.2399 51.4799 19.3272C51.6168 19.7312 51.7835 20.1244 51.9786 20.5038L51.8472 20.5754L50.1301 17.8698L50.2137 17.9027C50.1102 17.932 50.0224 18.0006 49.9688 18.0938C49.8895 18.2294 49.8434 18.3819 49.8344 18.5388V18.5059L50.7781 20.9428L51.02 21.5669L50.6437 21.0114L49.058 18.6702L49.1117 18.7L48.7325 18.6702L48.7862 18.6493C48.7266 18.7095 48.6802 18.7815 48.6498 18.8607C48.6195 18.9399 48.6059 19.0245 48.61 19.1092C48.6253 19.278 48.6828 19.4403 48.7773 19.581L48.831 19.6586L48.7444 19.6855L48.4816 19.7632L48.5204 19.7363C48.4098 19.9802 48.3754 20.2519 48.4219 20.5157C48.4565 20.7737 48.5124 21.0284 48.5891 21.2772C48.7272 21.7317 48.8999 22.175 49.1058 22.6032C49.0908 22.8062 49.0759 22.9854 49.061 23.1586C48.8141 23.6046 48.5861 23.9968 48.3771 24.3352C48.177 24.6786 47.9471 24.9325 47.8336 25.1804C47.7407 25.3671 47.6599 25.5596 47.5917 25.7567C47.5696 25.8258 47.5437 25.8936 47.514 25.9598C47.5119 25.9419 47.5119 25.9239 47.514 25.906C47.514 25.8702 47.5349 25.8164 47.5559 25.7478C47.6146 25.5435 47.6885 25.3438 47.7768 25.1505C47.8903 24.8937 48.1113 24.6339 48.3024 24.2874C48.4936 23.941 48.7265 23.5528 48.9684 23.0929V23.1108L49.0072 22.5584V22.5852C48.793 22.1542 48.6132 21.7068 48.4697 21.2474C48.3883 20.9922 48.3293 20.7304 48.2935 20.4649C48.2393 20.1731 48.2768 19.8716 48.401 19.6019V19.581H48.4249L48.6877 19.5004L48.6548 19.6049C48.5422 19.4441 48.4733 19.2568 48.4547 19.0614C48.4494 18.9578 48.4655 18.8542 48.502 18.7571C48.5385 18.66 48.5946 18.5714 48.6668 18.497L48.6907 18.4731H48.7205L49.1147 18.494H49.1476L49.1685 18.5238L50.7721 20.8711L50.6407 20.9428L49.6911 18.5089V18.494C49.7 18.3094 49.7544 18.1299 49.8493 17.9714C49.9249 17.8445 50.0471 17.7523 50.1898 17.7145H50.2435L50.2734 17.7623L51.9846 20.4709L51.8562 20.5456C51.6579 20.1608 51.4892 19.7614 51.3515 19.351C51.3133 19.2418 51.2961 19.1263 51.3007 19.0106C51.3186 18.9091 51.3336 18.8045 51.3515 18.712C51.3661 18.6017 51.4053 18.496 51.4663 18.403C51.5273 18.3099 51.6085 18.2318 51.7039 18.1744L51.7696 18.1386L51.8024 18.2013C52.1219 18.7807 52.4265 19.3391 52.7162 19.8677C52.758 20.9009 52.7939 21.8446 52.8237 22.6659V22.6808L51.4859 25.1057L51.1215 25.8105L51.023 25.9777C50.9961 26.0135 50.9842 26.0344 50.9812 26.0315Z" fill="#EB996E"/>
<path d="M50.1389 23.1024C50.1389 23.1024 50.1598 23.0487 50.1747 22.9561C50.1927 22.8228 50.1877 22.6875 50.1598 22.5559L50.106 22.2782C50.106 22.2244 50.0851 22.1737 50.0732 22.1199C50.0627 22.0691 50.0456 22.02 50.0224 21.9736C49.9299 21.7705 49.8044 21.5465 49.67 21.3166C49.3189 20.7712 48.9998 20.2059 48.7144 19.6234C49.1315 20.1236 49.4968 20.6649 49.8044 21.239C49.9364 21.4581 50.0541 21.6855 50.1568 21.9198C50.181 21.9765 50.199 22.0355 50.2106 22.096L50.2345 22.2543C50.2494 22.3588 50.2613 22.4544 50.2703 22.5529C50.289 22.6972 50.2768 22.8438 50.2345 22.983C50.1956 23.0726 50.1449 23.1084 50.1389 23.1024Z" fill="#EB996E"/>
<path d="M51.2199 22.851C51.196 22.851 51.2408 22.7316 51.2558 22.5524C51.2694 22.3178 51.2306 22.0832 51.1423 21.8655C51.0486 21.6444 50.9347 21.4325 50.8018 21.2324C50.7033 21.0712 50.6436 20.9666 50.6615 20.9547C50.6794 20.9427 50.766 21.0204 50.8914 21.1667C51.0556 21.3588 51.1887 21.5754 51.2856 21.8088C51.387 22.0481 51.414 22.3124 51.3633 22.5673C51.3185 22.7674 51.2349 22.851 51.2199 22.851Z" fill="#EB996E"/>
<path d="M52.2054 22.3527C52.1225 22.0595 52.0646 21.7598 52.0322 21.4568C51.9519 21.1633 51.896 20.8636 51.865 20.5609C52.1739 21.104 52.2936 21.7342 52.2054 22.3527Z" fill="#EB996E"/>
<path d="M53.7732 42.6625C53.7732 42.6625 53.7732 42.6983 53.7344 42.761C53.6898 42.8525 53.64 42.9412 53.5851 43.0268C53.386 43.344 53.1516 43.6376 52.8863 43.9018C52.4973 44.2994 52.0551 44.6411 51.5723 44.9172C50.9806 45.2649 50.326 45.4923 49.6461 45.5861C48.9557 45.6438 48.2632 45.5018 47.6512 45.177C47.153 44.9253 46.6974 44.5968 46.3014 44.2034C46.032 43.9438 45.7944 43.6531 45.5936 43.3374C45.519 43.2299 45.4772 43.1343 45.4413 43.0746C45.4234 43.0436 45.4093 43.0105 45.3995 42.976C45.6896 43.3889 46.0175 43.7738 46.3791 44.1258C46.7754 44.4984 47.2253 44.8095 47.7139 45.0486C48.3035 45.3531 48.9669 45.4855 49.6282 45.4308C50.2879 45.3414 50.9239 45.1243 51.5006 44.7917C51.9776 44.5273 52.4183 44.2021 52.8116 43.8242C53.1667 43.4669 53.4886 43.0781 53.7732 42.6625Z" fill="#EB996E"/>
<path d="M41.6546 43.0509C41.6307 43.033 41.8278 42.7523 42.0518 42.2625C42.1805 41.9729 42.2853 41.6733 42.3654 41.3667C42.5591 40.614 42.6007 39.8302 42.4878 39.0612C42.4425 38.7481 42.3706 38.4393 42.2728 38.1384C42.1056 37.6218 41.9383 37.3262 41.9742 37.3112C42.01 37.2963 42.0309 37.3769 42.1085 37.5083C42.2187 37.6987 42.3117 37.8986 42.3863 38.1056C42.5007 38.4093 42.5857 38.7233 42.6401 39.0433C42.7029 39.4382 42.7249 39.8384 42.7058 40.2378C42.682 40.6347 42.6169 41.028 42.5117 41.4114C42.4219 41.7202 42.304 42.0201 42.1593 42.3073C42.0627 42.5033 41.9488 42.6902 41.8189 42.8658C41.7203 42.9912 41.6636 43.0569 41.6546 43.0509Z" fill="#263238"/>
<path d="M51.0317 49.7281C50.8766 49.7085 50.7236 49.6745 50.5748 49.6266C50.4314 49.5878 50.2552 49.543 50.0462 49.5042C49.8372 49.4653 49.6042 49.4026 49.3384 49.3638C48.7231 49.2579 48.1017 49.1911 47.478 49.1637C46.7146 49.1335 45.9502 49.1585 45.1904 49.2384C44.4306 49.3281 43.6782 49.4718 42.9387 49.6684C42.3375 49.8302 41.747 50.0297 41.1708 50.2657C40.92 50.3582 40.705 50.4687 40.5109 50.5643C40.3168 50.6599 40.1525 50.7345 40.0211 50.8032C39.8868 50.8819 39.7459 50.9488 39.6 51.0033C39.7238 50.9074 39.8557 50.8224 39.9942 50.7494C40.1489 50.6537 40.3084 50.566 40.472 50.4867C40.6632 50.3911 40.8782 50.2746 41.126 50.188C41.7072 49.9307 42.306 49.7152 42.9178 49.543C43.662 49.3365 44.4207 49.1867 45.1874 49.095C45.9551 49.0144 46.7279 48.9934 47.4989 49.0323C48.1289 49.0654 48.7557 49.1442 49.3743 49.2682C49.6401 49.313 49.873 49.3787 50.082 49.4295C50.2911 49.4803 50.4643 49.534 50.6076 49.5818C50.7526 49.6193 50.8944 49.6683 51.0317 49.7281Z" fill="#263238"/>
<g opacity="0.3">
<path d="M43.56 40.1903C43.3349 39.1823 42.8225 38.2612 42.0847 37.5385V37.5623C42.5337 38.4417 42.7267 39.4294 42.6417 40.413C42.5567 41.3966 42.1971 42.3366 41.6039 43.1259C42.1654 43.1259 42.7985 43.2125 43.3599 43.2214C43.7178 42.2516 43.7873 41.1988 43.56 40.1903Z" fill="black"/>
</g>
<path d="M24.4728 23.5273C25.8685 17.4672 22.0873 11.423 16.0272 10.0273C9.96712 8.63152 3.92296 12.4127 2.52722 18.4728C1.13147 24.5329 4.91268 30.5771 10.9728 31.9728C17.0329 33.3686 23.077 29.5874 24.4728 23.5273Z" fill="white"/>
<path d="M24.7628 21.0036C24.7628 21.0036 24.7628 20.9418 24.7484 20.8222C24.7339 20.7026 24.7298 20.5191 24.7154 20.2862C24.7154 20.1687 24.7009 20.0368 24.6927 19.8924C24.6844 19.7481 24.6473 19.5915 24.6226 19.4224L24.536 18.8741C24.5234 18.7727 24.502 18.6727 24.4721 18.5751C24.4453 18.4721 24.4185 18.369 24.3896 18.2597C24.1311 17.2058 23.7141 16.1972 23.1527 15.2684C22.4098 14.0328 21.4363 12.9515 20.2851 12.0834C20.1243 11.9659 19.9635 11.8443 19.8007 11.7226C19.6378 11.601 19.4502 11.5165 19.2729 11.399L19.0029 11.2361C18.9141 11.1777 18.8211 11.126 18.7246 11.0815L18.1432 10.8032C18.0443 10.7558 17.9474 10.7063 17.8464 10.663L17.5351 10.5496L16.9042 10.3187C16.6981 10.2486 16.4651 10.2012 16.2446 10.1414C16.0218 10.0763 15.7953 10.0247 15.5663 9.98682C15.0977 9.9009 14.6239 9.84649 14.148 9.82395C13.9068 9.82395 13.6615 9.79097 13.4161 9.79509L12.674 9.8322C12.5503 9.8322 12.4246 9.8322 12.3009 9.85694L11.9257 9.91466C11.6762 9.95589 11.4226 9.98476 11.1732 10.0363C10.6653 10.1501 10.1654 10.2967 9.67654 10.4754L9.30546 10.6115C9.24362 10.6362 9.17971 10.6568 9.11993 10.6815L8.94057 10.7681L8.21492 11.1186C7.97784 11.2464 7.75107 11.3948 7.51812 11.5309C7.40268 11.6031 7.28105 11.667 7.17179 11.7494L6.84194 11.9968C6.39396 12.3276 5.96899 12.6886 5.56998 13.077L4.99894 13.6955L4.85669 13.8542L4.72682 14.0233L4.47119 14.3676L4.2135 14.7118L3.9991 15.0932L3.77233 15.4643L3.65895 15.6498C3.62596 15.7137 3.59504 15.7818 3.56412 15.8457C3.43837 16.1095 3.31055 16.3714 3.18273 16.6373L2.87969 17.4619C2.10866 19.7566 2.10866 22.2403 2.87969 24.535C2.98277 24.8112 3.08584 25.0896 3.18479 25.3596C3.28375 25.6297 3.43836 25.8894 3.56618 26.1512L3.661 26.3471L3.77439 26.5326L3.9991 26.9037L4.22587 27.2727L4.48356 27.619L4.73918 27.9613L4.86906 28.1324L5.01131 28.289L5.58235 28.9075C5.98118 29.2954 6.40542 29.6563 6.85225 29.9877L7.18209 30.2351C7.29135 30.3176 7.41505 30.3794 7.53049 30.4536C7.76344 30.5938 7.99021 30.7423 8.22729 30.8659L8.95294 31.2164L9.13229 31.303C9.19208 31.3277 9.25599 31.3483 9.31783 31.3731L9.68891 31.5091C10.1778 31.6875 10.6778 31.8342 11.1856 31.9482C11.435 31.9998 11.6886 32.0286 11.9401 32.0699L12.3132 32.1276C12.4369 32.1441 12.5627 32.142 12.6884 32.1503L13.4306 32.1894C13.6759 32.1894 13.9192 32.1688 14.1604 32.1606C14.6364 32.1385 15.1103 32.0834 15.5787 31.9957L15.7519 31.9709C15.8096 31.9586 15.8652 31.9421 15.9209 31.9276L16.2569 31.8431C16.4796 31.7813 16.7043 31.7359 16.9187 31.6658L17.5495 31.4349L17.8608 31.3215L18.1556 31.1814L18.739 30.901C18.8354 30.8571 18.9284 30.8061 19.0173 30.7484L19.2853 30.5856C19.4626 30.4763 19.642 30.3794 19.8131 30.2619L20.2975 29.8991C21.4444 29.0306 22.4131 27.9492 23.1507 26.714C23.7113 25.7857 24.1283 24.7779 24.3876 23.7248C24.4144 23.6156 24.4432 23.5187 24.468 23.4094C24.4979 23.3118 24.5193 23.2118 24.5319 23.1105L24.6185 22.5621C24.6432 22.391 24.6741 22.2364 24.6886 22.0921C24.703 21.9478 24.7051 21.8158 24.7112 21.6983C24.7257 21.4654 24.736 21.286 24.7442 21.1623C24.7525 21.0387 24.7587 20.9809 24.7587 20.9809C24.7587 20.9809 24.7587 21.0428 24.7587 21.1623C24.7587 21.2819 24.7463 21.4654 24.738 21.6983C24.738 21.8179 24.7257 21.9478 24.7195 22.0942C24.7133 22.2405 24.6783 22.3951 24.6556 22.5662C24.6329 22.7374 24.602 22.9208 24.5731 23.1167C24.5612 23.2186 24.5406 23.3193 24.5113 23.4177C24.4845 23.5207 24.4597 23.6238 24.4309 23.7351C24.1743 24.7956 23.7572 25.8106 23.194 26.745C22.457 27.9906 21.4869 29.0825 20.3367 29.9609L19.8481 30.3258C19.677 30.4392 19.4976 30.5423 19.3183 30.6536L19.0482 30.8433C18.9585 30.9012 18.8648 30.9529 18.7679 30.9979L18.1824 31.2803L17.8835 31.4226L17.5722 31.538L16.9352 31.773C16.729 31.8431 16.494 31.8905 16.2714 31.9524L15.9312 32.039L15.7622 32.0822L15.5869 32.109C15.1152 32.198 14.6378 32.2545 14.1583 32.2781C13.913 32.2781 13.6677 32.3111 13.4203 32.307L12.6719 32.2698C12.5462 32.2698 12.4204 32.2698 12.2947 32.2472L11.9174 32.1894C11.6659 32.1482 11.4103 32.1194 11.1567 32.0658C10.6446 31.9527 10.1405 31.806 9.64768 31.6266L9.27248 31.4885C9.21063 31.4659 9.14673 31.4452 9.08488 31.4184L8.90347 31.3319L8.17162 30.9793C7.93249 30.8515 7.70366 30.701 7.46658 30.567C7.35114 30.4928 7.22745 30.4289 7.11612 30.3464L6.78422 30.097C6.33211 29.7627 5.90303 29.3984 5.49989 29.0064C5.30817 28.8003 5.11644 28.5941 4.92472 28.3736L4.77835 28.2148L4.64848 28.0437L4.39079 27.6974L4.1331 27.3387L3.90633 26.9655L3.6775 26.5924L3.56412 26.4048L3.46723 26.1987C3.33941 25.9327 3.21159 25.6668 3.08172 25.4008C2.95184 25.1349 2.87557 24.8422 2.77455 24.5618C1.99523 22.2459 1.99523 19.7386 2.77455 17.4227C2.87763 17.1424 2.9807 16.862 3.08172 16.5837L3.46516 15.7879C3.49815 15.722 3.52907 15.6539 3.56205 15.5818L3.6775 15.3921L3.90427 15.019L4.1331 14.6459L4.39285 14.2995L4.6526 13.9532L4.78247 13.78L4.92678 13.6213L5.50195 12.9884C5.90565 12.5977 6.33468 12.2341 6.78628 11.8999L7.12025 11.6505C7.22951 11.568 7.3532 11.5041 7.46864 11.4299C7.70572 11.2897 7.93455 11.1392 8.17369 11.0176L8.90553 10.6671L9.08694 10.5805C9.14879 10.5537 9.21269 10.5331 9.27454 10.5084L9.64974 10.3723C10.1428 10.1932 10.6469 10.0459 11.1588 9.93115C11.4123 9.87962 11.668 9.85076 11.9195 9.80953L12.2967 9.7518C12.4225 9.73531 12.5482 9.73737 12.674 9.72913L13.4223 9.69202C13.6697 9.69202 13.915 9.71263 14.1583 9.72088C14.6385 9.74432 15.1165 9.80081 15.589 9.88992C15.8194 9.92825 16.0473 9.98057 16.2714 10.0466C16.4961 10.1084 16.7208 10.1538 16.9372 10.226L17.5722 10.4589L17.8855 10.5743C17.9865 10.6197 18.0917 10.6692 18.1845 10.7166L18.7699 11.0011C18.8664 11.0456 18.9594 11.0973 19.0482 11.1557L19.3204 11.3206C19.4976 11.4319 19.6791 11.5268 19.8502 11.6484L20.3367 12.0133C21.4885 12.8907 22.4594 13.9828 23.196 15.2293C23.7596 16.1635 24.1768 17.1785 24.4329 18.2391C24.4597 18.3484 24.4865 18.4453 24.5133 18.5566C24.5426 18.6549 24.5633 18.7556 24.5752 18.8576C24.604 19.0637 24.6308 19.2369 24.6576 19.408C24.6844 19.5791 24.7092 19.7358 24.7215 19.8801C24.7339 20.0244 24.7339 20.1563 24.7401 20.2759C24.7401 20.5088 24.7566 20.6882 24.7607 20.8098C24.7648 20.9315 24.7628 21.0036 24.7628 21.0036Z" fill="#263238"/>
<path d="M6.41697 21.2013L4.65849 21.9166C4.65849 21.9166 5.02132 22.601 4.5719 22.7722C4.12249 22.9433 4.06477 22.0609 4.06477 22.0609C4.06477 22.0609 3.31437 21.4033 3.90397 21.2219C4.49357 21.0405 4.48944 21.5023 4.48944 21.5023L6.37986 20.6364L6.41697 21.2013Z" fill="#FAFAFA"/>
<path d="M6.41721 21.2016C6.40475 21.1516 6.39716 21.1005 6.39453 21.049C6.38422 20.9398 6.36979 20.8037 6.3533 20.6367L6.39041 20.6594C5.9781 20.8655 5.31223 21.1748 4.5103 21.5459L4.44226 21.5788V21.5005C4.44224 21.4492 4.42771 21.3989 4.40036 21.3555C4.373 21.3121 4.33393 21.2773 4.28765 21.2552C4.176 21.2227 4.05697 21.2263 3.9475 21.2655C3.82999 21.2964 3.72279 21.3603 3.74135 21.4716C3.7639 21.5946 3.8203 21.7088 3.90421 21.8015C3.96695 21.8797 4.03589 21.9528 4.11036 22.02L4.12685 22.0344V22.0571C4.13798 22.2292 4.17914 22.3981 4.24848 22.556C4.27682 22.6261 4.32756 22.6848 4.39279 22.723C4.42567 22.7378 4.46171 22.7442 4.49768 22.7417C4.53365 22.7392 4.56844 22.7278 4.59894 22.7086C4.66194 22.6746 4.71202 22.6209 4.74146 22.5557C4.77089 22.4905 4.77804 22.4175 4.7618 22.3478C4.74269 22.2041 4.69947 22.0647 4.63398 21.9355L4.61337 21.8901L4.65666 21.8716L5.93275 21.3768L6.29558 21.2407C6.34024 21.2222 6.38646 21.2077 6.4337 21.1975C6.39742 21.2214 6.35873 21.2414 6.31825 21.2572L5.96985 21.4098C5.66681 21.5438 5.2277 21.7314 4.69171 21.954L4.71439 21.8922C4.78714 22.0306 4.83527 22.1805 4.85663 22.3354C4.8657 22.4241 4.85442 22.5136 4.82365 22.5972C4.80814 22.6426 4.78349 22.6843 4.75122 22.7198C4.71895 22.7552 4.67975 22.7837 4.63605 22.8034C4.59256 22.8285 4.54382 22.843 4.4937 22.8459C4.44358 22.8487 4.39349 22.8398 4.34743 22.8199C4.26186 22.7744 4.19373 22.7019 4.15365 22.6137C4.07801 22.4428 4.03267 22.26 4.01965 22.0736L4.03821 22.1107C3.95964 22.0386 3.8866 21.9608 3.81968 21.8778C3.72035 21.7687 3.65638 21.6322 3.63621 21.4861C3.63483 21.4469 3.64248 21.4079 3.65856 21.3722C3.67465 21.3364 3.69874 21.3049 3.72898 21.2799C3.78982 21.233 3.86018 21.1999 3.93513 21.183C4.06884 21.1378 4.21372 21.1378 4.34743 21.183C4.41102 21.2143 4.46427 21.2631 4.50083 21.3238C4.53738 21.3845 4.5557 21.4544 4.55359 21.5252L4.4835 21.4778C5.28955 21.115 5.96161 20.8161 6.38422 20.6326L6.41927 20.6182V20.6553C6.41927 20.8271 6.42339 20.9693 6.43163 21.082C6.43064 21.1222 6.42581 21.1623 6.41721 21.2016Z" fill="#263238"/>
<path d="M6.12221 21.0425C5.08114 18.6326 10.8184 15.3919 10.8184 15.3919L14.4817 21.9166C14.4817 21.9166 7.2746 23.7122 6.12221 21.0425Z" fill="#7C4236"/>
<path d="M14.4818 21.9167C16.2403 21.4755 14.4303 14.5921 11.3339 15.1652C8.23745 15.7383 10.4577 22.9206 14.4818 21.9167Z" fill="#FF9A6C"/>
<path d="M14.422 21.5991C16.0383 21.1971 14.3746 14.8785 11.5359 15.4145C8.69717 15.9505 10.7298 22.5226 14.422 21.5991Z" fill="#FF725E"/>
<path d="M12.5066 18.6533C12.284 18.1771 12.2695 17.7132 12.4736 17.6225C12.6777 17.5318 13.022 17.8287 13.2446 18.3152C13.4673 18.8017 13.4817 19.2573 13.2776 19.346C13.0735 19.4346 12.7292 19.1316 12.5066 18.6533Z" fill="#E0E0E0"/>
<path d="M11.7647 25.0542C11.7647 25.0542 10.0433 25.7964 10.5505 27.4188C11.0576 29.0412 12.612 29.3793 15.0858 29.0412C17.5596 28.7031 19.0666 27.3137 19.6212 26.3757C20.1757 25.4377 19.9386 23.6957 18.7595 22.902C17.8483 22.2835 16.3681 22.1949 15.5785 22.6381C14.789 23.0814 13.1212 24.1987 12.8429 24.4028C12.5646 24.6069 11.7647 25.0542 11.7647 25.0542Z" fill="#FF725E"/>
<g opacity="0.3">
<path d="M11.7647 25.0542C11.7647 25.0542 10.0433 25.7964 10.5505 27.4188C11.0576 29.0412 12.612 29.3793 15.0858 29.0412C17.5596 28.7031 19.0666 27.3137 19.6212 26.3757C20.1757 25.4377 19.9386 23.6957 18.7595 22.902C17.8483 22.2835 16.3681 22.1949 15.5785 22.6381C14.789 23.0814 13.1212 24.1987 12.8429 24.4028C12.5646 24.6069 11.7647 25.0542 11.7647 25.0542Z" fill="black"/>
</g>
<path d="M11.742 24.5804C11.742 24.5804 10.0206 25.3226 10.5278 26.945C11.0349 28.5674 12.5996 28.9055 15.0631 28.5674C17.5266 28.2293 19.0439 26.8378 19.5985 25.8998C20.153 24.9618 19.9159 23.2198 18.7367 22.4261C17.8255 21.8077 16.3454 21.7211 15.5558 22.1643C14.7662 22.6075 13.0985 23.7249 12.8202 23.929C12.5419 24.1331 11.742 24.5804 11.742 24.5804Z" fill="#FF725E"/>
<g opacity="0.8">
<path d="M11.742 24.5804C11.742 24.5804 10.0206 25.3226 10.5278 26.945C11.0349 28.5674 12.5996 28.9055 15.0631 28.5674C17.5266 28.2293 19.0439 26.8378 19.5985 25.8998C20.153 24.9618 19.9159 23.2198 18.7367 22.4261C17.8255 21.8077 16.3454 21.7211 15.5558 22.1643C14.7662 22.6075 13.0985 23.7249 12.8202 23.929C12.5419 24.1331 11.742 24.5804 11.742 24.5804Z" fill="white"/>
</g>
<path d="M12.4511 25.4132C12.4511 25.4132 11.2286 24.9535 10.9194 25.7328C10.6101 26.512 10.942 27.382 12.0223 27.9015C13.1025 28.421 15.8918 28.0644 16.1453 27.9427C16.3989 27.8211 16.6298 27.7758 16.3061 27.483C15.9825 27.1903 13.1499 25.4607 12.4511 25.4132Z" fill="#FF725E"/>
<path d="M13.5169 24.6811C13.5857 24.7161 13.6418 24.7716 13.6777 24.8398C13.6916 24.8881 13.6921 24.9392 13.6795 24.9878C13.6668 25.0364 13.6412 25.0807 13.6056 25.1161C13.5505 25.1744 13.4835 25.22 13.4091 25.2499C13.3348 25.2798 13.2548 25.2932 13.1747 25.2892C13.0939 25.2837 13.0152 25.2607 12.944 25.2219C12.8729 25.1831 12.8109 25.1295 12.7624 25.0645C12.7191 25.0061 12.6911 24.9378 12.681 24.8657C12.6709 24.7937 12.6791 24.7203 12.7047 24.6522C12.7374 24.5846 12.7944 24.5318 12.8643 24.5043C12.9342 24.4768 13.0119 24.4766 13.0819 24.5038L13.5169 24.6811Z" fill="#FF725E"/>
<path d="M13.9746 25.6398C14.7704 26.1778 15.5187 26.5654 16.3145 27.1076C16.5343 27.2864 16.7937 27.4101 17.0711 27.4683C17.3758 27.4918 17.6782 27.3998 17.9183 27.2106C18.1506 27.023 18.3584 26.8069 18.5368 26.5674C18.6166 26.4937 18.68 26.404 18.7229 26.3042C18.7659 26.2045 18.7875 26.0968 18.7862 25.9882C18.7512 25.7634 18.5327 25.6191 18.3327 25.5078C17.7434 25.1531 17.105 24.887 16.4382 24.7183C15.7668 24.5509 15.0584 24.6178 14.4302 24.9079C14.1808 25.0357 13.9396 25.1574 13.8633 25.4212C13.8534 25.4649 13.8591 25.5107 13.8795 25.5506C13.8998 25.5905 13.9335 25.6221 13.9746 25.6398Z" fill="#FF725E"/>
<path d="M19.4932 24.4192C19.2962 23.6597 18.8415 22.9922 18.2068 22.5309C17.9767 22.3501 17.7098 22.222 17.4248 22.1558C17.1398 22.0895 16.8438 22.0867 16.5576 22.1474C15.5412 22.3701 14.8733 22.9535 14.0198 23.5431C13.8826 23.6212 13.7693 23.7352 13.692 23.8729C13.6473 24.0002 13.6508 24.1395 13.7016 24.2644C13.7525 24.3893 13.8474 24.4913 13.9683 24.5512C14.2135 24.6618 14.4918 24.6736 14.7455 24.5842C15.1326 24.4587 15.4887 24.2529 15.7907 23.9801C15.9686 23.8023 16.1722 23.6522 16.3947 23.5348C16.5069 23.4781 16.6333 23.4554 16.7582 23.4697C16.8832 23.484 17.0012 23.5346 17.0977 23.6152C17.3038 23.8214 17.2729 24.1595 17.3554 24.4399C17.4361 24.7013 17.6061 24.926 17.8357 25.0748C18.0643 25.223 18.3213 25.322 18.5902 25.3655C18.8871 25.4191 19.2396 25.4046 19.4148 25.1799C19.4857 25.0678 19.5297 24.9408 19.5432 24.8088C19.5568 24.6768 19.5397 24.5435 19.4932 24.4192Z" fill="#FF725E"/>
<path d="M17.0793 24.1125C17.0704 24.0359 17.0488 23.9613 17.0154 23.8919C16.9785 23.822 16.9155 23.7694 16.8402 23.7455H16.867C16.7212 23.7053 16.5672 23.7059 16.4217 23.7474C16.2763 23.7888 16.1451 23.8695 16.0424 23.9805C16.0131 24.0056 15.9904 24.0376 15.9764 24.0735C15.9624 24.1095 15.9574 24.1483 15.962 24.1867C15.9734 24.2205 15.9918 24.2515 16.0159 24.2778C16.0401 24.3041 16.0694 24.325 16.1022 24.3392C16.2913 24.4484 16.5028 24.5133 16.7206 24.5289C16.815 24.5449 16.9119 24.5235 16.9907 24.4691C17.0338 24.4216 17.0645 24.3642 17.08 24.3019C17.0954 24.2397 17.0952 24.1746 17.0793 24.1125Z" fill="#FF725E"/>
<path d="M16.537 17.4435C16.4545 17.7598 16.4638 18.093 16.5638 18.4042C16.5679 18.4345 16.5787 18.4636 16.5955 18.4893C16.6122 18.515 16.6345 18.5366 16.6607 18.5526C16.6928 18.5626 16.7266 18.5658 16.76 18.5619C16.7934 18.558 16.8256 18.5471 16.8545 18.5299C16.9761 18.4784 17.0957 18.4206 17.2132 18.3609L16.537 17.4435Z" fill="#263238"/>
<path d="M19.4088 16.7339C19.4454 16.7132 19.4726 16.6793 19.485 16.6391C19.4954 16.5875 19.4541 16.5422 19.4191 16.5051C18.9191 15.99 18.3136 15.5891 17.6441 15.33L18.949 17.072L19.4088 16.7339Z" fill="#263238"/>
<path d="M21.8702 22.0195C21.6681 21.6683 21.4207 21.3453 21.1342 21.0588C20.9394 20.8706 20.7178 20.7122 20.4766 20.5888C20.2354 20.4445 20.0952 20.6445 20.1076 20.8795C20.132 21.1556 20.215 21.4233 20.3508 21.6649C20.4345 21.8431 20.5383 22.0112 20.6601 22.1659C20.7511 22.2973 20.8532 22.4208 20.9652 22.5349C20.9301 22.4091 20.8105 22.2834 20.7817 22.1556C20.8477 22.2236 20.9487 22.403 21.0373 22.4153C20.959 22.2834 20.8662 22.1576 20.7899 22.0236C20.8765 22.0793 20.9652 22.2298 21.0703 22.2422C20.9961 22.1143 20.9033 21.9927 20.8209 21.869C20.8827 21.9329 20.9796 22.0546 21.0724 22.0628C20.9981 21.9371 20.9116 21.8175 20.8394 21.6897C20.9157 21.7412 21.0023 21.8628 21.1095 21.8731C21.0662 21.801 21.0146 21.7309 20.9672 21.667C21.093 21.7742 21.1919 21.9185 21.3177 22.0236C21.2734 21.9125 21.2122 21.8089 21.1363 21.7165C21.2455 21.8237 21.3569 21.9329 21.4661 22.036C21.4309 21.9424 21.3838 21.8537 21.3259 21.7721C21.4213 21.8852 21.5308 21.9857 21.6516 22.071C21.6055 21.974 21.545 21.8843 21.4723 21.8051C21.5606 21.8824 21.6559 21.9514 21.7568 22.0113C21.6965 21.895 21.6087 21.7953 21.5012 21.7206L21.8702 22.0195Z" fill="#263238"/>
<path d="M20.5817 20.6384C20.5721 20.5342 20.5427 20.4327 20.4952 20.3395C20.2663 19.8777 19.518 17.8657 18.5017 16.4123C17.3348 14.7342 15.9248 13.689 15.5392 13.788C15.3558 13.8354 15.1785 15.8495 16.9225 18.0079C18.6666 20.1663 19.8375 20.9126 20.1364 21.0157C20.3921 21.1064 20.6085 20.9868 20.5817 20.6384Z" fill="#E0E0E0"/>
<path d="M16.3679 14.8706C16.3176 14.9046 16.2583 14.9229 16.1976 14.9232C16.1368 14.9235 16.0774 14.9058 16.0267 14.8723C15.976 14.8388 15.9364 14.7911 15.9129 14.7351C15.8893 14.6791 15.8829 14.6174 15.8944 14.5577C15.906 14.4981 15.9349 14.4432 15.9776 14.4C16.0203 14.3568 16.0749 14.3273 16.1344 14.3151C16.1939 14.3029 16.2557 14.3086 16.3119 14.3315C16.3682 14.3545 16.4163 14.3935 16.4504 14.4438C16.473 14.4773 16.4888 14.5148 16.4969 14.5544C16.505 14.5939 16.5053 14.6347 16.4976 14.6743C16.49 14.7139 16.4746 14.7516 16.4523 14.7853C16.4301 14.819 16.4014 14.848 16.3679 14.8706Z" fill="white"/>
<path d="M16.3166 14.7878C16.2709 14.8187 16.2149 14.8302 16.1607 14.8198C16.1066 14.8093 16.0588 14.7778 16.028 14.7321C15.9971 14.6865 15.9856 14.6304 15.996 14.5763C16.0064 14.5222 16.038 14.4744 16.0836 14.4435C16.1061 14.428 16.1315 14.4171 16.1583 14.4115C16.1851 14.4059 16.2127 14.4057 16.2396 14.4109C16.2664 14.4161 16.292 14.4266 16.3148 14.4417C16.3376 14.4569 16.3571 14.4764 16.3722 14.4992C16.3877 14.5217 16.3986 14.5471 16.4042 14.5739C16.4098 14.6007 16.41 14.6283 16.4049 14.6552C16.3997 14.682 16.3892 14.7076 16.3741 14.7304C16.3589 14.7531 16.3394 14.7727 16.3166 14.7878Z" fill="#263238"/>
<path d="M16.3414 14.6929C16.3363 14.6962 16.3306 14.6986 16.3245 14.6997C16.3185 14.7008 16.3123 14.7006 16.3064 14.6993C16.3004 14.6979 16.2948 14.6954 16.2898 14.6918C16.2848 14.6882 16.2806 14.6837 16.2775 14.6784C16.2737 14.6734 16.271 14.6676 16.2695 14.6615C16.2681 14.6553 16.2679 14.6489 16.2691 14.6427C16.2703 14.6365 16.2727 14.6306 16.2763 14.6254C16.2799 14.6202 16.2845 14.6158 16.2899 14.6125C16.2951 14.6091 16.301 14.6068 16.3072 14.6057C16.3134 14.6046 16.3197 14.6047 16.3258 14.606C16.332 14.6074 16.3378 14.6099 16.3429 14.6135C16.3481 14.6171 16.3524 14.6216 16.3558 14.6269C16.3592 14.6322 16.3615 14.6381 16.3626 14.6442C16.3637 14.6504 16.3636 14.6567 16.3623 14.6629C16.3609 14.669 16.3584 14.6748 16.3548 14.6799C16.3512 14.6851 16.3467 14.6895 16.3414 14.6929Z" fill="white"/>
<path d="M15.8485 15.9999C16.1124 15.8818 16.357 15.7247 16.5742 15.534C16.7782 15.3278 16.9511 15.0931 17.0875 14.8372C17.0696 14.9223 17.0376 15.0038 16.9927 15.0784C16.8961 15.2679 16.7686 15.44 16.6154 15.5876C16.4622 15.7319 16.2859 15.8497 16.0938 15.936C16.0165 15.9715 15.9334 15.9932 15.8485 15.9999Z" fill="#263238"/>
<path d="M16.4072 16.3918C16.7116 16.3764 17.0166 16.3805 17.3205 16.4042C17.6261 16.4092 17.9311 16.4333 18.2337 16.4763C17.9286 16.4916 17.6229 16.4868 17.3184 16.4619C17.0135 16.4581 16.7091 16.4347 16.4072 16.3918Z" fill="#263238"/>
<path d="M17.3615 17.8204C17.3615 17.8039 17.7057 17.7936 18.1304 17.7668C18.5551 17.74 18.8993 17.7112 18.9014 17.7277C18.8294 17.7523 18.7546 17.7675 18.6788 17.773C18.5406 17.7916 18.3469 17.8101 18.1345 17.8246C17.9222 17.839 17.7222 17.8411 17.5882 17.839C17.5121 17.8426 17.4359 17.8364 17.3615 17.8204Z" fill="#263238"/>
<path d="M18.312 18.9151C18.5172 18.8902 18.7243 18.8847 18.9305 18.8986C19.1374 18.8936 19.3443 18.9067 19.5489 18.9377C19.1369 18.9705 18.7226 18.9629 18.312 18.9151Z" fill="#263238"/>
<path d="M19.0213 19.8777C19.1971 19.8622 19.374 19.8657 19.5491 19.888C19.7256 19.892 19.9013 19.9155 20.0727 19.9581C19.8968 19.9723 19.7199 19.9681 19.5449 19.9458C19.3685 19.9418 19.1929 19.919 19.0213 19.8777Z" fill="#263238"/>
<mask id="mask0_2012_7838" style="mask-type:luminance" maskUnits="userSpaceOnUse" x="15" y="13" width="6" height="9">
<path d="M20.5817 20.6384C20.5721 20.5342 20.5427 20.4327 20.4952 20.3395C20.2663 19.8777 19.518 17.8657 18.5017 16.4123C17.3348 14.7342 15.9248 13.689 15.5392 13.788C15.3558 13.8354 15.1785 15.8495 16.9225 18.0079C18.6666 20.1663 19.8375 20.9126 20.1364 21.0157C20.3921 21.1064 20.6085 20.9868 20.5817 20.6384Z" fill="white"/>
</mask>
<g mask="url(#mask0_2012_7838)">
<g opacity="0.3">
<path d="M15.5721 13.8792C15.5536 14.3185 15.6136 14.7576 15.7493 15.1759C16.1194 16.3877 16.7348 17.5105 17.5573 18.4743C18.3798 19.4357 19.3117 20.2978 20.3342 21.043C20.0291 21.1852 19.693 21.3316 19.3673 21.2491C19.1309 21.1604 18.9224 21.0102 18.7633 20.8141C17.4068 19.4247 16.0277 18.0022 15.1598 16.2643C14.9207 15.853 14.7948 15.3857 14.7949 14.9099C14.8237 14.4378 15.1206 13.9513 15.5824 13.8441" fill="black"/>
</g>
</g>
<path d="M71.5239 43.4633C76.7571 43.4633 80.9994 39.4479 80.9994 34.4946C80.9994 29.5413 76.7571 25.5258 71.5239 25.5258C66.2907 25.5258 62.0484 29.5413 62.0484 34.4946C62.0484 39.4479 66.2907 43.4633 71.5239 43.4633Z" fill="white"/>
<path d="M80.9996 34.495C80.9996 34.495 80.9996 34.4474 80.9874 34.3505C80.9753 34.2536 80.9718 34.1108 80.9597 33.9252C80.9597 33.8316 80.9475 33.7266 80.9406 33.6116C80.9336 33.4967 80.9024 33.3719 80.8816 33.2356L80.8087 32.7988C80.798 32.7181 80.78 32.6385 80.755 32.5607L80.6856 32.3095C80.4689 31.4702 80.1179 30.6673 79.6447 29.9285C79.0252 28.9444 78.2105 28.0829 77.2454 27.3916L76.836 27.1043C76.6938 27.0139 76.5428 26.9401 76.3937 26.8465L76.1664 26.7151C76.0912 26.6698 76.013 26.6292 75.9322 26.5936L75.443 26.3703C75.3597 26.3341 75.2782 26.2947 75.1932 26.2586L74.9312 26.1683L74.4004 25.986C74.2269 25.9286 74.0308 25.8924 73.8452 25.8448C73.6572 25.7928 73.466 25.7516 73.2727 25.7217C72.879 25.6526 72.4809 25.6087 72.0809 25.5903C71.8762 25.5903 71.6715 25.5657 71.4651 25.569L70.8405 25.5985C70.7364 25.5985 70.6306 25.5985 70.5265 25.6182L70.2091 25.6675C69.9992 25.7003 69.7858 25.7233 69.5741 25.7644C69.1472 25.8545 68.727 25.9713 68.3164 26.1141L68.0041 26.2225C67.9521 26.2406 67.8983 26.257 67.848 26.2783L67.6953 26.3473L67.0864 26.6215C66.8869 26.7233 66.6961 26.8432 66.5 26.9499C66.4029 27.009 66.2988 27.0583 66.2069 27.124L65.9293 27.321C65.5537 27.5855 65.1967 27.8729 64.8607 28.1814L64.3801 28.6822L64.2604 28.807L64.1511 28.9433L63.936 29.2159L63.7192 29.4918L63.5283 29.784L63.3392 30.0796L63.2438 30.229C63.2161 30.2799 63.19 30.3325 63.164 30.385C63.0565 30.5936 62.9506 30.8037 62.8431 31.0139L62.5881 31.6707C61.9392 33.4979 61.9392 35.4757 62.5881 37.3029C62.6748 37.5246 62.7615 37.7446 62.8448 37.9597C62.9281 38.1748 63.0582 38.3801 63.164 38.5886L63.2455 38.7528L63.341 38.9006L63.5301 39.1961L63.7192 39.4901L63.9377 39.7643L64.1529 40.0385L64.2604 40.1731L64.3818 40.2996L64.8607 40.7922C65.1972 41.1013 65.5548 41.3893 65.931 41.6543L66.2086 41.8497C66.3005 41.917 66.4046 41.9662 66.5 42.0254C66.6978 42.1354 66.8886 42.2552 67.0881 42.3538L67.6971 42.6313L67.8497 42.7002C67.9 42.7216 67.9538 42.738 68.0059 42.7561L68.3181 42.8644C68.7259 43.0148 69.1437 43.1393 69.5689 43.2372C69.7806 43.2782 69.9939 43.3012 70.2039 43.334L70.5196 43.38C70.6237 43.3932 70.7295 43.3932 70.8336 43.3997L71.4581 43.4293C71.6663 43.4293 71.871 43.4145 72.074 43.4079C72.4745 43.3895 72.8732 43.3457 73.2675 43.2766L73.4133 43.2552C73.4618 43.247 73.5087 43.2339 73.5555 43.2224L73.8383 43.1534C74.0256 43.1058 74.2147 43.0697 74.3934 43.0122L74.926 42.8299L75.188 42.7396L75.436 42.6263L75.927 42.4047C76.0074 42.3688 76.0851 42.3276 76.1595 42.2815L76.3867 42.1518C76.5359 42.0648 76.6868 41.9876 76.8308 41.894L77.2385 41.6066C78.2032 40.9145 79.0184 40.0532 79.6395 39.0697C80.1125 38.3302 80.4635 37.5268 80.6804 36.6871C80.7046 36.6017 80.7272 36.5229 80.7498 36.4375C80.7748 36.3592 80.7928 36.279 80.8035 36.1978L80.8764 35.761C80.8972 35.6264 80.9232 35.5016 80.9354 35.3866C80.9475 35.2717 80.9493 35.1666 80.9545 35.073C80.9666 34.8875 80.9753 34.7446 80.9822 34.6477C80.9892 34.5508 80.9944 34.5016 80.9944 34.5016C80.9944 34.5016 80.9944 34.5508 80.9944 34.6477C80.9944 34.7446 80.984 34.8891 80.977 35.0747C80.977 35.1683 80.9666 35.2733 80.9614 35.3883C80.9562 35.5032 80.9267 35.6297 80.9059 35.7659L80.8382 36.2044C80.8281 36.2855 80.8107 36.3657 80.7862 36.4441C80.7636 36.5246 80.7411 36.6083 80.7185 36.6953C80.5026 37.5405 80.1516 38.3495 79.6776 39.0943C79.0573 40.0864 78.2402 40.9556 77.2715 41.6543C77.1379 41.7495 77.0008 41.848 76.8621 41.9449C76.7233 42.0418 76.5654 42.1189 76.4162 42.206L76.1889 42.3373C76.1134 42.384 76.0346 42.4257 75.953 42.4621L75.4603 42.6871L75.2088 42.8004L74.9451 42.8923L74.416 43.073C74.2425 43.1304 74.0447 43.1682 73.8556 43.2158L73.5711 43.2864C73.5243 43.2979 73.4757 43.3111 73.4271 43.3193L73.2814 43.3406C72.8844 43.4115 72.4827 43.4565 72.0792 43.4753C71.8727 43.4835 71.6663 43.5015 71.4581 43.4999L70.8284 43.4703C70.7226 43.4703 70.6167 43.4703 70.5109 43.4506L70.1935 43.4014C69.9818 43.3685 69.7667 43.3455 69.5533 43.3045C69.1224 43.2144 68.6981 43.0976 68.2834 42.9547L67.9677 42.8447L67.8098 42.7889L67.6572 42.7199L67.0413 42.4391C66.8401 42.3357 66.6475 42.2158 66.448 42.1107C66.3509 42.0516 66.2468 42.0024 66.1531 41.935L65.872 41.7331C65.4917 41.4667 65.1306 41.1765 64.7913 40.8644L64.3107 40.3603L64.1893 40.2339L64.08 40.096L63.8614 39.8201L63.6428 39.5443L63.4433 39.247L63.2525 38.9482L63.1571 38.7988L63.0755 38.6346L62.7494 38.0057C62.6644 37.784 62.5759 37.5623 62.4909 37.339C61.8364 35.4936 61.8364 33.4964 62.4909 31.651L62.7511 30.9844L63.0738 30.3489C63.1016 30.2964 63.1258 30.2438 63.1553 30.1847L63.2508 30.0353L63.4433 29.743L63.6359 29.4474L63.8545 29.1699L64.0731 28.8941L64.1823 28.7578L64.3038 28.6313C64.4651 28.4671 64.6265 28.2931 64.7878 28.1272C65.1282 27.8149 65.4904 27.5247 65.872 27.2586L66.1531 27.0616C66.2477 26.9984 66.3455 26.9398 66.4463 26.8859C66.6458 26.7742 66.8383 26.6543 67.0396 26.5575L67.6554 26.2767L67.8081 26.2077L67.966 26.1519L68.2817 26.0419C68.6963 25.8988 69.1206 25.782 69.5516 25.6921C69.7632 25.6511 69.9801 25.6281 70.1917 25.5952L70.5092 25.5493C70.615 25.5361 70.7208 25.5361 70.8267 25.5296L71.4564 25.5C71.6646 25.5 71.871 25.5164 72.0757 25.5246C72.4793 25.5432 72.881 25.5882 73.2779 25.6593C73.4724 25.6892 73.6647 25.7304 73.8539 25.7824C74.043 25.8317 74.2321 25.8695 74.4142 25.9269L74.9486 26.1125L75.2122 26.2044C75.2973 26.2406 75.3857 26.28 75.4638 26.3177L75.9565 26.5427C76.0381 26.5781 76.1164 26.6198 76.1907 26.6675L76.4197 26.7988C76.5689 26.8859 76.7215 26.963 76.8655 27.0583L77.2749 27.3506C78.2436 28.0467 79.0607 28.9138 79.6811 29.9039C80.156 30.6483 80.5071 31.4574 80.722 32.3029L80.7897 32.5541C80.8141 32.6325 80.8315 32.7127 80.8417 32.7939L80.9094 33.2323C80.9302 33.3686 80.9545 33.4934 80.9649 33.6083C80.9753 33.7233 80.9753 33.83 80.9805 33.9236C80.9805 34.1091 80.9944 34.252 80.9978 34.3505C81.0013 34.449 80.9996 34.495 80.9996 34.495Z" fill="#263238"/>
<path d="M76.7457 30.8333L72.0687 29.917L69.0935 29.4129L67.6692 29.1486L67.6206 30.6592L68.0682 31.9416L70.1638 33.8661L72.7574 34.4096L75.8974 33.0188L76.9192 31.2717L76.7457 30.8333Z" fill="#FF725E"/>
<path d="M66.8556 28.9991C66.8556 28.9991 65.9483 33.9499 71.5292 34.8185C77.1101 35.6871 77.7537 31.0205 77.7537 31.0205L77.3582 30.9466C77.3582 30.9466 75.24 35.0878 71.2725 34.0747C67.305 33.0615 67.5635 29.1305 67.5635 29.1305L67.2599 29.0747L66.8556 28.9991Z" fill="#455A64"/>
<path d="M67.848 29.1828C67.848 29.1828 67.2183 32.9824 71.7704 33.8511C71.7704 33.8511 74.2928 34.4635 75.587 33.0547C76.8811 31.6458 76.7493 30.833 76.7493 30.833L77.3617 30.9463C77.3617 30.9463 76.607 32.7952 76.0901 33.1893C75.5731 33.5834 74.0586 34.9282 71.5518 34.4488C69.045 33.9693 67.8341 32.434 67.4507 31.1007C67.0673 29.7673 67.2599 29.0744 67.2599 29.0744L67.73 29.1614L67.848 29.1828Z" fill="#455A64"/>
<path d="M67.848 29.1828C67.848 29.1828 67.2183 32.9824 71.7704 33.8511C71.7704 33.8511 74.2928 34.3158 75.587 32.9069C76.8811 31.498 76.751 30.833 76.751 30.833L77.3634 30.9463C77.3634 30.9463 76.843 32.5342 76.0918 33.1893C75.4152 33.7837 74.0604 34.9282 71.5536 34.4488C69.0468 33.9693 67.8341 32.434 67.4507 31.1007C67.0673 29.7673 67.2599 29.0744 67.2599 29.0744L67.73 29.1614L67.848 29.1828Z" fill="white"/>
<path d="M72.1746 32.6512C72.1742 32.6464 72.1723 32.6419 72.1692 32.6381C72.1661 32.6343 72.1619 32.6314 72.1571 32.6298C72.1524 32.6283 72.1472 32.6281 72.1423 32.6292C72.1374 32.6304 72.1329 32.6329 72.1295 32.6364C72.0497 32.7021 71.8727 32.8614 71.8658 32.9928C71.8632 33.0187 71.8671 33.0448 71.8772 33.069C71.8873 33.0932 71.9034 33.1147 71.9241 33.1319C71.9448 33.1491 71.9694 33.1613 71.9961 33.1677C72.0228 33.174 72.0506 33.1743 72.0774 33.1685C72.1711 33.1471 72.2336 33.0617 72.2075 32.8877C72.1937 32.8006 72.1815 32.7071 72.1746 32.6512Z" fill="#263238"/>
<path d="M69.5497 31.5065C69.5493 31.5019 69.5476 31.4975 69.5447 31.4938C69.5418 31.4901 69.5379 31.4872 69.5334 31.4855C69.5289 31.4838 69.5239 31.4833 69.5192 31.4841C69.5144 31.4849 69.5099 31.487 69.5063 31.49C69.4265 31.5557 69.2496 31.7166 69.2426 31.848C69.24 31.8739 69.2439 31.9 69.254 31.9242C69.2642 31.9484 69.2802 31.97 69.3009 31.9871C69.3216 32.0043 69.3463 32.0166 69.3729 32.0229C69.3996 32.0293 69.4275 32.0295 69.4543 32.0237C69.5479 32.0007 69.6104 31.9153 69.5826 31.7429C69.5688 31.6559 69.5566 31.5606 69.5497 31.5065Z" fill="#263238"/>
<path d="M73.8523 31.8805C73.8519 31.876 73.8502 31.8716 73.8473 31.8678C73.8444 31.8641 73.8405 31.8613 73.836 31.8595C73.8315 31.8578 73.8266 31.8574 73.8218 31.8582C73.817 31.859 73.8125 31.861 73.8089 31.8641C73.7291 31.9298 73.5522 32.0907 73.5435 32.2221C73.5405 32.2483 73.5442 32.2748 73.5543 32.2994C73.5644 32.3239 73.5806 32.3459 73.6015 32.3632C73.6224 32.3806 73.6475 32.393 73.6745 32.3993C73.7016 32.4056 73.7298 32.4056 73.7569 32.3994C73.8506 32.3781 73.9113 32.2927 73.8853 32.1186C73.8714 32.03 73.8523 31.9347 73.8523 31.8805Z" fill="#263238"/>
<path d="M70.556 30.313C70.5553 30.3084 70.5533 30.3041 70.5502 30.3004C70.5471 30.2968 70.5431 30.294 70.5385 30.2923C70.5339 30.2907 70.5289 30.2902 70.5241 30.2909C70.5192 30.2917 70.5147 30.2936 70.5109 30.2966C70.4311 30.3639 70.2541 30.5232 70.2472 30.6545C70.2446 30.6805 70.2485 30.7066 70.2586 30.7308C70.2688 30.755 70.2848 30.7765 70.3055 30.7937C70.3262 30.8108 70.3508 30.8231 70.3775 30.8295C70.4042 30.8358 70.432 30.8361 70.4588 30.8302C70.5525 30.8089 70.615 30.7235 70.5872 30.5495C70.5664 30.4624 70.556 30.3688 70.556 30.313Z" fill="#263238"/>
<path d="M75.136 32.5491C75.1356 32.5445 75.1339 32.5401 75.131 32.5364C75.1281 32.5326 75.1242 32.5298 75.1197 32.5281C75.1152 32.5264 75.1102 32.5259 75.1055 32.5267C75.1007 32.5275 75.0962 32.5296 75.0926 32.5326C75.0128 32.5983 74.8359 32.7592 74.8289 32.889C74.826 32.915 74.8297 32.9413 74.8397 32.9657C74.8497 32.9901 74.8657 33.0119 74.8864 33.0293C74.9071 33.0466 74.9319 33.059 74.9588 33.0655C74.9856 33.0719 75.0136 33.0722 75.0406 33.0663C75.1342 33.0433 75.1967 32.9579 75.1689 32.7839C75.1551 32.6985 75.1429 32.6033 75.136 32.5491Z" fill="#263238"/>
<path d="M75.2747 31.0403C75.274 31.0357 75.272 31.0314 75.2689 31.0277C75.2658 31.0241 75.2618 31.0213 75.2572 31.0196C75.2526 31.018 75.2476 31.0175 75.2428 31.0182C75.2379 31.019 75.2334 31.0209 75.2296 31.0239C75.1498 31.0896 74.9728 31.2505 74.9659 31.3818C74.9633 31.4077 74.9672 31.4339 74.9773 31.4581C74.9874 31.4823 75.0035 31.5038 75.0242 31.521C75.0449 31.5381 75.0695 31.5504 75.0962 31.5568C75.1229 31.5631 75.1507 31.5634 75.1775 31.5575C75.2712 31.5345 75.3337 31.4492 75.3059 31.2767C75.2938 31.1897 75.2816 31.0945 75.2747 31.0403Z" fill="#263238"/>
<path d="M72.8423 30.6199C72.842 30.6153 72.8403 30.6109 72.8374 30.6072C72.8345 30.6035 72.8306 30.6006 72.8261 30.5989C72.8215 30.5972 72.8166 30.5967 72.8118 30.5975C72.807 30.5983 72.8026 30.6004 72.799 30.6034C72.7192 30.6691 72.5422 30.83 72.5335 30.9614C72.5308 30.9875 72.5348 31.0138 72.545 31.0381C72.5552 31.0625 72.5714 31.0842 72.5923 31.1014C72.6132 31.1186 72.6382 31.1308 72.665 31.137C72.6919 31.1432 72.72 31.1433 72.7469 31.1371C72.8406 31.1141 72.9013 31.0287 72.8753 30.8563C72.8614 30.7693 72.8493 30.6741 72.8423 30.6199Z" fill="#263238"/>
<path d="M68.6979 29.6393C68.6975 29.6345 68.6956 29.63 68.6926 29.6262C68.6895 29.6224 68.6853 29.6195 68.6805 29.6179C68.6757 29.6164 68.6705 29.6162 68.6656 29.6173C68.6607 29.6185 68.6562 29.621 68.6528 29.6245C68.573 29.6902 68.396 29.8511 68.3891 29.9809C68.3865 30.0068 68.3904 30.0329 68.4005 30.0571C68.4107 30.0813 68.4267 30.1028 68.4474 30.12C68.4681 30.1372 68.4928 30.1494 68.5194 30.1558C68.5461 30.1621 68.574 30.1624 68.6007 30.1566C68.6944 30.1352 68.7569 30.0498 68.7291 29.8758C68.717 29.7887 68.7048 29.6951 68.6979 29.6393Z" fill="#263238"/>
<path d="M71.3194 31.393C71.3187 31.3884 71.3167 31.384 71.3136 31.3804C71.3106 31.3768 71.3065 31.374 71.3019 31.3723C71.2974 31.3706 71.2924 31.3701 71.2875 31.3709C71.2827 31.3716 71.2781 31.3736 71.2743 31.3765C71.1945 31.4422 71.0176 31.6031 71.0106 31.7329C71.0083 31.7586 71.0124 31.7846 71.0227 31.8085C71.033 31.8325 71.0491 31.8539 71.0697 31.8708C71.0903 31.8878 71.1149 31.8999 71.1414 31.9062C71.1679 31.9124 71.1956 31.9127 71.2223 31.9069C71.316 31.8839 71.3784 31.7985 71.3507 31.6245C71.3385 31.5424 71.3246 31.4471 71.3194 31.393Z" fill="#263238"/>
<path d="M77.7535 31.0205C77.7543 31.0342 77.7543 31.0479 77.7535 31.0615C77.7535 31.0895 77.7413 31.1305 77.7309 31.1831C77.6997 31.3366 77.6597 31.4884 77.6112 31.6379C77.4353 32.1914 77.1626 32.7132 76.8046 33.1814C76.2711 33.8817 75.5186 34.4056 74.6534 34.6789C74.1453 34.8384 73.6151 34.9258 73.0799 34.9384C72.5065 34.9517 71.9331 34.9076 71.3694 34.807C70.804 34.7153 70.2527 34.5575 69.7283 34.3374C69.2384 34.1332 68.7862 33.856 68.389 33.5164C68.0326 33.2064 67.7295 32.8457 67.4904 32.4474C67.2829 32.0999 67.122 31.7292 67.0116 31.344C66.8532 30.7859 66.7813 30.209 66.7982 29.6313C66.7982 29.4277 66.8207 29.2701 66.8329 29.1634C66.8329 29.1108 66.8468 29.0698 66.852 29.0418C66.8512 29.0287 66.8512 29.0156 66.852 29.0024C66.8527 29.0161 66.8527 29.0298 66.852 29.0435C66.852 29.0698 66.852 29.1108 66.8381 29.165C66.8277 29.2717 66.8138 29.4294 66.8103 29.633C66.7994 30.2078 66.8754 30.7812 67.0358 31.3358C67.1469 31.7182 67.3077 32.0861 67.5147 32.431C67.753 32.8264 68.0556 33.1839 68.4116 33.4901C68.8055 33.8289 69.2541 34.1061 69.7404 34.3111C70.263 34.5286 70.8119 34.6847 71.3746 34.7758C71.9348 34.8765 72.5047 34.9205 73.0747 34.9072C73.6055 34.8953 74.1316 34.8095 74.636 34.6527C75.0913 34.507 75.5189 34.293 75.9025 34.0188C76.2324 33.7766 76.5245 33.4914 76.7699 33.1715C77.1286 32.7069 77.4036 32.1892 77.5835 31.6395C77.6477 31.4458 77.6876 31.2914 77.7119 31.188C77.724 31.1354 77.7309 31.0944 77.7361 31.0681C77.7413 31.0418 77.7535 31.0205 77.7535 31.0205Z" fill="#263238"/>
<path d="M72.7974 36.8839C72.7798 36.8921 72.7639 36.9033 72.7505 36.9168C72.736 36.9328 72.7259 36.952 72.721 36.9726C72.7167 36.9926 72.7167 37.0133 72.721 37.0334C72.7269 37.0561 72.7357 37.0782 72.7471 37.099C72.7728 37.147 72.8048 37.1917 72.8425 37.232C72.8783 37.2724 72.9165 37.3108 72.957 37.347C72.9007 37.3259 72.8427 37.3094 72.7835 37.2977C72.727 37.283 72.6685 37.2769 72.61 37.2797C72.5861 37.2807 72.5627 37.2857 72.5406 37.2944C72.5224 37.3023 72.5068 37.3148 72.4955 37.3306C72.4815 37.348 72.4742 37.3694 72.4747 37.3913C72.4738 37.4028 72.4738 37.4143 72.4747 37.4258C72.4784 37.4384 72.4836 37.4505 72.4903 37.4619C72.5039 37.4829 72.5209 37.5018 72.5406 37.5178C72.5647 37.537 72.5902 37.5546 72.6169 37.5703C72.6759 37.6064 72.7401 37.6376 72.8008 37.6672L72.8442 37.6869L72.865 37.6967L72.8858 37.7049C72.8095 37.7296 72.7332 37.7591 72.6603 37.7903C72.5659 37.8312 72.4743 37.8778 72.3862 37.9299C72.2124 38.034 72.0621 38.1696 71.9438 38.3289C71.8833 38.4104 71.8349 38.4993 71.7999 38.5933C71.7681 38.6833 71.7471 38.7764 71.7374 38.8708C71.7192 39.066 71.7404 39.2627 71.7999 39.4504C71.8561 39.6386 71.949 39.8152 72.074 39.9709C72.1357 40.0455 72.2055 40.1137 72.2821 40.1746C72.3616 40.2337 72.4477 40.2844 72.5389 40.3256C72.7201 40.4053 72.9154 40.4521 73.1148 40.4635C73.2683 40.4774 73.4228 40.4774 73.5763 40.4635C73.561 40.4799 73.5482 40.4981 73.5381 40.5177C73.5275 40.5381 73.5233 40.5609 73.526 40.5834C73.5291 40.5942 73.5344 40.6042 73.5416 40.613C73.5517 40.6236 73.5651 40.631 73.5798 40.6343C73.5906 40.6368 73.6019 40.6368 73.6127 40.6343H73.637H73.6509C73.6607 40.6285 73.6695 40.6213 73.6769 40.613C73.6882 40.6034 73.6986 40.5929 73.7081 40.5818L73.722 40.5654C73.7224 40.5742 73.7247 40.5829 73.7289 40.5908C73.7331 40.5987 73.739 40.6057 73.7463 40.6113C73.7606 40.6203 73.778 40.6238 73.7949 40.6212H73.8192C73.8469 40.6076 73.8703 40.5872 73.8868 40.5621C73.9002 40.546 73.9113 40.5283 73.9198 40.5095C73.9253 40.529 73.9335 40.5478 73.9441 40.5654C73.9517 40.5806 73.9637 40.5935 73.9788 40.6025C73.9938 40.6115 74.0113 40.6163 74.0291 40.6163H74.0464L74.0725 40.5966C74.085 40.5831 74.0934 40.5666 74.0967 40.5489C74.0979 40.5342 74.0979 40.5194 74.0967 40.5046C74.099 40.5097 74.1026 40.5142 74.1071 40.5177C74.1262 40.5387 74.1517 40.5536 74.18 40.5604C74.1924 40.5644 74.2058 40.5644 74.2182 40.5604C74.2281 40.5562 74.2365 40.5493 74.2425 40.5407C74.2503 40.5298 74.2557 40.5174 74.2584 40.5045C74.2611 40.4915 74.261 40.4781 74.2581 40.4652V40.4455L74.3014 40.4833C74.3143 40.4962 74.3305 40.5059 74.3484 40.5114C74.3663 40.5168 74.3853 40.5179 74.4038 40.5145C74.4205 40.5055 74.4329 40.4908 74.4385 40.4734C74.4449 40.453 74.4449 40.4314 74.4385 40.411C74.4471 40.4157 74.4565 40.419 74.4663 40.4209C74.4915 40.4291 74.519 40.4291 74.5443 40.4209L74.5617 40.4094C74.5741 40.3993 74.5821 40.3853 74.5842 40.37C74.5882 40.3538 74.5882 40.3369 74.5842 40.3207C74.5775 40.3055 74.5687 40.2912 74.5582 40.278C74.6486 40.25 74.7372 40.2171 74.8236 40.1795C74.8601 40.1647 74.8965 40.1483 74.9312 40.1302C75.0284 40.0839 75.1208 40.0289 75.207 39.966C75.2923 39.9002 75.3686 39.8246 75.4343 39.7411C75.4669 39.6975 75.4965 39.652 75.5228 39.6048C75.5486 39.5592 75.5712 39.512 75.5904 39.4636C75.6219 39.381 75.6474 39.2965 75.6667 39.2107C75.7377 38.8888 75.7026 38.5541 75.5661 38.2517C75.4682 38.0361 75.3142 37.8474 75.1185 37.7033C75.0522 37.6551 74.9814 37.6128 74.9069 37.5769C74.7572 37.5049 74.595 37.4593 74.4281 37.4422C74.3358 37.4339 74.2428 37.4339 74.1505 37.4422H74.0915C74.0221 37.4422 73.9493 37.4504 73.8782 37.4586C73.9179 37.4194 73.9555 37.3783 73.9909 37.3355C74.0295 37.289 74.0648 37.2402 74.0967 37.1893C74.1106 37.1678 74.1228 37.1453 74.1332 37.122C74.1426 37.0998 74.1496 37.0767 74.154 37.0531C74.1591 37.0303 74.1591 37.0068 74.154 36.9841C74.1471 36.9629 74.1331 36.9445 74.1141 36.9315C74.0953 36.9162 74.0726 36.906 74.0482 36.902C74.0361 36.9004 74.0238 36.9004 74.0117 36.902C74.002 36.9006 73.992 36.9006 73.9822 36.902L73.9458 36.9135L73.9146 36.9299C73.8938 36.9427 73.8741 36.957 73.8556 36.9726C73.8101 37.0107 73.7693 37.0537 73.7342 37.1007C73.6918 37.153 73.653 37.2079 73.6179 37.2649C73.6179 37.2386 73.6179 37.2074 73.6179 37.168C73.6184 37.1087 73.6149 37.0495 73.6075 36.9907C73.6045 36.9635 73.5993 36.9366 73.5919 36.9102C73.5868 36.8848 73.5786 36.86 73.5676 36.8363C73.5566 36.8145 73.542 36.7946 73.5243 36.7772C73.5157 36.7698 73.5064 36.7632 73.4965 36.7575C73.4862 36.7522 73.4751 36.7483 73.4635 36.746C73.4526 36.7444 73.4415 36.7444 73.4306 36.746C73.4179 36.744 73.405 36.744 73.3924 36.746C73.3879 36.7446 73.383 36.7446 73.3785 36.746C73.362 36.7529 73.3473 36.7629 73.3352 36.7756C73.3195 36.7913 73.306 36.809 73.2953 36.8281C73.2851 36.8489 73.2764 36.8703 73.2692 36.8921C73.2533 36.9458 73.2428 37.0008 73.238 37.0563C73.2332 37.1313 73.2332 37.2064 73.238 37.2813C73.2155 37.2419 73.1912 37.2041 73.1669 37.168C73.1348 37.1203 73.1 37.0743 73.0628 37.0301C73.0315 36.9915 72.994 36.9577 72.9518 36.9299C72.9325 36.9181 72.9115 36.9092 72.8893 36.9036C72.8694 36.8988 72.8485 36.8988 72.8286 36.9036H72.8182" fill="#FF725E"/>
<g opacity="0.3">
<path d="M72.7974 36.8839C72.7798 36.8921 72.7639 36.9033 72.7505 36.9168C72.736 36.9328 72.7259 36.952 72.721 36.9726C72.7167 36.9926 72.7167 37.0133 72.721 37.0334C72.7269 37.0561 72.7357 37.0782 72.7471 37.099C72.7728 37.147 72.8048 37.1917 72.8425 37.232C72.8783 37.2724 72.9165 37.3108 72.957 37.347C72.9007 37.3259 72.8427 37.3094 72.7835 37.2977C72.727 37.283 72.6685 37.2769 72.61 37.2797C72.5861 37.2807 72.5627 37.2857 72.5406 37.2944C72.5224 37.3023 72.5068 37.3148 72.4955 37.3306C72.4815 37.348 72.4742 37.3694 72.4747 37.3913C72.4738 37.4028 72.4738 37.4143 72.4747 37.4258C72.4784 37.4384 72.4836 37.4505 72.4903 37.4619C72.5039 37.4829 72.5209 37.5018 72.5406 37.5178C72.5647 37.537 72.5902 37.5546 72.6169 37.5703C72.6759 37.6064 72.7401 37.6376 72.8008 37.6672L72.8442 37.6869L72.865 37.6967L72.8858 37.7049C72.8095 37.7296 72.7332 37.7591 72.6603 37.7903C72.5659 37.8312 72.4743 37.8778 72.3862 37.9299C72.2124 38.034 72.0621 38.1696 71.9438 38.3289C71.8833 38.4104 71.8349 38.4993 71.7999 38.5933C71.7681 38.6833 71.7471 38.7764 71.7374 38.8708C71.7192 39.066 71.7404 39.2627 71.7999 39.4504C71.8561 39.6386 71.949 39.8152 72.074 39.9709C72.1357 40.0455 72.2055 40.1137 72.2821 40.1746C72.3616 40.2337 72.4477 40.2844 72.5389 40.3256C72.7201 40.4053 72.9154 40.4521 73.1148 40.4635C73.2683 40.4774 73.4228 40.4774 73.5763 40.4635C73.561 40.4799 73.5482 40.4981 73.5381 40.5177C73.5275 40.5381 73.5233 40.5609 73.526 40.5834C73.5291 40.5942 73.5344 40.6042 73.5416 40.613C73.5517 40.6236 73.5651 40.631 73.5798 40.6343C73.5906 40.6368 73.6019 40.6368 73.6127 40.6343H73.637H73.6509C73.6607 40.6285 73.6695 40.6213 73.6769 40.613C73.6882 40.6034 73.6986 40.5929 73.7081 40.5818L73.722 40.5654C73.7224 40.5742 73.7247 40.5829 73.7289 40.5908C73.7331 40.5987 73.739 40.6057 73.7463 40.6113C73.7606 40.6203 73.778 40.6238 73.7949 40.6212H73.8192C73.8469 40.6076 73.8703 40.5872 73.8868 40.5621C73.9002 40.546 73.9113 40.5283 73.9198 40.5095C73.9253 40.529 73.9335 40.5478 73.9441 40.5654C73.9517 40.5806 73.9637 40.5935 73.9788 40.6025C73.9938 40.6115 74.0113 40.6163 74.0291 40.6163H74.0464L74.0725 40.5966C74.085 40.5831 74.0934 40.5666 74.0967 40.5489C74.0979 40.5342 74.0979 40.5194 74.0967 40.5046C74.099 40.5097 74.1026 40.5142 74.1071 40.5177C74.1262 40.5387 74.1517 40.5536 74.18 40.5604C74.1924 40.5644 74.2058 40.5644 74.2182 40.5604C74.2281 40.5562 74.2365 40.5493 74.2425 40.5407C74.2503 40.5298 74.2557 40.5174 74.2584 40.5045C74.2611 40.4915 74.261 40.4781 74.2581 40.4652V40.4455L74.3014 40.4833C74.3143 40.4962 74.3305 40.5059 74.3484 40.5114C74.3663 40.5168 74.3853 40.5179 74.4038 40.5145C74.4205 40.5055 74.4329 40.4908 74.4385 40.4734C74.4449 40.453 74.4449 40.4314 74.4385 40.411C74.4471 40.4157 74.4565 40.419 74.4663 40.4209C74.4915 40.4291 74.519 40.4291 74.5443 40.4209L74.5617 40.4094C74.5741 40.3993 74.5821 40.3853 74.5842 40.37C74.5882 40.3538 74.5882 40.3369 74.5842 40.3207C74.5775 40.3055 74.5687 40.2912 74.5582 40.278C74.6486 40.25 74.7372 40.2171 74.8236 40.1795C74.8601 40.1647 74.8965 40.1483 74.9312 40.1302C75.0284 40.0839 75.1208 40.0289 75.207 39.966C75.2923 39.9002 75.3686 39.8246 75.4343 39.7411C75.4669 39.6975 75.4965 39.652 75.5228 39.6048C75.5486 39.5592 75.5712 39.512 75.5904 39.4636C75.6219 39.381 75.6474 39.2965 75.6667 39.2107C75.7377 38.8888 75.7026 38.5541 75.5661 38.2517C75.4682 38.0361 75.3142 37.8474 75.1185 37.7033C75.0522 37.6551 74.9814 37.6128 74.9069 37.5769C74.7572 37.5049 74.595 37.4593 74.4281 37.4422C74.3358 37.4339 74.2428 37.4339 74.1505 37.4422H74.0915C74.0221 37.4422 73.9493 37.4504 73.8782 37.4586C73.9179 37.4194 73.9555 37.3783 73.9909 37.3355C74.0295 37.289 74.0648 37.2402 74.0967 37.1893C74.1106 37.1678 74.1228 37.1453 74.1332 37.122C74.1426 37.0998 74.1496 37.0767 74.154 37.0531C74.1591 37.0303 74.1591 37.0068 74.154 36.9841C74.1471 36.9629 74.1331 36.9445 74.1141 36.9315C74.0953 36.9162 74.0726 36.906 74.0482 36.902C74.0361 36.9004 74.0238 36.9004 74.0117 36.902C74.002 36.9006 73.992 36.9006 73.9822 36.902L73.9458 36.9135L73.9146 36.9299C73.8938 36.9427 73.8741 36.957 73.8556 36.9726C73.8101 37.0107 73.7693 37.0537 73.7342 37.1007C73.6918 37.153 73.653 37.2079 73.6179 37.2649C73.6179 37.2386 73.6179 37.2074 73.6179 37.168C73.6184 37.1087 73.6149 37.0495 73.6075 36.9907C73.6045 36.9635 73.5993 36.9366 73.5919 36.9102C73.5868 36.8848 73.5786 36.86 73.5676 36.8363C73.5566 36.8145 73.542 36.7946 73.5243 36.7772C73.5157 36.7698 73.5064 36.7632 73.4965 36.7575C73.4862 36.7522 73.4751 36.7483 73.4635 36.746C73.4526 36.7444 73.4415 36.7444 73.4306 36.746C73.4179 36.744 73.405 36.744 73.3924 36.746C73.3879 36.7446 73.383 36.7446 73.3785 36.746C73.362 36.7529 73.3473 36.7629 73.3352 36.7756C73.3195 36.7913 73.306 36.809 73.2953 36.8281C73.2851 36.8489 73.2764 36.8703 73.2692 36.8921C73.2533 36.9458 73.2428 37.0008 73.238 37.0563C73.2332 37.1313 73.2332 37.2064 73.238 37.2813C73.2155 37.2419 73.1912 37.2041 73.1669 37.168C73.1348 37.1203 73.1 37.0743 73.0628 37.0301C73.0315 36.9915 72.994 36.9577 72.9518 36.9299C72.9325 36.9181 72.9115 36.9092 72.8893 36.9036C72.8694 36.8988 72.8485 36.8988 72.8286 36.9036H72.8182" fill="black"/>
</g>
<path d="M73.8415 37.4901C73.6784 37.5483 73.5108 37.5944 73.3402 37.628C73.1758 37.684 73.007 37.7274 72.8353 37.7578C72.9825 37.6641 73.1475 37.5983 73.3211 37.564C73.4879 37.5077 73.6646 37.4827 73.8415 37.4901Z" fill="#263238"/>
<path d="M74.645 40.1879C74.4887 40.2893 74.3112 40.3576 74.1245 40.3882C73.9438 40.4405 73.7536 40.4568 73.5659 40.4359C73.5659 40.4162 73.8123 40.3915 74.1072 40.3226C74.4021 40.2536 74.638 40.1699 74.645 40.1879Z" fill="#263238"/>
<path d="M74.8132 39.4833C74.8047 39.3258 74.8047 39.1679 74.8132 39.0104C74.8132 38.7509 74.7664 38.5424 74.7872 38.5375C74.8566 38.6857 74.8898 38.8467 74.8843 39.0087C74.8995 39.17 74.8752 39.3324 74.8132 39.4833Z" fill="#263238"/>
<path d="M72.9101 39.8973C72.75 39.6895 72.6409 39.4505 72.5909 39.1977C72.5179 38.9492 72.5037 38.6885 72.5493 38.4342C72.5718 38.4342 72.5579 38.7774 72.6603 39.1813C72.7627 39.5853 72.9292 39.889 72.9101 39.8973Z" fill="#263238"/>
<path d="M69.5515 38.1469C69.588 38.1469 70.2559 38.4293 70.2559 38.4293L70.1587 38.9121C70.1587 38.9121 69.444 39.2125 68.4031 38.9121C67.3622 38.6116 66.0247 37.2864 66.0247 37.2864L66.1582 36.1534L67.0864 36.3784L69.5515 38.1469Z" fill="#455A64"/>
<g opacity="0.3">
<path d="M69.5515 38.1469C69.588 38.1469 70.2559 38.4293 70.2559 38.4293L70.1587 38.9121C70.1587 38.9121 69.444 39.2125 68.4031 38.9121C67.3622 38.6116 66.0247 37.2864 66.0247 37.2864L66.1582 36.1534L67.0864 36.3784L69.5515 38.1469Z" fill="black"/>
</g>
<path d="M72.0065 36.0793C72.0065 36.0793 71.4982 36.9004 70.0618 36.9939L68.1032 36.7082L67.0623 35.1877L66.5419 34.3519L66.6286 33.3782L66.7778 33.3519C66.7778 33.3519 66.7917 33.8889 66.9201 34.0991C66.9201 34.0991 67.3243 34.127 67.7771 34.6623C68.2298 35.1976 69.3193 35.6852 70.2266 35.7542C70.7578 35.7983 71.2929 35.7701 71.8157 35.6705L72.0013 36.0777L72.0065 36.0793Z" fill="#455A64"/>
<g opacity="0.3">
<path d="M67.4525 35.7541C67.8107 36.139 68.2741 36.4231 68.7917 36.5751C70.1119 36.9035 71.7912 36.0447 71.7912 36.0447L71.982 36.0168L72.0081 36.071C72.0081 36.071 71.4998 36.892 70.0633 36.9856L68.1047 36.6999L67.4525 35.7541Z" fill="black"/>
</g>
<path d="M70.1709 38.9169L70.0043 38.7724L70.0425 38.5573L70.2559 38.421L70.3287 38.6542L70.2646 38.8611L70.1709 38.9169Z" fill="#263238"/>
<path d="M71.3003 37.6541L71.2656 37.2124C71.2656 37.2124 69.4354 37.0482 68.4777 36.3092C67.5201 35.5703 67.2963 34.7411 67.0899 34.572C66.9676 34.4727 66.8364 34.3837 66.6978 34.306C66.6171 33.9889 66.6482 33.6556 66.7863 33.3569C66.7863 33.3569 66.3092 33.4538 66.2659 33.3946C66.2225 33.3355 65.9467 34.434 65.9467 34.434C65.9467 34.434 66.4827 36.4045 66.677 36.8084C66.8713 37.2124 67.4594 37.5588 68.0475 37.8068C68.6356 38.0547 70.2819 38.4997 71.3003 37.6541Z" fill="#455A64"/>
<path d="M71.3002 37.6545L71.269 37.6791L71.177 37.7497L71.1059 37.8023L71.0157 37.8532L70.9099 37.9139C70.8717 37.9336 70.8266 37.95 70.7815 37.9697C70.2615 38.165 69.6935 38.2163 69.1438 38.1175C68.7661 38.0615 68.3972 37.9611 68.0457 37.8187C67.8508 37.738 67.6608 37.647 67.4767 37.5461C67.2802 37.4382 67.0974 37.3092 66.9319 37.1619C66.8454 37.0838 66.7707 36.9949 66.7099 36.8975C66.6507 36.7929 66.603 36.6829 66.5676 36.5691C66.4896 36.3474 66.4184 36.1192 66.3473 35.886C66.2051 35.418 66.0663 34.9304 65.9275 34.4279V34.4164C65.9709 34.2522 66.0194 34.0667 66.0697 33.8844C66.094 33.7974 66.1201 33.7087 66.1461 33.6217C66.16 33.579 66.1738 33.5346 66.1894 33.4919C66.2051 33.4492 66.2033 33.4476 66.212 33.4263L66.2276 33.3934C66.2301 33.3875 66.2337 33.3819 66.238 33.377C66.2403 33.3723 66.2439 33.3684 66.2484 33.3655C66.2514 33.3642 66.2547 33.3635 66.258 33.3635C66.2613 33.3635 66.2645 33.3642 66.2675 33.3655C66.2716 33.366 66.2756 33.3673 66.2791 33.3693C66.2827 33.3712 66.2858 33.3739 66.2883 33.377L66.2675 33.3671L66.7637 33.3212H66.8001L66.7845 33.3557C66.6488 33.6527 66.6249 33.9848 66.7168 34.2965V34.285C66.8633 34.3675 67.001 34.4632 67.128 34.5708C67.1838 34.6318 67.2316 34.6991 67.2702 34.7711L67.3865 34.9763C67.536 35.2386 67.7102 35.4875 67.9069 35.7202C68.0885 35.932 68.2925 36.1257 68.5158 36.2982C68.7167 36.4489 68.9356 36.5768 69.1681 36.6791C69.5645 36.8456 69.9778 36.9732 70.4016 37.0601C70.6879 37.1212 70.9775 37.1684 71.269 37.2013C71.2794 37.3491 71.2863 37.4591 71.2915 37.5297C71.2915 37.5658 71.2915 37.5921 71.2915 37.6118C71.2915 37.6315 71.2915 37.6381 71.2915 37.6381C71.2905 37.6288 71.2905 37.6194 71.2915 37.6101C71.2915 37.5904 71.2915 37.5642 71.2915 37.528C71.2915 37.4542 71.2742 37.3441 71.262 37.1996C70.9705 37.1716 70.6809 37.1278 70.3946 37.0683C69.968 36.9847 69.5517 36.8592 69.1525 36.6939C68.9115 36.597 68.6838 36.473 68.4742 36.3244C68.2482 36.1514 68.0418 35.9566 67.8583 35.7432C67.6611 35.5091 67.4869 35.2585 67.3379 34.9944L67.2199 34.7908C67.1834 34.7217 67.1379 34.6572 67.0846 34.5987C66.9604 34.4934 66.8256 34.3999 66.6821 34.3195C66.5789 33.9954 66.5992 33.6473 66.7394 33.3359L66.7602 33.3655L66.2658 33.4115H66.2259L66.2554 33.3901V33.4016C66.2506 33.4112 66.2465 33.4211 66.2432 33.4312C66.2346 33.4525 66.2259 33.4722 66.2189 33.4936L66.1773 33.6233C66.1513 33.7087 66.1253 33.7974 66.101 33.8844C66.0507 34.0667 66.0021 34.2473 65.9587 34.4164V34.4049C66.0975 34.9074 66.2363 35.3901 66.3768 35.863C66.4479 36.0962 66.5191 36.3244 66.5954 36.5461C66.6311 36.6543 66.677 36.7593 66.7324 36.8597C66.792 36.9541 66.865 37.0403 66.9493 37.1159C67.1109 37.2626 67.2909 37.39 67.4853 37.4952C67.6679 37.5963 67.8561 37.6878 68.0492 37.7694C68.3972 37.9108 68.7626 38.0101 69.1369 38.065C69.6817 38.1665 70.2458 38.1204 70.7641 37.932C70.8092 37.9123 70.8526 37.8975 70.8908 37.8778L70.9983 37.8203L71.0885 37.7694L71.1579 37.7202L71.2533 37.6545H71.3002Z" fill="#263238"/>
<path d="M72.0306 36.075L71.7912 36.052L71.7288 35.8878L71.8294 35.6563L71.9751 35.768L72.0341 35.9272L72.0306 36.075Z" fill="#263238"/>
<g opacity="0.3">
<path d="M67.4335 37.1221C68.5039 37.7641 70.0358 38.0334 71.1825 37.5458L71.2987 37.641V37.6541C70.2804 38.5047 68.6358 38.0531 68.0494 37.8068C67.463 37.5605 66.8732 37.2174 66.6789 36.8085C66.5851 36.5829 66.504 36.3526 66.436 36.1188C66.6836 36.5207 67.0247 36.8639 67.4335 37.1221Z" fill="black"/>
</g>
<path d="M71.2656 37.2081L71.3888 37.3904L71.3003 37.6498L71.099 37.5694L71.0921 37.3871L71.2569 37.2213" fill="#263238"/>
<path d="M64.9612 34.6348C65.1659 34.2653 65.7332 33.9615 65.7332 33.9615L66.1339 33.4147L66.6908 33.3162C66.6908 33.3162 66.2206 33.817 66.1495 34.2407C66.3446 34.5703 66.4292 34.9482 66.3924 35.3244C66.3542 35.8482 66.5659 36.9845 67.1748 37.6315C67.6319 38.0981 68.1242 38.5327 68.6476 38.932L68.4464 39.3671C68.4464 39.3671 66.9163 39.5756 65.6048 38.019C64.2933 36.4623 64.7582 35.0042 64.9612 34.6348Z" fill="#455A64"/>
<path d="M68.4535 39.367L68.3303 39.188L68.4223 38.9861L68.653 38.9335L68.6721 39.1503L68.5576 39.3358L68.4535 39.367Z" fill="#263238"/>
<path d="M66.1495 34.2407C66.1495 34.2407 66.1495 34.2177 66.1617 34.1717C66.1781 34.1041 66.2013 34.0381 66.2311 33.9746C66.3466 33.7326 66.4991 33.5079 66.6839 33.308V33.326L66.1287 33.4279L65.7297 33.9779C65.5555 34.0758 65.3927 34.1908 65.244 34.3211C65.1635 34.3895 65.0919 34.4667 65.0306 34.551C64.9677 34.6393 64.9181 34.7355 64.8831 34.8367C64.7298 35.2784 64.6882 35.7481 64.7617 36.2078C64.8413 36.7122 65.0348 37.1944 65.329 37.6216C65.6328 38.0823 66.0303 38.4814 66.4982 38.7956C66.7861 38.9889 67.1047 39.1374 67.442 39.2357C67.6051 39.2836 67.7723 39.3182 67.9416 39.3391C68.1072 39.3601 68.2747 39.364 68.4412 39.3506L68.4239 39.3638C68.4915 39.216 68.5575 39.0699 68.6234 38.9286V38.9516C68.2972 38.702 67.9936 38.4492 67.7126 38.1979C67.5721 38.0715 67.4368 37.9451 67.3101 37.817C67.1817 37.6962 67.0655 37.5643 66.9632 37.4229C66.8755 37.2876 66.8006 37.1453 66.7394 36.9976C66.6727 36.8581 66.6148 36.715 66.5659 36.5691C66.4816 36.3094 66.4235 36.0427 66.3924 35.7727C66.38 35.6554 66.3742 35.5375 66.3751 35.4196C66.3751 35.308 66.389 35.2062 66.3855 35.1076C66.3796 34.9445 66.354 34.7825 66.3092 34.6249C66.2801 34.527 66.243 34.4315 66.1981 34.3392C66.1825 34.308 66.1686 34.2833 66.16 34.2686C66.1513 34.2538 66.1461 34.2456 66.1478 34.2439L66.1634 34.2669C66.1784 34.289 66.1917 34.3121 66.2033 34.3359C66.2519 34.4269 66.2914 34.522 66.3213 34.62C66.371 34.7802 66.3996 34.9457 66.4063 35.1126C66.4063 35.2094 66.4063 35.3145 66.4063 35.4246C66.4058 35.5414 66.4127 35.6582 66.4271 35.7743C66.4585 36.0422 66.5166 36.3066 66.6006 36.5641C66.6495 36.7085 66.7074 36.8499 66.7741 36.9878C66.8426 37.1346 66.9251 37.2753 67.0204 37.4081C67.1231 37.5472 67.2393 37.677 67.3674 37.7956C67.494 37.9221 67.6293 38.0485 67.7699 38.1733C68.0509 38.424 68.3539 38.6747 68.6789 38.9254L68.6928 38.9336V38.9483L68.4742 39.3753V39.3868H68.462C68.2928 39.4019 68.1223 39.3992 67.9537 39.3786C67.7814 39.3579 67.6113 39.3227 67.4455 39.2735C67.1043 39.1732 66.7817 39.0231 66.4896 38.8285C66.0181 38.5101 65.6178 38.1066 65.3116 37.6413C65.0147 37.2097 64.82 36.7223 64.7409 36.2127C64.6673 35.7461 64.7107 35.2697 64.8675 34.8219C64.9003 34.7211 64.9463 34.6245 65.0046 34.5346C65.0687 34.4489 65.1426 34.3702 65.2249 34.2998C65.3762 34.1684 65.542 34.0528 65.7193 33.9549L66.1218 33.4081L66.6787 33.3113H66.7099L66.6891 33.3343C66.5042 33.5314 66.3499 33.7526 66.2311 33.9911C66.2011 34.0538 66.1761 34.1185 66.1565 34.1848C66.1565 34.2177 66.1495 34.2407 66.1495 34.2407Z" fill="#263238"/>
<path d="M66.7881 33.3852C66.8118 33.2297 66.8176 33.0722 66.8054 32.9155C66.7707 32.8466 65.853 32.9303 65.853 32.9303C65.8633 33.0569 65.8889 33.182 65.9294 33.3031C65.9834 33.3615 66.0503 33.4081 66.1254 33.4393L66.7881 33.3852Z" fill="#263238"/>
<path d="M77.9914 34.4543C77.7326 34.2557 77.4063 34.153 77.0733 34.1654C76.7404 34.1778 76.4236 34.3044 76.182 34.5216C75.2626 35.2983 75.3806 36.0914 75.4881 36.4806C75.597 36.8171 75.7821 37.1272 76.0305 37.3892C76.2788 37.6513 76.5845 37.8589 76.9263 37.9978C77.038 38.0539 77.1427 38.1217 77.2385 38.1998C77.2784 38.2572 77.4485 38.075 77.6115 38.0503C77.7746 38.0257 78.5657 37.96 79.1416 37.4592C79.3511 37.299 79.5234 37.0997 79.6478 36.8737C79.7723 36.6477 79.8462 36.3998 79.865 36.1456C79.924 35.5134 79.5771 34.7942 78.8242 34.6218C78.5586 34.5216 78.277 34.465 77.9914 34.4543Z" fill="#FF725E"/>
<g opacity="0.3">
<path d="M77.9912 34.4544C77.8178 34.3565 77.6219 34.3 77.4203 34.2897C77.2188 34.2794 77.0176 34.3156 76.8341 34.3952C76.1402 34.653 75.8348 35.3805 75.7412 35.9158C75.6921 36.1541 75.6959 36.3995 75.7523 36.6364C75.8088 36.8733 75.9166 37.0964 76.069 37.2918C76.3726 37.6859 77.2435 38.1325 77.2435 38.1325C76.7977 37.8599 76.3293 37.5676 76.0933 37.1177C75.9619 36.8715 75.8959 36.5988 75.9008 36.323C75.8928 35.9222 75.9944 35.5263 76.1957 35.1736C76.2601 35.0121 76.3584 34.8647 76.4846 34.7402C76.6109 34.6157 76.7625 34.5167 76.9303 34.4491C77.0981 34.3816 77.2786 34.347 77.461 34.3473C77.6433 34.3476 77.8237 34.3829 77.9912 34.4511" fill="black"/>
</g>
<path d="M77.9913 34.4537H77.9774L77.9358 34.4373L77.8664 34.416C77.8386 34.416 77.8074 34.3996 77.771 34.393C77.682 34.3748 77.5913 34.3649 77.5003 34.3634C77.3799 34.3598 77.2594 34.3692 77.1412 34.3913C77.0731 34.4049 77.0063 34.4241 76.9417 34.4488C76.907 34.4618 76.8734 34.4772 76.8411 34.4948C76.8064 34.5112 76.7752 34.5309 76.7405 34.5506C76.672 34.5922 76.6076 34.6394 76.5479 34.6918C76.4838 34.7475 76.4256 34.8091 76.3744 34.8757C76.3241 34.9447 76.279 35.0186 76.2339 35.0958C76.1888 35.173 76.1454 35.2518 76.1055 35.3339C76.0203 35.5039 75.9619 35.6848 75.9321 35.8708C75.9165 35.9661 75.906 36.0613 75.8991 36.1549C75.8991 36.2025 75.8991 36.2485 75.8991 36.2945C75.8965 36.3404 75.8965 36.3864 75.8991 36.4324C75.9098 36.6075 75.9478 36.7801 76.0119 36.9447C76.0696 37.0938 76.1496 37.2342 76.2495 37.3618C76.3378 37.4714 76.4378 37.5721 76.5479 37.6623C76.7071 37.7927 76.8758 37.9123 77.0528 38.0202L77.1985 38.1073L77.2349 38.1302L77.2488 38.1385L77.2366 38.1286L77.1985 38.1056L77.0562 38.0169C76.8803 37.9077 76.7122 37.7876 76.5531 37.6573C76.444 37.5667 76.3446 37.466 76.2565 37.3568C76.1574 37.2299 76.0785 37.09 76.0223 36.9414C75.9582 36.778 75.9202 36.6064 75.9095 36.4324C75.9095 36.3864 75.9095 36.3421 75.9095 36.2945C75.9095 36.2468 75.9095 36.2025 75.9182 36.1565C75.9182 36.0629 75.9355 35.9677 75.9511 35.8725C75.9828 35.6879 76.0412 35.5083 76.1246 35.3388C76.1645 35.2551 76.2096 35.1746 76.253 35.1007C76.2956 35.0255 76.3425 34.9526 76.3935 34.8823C76.4442 34.8153 76.5024 34.7536 76.567 34.6984C76.6261 34.6462 76.69 34.5989 76.7578 34.5572L76.8567 34.503C76.8897 34.4849 76.9244 34.4702 76.9573 34.4554C77.0215 34.4312 77.0877 34.412 77.1551 34.3979C77.2672 34.3778 77.3811 34.3684 77.4951 34.37C77.5854 34.3727 77.6753 34.382 77.764 34.3979C77.8005 34.3979 77.8334 34.4143 77.8612 34.4209L77.9306 34.4406L77.9705 34.457L77.9913 34.4537Z" fill="#263238"/>
<path d="M78.2066 34.4651C78.2258 34.3628 78.2317 34.2585 78.2239 34.1548C78.2014 34.1088 78.0349 34.0908 78.0349 34.0908L77.9689 34.1745L78.0279 34.3108L77.9915 34.4537L78.2066 34.4651Z" fill="#AE7461"/>
<g opacity="0.3">
<g opacity="0.7">
<path d="M76.5949 34.9252C76.6885 34.8008 76.8099 34.6976 76.9506 34.623C77.0913 34.5483 77.2476 34.504 77.4085 34.4933C77.7364 34.472 78.0712 34.4654 78.321 34.6132C78.3446 34.6236 78.3655 34.6389 78.382 34.6579C78.3985 34.677 78.4103 34.6993 78.4164 34.7232C78.416 34.7509 78.4075 34.778 78.3919 34.8015C78.3763 34.8249 78.3542 34.8439 78.328 34.8562C78.1389 34.9728 77.8925 34.9432 77.6687 34.9728C77.3781 35.0125 77.1147 35.1565 76.9332 35.3751C76.8551 35.4703 76.7718 35.5886 76.6435 35.5902C76.5832 35.5844 76.5275 35.5574 76.4873 35.5145C76.4471 35.4716 76.4254 35.416 76.4266 35.3587C76.4397 35.2023 76.4979 35.0523 76.5949 34.9252Z" fill="white"/>
</g>
</g>
<g opacity="0.3">
<path d="M76.562 35.9235C76.5891 35.9355 76.6101 35.9572 76.6204 35.9838C76.6306 36.0105 76.6293 36.0399 76.6166 36.0655C76.604 36.0912 76.581 36.1111 76.5529 36.1208C76.5248 36.1305 76.4937 36.1292 76.4665 36.1173C76.4407 36.1043 76.4209 36.0825 76.4113 36.0563C76.4016 36.0301 76.4028 36.0015 76.4145 35.9761C76.4285 35.9518 76.4518 35.9337 76.4797 35.9254C76.5075 35.9172 76.5376 35.9194 76.5637 35.9317" fill="white"/>
</g>
</g>
<path d="M29.9955 87.95H26.9555L26.3955 89.5H25.4355L27.9555 82.57H29.0055L31.5155 89.5H30.5555L29.9955 87.95ZM29.7355 87.21L28.4755 83.69L27.2155 87.21H29.7355ZM32.2738 86.74C32.2738 86.18 32.3871 85.69 32.6138 85.27C32.8404 84.8433 33.1504 84.5133 33.5438 84.28C33.9438 84.0467 34.3904 83.93 34.8838 83.93C35.3104 83.93 35.7071 84.03 36.0738 84.23C36.4404 84.4233 36.7204 84.68 36.9138 85V82.1H37.8338V89.5H36.9138V88.47C36.7338 88.7967 36.4671 89.0667 36.1138 89.28C35.7604 89.4867 35.3471 89.59 34.8738 89.59C34.3871 89.59 33.9438 89.47 33.5438 89.23C33.1504 88.99 32.8404 88.6533 32.6138 88.22C32.3871 87.7867 32.2738 87.2933 32.2738 86.74ZM36.9138 86.75C36.9138 86.3367 36.8304 85.9767 36.6638 85.67C36.4971 85.3633 36.2704 85.13 35.9838 84.97C35.7038 84.8033 35.3938 84.72 35.0538 84.72C34.7138 84.72 34.4038 84.8 34.1238 84.96C33.8438 85.12 33.6204 85.3533 33.4538 85.66C33.2871 85.9667 33.2038 86.3267 33.2038 86.74C33.2038 87.16 33.2871 87.5267 33.4538 87.84C33.6204 88.1467 33.8438 88.3833 34.1238 88.55C34.4038 88.71 34.7138 88.79 35.0538 88.79C35.3938 88.79 35.7038 88.71 35.9838 88.55C36.2704 88.3833 36.4971 88.1467 36.6638 87.84C36.8304 87.5267 36.9138 87.1633 36.9138 86.75ZM39.8416 83.13C39.6682 83.13 39.5216 83.07 39.4016 82.95C39.2816 82.83 39.2216 82.6833 39.2216 82.51C39.2216 82.3367 39.2816 82.19 39.4016 82.07C39.5216 81.95 39.6682 81.89 39.8416 81.89C40.0082 81.89 40.1482 81.95 40.2616 82.07C40.3816 82.19 40.4416 82.3367 40.4416 82.51C40.4416 82.6833 40.3816 82.83 40.2616 82.95C40.1482 83.07 40.0082 83.13 39.8416 83.13ZM40.2816 84.02V89.5H39.3716V84.02H40.2816ZM44.8925 89.5L42.7425 87.08V89.5H41.8325V82.1H42.7425V86.45L44.8525 84.02H46.1225L43.5425 86.75L46.1325 89.5H44.8925ZM48.919 89.59C48.499 89.59 48.1223 89.52 47.789 89.38C47.4557 89.2333 47.1923 89.0333 46.999 88.78C46.8057 88.52 46.699 88.2233 46.679 87.89H47.619C47.6457 88.1633 47.7723 88.3867 47.999 88.56C48.2323 88.7333 48.5357 88.82 48.909 88.82C49.2557 88.82 49.529 88.7433 49.729 88.59C49.929 88.4367 50.029 88.2433 50.029 88.01C50.029 87.77 49.9223 87.5933 49.709 87.48C49.4957 87.36 49.1657 87.2433 48.719 87.13C48.3123 87.0233 47.979 86.9167 47.719 86.81C47.4657 86.6967 47.2457 86.5333 47.059 86.32C46.879 86.1 46.789 85.8133 46.789 85.46C46.789 85.18 46.8723 84.9233 47.039 84.69C47.2057 84.4567 47.4423 84.2733 47.749 84.14C48.0557 84 48.4057 83.93 48.799 83.93C49.4057 83.93 49.8957 84.0833 50.269 84.39C50.6423 84.6967 50.8423 85.1167 50.869 85.65H49.959C49.939 85.3633 49.8223 85.1333 49.609 84.96C49.4023 84.7867 49.1223 84.7 48.769 84.7C48.4423 84.7 48.1823 84.77 47.989 84.91C47.7957 85.05 47.699 85.2333 47.699 85.46C47.699 85.64 47.7557 85.79 47.869 85.91C47.989 86.0233 48.1357 86.1167 48.309 86.19C48.489 86.2567 48.7357 86.3333 49.049 86.42C49.4423 86.5267 49.7623 86.6333 50.009 86.74C50.2557 86.84 50.4657 86.9933 50.639 87.2C50.819 87.4067 50.9123 87.6767 50.919 88.01C50.919 88.31 50.8357 88.58 50.669 88.82C50.5023 89.06 50.2657 89.25 49.959 89.39C49.659 89.5233 49.3123 89.59 48.919 89.59ZM52.6736 83.13C52.5003 83.13 52.3536 83.07 52.2336 82.95C52.1136 82.83 52.0536 82.6833 52.0536 82.51C52.0536 82.3367 52.1136 82.19 52.2336 82.07C52.3536 81.95 52.5003 81.89 52.6736 81.89C52.8403 81.89 52.9803 81.95 53.0936 82.07C53.2136 82.19 53.2736 82.3367 53.2736 82.51C53.2736 82.6833 53.2136 82.83 53.0936 82.95C52.9803 83.07 52.8403 83.13 52.6736 83.13ZM53.1136 84.02V89.5H52.2036V84.02H53.1136Z" fill="#164E63"/>
<defs>
<clipPath id="clip0_2012_7838">
<rect y="0.5" width="79" height="73" rx="36.5" fill="white"/>
</clipPath>
</defs>
</svg>
