<svg width="76" height="94" viewBox="0 0 76 94" fill="none" xmlns="http://www.w3.org/2000/svg">
<g clip-path="url(#clip0_2012_7651)">
<rect y="0.5" width="76" height="73" rx="36.5" fill="#ECFEFF"/>
<path d="M3.86799 28.5338L5.07714 28.4354C5.07714 28.4354 4.99576 27.3805 6.05044 27.2735C6.25311 27.249 6.45806 27.291 6.63671 27.3934C6.81536 27.4959 6.95879 27.6537 7.04699 27.8449C7.12474 28.0038 7.16526 28.1795 7.16526 28.3577C7.16526 28.5359 7.12474 28.7116 7.04699 28.8705C6.86928 29.2382 6.44408 29.5939 5.6186 29.5127L5.83452 32.3442L7.02872 32.2458L6.90249 30.5866C6.90249 30.5866 8.54515 29.9996 8.39732 28.078C8.25615 26.241 6.64007 25.9458 5.96075 26.0062C5.43424 26.0442 3.67698 26.3239 3.86799 28.5338Z" fill="#E0E0E0"/>
<path d="M7.07505 32.8284L5.86304 32.928L5.95257 34.1052L7.16458 34.0056L7.07505 32.8284Z" fill="#E0E0E0"/>
<path d="M62.3308 39.0358H62.9852C62.9847 38.9582 62.9992 38.8813 63.0279 38.8097C63.0566 38.7381 63.0989 38.6732 63.1522 38.6189C63.2055 38.5647 63.2688 38.5221 63.3382 38.4937C63.4077 38.4654 63.4819 38.4519 63.5565 38.4539C63.6661 38.4492 63.7745 38.4799 63.8667 38.5417C63.9588 38.6035 64.0304 38.6935 64.0714 38.7992C64.1057 38.8885 64.1193 38.9849 64.1109 39.0806C64.1025 39.1763 64.0725 39.2686 64.0232 39.35C63.9136 39.5399 63.6695 39.7143 63.2277 39.6331V41.1714H63.8754V40.2719C64.1414 40.191 64.3744 40.0214 64.5385 39.7893C64.7027 39.5572 64.7889 39.2754 64.7839 38.9874C64.7839 37.9912 63.9253 37.7599 63.5565 37.7599C63.2758 37.7633 62.3175 37.8341 62.3308 39.0358Z" fill="#E0E0E0"/>
<path d="M63.8839 41.4924H63.2261V42.1312H63.8839V41.4924Z" fill="#E0E0E0"/>
<path d="M4.06241 60.3878L4.89287 60.5121C4.90621 60.4132 4.93844 60.3181 4.98765 60.2323C5.03686 60.1466 5.10207 60.0719 5.17944 60.0127C5.25681 59.9535 5.34478 59.911 5.43818 59.8877C5.53158 59.8643 5.62853 59.8606 5.72333 59.8768C5.86468 59.8925 5.9978 59.9536 6.10409 60.0517C6.21039 60.1499 6.28457 60.28 6.31628 60.4241C6.34433 60.5438 6.34481 60.6688 6.31768 60.7888C6.29055 60.9088 6.23658 61.0204 6.16015 61.1147C5.98576 61.3356 5.64361 61.5117 5.09384 61.3253L4.83474 63.2917L5.6652 63.4143L5.83129 62.2645C6.18388 62.2096 6.50951 62.0363 6.75844 61.771C7.00736 61.5057 7.16591 61.163 7.20986 60.7953C7.38425 59.5228 6.32625 59.0688 5.8562 58.9963C5.49412 58.9427 4.2584 58.8512 4.06241 60.3878Z" fill="#F5F5F5"/>
<path d="M5.6167 63.8189L4.77646 63.6944L4.66469 64.5097L5.50493 64.6342L5.6167 63.8189Z" fill="#F5F5F5"/>
<path d="M25.9318 1.21764L27.0313 0.970756C27.0313 0.970756 26.8303 0.0108305 27.787 -0.222245C27.9703 -0.271211 28.1638 -0.25943 28.3404 -0.188548C28.517 -0.117666 28.6678 0.00877714 28.7719 0.17312C28.8611 0.31007 28.918 0.466966 28.9379 0.63106C28.9578 0.795154 28.9402 0.961817 28.8865 1.11751C28.767 1.47834 28.4182 1.86162 27.6492 1.8927L28.1873 4.47034L29.2752 4.22518L28.9679 2.71623C28.9679 2.71623 30.4079 1.96176 30.0425 0.214556C29.6954 -1.45668 28.1707 -1.52056 27.5512 -1.38072C27.0728 -1.2754 25.49 -0.793711 25.9318 1.21764Z" fill="#F5F5F5"/>
<path d="M29.3971 4.75393L28.2933 5.00262L28.5167 6.07406L29.6205 5.82536L29.3971 4.75393Z" fill="#F5F5F5"/>
<path d="M71.5939 67.4763L72.2334 67.6231C72.249 67.5471 72.2791 67.4752 72.3221 67.4117C72.365 67.3481 72.4197 67.2942 72.4831 67.2531C72.5465 67.212 72.6172 67.1846 72.691 67.1725C72.7649 67.1605 72.8402 67.164 72.9127 67.1828C73.021 67.2039 73.1204 67.2594 73.1972 67.3417C73.2739 67.4239 73.3242 67.5289 73.3412 67.6421C73.3555 67.7375 73.348 67.8351 73.3191 67.9269C73.2902 68.0187 73.2409 68.1022 73.1751 68.1704C73.0273 68.3309 72.7533 68.4449 72.3447 68.2671L72.0258 69.7674L72.6586 69.9124L72.8446 69.0336C73.1213 69.014 73.384 68.9005 73.5926 68.7105C73.8011 68.5206 73.9439 68.2647 73.9989 67.9822C74.2066 67.0102 73.4143 66.5924 73.0555 66.5095C72.7815 66.4456 71.8314 66.3006 71.5939 67.4763Z" fill="#E0E0E0"/>
<path d="M72.6046 70.2208L71.9623 70.0733L71.8297 70.6971L72.472 70.8446L72.6046 70.2208Z" fill="#E0E0E0"/>
<path d="M73.5304 18.7481H74.7362C74.7362 18.7481 74.7362 17.6949 75.7892 17.6759C75.9922 17.6681 76.1925 17.7263 76.3622 17.8423C76.5319 17.9584 76.6625 18.1265 76.736 18.3234C76.7994 18.488 76.8247 18.6659 76.8097 18.8425C76.7946 19.0192 76.7398 19.1897 76.6496 19.3403C76.4453 19.6856 75.9969 20.0101 75.183 19.8582V22.6983H76.3772V21.0408C76.3772 21.0408 78.0498 20.5902 78.0498 18.6738C78.0498 16.8403 76.4669 16.4139 75.7909 16.4139C75.2727 16.4052 73.5071 16.5347 73.5304 18.7481Z" fill="#F5F5F5"/>
<path d="M76.3905 23.2715H75.1797V24.4472H76.3905V23.2715Z" fill="#F5F5F5"/>
<path d="M43.4611 3.01655L44.7632 3.31523C44.7632 3.31523 45.0057 2.17921 46.1451 2.42092C46.3658 2.46251 46.5684 2.57472 46.7248 2.74186C46.8811 2.90901 46.9833 3.12275 47.0171 3.35322C47.0472 3.54703 47.0329 3.74551 46.9751 3.93244C46.9174 4.11938 46.818 4.28947 46.6849 4.42882C46.3826 4.75512 45.8262 4.9882 44.9825 4.62564L44.3413 7.67806L45.6286 7.97329L46.0089 6.18638C46.0089 6.18638 47.9173 6.11559 48.3575 4.04726C48.7777 2.06871 47.1682 1.21756 46.4374 1.04836C45.8777 0.915421 43.9444 0.618466 43.4611 3.01655Z" fill="#E0E0E0"/>
<path d="M45.5123 8.59937L44.2051 8.29913L43.9357 9.56687L45.2428 9.86711L45.5123 8.59937Z" fill="#E0E0E0"/>
<path d="M74.1867 73.457C74.1867 73.4812 59.3746 73.5002 41.1078 73.5002C22.841 73.5002 8.02719 73.476 8.02719 73.457C8.02719 73.4381 22.8343 73.4139 41.1078 73.4139C59.3812 73.4139 74.1867 73.4277 74.1867 73.457Z" fill="#263238"/>
<path d="M36.3341 5.14331L32.3097 6.52968L33.7331 10.6715L36.3341 5.14331Z" fill="#455A64"/>
<path d="M36.7876 23.0869L35.4755 20.5075C38.0433 19.097 39.3554 17.0286 39.1694 14.6841C38.9701 12.1634 37.0334 9.84992 34.3527 8.91417L35.2413 6.15179C39.0348 7.46738 41.6757 10.7253 41.9713 14.451C42.2554 17.9748 40.3586 21.1256 36.7876 23.0869Z" fill="#455A64"/>
<g opacity="0.3">
<path d="M39.0431 16.5161C39.0431 16.5161 40.2904 16.9374 41.9098 16.0103L41.7437 17.274L38.7541 18.4532L38.6893 17.5054L39.0431 16.5161Z" fill="black"/>
</g>
<path d="M36.1432 41.4532C27.7672 40.2637 20.9989 37.6791 16.0261 33.7704C11.8123 30.4676 10.1265 27.1338 9.57342 26.0409C8.1251 23.1836 7.50225 20.0932 7.76966 17.0994C8.26794 11.6006 12.1146 8.28228 14.5794 7.39487C16.6672 6.64212 19.4476 6.64212 21.2779 6.96498C23.303 7.3292 25.2568 8.0367 27.0613 9.0592L25.3771 12.2808C23.9121 11.4495 22.3259 10.8733 20.6817 10.5751C19.0938 10.2919 16.9695 10.4128 15.7371 10.8565C14.4333 11.3244 11.6313 13.5498 11.2825 17.4361C11.0782 19.7185 11.5665 22.0976 12.6943 24.3282C13.1577 25.2415 14.5678 28.0246 18.1521 30.8423C22.6366 34.366 28.8517 36.7123 36.6215 37.8173L36.1432 41.4532Z" fill="#0E7490"/>
<g opacity="0.3">
<path d="M17.677 30.452L14.3385 32.327L15.7968 33.596L19.0539 31.5294L17.677 30.452Z" fill="black"/>
</g>
<g opacity="0.3">
<path d="M28.9911 36.2184C28.9911 36.2184 28.9911 39.6489 29.5442 40.1634L30.7068 40.45L29.8166 36.4238L28.9911 36.2184Z" fill="black"/>
</g>
<path d="M24.4503 13.3871L28.8567 12.1423L27.5596 7.59991L24.4503 13.3871Z" fill="#0E7490"/>
<path d="M58.3664 71.0762L57.8681 67.5663C68.0612 66.0124 73.3994 57.4491 75.2198 53.839L78.2426 55.4861C76.1731 59.5778 70.1041 69.2876 58.3664 71.0762Z" fill="#0E7490"/>
<path d="M78.7192 57.8562L78.0415 52.3436L72.8611 54.8211L78.7192 57.8562Z" fill="#0E7490"/>
<g opacity="0.3">
<path d="M64.9684 65.0782L64.1412 65.5289L64.6661 69.1942L66.0646 68.495L64.9684 65.0782Z" fill="black"/>
</g>
<path d="M27.772 68.9025C23.1546 68.1048 16.6006 66.0468 11.5796 60.8622C6.88753 56.0194 4.65192 49.2343 5.74315 43.1606C6.3062 40.027 7.76781 36.9798 9.9702 34.3555C12.0784 31.8653 14.66 29.8561 17.5523 28.4544C22.3956 26.0908 28.3051 25.0877 35.6198 25.383L35.5119 28.299C28.6556 28.021 23.1712 28.9361 18.7448 31.0959C13.3535 33.7271 9.42874 38.5578 8.5036 43.6992C7.57847 48.8407 9.51677 54.6227 13.5578 58.7956C18.0556 63.4399 24.0216 65.2924 28.237 66.0279L27.772 68.9025Z" fill="#455A64"/>
<g opacity="0.3">
<path d="M25.5448 65.4409L24.716 68.2326L26.7656 68.7781L26.6892 65.7171L25.5448 65.4409Z" fill="black"/>
</g>
<path d="M27.8053 29.2382C27.4056 27.0192 27.8248 24.7252 28.9794 22.8131C30.134 20.901 31.9393 19.5113 34.0355 18.9207L34.4673 18.7999C39.1976 17.764 42.6839 21.3672 43.5459 26.3118L46.7199 45.1426L40.4732 50.8797L36.9853 48.8079C36.6846 47.4267 36.0402 44.5746 36.0302 44.5763C36.0203 44.578 31.3647 45.1167 30.0941 40.4794C29.4845 38.2367 28.581 33.5199 27.8053 29.2382Z" fill="#FFBE9D"/>
<path d="M36.0352 44.5764C36.0352 44.5764 38.9019 43.9514 41.395 41.1407C41.395 41.1407 40.9067 45.0339 36.3308 45.8764L36.0352 44.5764Z" fill="#FFBE9D"/>
<path d="M30.4031 33.0576C30.4471 33.2309 30.5541 33.3797 30.7016 33.4725C30.8492 33.5653 31.0256 33.5948 31.1937 33.5548C31.2764 33.538 31.355 33.5042 31.425 33.4554C31.495 33.4066 31.5549 33.3438 31.6013 33.2707C31.6477 33.1975 31.6796 33.1155 31.6952 33.0294C31.7108 32.9434 31.7097 32.8549 31.692 32.7693C31.6481 32.5956 31.5408 32.4465 31.3929 32.3537C31.2449 32.2608 31.0681 32.2316 30.8997 32.272C30.8171 32.2889 30.7385 32.3227 30.6686 32.3715C30.5987 32.4203 30.5388 32.4831 30.4926 32.5563C30.4463 32.6295 30.4146 32.7115 30.3992 32.7976C30.3839 32.8837 30.3852 32.9721 30.4031 33.0576Z" fill="#263238"/>
<path d="M29.3001 31.0253C29.4014 31.0892 29.7884 30.5798 30.4777 30.3882C31.167 30.1966 31.7633 30.4106 31.8064 30.3019C31.833 30.2535 31.7118 30.1189 31.4477 30.0153C31.0945 29.8842 30.7109 29.8703 30.3498 29.9756C29.9917 30.0755 29.6735 30.2914 29.4413 30.5919C29.2818 30.8129 29.2503 30.9976 29.3001 31.0253Z" fill="#263238"/>
<path d="M36.2943 31.4934C36.3386 31.6668 36.446 31.8154 36.5939 31.9079C36.7417 32.0004 36.9184 32.0295 37.0865 31.9889C37.1694 31.9725 37.2483 31.939 37.3185 31.8903C37.3888 31.8416 37.4489 31.7788 37.4953 31.7056C37.5418 31.6323 37.5737 31.5502 37.589 31.4639C37.6044 31.3776 37.603 31.289 37.5848 31.2034C37.5405 31.0304 37.4333 30.882 37.2858 30.7896C37.1383 30.6971 36.9621 30.6678 36.7942 30.7079C36.7114 30.7245 36.6325 30.7582 36.5624 30.8069C36.4922 30.8556 36.4321 30.9183 36.3855 30.9915C36.339 31.0646 36.3069 31.1467 36.2912 31.2329C36.2756 31.3191 36.2766 31.4076 36.2943 31.4934Z" fill="#263238"/>
<path d="M36.0851 29.287C36.1881 29.3509 36.5834 28.8416 37.2627 28.6499C37.9421 28.4583 38.55 28.6724 38.6014 28.5636C38.628 28.5152 38.5068 28.3806 38.2427 28.277C37.8886 28.1472 37.5047 28.1339 37.1432 28.239C36.7853 28.3387 36.4672 28.5539 36.2346 28.8536C36.0685 29.0867 36.037 29.2594 36.0851 29.287Z" fill="#263238"/>
<path d="M35.0536 35.4743C35.0536 35.4329 34.5985 35.4743 33.8909 35.5796C33.7099 35.6107 33.5338 35.6211 33.4724 35.5054C33.4109 35.3897 33.4176 35.1601 33.4475 34.9305C33.4973 34.4419 33.5488 33.9308 33.6036 33.3939C33.8079 31.2116 33.9042 29.4351 33.8195 29.423C33.7348 29.4109 33.5006 31.1788 33.298 33.3611C33.2515 33.8974 33.2072 34.4108 33.1651 34.9011C33.1535 35.1273 33.1003 35.3949 33.2615 35.6435C33.3029 35.7019 33.3566 35.7496 33.4185 35.7831C33.4804 35.8166 33.5488 35.835 33.6186 35.8369C33.7228 35.8364 33.8266 35.8225 33.9275 35.7954C34.6284 35.647 35.0619 35.5192 35.0536 35.4743Z" fill="#263238"/>
<path d="M38.7941 26.8952C38.7028 26.7035 38.0052 26.8796 37.1631 26.8693C36.321 26.8589 35.6234 26.6966 35.5321 26.8934C35.4922 26.9849 35.6284 27.1593 35.9208 27.3233C36.3086 27.5204 36.7347 27.6228 37.1664 27.6228C37.5982 27.6228 38.0242 27.5204 38.4121 27.3233C38.6962 27.1628 38.834 26.9867 38.7941 26.8952Z" fill="#263238"/>
<path d="M28.7188 28.931C28.9031 29.057 29.423 28.7376 30.0973 28.5494C30.7717 28.3612 31.3729 28.3284 31.4626 28.123C31.5008 28.0246 31.3696 27.8847 31.0823 27.7967C30.6903 27.6964 30.2796 27.7071 29.893 27.8278C29.5045 27.9344 29.1513 28.1493 28.8716 28.4493C28.6739 28.6806 28.6357 28.8688 28.7188 28.931Z" fill="#263238"/>
<path d="M44.0824 29.7531C44.1488 29.6979 46.9226 28.0457 47.6567 31.2552C48.3908 34.4647 44.8647 34.6736 44.8331 34.5821C44.8016 34.4906 44.0824 29.7531 44.0824 29.7531Z" fill="#FFBE9D"/>
<path d="M45.7715 33.0282C45.7831 33.0144 45.8346 33.0541 45.9376 33.0748C46.0784 33.0988 46.2227 33.066 46.3412 32.9833C46.6401 32.7779 46.7913 32.1719 46.6734 31.59C46.6186 31.3131 46.5052 31.0524 46.3412 30.8269C46.2893 30.7349 46.2171 30.6571 46.1304 30.6C46.0437 30.5429 45.9451 30.5083 45.8429 30.4989C45.7771 30.4967 45.7128 30.5187 45.6611 30.561C45.6094 30.6033 45.5738 30.6633 45.5605 30.7303C45.5389 30.8304 45.5738 30.8891 45.5605 30.9029C45.5473 30.9167 45.4825 30.8649 45.4758 30.7303C45.4754 30.6464 45.5024 30.5648 45.5522 30.4989C45.622 30.411 45.7222 30.3552 45.8313 30.3435C46.0721 30.3021 46.3395 30.4765 46.5056 30.7026C46.701 30.9476 46.8356 31.2387 46.8976 31.5503C47.0255 32.2012 46.8444 32.8849 46.4292 33.1301C46.3519 33.1753 46.2659 33.202 46.1774 33.2083C46.0889 33.2145 46.0001 33.2002 45.9176 33.1663C45.7947 33.1042 45.7615 33.0368 45.7715 33.0282Z" fill="#FFBE9D"/>
<path d="M20.4524 26.4859C20.4635 26.2839 20.5499 26.0943 20.6933 25.9576C20.9955 25.652 21.4091 25.5795 21.8011 25.4741C22.7807 25.2104 23.6895 24.7179 24.4586 24.0342C24.117 23.9552 23.7897 23.8206 23.4886 23.6354C22.8707 23.2435 22.4007 22.5218 22.4704 21.7726C22.4688 21.7023 22.4829 21.6326 22.5117 21.5691C22.5406 21.5055 22.5833 21.4499 22.6365 21.4065C22.8209 21.2926 23.0435 21.4532 23.2212 21.5792C23.8042 21.997 24.2808 22.1213 24.9502 21.8779C25.3561 21.7487 25.7287 21.5256 26.0398 21.2253L26.068 21.1717C26.1892 20.9594 26.3072 20.7557 26.4251 20.5588C27.3104 19.0723 28.1176 17.995 29.046 17.3096C30.4063 16.303 32.8661 15.4208 34.5354 15.4571C36.2046 15.4933 37.922 16.4671 38.5216 18.0848C39.2242 17.0921 40.5479 16.7692 41.7238 16.9488L41.7488 16.9298C43.0443 17.0748 44.0259 18.2177 44.6703 19.3969C44.7069 19.4608 44.7384 19.5264 44.7733 19.592C45.3303 20.1619 46.0111 20.5841 46.7581 20.823C46.8893 20.8644 47.0405 20.9179 47.0903 21.0526C47.1022 21.1223 47.0967 21.194 47.0743 21.2608C47.0519 21.3276 47.0134 21.3873 46.9624 21.4342C46.7228 21.7178 46.4255 21.9424 46.0921 22.092C46.2686 22.3696 46.4687 22.6302 46.69 22.8706C46.8793 23.076 47.1052 23.3195 47.0454 23.5957C47.0121 23.7002 46.949 23.7917 46.8644 23.858C46.7799 23.9244 46.6779 23.9623 46.5721 23.9669C46.3606 23.9702 46.1508 23.9278 45.9559 23.8426L46.5854 24.7387C46.1688 24.9224 45.7165 25.0023 45.2649 24.9717C45.2849 26.22 45.5971 28.461 45.4908 29.3363C44.6753 29.5555 44.4561 29.5089 44.0757 29.7575C43.5774 30.0752 44.0143 31.0075 43.2536 30.9005C42.8682 30.847 42.0029 29.5884 41.7969 29.2431C40.4354 26.9421 39.5659 24.3637 39.2474 21.6828C38.6248 21.2536 37.9283 20.9534 37.1962 20.7988L37.2609 20.8351C35.894 20.6952 34.3643 20.602 33.3096 21.517C32.4908 22.2249 32.1769 23.3626 31.667 24.3347C30.7003 26.1768 29.3981 27.356 27.4565 27.9327C27.606 29.3933 28.0877 31.7206 28.3268 33.0586L26.631 30.6847V30.6968C26.5081 30.5621 26.3985 30.424 26.2989 30.2858L26.264 30.2444C26.0977 30.0148 25.9203 29.7941 25.7325 29.5832L25.7225 29.597C25.1794 30.3998 23.942 29.6868 24.3074 28.7821C24.3805 28.6021 24.479 28.4345 24.5997 28.2849C24.4802 28.4804 24.3139 28.6405 24.1171 28.7494C23.9204 28.8583 23.6998 28.9124 23.477 28.9064C23.2547 28.8924 23.0431 28.8027 22.8749 28.651C22.7067 28.4992 22.5914 28.2941 22.5468 28.0673C22.5281 27.9118 22.5489 27.754 22.6072 27.6095C22.6655 27.465 22.7592 27.3389 22.879 27.2438C22.3299 27.4289 21.7403 27.4403 21.1849 27.2766C20.8294 27.1609 20.4391 26.9296 20.4524 26.4859Z" fill="#263238"/>
<path d="M37.4204 18.9781C37.6115 19.0698 37.7958 19.176 37.9719 19.2958C38.4314 19.6543 38.7941 20.13 39.0249 20.6769C39.1919 21.0504 39.3226 21.4402 39.4152 21.8406C39.5165 22.2722 39.5813 22.7436 39.671 23.2391C39.7466 23.7634 39.8537 24.2824 39.9915 24.7929C40.0688 25.0619 40.1654 25.3245 40.2805 25.5784C40.3858 25.8547 40.5573 26.0984 40.7788 26.2863C40.8785 26.3582 40.9945 26.4019 41.1153 26.4131C41.2362 26.4243 41.3578 26.4026 41.4681 26.3502C41.6815 26.2541 41.8572 26.0854 41.9664 25.8719C42.1757 25.4472 42.1458 24.9811 42.1325 24.5702L42.0395 24.6047C42.2574 24.9246 42.5193 25.2097 42.8168 25.4507C43.1017 25.6744 43.4588 25.7746 43.8133 25.7304C43.9774 25.7074 44.1321 25.6374 44.2601 25.5284C44.3782 25.4232 44.4623 25.2827 44.5009 25.1261C44.54 24.9822 44.54 24.8298 44.5009 24.6858C44.4638 24.552 44.3827 24.4359 44.2717 24.3578L44.2352 24.4131C44.5771 24.6679 44.9672 24.8445 45.3796 24.931C45.4891 24.955 45.6001 24.9706 45.7118 24.9776C45.7493 24.9826 45.7872 24.9826 45.8247 24.9776C45.7885 24.9665 45.7511 24.9595 45.7134 24.9569C45.6017 24.9423 45.4908 24.9216 45.3812 24.8948C44.9799 24.7947 44.6016 24.6128 44.2684 24.3595L44.2302 24.4165C44.3275 24.4964 44.3983 24.606 44.4326 24.7299C44.4668 24.8538 44.4629 24.9857 44.4212 25.1071C44.3845 25.247 44.3081 25.3721 44.202 25.4662C44.0846 25.5611 43.9444 25.6208 43.7967 25.6389C43.4665 25.6757 43.1354 25.5792 42.8716 25.3695C42.5845 25.1314 42.3317 24.8517 42.1209 24.5391L42.0212 24.4044V24.5771C42.0395 24.988 42.0611 25.4403 41.87 25.8201C41.7714 26.0095 41.6156 26.16 41.4266 26.2483C41.3329 26.2936 41.2294 26.3124 41.1265 26.303C41.0237 26.2936 40.9249 26.2563 40.8403 26.1948C40.6335 26.0189 40.4739 25.7906 40.3769 25.5318C40.2633 25.2829 40.1678 25.0255 40.0912 24.7618C39.9535 24.2581 39.8453 23.7461 39.7673 23.2287C39.6843 22.7332 39.6012 22.2619 39.4999 21.8251C39.4035 21.4194 39.2665 21.0254 39.0913 20.6493C38.8499 20.0962 38.4717 19.6196 37.9951 19.2681C37.8206 19.1386 37.6263 19.0406 37.4204 18.9781Z" fill="#455A64"/>
<path d="M24.5052 27.0266C24.5052 27.0266 24.5184 27.0352 24.5483 27.0491L24.6812 27.106C24.7527 27.139 24.8266 27.1661 24.9021 27.1872C25.0035 27.2203 25.1067 27.2474 25.211 27.2683C25.8823 27.4037 26.5755 27.3621 27.2274 27.1475C28.1984 26.8339 29.061 26.2341 29.7105 25.421C30.4579 24.5215 31.0193 23.3319 31.4046 22.0336C31.6023 21.3827 31.7368 20.7336 31.9029 20.1224C32.0519 19.5314 32.2806 18.9652 32.5822 18.4408C32.8559 17.9691 33.2384 17.5757 33.695 17.2961C33.9024 17.1764 34.1266 17.0913 34.3594 17.0441C34.5784 17.0016 34.802 16.9912 35.0238 17.013C35.6974 17.078 36.3225 17.4047 36.7744 17.928C36.9289 18.1273 37.0615 18.3438 37.1697 18.5737C37.167 18.557 37.162 18.5407 37.1547 18.5254L37.0999 18.3873C37.0211 18.2133 36.9224 18.0499 36.8059 17.9004C36.6171 17.6681 36.3926 17.4697 36.1416 17.3134C35.8048 17.1067 35.4293 16.9772 35.0404 16.9336C34.8138 16.9106 34.5854 16.9193 34.3611 16.9595C34.1176 17.0068 33.8827 17.0936 33.6651 17.2167C33.1924 17.4995 32.7964 17.9022 32.5141 18.3873C32.2031 18.9176 31.968 19.4922 31.8165 20.093C31.6421 20.7094 31.5093 21.3568 31.3183 22.0008C30.9362 23.2905 30.3815 24.4662 29.6573 25.3554C29.0213 26.1572 28.1774 26.7528 27.2257 27.0715C26.5858 27.2886 25.9048 27.3413 25.2409 27.2252C24.9921 27.1741 24.7464 27.1078 24.5052 27.0266Z" fill="#455A64"/>
<path d="M23.6181 25.0668C23.6775 25.1011 23.7413 25.1266 23.8074 25.1427C23.9834 25.2014 24.1632 25.2465 24.3456 25.2774C24.6162 25.3245 24.8901 25.3476 25.1644 25.3465C25.8393 25.3432 26.5067 25.2 27.1276 24.9252C27.3802 24.8137 27.6231 24.6797 27.8535 24.5247C28.0088 24.4211 28.1564 24.3057 28.2953 24.1794C28.3933 24.0896 28.4447 24.0378 28.4398 24.0309C28.4348 24.024 28.2089 24.2035 27.8119 24.4556C27.5805 24.5988 27.339 24.7234 27.0894 24.8285C26.4764 25.0857 25.8237 25.2255 25.1628 25.2412C24.893 25.2465 24.6232 25.2315 24.3556 25.1963C23.8988 25.1358 23.6231 25.0461 23.6181 25.0668Z" fill="#455A64"/>
<path d="M37.6047 37.1075C37.6163 37.1783 37.0948 37.3337 36.462 37.5409C35.8292 37.748 35.3126 37.9293 35.2844 37.8637C35.2561 37.7981 35.7378 37.5184 36.3889 37.2991C37.04 37.0799 37.6047 37.0402 37.6047 37.1075Z" fill="#263238"/>
<path d="M35.2793 27.1765C35.2084 27.2176 35.1277 27.2367 35.0467 27.2317C34.8509 27.2347 34.6585 27.1777 34.4936 27.0677C34.327 26.9609 34.1937 26.8062 34.11 26.6223C34.0704 26.5486 34.052 26.4647 34.0568 26.3806C34.0955 26.4498 34.1304 26.5213 34.1615 26.5946C34.2537 26.7581 34.3824 26.8961 34.5368 26.9969C34.6914 27.0967 34.8669 27.1559 35.0484 27.1696C35.1254 27.1678 35.2025 27.1701 35.2793 27.1765Z" fill="#FFBE9D"/>
<path d="M38.1777 37.6169C38.1988 37.4605 38.1988 37.3019 38.1777 37.1455C38.1341 36.9947 38.0721 36.8502 37.9933 36.7156C37.9933 36.7156 38.0481 36.7364 38.1079 36.8054C38.1838 36.8999 38.2359 37.0124 38.2597 37.1329C38.2835 37.2534 38.2781 37.3782 38.2441 37.496C38.2209 37.5754 38.1876 37.622 38.1777 37.6169Z" fill="#FFBE9D"/>
<path d="M20.9955 37.9587C20.9955 37.9587 24.6329 30.2896 24.8821 29.9806C25.1312 29.6716 26.4566 26.4655 26.4566 26.4655L28.3036 24.1624C28.3036 24.1624 29.1739 24.2987 28.6208 25.4676L27.8352 27.0214L30.7235 24.0052C30.7235 24.0052 31.5806 24.1088 31.2467 25.0532C30.9992 25.7559 30.1173 26.8419 30.1173 26.8419L32.71 24.5025C32.71 24.5025 33.7896 24.6751 33.2714 25.8526C32.9392 26.6174 29.9113 30.0894 29.9113 30.0894C29.9113 30.0894 31.4195 29.1208 31.9044 28.7997C32.3894 28.4786 32.8728 27.7793 33.2249 27.8449C33.577 27.9106 34.1915 28.4786 33.2747 29.5593C32.3579 30.6401 29.7868 32.3632 29.4064 32.5772L29.0294 32.7913C29.0294 32.7913 28.5843 33.9999 27.9548 34.5731C27.9548 34.5731 26.92 37.9811 26.3985 38.9186C26.0255 39.5522 25.5132 40.0848 24.9037 40.4725L23.3125 44.9406L18.7533 41.6896L20.9955 37.9587Z" fill="#FFBE9D"/>
<path d="M20.9956 37.9586C20.9956 37.9586 20.9475 38.0449 20.8511 38.2072C20.7548 38.3695 20.612 38.6146 20.4243 38.9323L18.7766 41.6947V41.6705L23.3209 44.9318L23.2811 44.9439C23.7577 43.6042 24.2942 42.0952 24.8689 40.4741C24.8715 40.4674 24.8762 40.462 24.8822 40.4585C25.3178 40.1789 25.7057 39.8259 26.0299 39.414C26.198 39.2015 26.3423 38.9698 26.4601 38.7234C26.5763 38.4731 26.6843 38.2055 26.7923 37.9448C27.1959 36.8778 27.5613 35.7418 27.9233 34.5695C27.9257 34.5637 27.929 34.5584 27.9333 34.5539C28.1706 34.3183 28.3742 34.0486 28.5379 33.7529C28.7149 33.4424 28.8692 33.1187 28.9996 32.7843C29.0026 32.7765 29.0079 32.7699 29.0146 32.7653C29.2056 32.6548 29.4016 32.5512 29.5859 32.4304C29.7703 32.3095 29.9596 32.1869 30.1457 32.0592C30.5177 31.8037 30.8897 31.5412 31.2585 31.265C31.6272 30.9888 31.9976 30.7022 32.3563 30.4017C32.7232 30.1037 33.0603 29.7683 33.3629 29.4004C33.5132 29.2144 33.6262 28.9989 33.695 28.7668C33.7297 28.6538 33.7361 28.5335 33.7138 28.4172C33.6914 28.301 33.6409 28.1925 33.5672 28.1021C33.4912 28.0139 33.3945 27.9478 33.2865 27.9104C33.2332 27.8943 33.1771 27.8905 33.1223 27.8995C33.0674 27.9084 33.0152 27.9298 32.9692 27.9622C32.7695 28.0995 32.5836 28.2574 32.4145 28.4336C32.2378 28.612 32.0435 28.7706 31.8348 28.9066L31.2086 29.3141L29.9281 30.1221C29.924 30.1249 29.9193 30.1268 29.9145 30.1277C29.9096 30.1287 29.9047 30.1286 29.8998 30.1274C29.895 30.1263 29.8905 30.1242 29.8865 30.1212C29.8825 30.1182 29.8791 30.1144 29.8766 30.11C29.8719 30.1032 29.8693 30.095 29.8693 30.0867C29.8693 30.0783 29.8719 30.0701 29.8766 30.0634L30.5742 29.2502C31.2385 28.4629 31.9029 27.6774 32.5174 26.8763C32.6719 26.676 32.8231 26.474 32.9659 26.2668C33.116 26.07 33.2328 25.8482 33.3114 25.6108C33.3535 25.4977 33.3716 25.3765 33.3644 25.2556C33.3572 25.1346 33.325 25.0166 33.2698 24.9098C33.2025 24.812 33.1172 24.7289 33.0189 24.6655C32.9205 24.6021 32.8111 24.5596 32.6968 24.5403H32.7267L30.1307 26.8763C30.1239 26.8833 30.1146 26.8873 30.105 26.8873C30.0953 26.8873 30.0861 26.8833 30.0792 26.8763C30.074 26.8691 30.0711 26.8603 30.0711 26.8512C30.0711 26.8422 30.074 26.8334 30.0792 26.8262C30.4506 26.3723 30.7803 25.8833 31.0641 25.3656C31.1328 25.2391 31.1885 25.1054 31.2302 24.9668C31.2759 24.8341 31.2901 24.692 31.2718 24.5524C31.2513 24.4155 31.1811 24.292 31.0758 24.2071C30.9699 24.1233 30.8453 24.0686 30.7137 24.0483L30.7419 24.0379L27.8552 27.0489C27.849 27.0552 27.8407 27.0588 27.832 27.0588C27.8233 27.0588 27.8149 27.0552 27.8087 27.0489C27.8044 27.0429 27.8021 27.0357 27.8021 27.0282C27.8021 27.0207 27.8044 27.0135 27.8087 27.0075L28.5777 25.4899C28.6371 25.3672 28.6865 25.2396 28.7256 25.1083C28.744 25.0438 28.7585 24.978 28.7688 24.9115C28.7745 24.8461 28.7745 24.7802 28.7688 24.7147C28.7596 24.5852 28.7074 24.4631 28.6209 24.3694C28.5329 24.2801 28.4213 24.2201 28.3004 24.1968L28.3269 24.1847L26.4767 26.4844C26.0996 27.389 25.7342 28.2505 25.3705 29.0568C25.2792 29.2588 25.1878 29.4574 25.0931 29.6507C25.045 29.7474 24.9968 29.8406 24.942 29.9339C24.8872 30.0271 24.8307 30.1065 24.7759 30.2015C24.5799 30.5675 24.4022 30.9301 24.2278 31.2788C23.5368 32.6773 22.9539 33.8892 22.4739 34.882L21.3727 37.1696C21.2481 37.4303 21.1518 37.6288 21.0853 37.7635C21.0189 37.8981 20.9857 37.9655 20.9857 37.9655C20.9857 37.9655 21.0156 37.8964 21.0787 37.76L21.3594 37.1609L22.4456 34.8664C22.9206 33.872 23.5003 32.6583 24.1879 31.2564C24.3623 30.9111 24.5384 30.545 24.7344 30.1773C24.785 30.0839 24.8405 29.9934 24.9005 29.9062C24.9536 29.8182 25.0018 29.7215 25.0483 29.6266C25.143 29.4349 25.2326 29.2364 25.324 29.0344C25.6861 28.2281 26.0498 27.3666 26.4252 26.4602L28.2771 24.1571C28.2803 24.153 28.2844 24.15 28.2891 24.1481C28.2937 24.1463 28.2988 24.1458 28.3037 24.1467C28.4387 24.172 28.5629 24.2402 28.6591 24.3418C28.7561 24.4453 28.8149 24.581 28.8252 24.7251C28.8327 24.7956 28.8327 24.8669 28.8252 24.9374C28.815 25.0073 28.8006 25.0765 28.782 25.1446C28.7412 25.2792 28.6901 25.4103 28.6292 25.5365L27.8619 27.0575L27.8104 27.0178C28.7339 26.051 29.6967 25.0456 30.6987 24.0017C30.7031 23.9993 30.7079 23.998 30.7129 23.998C30.7178 23.998 30.7226 23.9993 30.727 24.0017C30.8712 24.0236 31.0077 24.0829 31.1239 24.1743C31.2425 24.2698 31.3216 24.4087 31.3448 24.5628C31.3662 24.7137 31.352 24.8677 31.3033 25.0117C31.2624 25.155 31.2068 25.2934 31.1372 25.4243C30.8513 25.9478 30.5176 26.4416 30.1407 26.8987L30.0892 26.8469L32.6819 24.5058C32.6858 24.5024 32.6903 24.4999 32.6951 24.4984C32.7 24.4969 32.7051 24.4965 32.7101 24.4972C32.8336 24.5213 32.9522 24.5674 33.0606 24.6336C33.1723 24.6979 33.2665 24.7906 33.3346 24.9029C33.3956 25.019 33.4318 25.1475 33.4406 25.2795C33.4495 25.4115 33.4309 25.5439 33.3861 25.6677C33.3478 25.7914 33.2972 25.9106 33.235 26.0234C33.1735 26.1356 33.1004 26.2392 33.0307 26.3445C32.8845 26.5534 32.7334 26.7554 32.5789 26.9574C31.9594 27.7602 31.3017 28.5458 30.6323 29.3348L29.9347 30.148L29.8882 30.0893L31.1472 29.2709C31.5624 28.9912 31.9992 28.753 32.3431 28.4077C32.5171 28.2278 32.7079 28.0664 32.9127 27.926C32.9685 27.8934 33.0283 27.869 33.0905 27.8535C33.1558 27.8397 33.2235 27.8445 33.2865 27.8673C33.4049 27.8994 33.5135 27.9623 33.602 28.0503C33.6841 28.1498 33.7404 28.2693 33.7657 28.3977C33.7909 28.5261 33.7844 28.659 33.7465 28.784C33.6768 29.0259 33.561 29.2508 33.406 29.4453C33.1009 29.8184 32.7598 30.158 32.3879 30.4587C32.0275 30.7643 31.6588 31.0509 31.2884 31.322C30.918 31.593 30.5443 31.8624 30.1706 32.1161C29.9845 32.2439 29.7985 32.3682 29.6092 32.4891C29.4198 32.6099 29.2255 32.7152 29.0362 32.8257L29.0511 32.8067C28.9202 33.1454 28.7635 33.4728 28.5827 33.7857C28.4181 34.0898 28.2122 34.3677 27.9715 34.6109L27.9815 34.5936C27.6177 35.7694 27.2523 36.9037 26.8454 37.9741C26.7441 38.24 26.6361 38.5024 26.5132 38.7562C26.3926 39.0072 26.2455 39.2434 26.0747 39.4606C25.7465 39.8777 25.3536 40.2348 24.9121 40.5172L24.9254 40.5017L23.3209 44.9698C23.32 44.9731 23.3184 44.9762 23.3163 44.9788C23.3142 44.9814 23.3115 44.9835 23.3085 44.985C23.3055 44.9865 23.3023 44.9873 23.299 44.9873C23.2957 44.9874 23.2924 44.9867 23.2894 44.9854L18.7484 41.7154C18.7457 41.712 18.7442 41.7077 18.7442 41.7033C18.7442 41.6989 18.7457 41.6946 18.7484 41.6912C19.4676 40.4965 20.029 39.5659 20.4093 38.9289L20.8445 38.2106C20.9342 38.0414 20.9956 37.9586 20.9956 37.9586Z" fill="#FFBE9D"/>
<path d="M30.5308 26.3569C30.4843 26.4313 30.4315 26.5012 30.3731 26.5658C30.2668 26.697 30.109 26.8852 29.913 27.1131C29.516 27.5689 28.958 28.1887 28.3002 28.8293C27.8377 29.2842 27.352 29.713 26.8453 30.1138C26.5305 30.2063 26.2325 30.3522 25.9633 30.5454C25.7706 30.6835 25.6743 30.7785 25.6693 30.7733C25.6643 30.7681 25.6893 30.7439 25.7341 30.699C25.8007 30.6343 25.8706 30.5732 25.9434 30.516C26.2098 30.31 26.5089 30.154 26.827 30.0551H26.817C27.2372 29.7098 27.7388 29.2695 28.2587 28.7619C28.9231 28.1231 29.4778 27.512 29.8831 27.0665L30.3614 26.5365C30.4136 26.4724 30.4702 26.4124 30.5308 26.3569Z" fill="#FFBE9D"/>
<path d="M27.9714 26.842C27.892 26.9696 27.8008 27.0887 27.699 27.1977C27.5229 27.4101 27.2721 27.6967 26.9865 28.0057L26.2557 28.793C26.159 28.9071 26.0541 29.0133 25.9417 29.1106C26.022 28.9838 26.1138 28.8653 26.2158 28.7567C26.3952 28.5461 26.6493 28.2612 26.9333 27.9522L27.6608 27.1614C27.7562 27.0467 27.86 26.9399 27.9714 26.842Z" fill="#FFBE9D"/>
<path d="M29.9779 30.0518C29.9462 30.0861 29.9105 30.1163 29.8716 30.1415C29.8002 30.1951 29.6956 30.2693 29.5627 30.3591C29.2163 30.5872 28.8581 30.7953 28.4897 30.9823C28.1208 31.1683 27.742 31.3326 27.3553 31.4744C27.2058 31.5279 27.0846 31.5693 26.9999 31.5935C26.9571 31.61 26.9124 31.6204 26.867 31.6246C27.0199 31.5485 27.1768 31.4817 27.337 31.4243C27.6277 31.3035 28.0263 31.1291 28.4565 30.9064C28.8867 30.6837 29.2637 30.4713 29.5344 30.3073C29.6773 30.213 29.8253 30.1277 29.9779 30.0518Z" fill="#FFBE9D"/>
<path d="M20.4258 38.558C20.2597 38.7772 15.5526 46.1545 15.5526 46.1545C15.5526 46.1545 11.1014 53.3643 10.4503 55.3929C9.50024 58.3539 9.28764 63.4884 12.3603 64.8644C15.4331 66.2404 16.4911 66.2853 20.1982 64.7988C22.5 63.8567 24.6588 62.5739 26.6077 60.9902L25.8803 47.572L22.8906 49.1672L25.4634 41.9868L20.4258 38.558Z" fill="#E0E0E0"/>
<path d="M60.0271 49.9767C60.0271 49.9767 62.4205 51.9674 63.2875 58.7507C63.8339 63.0341 65.3869 73.412 65.3869 73.412L56.3382 73.4328C56.3382 73.4328 54.5195 60.0422 54.7055 59.8402C54.8915 59.6382 60.0271 49.9767 60.0271 49.9767Z" fill="#E0E0E0"/>
<path d="M25.8804 47.5716L36.0668 46.2128C36.0668 46.2128 37.9885 49.412 41.7505 48.787C47.0322 47.91 46.8993 44.0375 46.8993 44.0375C46.8993 44.0375 55.6889 47.1745 57.3897 47.967C58.3993 48.429 59.2995 49.1149 60.0273 49.9766C60.0273 49.9766 56.9047 62.5799 56.8067 62.7318C56.7087 62.8838 56.1175 73.5517 56.3384 73.4361C56.433 73.3843 27.6692 73.4361 27.1925 73.4361L26.3272 60.7153L23.3209 49.8661L25.8804 47.5716Z" fill="#E0E0E0"/>
<path d="M24.2262 45.6021C24.2156 45.6446 24.2017 45.6862 24.1846 45.7264C24.1531 45.8144 24.1099 45.9301 24.0551 46.0717C23.9438 46.3772 23.7794 46.8175 23.5867 47.3682C23.198 48.4646 22.6998 49.9942 22.1633 51.6845C21.8975 52.5356 21.6135 53.3315 21.4557 54.086C21.3677 54.4624 21.2896 54.8197 21.1983 55.1512C21.1159 55.4596 21.0166 55.7628 20.901 56.0594C20.798 56.3322 20.7133 56.5773 20.6419 56.8C20.5798 56.9887 20.5066 57.1732 20.4226 57.3525C20.3545 57.4993 20.2997 57.6132 20.2566 57.6978C20.2388 57.7379 20.2183 57.7765 20.1951 57.8135C20.2087 57.7716 20.2248 57.7307 20.2433 57.6909L20.3927 57.3456C20.4717 57.1658 20.5405 56.9813 20.5987 56.7931C20.6651 56.5721 20.7482 56.3201 20.8495 56.0473C21.076 55.4052 21.2548 54.7461 21.3843 54.0756C21.5404 53.3177 21.8245 52.5218 22.0885 51.6672C22.625 49.9735 23.1316 48.4456 23.5336 47.351C23.7329 46.8054 23.9039 46.3652 24.0318 46.063L24.1747 45.7177C24.1885 45.6777 24.2057 45.6389 24.2262 45.6021Z" fill="#263238"/>
<path d="M26.6877 65.9055C26.6822 65.8764 26.6783 65.847 26.676 65.8174C26.676 65.7536 26.6644 65.669 26.6544 65.5637C26.6378 65.334 26.6129 65.0112 26.5814 64.6055C26.5232 63.7785 26.4435 62.6183 26.3472 61.2595C26.1678 60.4153 25.9569 59.4899 25.7094 58.5282C25.1978 56.5359 24.5949 54.7714 24.0202 53.5594C23.7978 53.0805 23.5424 52.619 23.2562 52.1782C23.1516 52.0228 23.0619 51.9106 23.0054 51.8329L22.9406 51.7414L22.9207 51.7086C22.9207 51.7086 22.9307 51.7173 22.9473 51.7362L23.017 51.8226C23.0768 51.9003 23.1715 52.0108 23.2794 52.1679C23.5768 52.6058 23.84 53.0676 24.0667 53.5491C24.6563 54.7576 25.2692 56.5272 25.7808 58.5213C26.0299 59.4847 26.2375 60.4118 26.4153 61.2578C26.5 62.6183 26.5714 63.7785 26.6229 64.6055C26.6445 65.0112 26.6627 65.3358 26.676 65.5654C26.676 65.6724 26.676 65.757 26.686 65.8192C26.6905 65.8477 26.6911 65.8768 26.6877 65.9055Z" fill="#263238"/>
<path d="M56.335 73.4378C56.335 73.405 56.335 73.3532 56.335 73.2928C56.335 73.1616 56.335 72.9751 56.335 72.7386C56.335 72.2517 56.335 71.556 56.3433 70.6996C56.3566 68.9731 56.3748 66.594 56.3948 63.9663V63.9249C56.7269 61.3093 57.0409 58.9423 57.2634 57.2227L57.5358 55.1889C57.569 54.9523 57.5956 54.7676 57.6139 54.6364C57.6222 54.5777 57.6305 54.5294 57.6355 54.4931C57.6369 54.4766 57.6402 54.4604 57.6454 54.4448C57.6469 54.4614 57.6469 54.4782 57.6454 54.4948L57.6305 54.6399C57.6155 54.7711 57.5939 54.9558 57.5657 55.1923C57.5076 55.6775 57.4229 56.3698 57.3182 57.2261C57.1006 58.9526 56.8 61.3127 56.4695 63.9301V63.9715C56.4413 66.6009 56.4147 68.9783 56.3948 70.7048C56.3815 71.568 56.3715 72.2586 56.3632 72.7438C56.3632 72.9803 56.3549 73.1668 56.3516 73.298C56.3516 73.3578 56.3516 73.4062 56.3516 73.443C56.3333 73.4706 56.3366 73.4378 56.335 73.4378Z" fill="#263238"/>
<path d="M40.4052 52.6789L38.0566 73.3829L44.9262 73.4174L41.9614 52.6789H40.4052Z" fill="#0E7490"/>
<g opacity="0.3">
<path d="M10.1098 56.7099C10.1098 56.7099 14.2771 64.2046 21.1932 64.3686L22.771 63.3966L11.02 53.6989C11.02 53.6989 10.3241 55.5601 10.1098 56.7099Z" fill="black"/>
</g>
<path d="M35.0536 46.2633L35.9522 44.5938C35.9522 44.5938 41.1326 48.689 41.0612 48.7736C41.0612 48.7736 46.504 42.6342 46.5904 42.5427L47.7946 44.4021C47.7946 44.4021 42.9862 50.8402 42.9198 50.8955C42.8533 50.9507 39.8919 50.3395 39.8919 50.3395L37.3872 49.1137L35.0536 46.2633Z" fill="#E0E0E0"/>
<path d="M39.6195 51.2853L40.4865 53.0635H42.0445L42.6573 51.0107L41.5063 49.6019H40.8253L39.6195 51.2853Z" fill="#0E7490"/>
<path d="M41.1376 49.1587C41.1305 49.1772 41.121 49.1946 41.1093 49.2105L41.018 49.3486L40.6642 49.8665L39.4086 51.6431L39.3803 51.6828L39.3504 51.6466L38.1878 50.3293C37.3191 49.3382 36.5401 48.4301 35.992 47.7637C35.7163 47.4305 35.4938 47.156 35.3526 46.9626C35.2778 46.8659 35.2264 46.79 35.1865 46.7364C35.1666 46.7108 35.1493 46.683 35.135 46.6536C35.1594 46.6749 35.1811 46.6992 35.1998 46.7261C35.2413 46.7744 35.2978 46.8487 35.3758 46.9419C35.5286 47.1283 35.7529 47.396 36.0402 47.724C36.5999 48.3818 37.3839 49.2778 38.2526 50.2723L39.4152 51.593H39.3571L40.636 49.8355L41.008 49.3348C41.0479 49.283 41.0828 49.2398 41.1093 49.2036C41.1173 49.1877 41.1267 49.1726 41.1376 49.1587Z" fill="#263238"/>
<path d="M47.8709 44.787C47.9307 44.8112 47.5902 45.3551 47.0022 46.1769C46.4142 46.9987 45.5788 48.1261 44.6437 49.3536C44.0591 50.1236 43.5043 50.8418 43.0243 51.4565L42.9977 51.491L42.9695 51.4565L41.6407 49.8008L41.2587 49.3312L41.1624 49.2051C41.1507 49.1908 41.1407 49.1752 41.1325 49.1585C41.1471 49.1702 41.1605 49.1835 41.1724 49.1982L41.2753 49.3156L41.6623 49.7731L43.0193 51.4098H42.9645L44.5756 49.3018C45.5107 48.0725 46.3528 46.9572 46.9524 46.1406C47.552 45.324 47.9024 44.7974 47.8709 44.787Z" fill="#263238"/>
<path d="M40.3686 52.9392C40.4096 52.7804 40.4652 52.626 40.5347 52.4783C40.646 52.1986 40.8087 51.817 41.0097 51.4044C41.2107 50.9917 41.41 50.6292 41.5628 50.3685C41.6383 50.2253 41.7262 50.0895 41.8252 49.9628C41.7665 50.1139 41.6954 50.2594 41.6126 50.3978C41.4731 50.6637 41.2804 51.0297 41.0828 51.4337C40.8851 51.8377 40.7107 52.221 40.5845 52.4938C40.5239 52.6479 40.4517 52.7969 40.3686 52.9392Z" fill="#263238"/>
<path d="M42.0062 53.0362C41.4682 53.0915 40.9264 53.0915 40.3884 53.0362C40.9263 52.9787 41.4683 52.9787 42.0062 53.0362Z" fill="#263238"/>
<g opacity="0.3">
<path d="M35.6531 47.3127L39.6127 52.3195L41.5012 49.5693L41.1374 49.1584L39.3769 51.6151L35.6531 47.3127Z" fill="black"/>
</g>
<g opacity="0.3">
<path d="M41.5015 49.5691C41.7042 49.8505 42.6525 52.5801 43.013 52.6163C43.3734 52.6526 47.5456 45.3564 47.5456 45.3564L42.998 51.4319L41.5015 49.5691Z" fill="black"/>
</g>
<g opacity="0.3">
<path d="M20.2464 57.6921L19.8328 58.7694C19.8328 58.7694 21.4356 58.942 21.992 55.6963C22.5484 52.4505 22.5551 50.4788 22.5551 50.4788L20.2464 57.6921Z" fill="black"/>
</g>
<g opacity="0.3">
<path d="M56.9828 73.4401L56.6855 62.1747L56.4579 63.9617L56.33 73.4262L56.9828 73.4401Z" fill="black"/>
</g>
<g opacity="0.3">
<path d="M32.0489 47.1436C32.0489 47.1436 34.7562 49.6177 39.4118 49.6022C44.0674 49.5866 46.9374 48.1916 49.9387 45.4914L48.2346 44.8768C48.2346 44.8768 45.4974 46.8156 41.194 46.9002C36.8905 46.9848 34.253 46.7483 34.253 46.7483L32.0489 47.1436Z" fill="black"/>
</g>
<path opacity="0.3" d="M38.1695 73.4571C38.1695 73.4571 39.3571 71.5079 41.287 70.4876C43.3067 69.4206 44.3797 69.4517 44.3797 69.4517L44.1472 67.8253L41.287 67.9047L38.7392 69.9765L38.3904 71.3232L38.1695 73.4571Z" fill="black"/>
<g opacity="0.3">
<path d="M27.1941 73.0356C27.1941 73.0356 28.2703 71.3765 30.4312 69.4583C32.5921 67.5402 44.2085 60.4254 44.2085 60.4254L61.0752 51.2128L60.1069 49.9646L33.2863 63.4968L26.7722 69.4134L27.1941 73.0356Z" fill="black"/>
</g>
<path d="M26.9216 73.3864H24.1096C24.3073 69.2756 26.2921 66.3078 30.7699 63.0862C34.884 60.1253 41.262 56.8208 50.0898 52.2456C53.3236 50.5692 56.9876 48.67 61.002 46.5482C63.3574 45.3135 65.4238 43.5573 67.0561 41.4033L69.2718 43.1954C67.3855 45.6875 64.9971 47.72 62.2743 49.15C58.2499 51.2753 54.5809 53.1779 51.3421 54.856C34.2728 63.7025 27.2155 67.2228 26.9216 73.3864Z" fill="#455A64"/>
<path d="M26.1445 64.6019C19.0125 64.6019 12.3987 59.6038 10.2843 54.8438C9.66977 53.4627 8.64665 50.7762 8.69315 48.3298C8.72969 46.3841 9.44555 43.5958 11.339 42.1386C12.2376 41.448 13.4982 40.956 14.7987 40.7851C16.267 40.5952 17.6106 40.8386 18.579 41.4757L16.8333 44.3572C16.1241 43.8927 14.2024 44.1759 13.2873 44.8751C12.5631 45.431 11.9951 46.9469 11.9685 48.3954C11.9436 49.6851 12.4136 51.5134 13.2574 53.4143C14.0878 55.2893 15.9663 57.2851 18.2733 58.7526C20.8727 60.4066 23.7976 61.275 26.5065 61.1904L26.6012 64.5933C26.4418 64.5985 26.289 64.6019 26.1445 64.6019Z" fill="#0E7490"/>
<g opacity="0.3">
<path d="M16.1523 44.1445L17.1056 40.8641C17.1056 40.8641 18.1869 41.1594 18.529 41.477L16.8017 44.3085" fill="black"/>
</g>
<g opacity="0.3">
<path d="M24.1379 48.5284C24.2043 48.4938 34.4356 57.1314 41.928 59.1203C49.4205 61.1092 55.6124 61.4528 58.0224 60.9349C60.4324 60.4169 63.4685 59.5261 63.4685 59.5261L63.1164 57.1176C63.1164 57.1176 54.3235 57.8238 48.5867 57.4353C42.8499 57.0468 29.0061 48.5284 29.0061 48.5284L26.2572 47.1575L24.1379 48.5284Z" fill="black"/>
</g>
<path d="M53.6309 60.163C51.2161 60.1485 48.8092 59.8731 46.4491 59.3412C42.0061 58.3589 37.0765 55.6535 33.7547 53.7043C32.9242 53.2157 32.0207 52.6684 31.0009 52.0451C30.3116 51.6221 29.6439 51.2078 29.0078 50.8124C26.6908 49.3725 24.6428 48.1484 23.4868 47.6702C23.8423 46.529 24.2127 45.4396 24.5997 44.4123C25.9998 44.9907 28.1491 46.3115 30.6869 47.8895C31.3214 48.2831 31.9841 48.694 32.6684 49.1153C33.665 49.7299 34.5536 50.2617 35.3674 50.7399C38.5016 52.5786 43.1289 55.1269 47.1317 56.0108C51.6162 57.0018 58.0722 57.5043 63.3706 54.2844C65.8404 52.7616 67.8418 50.6674 68.9961 48.366C70.3132 45.74 70.5574 42.9137 69.7219 39.9649C68.4846 35.6003 64.2027 33.1798 59.0655 33.9464C55.8615 34.4229 53.0861 35.7626 50.6296 36.9435C48.7794 37.8344 47.1816 38.6044 45.6701 38.8824L45.1004 35.5296C46.1917 35.3293 47.6101 34.6456 49.2527 33.8549C51.7773 32.6377 54.9215 31.1236 58.6004 30.5745C61.9222 30.079 65.0564 30.6315 67.6441 32.175C70.1687 33.6619 72.0396 36.1092 72.8627 39.0015C73.9307 42.7704 73.5985 46.5532 71.8994 49.9388C70.4444 52.8393 68.0677 55.3513 65.0248 57.2056C61.3841 59.4241 57.3564 60.163 53.6309 60.163Z" fill="#0E7490"/>
<g opacity="0.3">
<path d="M58.9094 30.5569C59.323 31.8397 59.0755 33.9978 59.0755 33.9978L58.3381 34.0721C58.405 32.931 58.3047 31.7859 58.0408 30.6761L58.9094 30.5569Z" fill="black"/>
</g>
<g opacity="0.3">
<path d="M62.7643 30.5177C62.9167 31.6633 62.9167 32.8252 62.7643 33.9707L62.0334 33.8326V30.4314L62.7643 30.5177Z" fill="black"/>
</g>
<g opacity="0.3">
<path d="M70.1589 42.1126L70.2037 43.1796C70.2037 43.1796 72.2583 41.201 72.6071 38.2591C72.4378 37.7234 72.218 37.2064 71.951 36.7156L70.1589 42.1126Z" fill="black"/>
</g>
<g opacity="0.3">
<path d="M46.2846 35.1754C46.2846 35.2323 46.7978 38.5644 46.7978 38.5644C46.4089 38.7132 46.009 38.8287 45.602 38.9097L45.0887 35.512C45.5013 35.4626 45.9044 35.3491 46.2846 35.1754Z" fill="black"/>
</g>
<path d="M39.5794 48.7264C37.9595 48.7442 36.3504 48.4516 34.8325 47.8632C34.2396 47.6232 33.4108 47.2434 32.5321 46.8429C31.7897 46.4976 31.0224 46.1523 30.2899 45.8329C29.2551 45.384 27.8998 45.4427 27.6158 46.0055L25.1244 44.6433C26.2223 42.4541 29.1987 42.1934 31.3662 43.1344C32.1219 43.4641 32.9025 43.825 33.6566 44.1703C34.507 44.5587 35.3092 44.9265 35.8457 45.144C37.681 45.8864 40.1093 46.0176 42.3415 45.4893C45.2 44.8177 48.7909 42.48 50.6976 40.0491C52.7206 37.4698 53.3867 34.4691 52.5246 31.8155C51.7108 29.3104 47.6532 27.6357 45.4392 27.8688L45.1551 24.9648C48.3541 24.6195 53.8467 26.7656 55.1838 30.8832C56.3614 34.5088 55.516 38.5195 52.8734 41.893C50.5814 44.816 46.4125 47.5248 42.9594 48.3345C41.8502 48.5951 40.7166 48.7265 39.5794 48.7264Z" fill="#455A64"/>
<path d="M35.3477 73.3843C35.3477 71.3989 36.4954 69.2511 38.4253 67.6403C43.1822 63.6694 50.1382 64.524 53.862 65.3873L53.2507 68.236C45.7218 66.4922 41.8319 68.5398 40.1826 69.9158C38.6878 71.1658 38.1546 72.5643 38.1546 73.3809L35.3477 73.3843Z" fill="#455A64"/>
<path d="M51.7924 69.0235L55.9298 67.4214L53.0049 63.9667L51.7924 69.0235Z" fill="#455A64"/>
<g opacity="0.3">
<path d="M46.6202 24.9548L46.3827 27.8587H45.4692L45.2051 24.9427C45.675 24.8767 46.1515 24.8808 46.6202 24.9548Z" fill="black"/>
</g>
<g opacity="0.3">
<path d="M25.5446 44.0017C25.5446 44.0017 27.9198 45.7282 27.8882 45.7282C27.7707 45.7841 27.6747 45.8796 27.6158 45.9992L25.1244 44.6371C25.247 44.4133 25.3876 44.2008 25.5446 44.0017Z" fill="black"/>
</g>
<path d="M48.6698 12.709L45.323 17.538L50.6762 19.3128L48.6698 12.709Z" fill="#455A64"/>
<path d="M64.9269 47.5189L63.8041 44.8446H63.7859C63.8058 44.8359 65.7591 43.8536 67.7007 40.3712C69.6589 36.8596 69.6423 31.5213 69.639 31.1656C69.3068 24.5653 66.4982 19.9849 61.2746 17.5506L61.1899 17.5195C59.4176 16.7086 57.506 16.2783 55.5697 16.2543C53.6335 16.2302 51.7126 16.613 49.9222 17.3797L48.6981 17.9062L47.6268 15.2077L48.8525 14.6898C50.9942 13.7733 53.292 13.3162 55.6078 13.3458C57.9237 13.3755 60.21 13.8914 62.3292 14.8624L62.4256 14.9056C68.6092 17.7888 72.0739 23.3757 72.4476 31.0638V31.1069C72.4476 31.3676 72.5489 37.5243 70.1339 41.8543C67.7189 46.1843 65.206 47.3877 64.9269 47.5189Z" fill="#455A64"/>
<path d="M57.5473 48.0619L54.5244 46.8275C54.8949 45.7968 55.327 44.7912 55.8183 43.8165C56.4411 42.5372 57.0839 41.2147 57.5938 39.5469C59.4424 33.5042 59.1933 30.1773 58.0373 25.7972L61.193 24.8942C62.4919 29.8095 62.7991 33.7632 60.713 40.5793C60.1234 42.5078 59.3843 44.0185 58.7398 45.3513C58.2915 46.2298 57.8933 47.1349 57.5473 48.0619Z" fill="#0E7490"/>
<path d="M62.507 25.0382L58.363 20.8998L56.1191 26.4159L62.507 25.0382Z" fill="#0E7490"/>
<g opacity="0.3">
<path d="M54.5244 46.8244L54.8034 46.1096L57.8413 47.237L57.5473 48.0623L54.5244 46.8244Z" fill="black"/>
</g>
<path d="M62.8877 18.118C67.3921 17.5978 70.6378 13.3805 70.1373 8.69834C69.6369 4.01622 65.5797 0.642347 61.0753 1.16258C56.571 1.68282 53.3253 5.90016 53.8258 10.5823C54.3262 15.2644 58.3834 18.6383 62.8877 18.118Z" fill="white"/>
<path d="M54.0231 9.45444C54.0323 9.40901 54.0373 9.36275 54.038 9.31632C54.038 9.21791 54.0546 9.08324 54.0663 8.91059C54.0663 8.82082 54.0779 8.72068 54.0845 8.61191C54.0912 8.50314 54.1194 8.38401 54.1377 8.25453C54.1722 7.95662 54.2277 7.66176 54.3038 7.3723C54.4971 6.57355 54.8056 5.80984 55.2189 5.10715C56.308 3.24123 58.0417 1.8783 60.0655 1.2971C62.0892 0.715908 64.2502 0.960368 66.1063 1.98048C66.4531 2.17863 66.7861 2.4019 67.1028 2.64863C67.4283 2.89985 67.7373 3.17324 68.028 3.46699C68.3159 3.77331 68.5839 4.09919 68.8302 4.44245C69.3366 5.15067 69.7293 5.93955 69.9928 6.77838C70.2609 7.64358 70.4031 8.54556 70.4147 9.45444C70.4045 10.3633 70.2628 11.2654 69.9945 12.1305C69.7296 12.9687 69.337 13.7574 68.8319 14.4664C68.5867 14.8129 68.3192 15.1416 68.0313 15.4505C67.741 15.7447 67.4319 16.0181 67.1062 16.2689C66.7895 16.5156 66.4565 16.7389 66.1096 16.937C65.7655 17.1238 65.4099 17.2864 65.0449 17.4239C63.2584 18.0969 61.3024 18.1032 59.5119 17.4418C57.7214 16.7803 56.2078 15.4923 55.2306 13.7983C54.8175 13.0954 54.509 12.3318 54.3154 11.5331C54.2395 11.2436 54.184 10.9488 54.1493 10.6509C54.131 10.5214 54.1078 10.4023 54.0962 10.2935C54.0845 10.1847 54.0829 10.0846 54.0779 9.99482C54.0663 9.82218 54.0563 9.68751 54.0496 9.5891C54.0489 9.5421 54.0439 9.49529 54.0347 9.44926C54.0318 9.49582 54.0318 9.54253 54.0347 9.5891C54.0347 9.68924 54.0347 9.8239 54.0463 9.99655C54.0463 10.0881 54.0463 10.1882 54.058 10.297C54.0696 10.4057 54.0878 10.5266 54.1028 10.6578C54.1375 10.9585 54.193 11.2562 54.2689 11.5487C54.4529 12.3581 54.756 13.1332 55.1674 13.8466C55.7653 14.8998 56.5721 15.8086 57.534 16.5126C58.4959 17.2167 59.591 17.6997 60.7465 17.9297C62.2066 18.2164 63.714 18.0906 65.1114 17.5655C65.4836 17.4275 65.846 17.2625 66.196 17.0717C66.5515 16.8709 66.8928 16.6442 67.2174 16.3932C67.5499 16.1379 67.8656 15.8599 68.1625 15.561C68.4558 15.2468 68.7283 14.9122 68.978 14.5597C69.4959 13.8373 69.898 13.0328 70.1689 12.1771C70.4439 11.2956 70.5889 10.3759 70.5991 9.44926C70.5853 8.52382 70.4369 7.60587 70.1589 6.72659C69.8874 5.8712 69.4853 5.06676 68.968 4.34404C68.7173 3.99235 68.4443 3.6584 68.1509 3.34441C67.855 3.04504 67.5398 2.76701 67.2075 2.51224C66.5695 2.00823 65.8586 1.61255 65.1014 1.33996C63.704 0.814797 62.1966 0.688994 60.7365 0.97567C59.5811 1.20568 58.486 1.68876 57.524 2.39277C56.5621 3.09679 55.7554 4.00561 55.1575 5.05881C54.7457 5.77204 54.4426 6.54719 54.2589 7.35676C54.1829 7.64915 54.1274 7.94689 54.0928 8.24762C54.0779 8.37711 54.0563 8.49796 54.048 8.60673C54.0397 8.7155 54.0397 8.81736 54.0364 8.90887C54.0364 9.08151 54.0281 9.21618 54.0247 9.31632C54.0212 9.36227 54.0207 9.40841 54.0231 9.45444Z" fill="#263238"/>
<path d="M60.1932 7.34263H61.296C61.296 7.34263 61.296 6.37925 62.2594 6.36199C62.4449 6.35527 62.6278 6.40865 62.7828 6.51474C62.9379 6.62084 63.0573 6.7744 63.1247 6.95417C63.1822 7.1047 63.2049 7.26714 63.1911 7.42845C63.1772 7.58976 63.1272 7.74545 63.045 7.88302C62.859 8.20415 62.4487 8.49592 61.7046 8.35953V10.9493H62.7958V9.43168C62.7958 9.43168 64.3256 9.01905 64.3256 7.26667C64.3256 5.59025 62.8789 5.19489 62.2594 5.19489C61.7827 5.20006 60.1699 5.31919 60.1932 7.34263Z" fill="#263238"/>
<path d="M62.8059 11.4791H61.6981V12.5547H62.8059V11.4791Z" fill="#263238"/>
<path d="M56.599 19.4926C57.0599 18.9617 57.0194 18.1429 56.5086 17.6638C55.9979 17.1848 55.2102 17.2268 54.7493 17.7578C54.2884 18.2887 54.3289 19.1075 54.8397 19.5866C55.3504 20.0656 56.1381 20.0236 56.599 19.4926Z" fill="white"/>
<path d="M54.4282 18.6219C54.4448 18.6219 54.4464 18.5062 54.5012 18.3146C54.5795 18.0457 54.7399 17.8106 54.958 17.6447C55.1314 17.5135 55.3364 17.4348 55.5502 17.4171C55.764 17.3995 55.9784 17.4437 56.1695 17.5449C56.3607 17.646 56.5212 17.8002 56.6333 17.9903C56.7454 18.1803 56.8047 18.3989 56.8047 18.6219C56.8047 18.8449 56.7454 19.0635 56.6333 19.2536C56.5212 19.4436 56.3607 19.5978 56.1695 19.6989C55.9784 19.8001 55.764 19.8443 55.5502 19.8267C55.3364 19.809 55.1314 19.7303 54.958 19.5991C54.7399 19.4332 54.5795 19.1981 54.5012 18.9292C54.4464 18.7376 54.4448 18.6219 54.4282 18.6219C54.4007 18.7282 54.4007 18.8402 54.4282 18.9465C54.4859 19.2461 54.645 19.5144 54.8766 19.7027C55.0491 19.8453 55.2537 19.9397 55.4711 19.9772C55.6885 20.0147 55.9115 19.9939 56.119 19.9168C56.3733 19.8187 56.5926 19.642 56.7474 19.4105C56.9023 19.1791 56.9853 18.9039 56.9853 18.6219C56.9853 18.34 56.9023 18.0648 56.7474 17.8333C56.5926 17.6018 56.3733 17.4252 56.119 17.327C55.9114 17.2504 55.6885 17.2299 55.4712 17.2673C55.2539 17.3048 55.0493 17.399 54.8766 17.5411C54.6456 17.7299 54.4866 17.998 54.4282 18.2973C54.4006 18.4036 54.4006 18.5156 54.4282 18.6219Z" fill="#263238"/>
<path d="M22.5133 18.2314C22.8996 15.7763 21.2982 13.4605 18.9363 13.0589C16.5745 12.6573 14.3466 14.322 13.9603 16.7771C13.5739 19.2322 15.1754 21.548 17.5372 21.9496C19.8991 22.3512 22.127 20.6865 22.5133 18.2314Z" fill="white"/>
<path d="M22.5717 17.5062C22.5665 17.4824 22.5637 17.4581 22.5634 17.4337C22.5634 17.3819 22.5551 17.3111 22.5485 17.2196C22.5485 17.173 22.5485 17.1195 22.5385 17.0625C22.5286 17.0056 22.5202 16.9434 22.5103 16.8743C22.4916 16.7178 22.4611 16.5631 22.4189 16.4116C22.3173 15.9912 22.1555 15.5891 21.9389 15.2186C21.6542 14.7272 21.2816 14.297 20.8411 13.9514C20.3088 13.5302 19.6886 13.2451 19.0307 13.1192C18.2755 12.9747 17.4969 13.042 16.7751 13.3143C16.3856 13.4574 16.0197 13.6624 15.6905 13.9221C15.5192 14.0544 15.3566 14.1986 15.2039 14.3537C15.0522 14.5163 14.9113 14.6893 14.782 14.8716C14.516 15.2448 14.309 15.6598 14.1691 16.1009C13.8746 17.014 13.8746 18.002 14.1691 18.915C14.309 19.3562 14.516 19.7712 14.782 20.1443C14.9112 20.3262 15.0516 20.4992 15.2022 20.6623C15.3558 20.8158 15.5183 20.9594 15.6889 21.0921C15.857 21.219 16.0329 21.3343 16.2154 21.4374C16.3963 21.5354 16.5833 21.6207 16.7751 21.693C17.4975 21.9653 18.2764 22.0332 19.0323 21.8898C19.6317 21.7717 20.2004 21.5235 20.7012 21.1614C21.202 20.7994 21.6238 20.3316 21.9389 19.7886C22.1555 19.4188 22.3173 19.0172 22.4189 18.5974C22.4611 18.4453 22.4917 18.29 22.5103 18.133C22.5202 18.0656 22.5335 18.0017 22.5385 17.9448C22.5435 17.8878 22.5385 17.8343 22.5485 17.7877C22.5485 17.6979 22.5601 17.6271 22.5634 17.5736C22.5637 17.5492 22.5665 17.5249 22.5717 17.5011C22.574 17.5252 22.574 17.5495 22.5717 17.5736C22.5717 17.6271 22.5717 17.6979 22.5717 17.7894V17.9465C22.5717 18.0052 22.5568 18.0673 22.5485 18.1364C22.5308 18.2942 22.5025 18.4506 22.4638 18.6043C22.3662 19.0299 22.2066 19.4374 21.9904 19.8128C21.4756 20.7225 20.6708 21.4162 19.7154 21.7735C18.76 22.1308 17.7145 22.1292 16.7602 21.7689C16.5643 21.6954 16.3735 21.6083 16.1888 21.5082C16.0021 21.4024 15.8228 21.283 15.6523 21.1508C15.4771 21.0168 15.3107 20.8709 15.1541 20.714C14.9998 20.5489 14.8566 20.373 14.7255 20.1875C14.4523 19.8078 14.2403 19.3845 14.0977 18.934C13.9536 18.4703 13.8775 17.9866 13.8718 17.4993C13.8772 17.0119 13.9539 16.5281 14.0994 16.0646C14.242 15.6146 14.4535 15.1914 14.7255 14.8112C14.8569 14.6286 15.0001 14.4556 15.1541 14.2932C15.3107 14.1364 15.4771 13.9905 15.6523 13.8564C15.8228 13.7243 16.0021 13.6049 16.1888 13.4991C17.0694 13.0211 18.0784 12.8626 19.0556 13.0485C19.6635 13.1691 20.2397 13.4231 20.7457 13.7934C21.2518 14.1638 21.6761 14.642 21.9904 15.1962C22.207 15.5714 22.3667 15.979 22.4638 16.4047C22.5025 16.5585 22.5308 16.7148 22.5485 16.8726C22.5568 16.9417 22.5668 17.0038 22.5717 17.0625V17.2214C22.5717 17.3111 22.5717 17.3819 22.5717 17.4355C22.5738 17.459 22.5738 17.4827 22.5717 17.5062Z" fill="#263238"/>
<path d="M16.9146 16.6433H17.6221C17.6217 16.5594 17.6374 16.4764 17.6685 16.399C17.6995 16.3216 17.7452 16.2515 17.8029 16.1929C17.8605 16.1342 17.9289 16.0883 18.004 16.0577C18.0791 16.0271 18.1594 16.0125 18.24 16.0148C18.3591 16.0096 18.4768 16.0435 18.5764 16.1117C18.6759 16.1798 18.7523 16.2789 18.7947 16.3947C18.8324 16.491 18.8476 16.5952 18.8389 16.6987C18.8302 16.8023 18.798 16.9022 18.7449 16.9903C18.6253 17.1958 18.3612 17.3839 17.8846 17.2959V18.955H18.5855V17.983C18.8718 17.8959 19.1228 17.7137 19.3 17.4643C19.4773 17.2149 19.5711 16.9119 19.5671 16.6018C19.5671 15.5262 18.6386 15.2759 18.2383 15.2759C17.9361 15.2742 16.9013 15.345 16.9146 16.6433Z" fill="#263238"/>
<path d="M18.5938 19.297H17.8829V19.9876H18.5938V19.297Z" fill="#263238"/>
<path d="M24.4966 19.6421C24.4969 19.792 24.4544 19.9387 24.3745 20.0636C24.2946 20.1885 24.1808 20.2859 24.0476 20.3435C23.9144 20.4012 23.7677 20.4164 23.6262 20.3874C23.4846 20.3583 23.3546 20.2863 23.2524 20.1803C23.1503 20.0744 23.0807 19.9394 23.0524 19.7923C23.0241 19.6452 23.0385 19.4927 23.0936 19.3541C23.1488 19.2156 23.2422 19.0971 23.3621 19.0137C23.4821 18.9304 23.6231 18.8859 23.7674 18.8859C23.9605 18.8859 24.1457 18.9655 24.2824 19.1072C24.4191 19.249 24.4961 19.4413 24.4966 19.6421Z" fill="white"/>
<path d="M24.4969 19.6421C24.4869 19.6421 24.4869 19.5748 24.4537 19.4695C24.408 19.312 24.3141 19.1744 24.1863 19.0776C24.0843 18.9989 23.9633 18.9513 23.8368 18.9399C23.7103 18.9285 23.5833 18.9539 23.4698 19.0131C23.3563 19.0724 23.2609 19.1632 23.1942 19.2755C23.1274 19.3877 23.0919 19.517 23.0917 19.649C23.0919 19.781 23.1274 19.9103 23.1942 20.0226C23.2609 20.1349 23.3563 20.2257 23.4698 20.2849C23.5833 20.3442 23.7103 20.3695 23.8368 20.3581C23.9633 20.3468 24.0843 20.2991 24.1863 20.2205C24.3145 20.124 24.4085 19.9862 24.4537 19.8286C24.4869 19.7164 24.4869 19.6559 24.4969 19.6559C24.5127 19.7182 24.5127 19.7836 24.4969 19.8458C24.4629 20.021 24.3698 20.1777 24.2344 20.2878C24.1334 20.3712 24.0136 20.4266 23.8864 20.4486C23.7591 20.4707 23.6285 20.4587 23.507 20.4139C23.3557 20.359 23.2246 20.2565 23.1318 20.1207C23.0391 19.9849 22.9893 19.8225 22.9893 19.6559C22.9893 19.4894 23.0391 19.327 23.1318 19.1912C23.2246 19.0554 23.3557 18.9529 23.507 18.898C23.6286 18.8537 23.7591 18.8419 23.8863 18.864C24.0134 18.886 24.1332 18.9411 24.2344 19.024C24.3691 19.1347 24.4621 19.2912 24.4969 19.466C24.5106 19.5238 24.5106 19.5843 24.4969 19.6421Z" fill="#263238"/>
<path d="M69.3 63.4691C72.528 63.4691 75.1448 60.749 75.1448 57.3936C75.1448 54.0382 72.528 51.3181 69.3 51.3181C66.072 51.3181 63.4552 54.0382 63.4552 57.3936C63.4552 60.749 66.072 63.4691 69.3 63.4691Z" fill="white"/>
<path d="M75.1414 57.4008C75.1346 57.3684 75.1307 57.3355 75.1298 57.3024C75.1298 57.2316 75.1198 57.1298 75.1098 57.0141C75.1098 56.9502 75.1015 56.8794 75.0982 56.8034C75.0949 56.7275 75.0733 56.6412 75.06 56.5497C75.0329 56.3381 74.9919 56.1287 74.9371 55.9229C74.7986 55.3566 74.5798 54.8149 74.2877 54.3156C73.5154 52.9931 72.2867 52.0268 70.8523 51.6139C69.418 51.2009 67.8861 51.3725 66.5694 52.0936C66.3225 52.2337 66.0855 52.3918 65.8602 52.5667C65.6265 52.745 65.4045 52.9394 65.1958 53.1485C64.9919 53.3648 64.8027 53.5956 64.6294 53.8391C64.2694 54.3414 63.989 54.9003 63.7989 55.4948C63.6088 56.1088 63.508 56.7489 63.5 57.3939C63.507 58.039 63.6078 58.6793 63.7989 59.293C63.9884 59.8888 64.2688 60.449 64.6294 60.9522C64.8035 61.195 64.9927 61.4257 65.1958 61.6428C65.4046 61.8513 65.6265 62.0451 65.8602 62.2229C66.0859 62.3977 66.3229 62.5563 66.5694 62.6977C66.8134 62.8305 67.0659 62.9458 67.3251 63.043C68.2982 63.4104 69.3479 63.5016 70.3662 63.3071C71.175 63.1487 71.9424 62.8144 72.6182 62.3261C73.294 61.8379 73.8629 61.2067 74.2877 60.4739C74.5805 59.975 74.7994 59.4332 74.9371 58.8666C74.9917 58.6614 75.0327 58.4526 75.06 58.2416C75.0733 58.1484 75.0899 58.069 75.0982 57.9878C75.1065 57.9067 75.1065 57.8393 75.1098 57.7755C75.1198 57.6529 75.1248 57.5579 75.1298 57.4871C75.1314 57.4581 75.1353 57.4292 75.1414 57.4008C75.1436 57.4336 75.1436 57.4665 75.1414 57.4992C75.1414 57.57 75.1414 57.6719 75.1414 57.7893C75.1414 57.8531 75.1414 57.9239 75.1414 58.0016C75.1414 58.0793 75.1198 58.1656 75.1082 58.2571C75.0857 58.4704 75.048 58.6816 74.9952 58.889C74.8647 59.4638 74.6496 60.0141 74.3574 60.5206C73.9328 61.2674 73.3604 61.9119 72.678 62.4113C71.9957 62.9108 71.219 63.2538 70.3995 63.4176C69.3637 63.6198 68.2948 63.5304 67.3035 63.1586C66.7664 62.9644 66.2619 62.6835 65.8087 62.3265C65.5744 62.1458 65.3524 61.9485 65.1443 61.736C64.9357 61.5135 64.742 61.2764 64.5646 61.0264C64.1972 60.514 63.9117 59.9432 63.7192 59.3362C63.314 58.0803 63.314 56.7213 63.7192 55.4654C63.912 54.8585 64.1975 54.2879 64.5646 53.7752C64.742 53.5252 64.9357 53.2881 65.1443 53.0656C65.3532 52.854 65.5751 52.6568 65.8087 52.4751C66.0391 52.2974 66.281 52.1364 66.5328 51.9935C66.7817 51.86 67.0392 51.7446 67.3035 51.6482C68.2947 51.276 69.3639 51.1872 70.3995 51.3909C71.219 51.554 71.9958 51.8966 72.6782 52.3958C73.3606 52.895 73.9331 53.5394 74.3574 54.2862C74.6493 54.7928 74.8644 55.3431 74.9952 55.9178C75.048 56.1252 75.0857 56.3364 75.1082 56.5497C75.1198 56.6412 75.1347 56.7223 75.1414 56.8052C75.148 56.888 75.1414 56.9536 75.1414 57.0175C75.1414 57.1418 75.1414 57.2368 75.1414 57.3076C75.1434 57.3386 75.1434 57.3698 75.1414 57.4008Z" fill="#263238"/>
<path d="M67.7223 56.0196H68.566C68.5655 55.9195 68.5844 55.8204 68.6215 55.728C68.6586 55.6357 68.7131 55.552 68.7819 55.4819C68.8507 55.4119 68.9323 55.3569 69.0219 55.3203C69.1115 55.2836 69.2072 55.2661 69.3035 55.2686C69.4459 55.2629 69.5865 55.3036 69.7056 55.385C69.8247 55.4664 69.9164 55.5845 69.9678 55.7227C70.0123 55.8376 70.0298 55.9618 70.0192 56.0851C70.0085 56.2085 69.9698 56.3274 69.9064 56.4323C69.7636 56.6791 69.4496 56.9019 68.8799 56.7983V58.782H69.7104V57.6235C70.0532 57.5185 70.3533 57.2995 70.5649 57.0001C70.7764 56.7008 70.8876 56.3375 70.8813 55.9661C70.8813 54.6816 69.7752 54.3846 69.3001 54.3846C68.9414 54.376 67.7057 54.4658 67.7223 56.0196Z" fill="#263238"/>
<path d="M69.7237 59.1802H68.8766V60.0038H69.7237V59.1802Z" fill="#263238"/>
<path d="M63.1049 50.6673C63.1046 50.8668 63.1612 51.0619 63.2676 51.2279C63.374 51.394 63.5253 51.5235 63.7026 51.6001C63.8798 51.6766 64.0748 51.6968 64.2631 51.6581C64.4514 51.6194 64.6244 51.5235 64.7602 51.3826C64.896 51.2417 64.9886 51.062 65.0261 50.8664C65.0637 50.6707 65.0446 50.4679 64.9712 50.2836C64.8978 50.0992 64.7735 49.9417 64.614 49.8308C64.4544 49.7199 64.2668 49.6608 64.0749 49.6608C63.8179 49.6608 63.5715 49.7668 63.3896 49.9555C63.2077 50.1442 63.1054 50.4002 63.1049 50.6673Z" fill="white"/>
<path d="M63.1049 50.6674C63.1182 50.6674 63.1182 50.5776 63.1614 50.4291C63.2233 50.2208 63.3486 50.0391 63.5185 49.9112C63.654 49.807 63.8146 49.7439 63.9825 49.729C64.1505 49.7141 64.3191 49.748 64.4696 49.8268C64.6201 49.9057 64.7466 50.0264 64.8349 50.1756C64.9233 50.3248 64.9701 50.4965 64.9701 50.6717C64.9701 50.8469 64.9233 51.0186 64.8349 51.1678C64.7466 51.317 64.6201 51.4377 64.4696 51.5166C64.3191 51.5954 64.1505 51.6293 63.9825 51.6144C63.8146 51.5995 63.654 51.5364 63.5185 51.4322C63.349 51.304 63.2237 51.1223 63.1614 50.9143C63.1182 50.7641 63.1182 50.6743 63.1049 50.6743C63.0855 50.7577 63.0855 50.8447 63.1049 50.9281C63.1506 51.1605 63.2742 51.3685 63.4537 51.5151C63.5876 51.6272 63.7469 51.7019 63.9163 51.7321C64.0858 51.7623 64.2598 51.747 64.422 51.6877C64.6229 51.6144 64.797 51.4779 64.9201 51.2973C65.0432 51.1167 65.1093 50.9008 65.1093 50.6795C65.1093 50.4581 65.0432 50.2422 64.9201 50.0616C64.797 49.881 64.6229 49.7446 64.422 49.6712C64.2597 49.6127 64.0858 49.5979 63.9165 49.6281C63.7472 49.6583 63.588 49.7325 63.4537 49.8439C63.2741 49.991 63.1505 50.1996 63.1049 50.4326C63.0876 50.5098 63.0876 50.5901 63.1049 50.6674Z" fill="#263238"/>
<path d="M16.4055 68.0556C17.0564 65.8356 15.8528 63.4874 13.7171 62.8108C11.5813 62.1342 9.32231 63.3854 8.67139 65.6054C8.02047 67.8254 9.22414 70.1736 11.3599 70.8502C13.4956 71.5269 15.7546 70.2757 16.4055 68.0556Z" fill="white"/>
<path d="M16.5806 66.8357C16.5789 66.8127 16.5789 66.7896 16.5806 66.7666C16.5806 66.7183 16.5806 66.6527 16.5657 66.5681C16.5657 66.5232 16.5657 66.4749 16.5574 66.4213C16.5491 66.3678 16.5408 66.3091 16.5308 66.2487C16.5123 66.1029 16.484 65.9587 16.4461 65.8171C16.3514 65.4248 16.1996 65.0498 15.996 64.7052C15.5176 63.8725 14.7748 63.2394 13.8956 62.9148C13.0164 62.5902 12.0558 62.5945 11.1793 62.9269C11.0005 62.9947 10.8263 63.0749 10.6578 63.1669C10.4845 63.2639 10.3179 63.3735 10.1595 63.4949C9.99806 63.6162 9.84489 63.7488 9.70107 63.892C9.55984 64.0436 9.42886 64.2051 9.3091 64.3754C9.06231 64.7212 8.87052 65.106 8.74106 65.5149C8.46644 66.367 8.46644 67.2889 8.74106 68.1409C8.87113 68.5524 9.06405 68.9395 9.31242 69.2873C9.43275 69.4577 9.56428 69.6192 9.70606 69.7707C9.84845 69.9162 9.99993 70.0517 10.1595 70.1764C10.3179 70.2978 10.4845 70.4075 10.6578 70.5045C11.3348 70.8811 12.1016 71.0478 12.8671 70.9847C13.6326 70.9217 14.3646 70.6316 14.9762 70.1488C15.3841 69.8269 15.7281 69.4258 15.9893 68.9679C16.1924 68.623 16.3441 68.2481 16.4394 67.856C16.4772 67.7138 16.5055 67.569 16.5241 67.4227C16.5341 67.3588 16.5457 67.3018 16.5507 67.25C16.5557 67.1982 16.5507 67.1465 16.559 67.1033C16.559 67.0187 16.5706 66.9514 16.574 66.903C16.5722 66.8806 16.5722 66.8581 16.574 66.8357C16.5758 66.8581 16.5758 66.8806 16.574 66.903C16.574 66.9531 16.574 67.0187 16.574 67.1033C16.574 67.1482 16.574 67.1965 16.574 67.2518C16.574 67.307 16.559 67.364 16.5507 67.4244C16.5356 67.5719 16.5095 67.7179 16.4727 67.8612C16.3823 68.2587 16.2338 68.6395 16.0325 68.9903C15.5521 69.8393 14.8008 70.4867 13.9091 70.82C13.0175 71.1534 12.0417 71.1517 11.1511 70.8152C10.7795 70.6818 10.4308 70.4878 10.118 70.2403C9.95367 70.1151 9.79774 69.9784 9.65125 69.8311C9.50678 69.6767 9.3725 69.5123 9.2493 69.3391C8.9957 68.9844 8.79833 68.5898 8.66466 68.1703C8.53037 67.7372 8.45982 67.2855 8.45538 66.8305C8.45968 66.3759 8.53081 65.9247 8.66632 65.4925C8.79884 65.0725 8.9963 64.6777 9.25097 64.3237C9.37351 64.1504 9.50725 63.986 9.65125 63.8316C9.79668 63.6851 9.9515 63.5489 10.1146 63.4242C10.4275 63.1767 10.7762 62.9827 11.1477 62.8492C12.0388 62.5141 13.0145 62.5135 13.906 62.8474C14.7975 63.1813 15.5486 63.8287 16.0292 64.6776C16.2304 65.0278 16.3789 65.408 16.4693 65.805C16.5059 65.9483 16.532 66.0943 16.5474 66.2418C16.5474 66.3057 16.5657 66.3644 16.5706 66.4144C16.5756 66.4645 16.5706 66.518 16.5706 66.5612C16.5706 66.6475 16.5706 66.7131 16.5706 66.7615C16.5761 66.7858 16.5794 66.8107 16.5806 66.8357Z" fill="#263238"/>
<path d="M11.445 65.8808H12.0264C12.0263 65.8118 12.0396 65.7434 12.0654 65.6798C12.0911 65.6161 12.1289 65.5585 12.1764 65.5102C12.2239 65.462 12.2802 65.4241 12.342 65.3988C12.4038 65.3735 12.4699 65.3613 12.5363 65.3629C12.6345 65.3588 12.7314 65.3868 12.8136 65.4428C12.8958 65.4988 12.9591 65.5801 12.9947 65.6754C13.0255 65.755 13.0378 65.8411 13.0305 65.9266C13.0233 66.0121 12.9968 66.0946 12.9532 66.1674C12.8535 66.3401 12.6359 66.492 12.2423 66.4195V67.7903H12.8236V66.9875C13.0609 66.9152 13.2688 66.7639 13.4153 66.5567C13.5617 66.3496 13.6386 66.0981 13.6341 65.8411C13.6341 64.9537 12.8684 64.7465 12.5396 64.7465C12.2888 64.7465 11.4351 64.8104 11.445 65.8808Z" fill="#263238"/>
<path d="M12.8302 68.0721H12.2439V68.6418H12.8302V68.0721Z" fill="#263238"/>
<path d="M15.1906 61.4919C15.1903 61.6842 15.2448 61.8723 15.3474 62.0324C15.4499 62.1925 15.5958 62.3173 15.7667 62.3911C15.9375 62.465 16.1256 62.4845 16.3071 62.4472C16.4886 62.4099 16.6554 62.3174 16.7863 62.1815C16.9172 62.0457 17.0065 61.8725 17.0427 61.6839C17.0789 61.4953 17.0605 61.2998 16.9898 61.122C16.919 60.9443 16.7992 60.7924 16.6454 60.6855C16.4916 60.5787 16.3107 60.5216 16.1257 60.5216C15.878 60.5216 15.6404 60.6238 15.4651 60.8057C15.2897 60.9876 15.191 61.2344 15.1906 61.4919Z" fill="white"/>
<path d="M15.1904 61.4924C15.202 61.4924 15.2037 61.4061 15.2452 61.2628C15.303 61.0607 15.4232 60.8841 15.5873 60.7603C15.7057 60.6711 15.8434 60.6136 15.9882 60.5928C16.1331 60.572 16.2806 60.5887 16.4178 60.6412C16.5847 60.7062 16.7285 60.8226 16.8301 60.9749C16.9316 61.1271 16.986 61.308 16.986 61.4932C16.986 61.6785 16.9316 61.8593 16.8301 62.0116C16.7285 62.1639 16.5847 62.2803 16.4178 62.3453C16.2806 62.3978 16.1331 62.4144 15.9882 62.3937C15.8434 62.3729 15.7057 62.3154 15.5873 62.2261C15.422 62.1006 15.3017 61.9214 15.2452 61.7168C15.2037 61.5735 15.202 61.4855 15.1904 61.4855C15.1702 61.5658 15.1702 61.6503 15.1904 61.7306C15.2343 61.9538 15.3518 62.1541 15.5226 62.2969C15.6524 62.4036 15.8061 62.4742 15.9694 62.5023C16.1326 62.5304 16.3001 62.515 16.456 62.4575C16.6467 62.3839 16.8112 62.2514 16.9274 62.0778C17.0435 61.9042 17.1058 61.6978 17.1058 61.4863C17.1058 61.2749 17.0435 61.0685 16.9274 60.8949C16.8112 60.7213 16.6467 60.5888 16.456 60.5152C16.3001 60.4577 16.1326 60.4423 15.9694 60.4704C15.8061 60.4985 15.6524 60.5691 15.5226 60.6757C15.3518 60.8186 15.2343 61.0188 15.1904 61.242C15.1688 61.324 15.1688 61.4104 15.1904 61.4924Z" fill="#263238"/>
</g>
<path d="M22.1168 82.53C22.8768 82.53 23.5334 82.6733 24.0868 82.96C24.6468 83.24 25.0734 83.6433 25.3668 84.17C25.6668 84.6967 25.8168 85.3167 25.8168 86.03C25.8168 86.7433 25.6668 87.3633 25.3668 87.89C25.0734 88.41 24.6468 88.81 24.0868 89.09C23.5334 89.3633 22.8768 89.5 22.1168 89.5H19.9468V82.53H22.1168ZM22.1168 88.75C23.0168 88.75 23.7034 88.5133 24.1768 88.04C24.6501 87.56 24.8868 86.89 24.8868 86.03C24.8868 85.1633 24.6468 84.4867 24.1668 84C23.6934 83.5133 23.0101 83.27 22.1168 83.27H20.8568V88.75H22.1168ZM32.0171 86.55C32.0171 86.7233 32.0071 86.9067 31.9871 87.1H27.6071C27.6404 87.64 27.8237 88.0633 28.1571 88.37C28.4971 88.67 28.9071 88.82 29.3871 88.82C29.7804 88.82 30.1071 88.73 30.3671 88.55C30.6337 88.3633 30.8204 88.1167 30.9271 87.81H31.9071C31.7604 88.3367 31.4671 88.7667 31.0271 89.1C30.5871 89.4267 30.0404 89.59 29.3871 89.59C28.8671 89.59 28.4004 89.4733 27.9871 89.24C27.5804 89.0067 27.2604 88.6767 27.0271 88.25C26.7937 87.8167 26.6771 87.3167 26.6771 86.75C26.6771 86.1833 26.7904 85.6867 27.0171 85.26C27.2437 84.8333 27.5604 84.5067 27.9671 84.28C28.3804 84.0467 28.8537 83.93 29.3871 83.93C29.9071 83.93 30.3671 84.0433 30.7671 84.27C31.1671 84.4967 31.4737 84.81 31.6871 85.21C31.9071 85.6033 32.0171 86.05 32.0171 86.55ZM31.0771 86.36C31.0771 86.0133 31.0004 85.7167 30.8471 85.47C30.6937 85.2167 30.4837 85.0267 30.2171 84.9C29.9571 84.7667 29.6671 84.7 29.3471 84.7C28.8871 84.7 28.4937 84.8467 28.1671 85.14C27.8471 85.4333 27.6637 85.84 27.6171 86.36H31.0771ZM34.1282 85.03C34.3082 84.7167 34.5749 84.4567 34.9282 84.25C35.2882 84.0367 35.7049 83.93 36.1782 83.93C36.6649 83.93 37.1049 84.0467 37.4982 84.28C37.8982 84.5133 38.2116 84.8433 38.4382 85.27C38.6649 85.69 38.7782 86.18 38.7782 86.74C38.7782 87.2933 38.6649 87.7867 38.4382 88.22C38.2116 88.6533 37.8982 88.99 37.4982 89.23C37.1049 89.47 36.6649 89.59 36.1782 89.59C35.7116 89.59 35.2982 89.4867 34.9382 89.28C34.5849 89.0667 34.3149 88.8033 34.1282 88.49V92.1H33.2182V84.02H34.1282V85.03ZM37.8482 86.74C37.8482 86.3267 37.7649 85.9667 37.5982 85.66C37.4316 85.3533 37.2049 85.12 36.9182 84.96C36.6382 84.8 36.3282 84.72 35.9882 84.72C35.6549 84.72 35.3449 84.8033 35.0582 84.97C34.7782 85.13 34.5516 85.3667 34.3782 85.68C34.2116 85.9867 34.1282 86.3433 34.1282 86.75C34.1282 87.1633 34.2116 87.5267 34.3782 87.84C34.5516 88.1467 34.7782 88.3833 35.0582 88.55C35.3449 88.71 35.6549 88.79 35.9882 88.79C36.3282 88.79 36.6382 88.71 36.9182 88.55C37.2049 88.3833 37.4316 88.1467 37.5982 87.84C37.7649 87.5267 37.8482 87.16 37.8482 86.74ZM40.8861 84.91C41.0461 84.5967 41.2727 84.3533 41.5661 84.18C41.8661 84.0067 42.2294 83.92 42.6561 83.92V84.86H42.4161C41.3961 84.86 40.8861 85.4133 40.8861 86.52V89.5H39.9761V84.02H40.8861V84.91ZM48.7065 86.55C48.7065 86.7233 48.6965 86.9067 48.6765 87.1H44.2965C44.3299 87.64 44.5132 88.0633 44.8465 88.37C45.1865 88.67 45.5965 88.82 46.0765 88.82C46.4699 88.82 46.7965 88.73 47.0565 88.55C47.3232 88.3633 47.5099 88.1167 47.6165 87.81H48.5965C48.4499 88.3367 48.1565 88.7667 47.7165 89.1C47.2765 89.4267 46.7299 89.59 46.0765 89.59C45.5565 89.59 45.0899 89.4733 44.6765 89.24C44.2699 89.0067 43.9499 88.6767 43.7165 88.25C43.4832 87.8167 43.3665 87.3167 43.3665 86.75C43.3665 86.1833 43.4799 85.6867 43.7065 85.26C43.9332 84.8333 44.2499 84.5067 44.6565 84.28C45.0699 84.0467 45.5432 83.93 46.0765 83.93C46.5965 83.93 47.0565 84.0433 47.4565 84.27C47.8565 84.4967 48.1632 84.81 48.3765 85.21C48.5965 85.6033 48.7065 86.05 48.7065 86.55ZM47.7665 86.36C47.7665 86.0133 47.6899 85.7167 47.5365 85.47C47.3832 85.2167 47.1732 85.0267 46.9065 84.9C46.6465 84.7667 46.3565 84.7 46.0365 84.7C45.5765 84.7 45.1832 84.8467 44.8565 85.14C44.5365 85.4333 44.3532 85.84 44.3065 86.36H47.7665ZM51.8477 89.59C51.4277 89.59 51.051 89.52 50.7177 89.38C50.3844 89.2333 50.121 89.0333 49.9277 88.78C49.7344 88.52 49.6277 88.2233 49.6077 87.89H50.5477C50.5744 88.1633 50.701 88.3867 50.9277 88.56C51.161 88.7333 51.4644 88.82 51.8377 88.82C52.1844 88.82 52.4577 88.7433 52.6577 88.59C52.8577 88.4367 52.9577 88.2433 52.9577 88.01C52.9577 87.77 52.851 87.5933 52.6377 87.48C52.4244 87.36 52.0944 87.2433 51.6477 87.13C51.241 87.0233 50.9077 86.9167 50.6477 86.81C50.3944 86.6967 50.1744 86.5333 49.9877 86.32C49.8077 86.1 49.7177 85.8133 49.7177 85.46C49.7177 85.18 49.801 84.9233 49.9677 84.69C50.1344 84.4567 50.371 84.2733 50.6777 84.14C50.9844 84 51.3344 83.93 51.7277 83.93C52.3344 83.93 52.8244 84.0833 53.1977 84.39C53.571 84.6967 53.771 85.1167 53.7977 85.65H52.8877C52.8677 85.3633 52.751 85.1333 52.5377 84.96C52.331 84.7867 52.051 84.7 51.6977 84.7C51.371 84.7 51.111 84.77 50.9177 84.91C50.7244 85.05 50.6277 85.2333 50.6277 85.46C50.6277 85.64 50.6844 85.79 50.7977 85.91C50.9177 86.0233 51.0644 86.1167 51.2377 86.19C51.4177 86.2567 51.6644 86.3333 51.9777 86.42C52.371 86.5267 52.691 86.6333 52.9377 86.74C53.1844 86.84 53.3944 86.9933 53.5677 87.2C53.7477 87.4067 53.841 87.6767 53.8477 88.01C53.8477 88.31 53.7644 88.58 53.5977 88.82C53.431 89.06 53.1944 89.25 52.8877 89.39C52.5877 89.5233 52.241 89.59 51.8477 89.59ZM55.6023 83.13C55.429 83.13 55.2823 83.07 55.1623 82.95C55.0423 82.83 54.9823 82.6833 54.9823 82.51C54.9823 82.3367 55.0423 82.19 55.1623 82.07C55.2823 81.95 55.429 81.89 55.6023 81.89C55.769 81.89 55.909 81.95 56.0223 82.07C56.1423 82.19 56.2023 82.3367 56.2023 82.51C56.2023 82.6833 56.1423 82.83 56.0223 82.95C55.909 83.07 55.769 83.13 55.6023 83.13ZM56.0423 84.02V89.5H55.1323V84.02H56.0423Z" fill="#164E63"/>
<defs>
<clipPath id="clip0_2012_7651">
<rect y="0.5" width="76" height="73" rx="36.5" fill="white"/>
</clipPath>
</defs>
</svg>
