<svg width="76" height="108" viewBox="0 0 76 108" fill="none" xmlns="http://www.w3.org/2000/svg">
<g clip-path="url(#clip0_2012_7986)">
<rect width="76" height="73" rx="36.5" fill="#ECFEFF"/>
<path d="M53.9713 66.0862H19.9554V88.4447H53.9713V66.0862Z" fill="#455A64"/>
<path d="M53.229 65.4489H19.0949C17.05 65.4489 15.3923 67.1639 15.3923 69.2794V69.465C15.3923 71.5805 17.05 73.2955 19.0949 73.2955H53.229C55.2738 73.2955 56.9315 71.5805 56.9315 69.465V69.2794C56.9315 67.1639 55.2738 65.4489 53.229 65.4489Z" fill="#455A64"/>
<path d="M45.9992 70.1292C45.9452 69.9391 45.901 69.7462 45.8667 69.5513C45.7594 69.0878 45.612 68.6353 45.4263 68.1992C45.2393 67.7647 45.0141 67.3488 44.7535 66.9569C44.6372 66.799 44.529 66.635 44.4293 66.4654C44.5766 66.5951 44.7062 66.7448 44.8147 66.9104C45.0966 67.2957 45.3347 67.7133 45.5242 68.1549C45.7095 68.5975 45.8463 69.0602 45.9319 69.5344C45.9791 69.7288 46.0017 69.9288 45.9992 70.1292Z" fill="#263238"/>
<path d="M47.8262 68.9568C47.8079 68.9568 47.7324 68.7311 47.551 68.3915C47.3131 67.9504 47.0034 67.5551 46.6355 67.223C46.2658 66.8937 45.8445 66.6319 45.3898 66.4489C45.0391 66.3118 44.8067 66.2675 44.8108 66.2379C44.8662 66.2339 44.922 66.2389 44.9759 66.2527C45.1247 66.2788 45.2713 66.3168 45.4143 66.3666C46.3719 66.7016 47.1636 67.4131 47.6183 68.3472C47.6865 68.4868 47.7431 68.6322 47.7875 68.7817C47.8103 68.8373 47.8234 68.8965 47.8262 68.9568Z" fill="#263238"/>
<path d="M31.86 25.5056L26.7854 26.3599L26.4143 36.9464V57.8558H49.2288V33.3416L46.2664 26.3599L31.86 25.5056Z" fill="#0E7490"/>
<path d="M26.7855 26.3596C26.7855 26.3596 22.6772 28.4077 21.9799 32.9891C21.2827 37.5705 19.4436 42.6665 19.095 43.6959C18.7463 44.7252 17.6026 48.9965 19.3437 50.7472C21.0849 52.4979 21.8311 52.3418 22.926 52.1879C24.0208 52.0339 25.9944 50.3085 26.8527 49.4099C27.8864 48.3257 27.3339 46.4569 27.3339 46.4569L26.7855 26.3596Z" fill="#0E7490"/>
<path d="M46.2664 26.3596C46.2664 26.3596 49.2288 27.0409 50.6193 29.2409C51.8243 31.1393 53.5206 37.0727 53.5206 37.0727C53.5206 37.0727 56.2017 44.6661 55.8734 46.8492C55.5451 49.0324 52.6459 51.8693 50.8823 50.6228C49.3043 49.5048 48.0422 48.5135 47.3531 47.6571C47.1059 47.2523 46.9783 46.7817 46.9861 46.3029L47.7038 35.5793L46.2664 26.3596Z" fill="#0E7490"/>
<path d="M20.5138 45.1364C20.3781 44.9731 20.2917 44.7721 20.2651 44.5585C20.1629 44.0492 20.2148 43.5196 20.4139 43.0419C20.5215 42.7773 20.6812 42.5388 20.8828 42.3416C21.0571 42.1836 21.2792 42.0934 21.5108 42.0864C21.6627 42.0819 21.8142 42.1032 21.9593 42.1497C22.0132 42.1624 22.0648 42.1838 22.1122 42.213C21.9148 42.1797 21.7149 42.1635 21.5149 42.1645C21.3029 42.1794 21.1023 42.2687 20.946 42.4176C20.7602 42.61 20.612 42.8377 20.5097 43.0883C20.3214 43.5479 20.2627 44.0532 20.3405 44.5458C20.3763 44.7489 20.4345 44.947 20.5138 45.1364Z" fill="#263238"/>
<path d="M27.1948 36.5977C27.1582 35.9472 27.1582 35.295 27.1948 34.6445C27.1974 33.9924 27.2362 33.3409 27.311 32.6934C27.3423 33.3442 27.3389 33.9962 27.3008 34.6466C27.2997 35.2985 27.2643 35.9498 27.1948 36.5977Z" fill="#263238"/>
<path d="M20.8158 42.4433C20.8158 42.475 20.6119 42.4433 20.3754 42.4918C20.1389 42.5404 19.9676 42.6458 19.9534 42.6205C19.9391 42.5952 20.092 42.437 20.3611 42.3822C20.4367 42.358 20.5165 42.3509 20.5949 42.3614C20.6734 42.372 20.7487 42.3999 20.8158 42.4433Z" fill="#263238"/>
<path d="M47.1043 34.649C47.0574 34.4537 47.0253 34.2548 47.0085 34.0542C46.9575 33.6872 46.8821 33.181 46.7781 32.6262C46.6741 32.0715 46.5579 31.5716 46.4702 31.213C46.4127 31.0206 46.3697 30.8238 46.3418 30.6245C46.43 30.8052 46.4984 30.9955 46.5457 31.1919C46.6815 31.6568 46.7945 32.1284 46.8841 32.6051C46.9766 33.0813 47.0447 33.5622 47.088 34.0458C47.1131 34.2458 47.1186 34.4479 47.1043 34.649Z" fill="#263238"/>
<path d="M43.0002 48.0667C42.9754 48.1025 42.9482 48.1363 42.9186 48.168L42.6699 48.4443C42.5639 48.5645 42.4293 48.708 42.2621 48.8662C42.0949 49.0244 41.9176 49.2142 41.7014 49.404C41.4853 49.5939 41.257 49.8111 40.994 50.0221C40.731 50.233 40.4496 50.4587 40.1479 50.6886C39.4841 51.1698 38.7938 51.6107 38.0805 52.009C37.3603 52.3997 36.6182 52.7455 35.8581 53.0447C35.5054 53.1733 35.1711 53.302 34.851 53.3969C34.5309 53.4918 34.2393 53.5868 33.96 53.6585C33.6807 53.7302 33.434 53.7871 33.2158 53.8356C32.9977 53.8842 32.8081 53.9221 32.649 53.9474L32.2881 54.0044C32.2465 54.0129 32.2042 54.0171 32.1617 54.017C32.2016 53.9999 32.2434 53.9878 32.2861 53.9812L32.6409 53.9053C32.7958 53.8736 32.9854 53.8335 33.2036 53.7766C33.4217 53.7196 33.6705 53.6669 33.9396 53.5825C34.2087 53.4982 34.5105 53.4201 34.8245 53.3104C35.1384 53.2008 35.4728 53.0805 35.8235 52.9497C37.3393 52.353 38.7775 51.5637 40.105 50.6C40.4068 50.3743 40.6963 50.1634 40.9532 49.9461C41.2101 49.7289 41.4527 49.5243 41.6668 49.3429C41.8809 49.1615 42.0745 48.9716 42.2336 48.8176C42.3926 48.6637 42.5394 48.5223 42.6413 48.4084L42.9023 48.1448C42.9635 48.0921 42.9961 48.0625 43.0002 48.0667Z" fill="#263238"/>
<g opacity="0.3">
<path d="M52.5154 44.6663C52.5154 44.9257 52.5664 45.0185 52.7193 45.0713C52.7853 45.078 52.8519 45.0702 52.9148 45.0483C52.9777 45.0265 53.0354 44.9912 53.0842 44.9447C53.3942 44.6061 53.5772 44.164 53.6 43.6981C53.7024 42.7667 53.5221 41.8253 53.0842 41.0046C53.2203 41.5339 53.2203 42.0909 53.0842 42.6203L52.5154 44.6663Z" fill="black"/>
</g>
<g opacity="0.3">
<path d="M21.4989 46.6049C21.2767 45.9721 20.7017 45.5502 20.404 44.9449C20.0513 44.2361 20.3245 43.0465 20.8118 42.4432C20.1145 42.901 19.9963 43.9493 19.9698 44.7339C19.9343 45.5276 20.1825 46.307 20.667 46.9234C20.7646 47.0527 20.8923 47.1543 21.0381 47.2187C21.1117 47.247 21.1917 47.2527 21.2684 47.2351C21.345 47.2175 21.4152 47.1774 21.4703 47.1195C21.5167 47.0432 21.5437 46.956 21.5487 46.866C21.5537 46.776 21.5365 46.6862 21.4989 46.6049Z" fill="black"/>
</g>
<path d="M24.8507 34.6153C24.5522 34.274 24.2796 33.9094 24.0351 33.5248C23.7623 33.1604 23.5182 32.7739 23.3052 32.369C23.6037 32.7103 23.8763 33.0749 24.1208 33.4595C24.394 33.8236 24.6381 34.2102 24.8507 34.6153Z" fill="white"/>
<path d="M23.3702 39.0951C23.0911 39.3395 22.79 39.5557 22.471 39.7405C22.1707 39.9563 21.8504 40.1407 21.5148 40.2911C21.7948 40.0469 22.0966 39.8308 22.416 39.6456C22.7167 39.4316 23.0361 39.2472 23.3702 39.0951Z" fill="white"/>
<path d="M27.5786 40.6717C27.2557 40.4242 26.9542 40.1483 26.6774 39.847C26.3771 39.5718 26.1002 39.2705 25.8497 38.9463C26.1723 39.194 26.4725 39.4715 26.7468 39.7752C27.0486 40.0486 27.3269 40.3485 27.5786 40.6717Z" fill="white"/>
<path d="M21.2416 45.8304C21.279 45.3524 21.3862 44.883 21.5596 44.4382C21.5594 44.6788 21.5229 44.9179 21.4516 45.147C21.4159 45.3846 21.3451 45.6151 21.2416 45.8304Z" fill="white"/>
<path d="M20.7301 49.6103C20.7056 49.6314 20.2917 49.1273 19.7249 48.5556C19.1581 47.984 18.6607 47.5769 18.679 47.5495C18.8064 47.6131 18.925 47.6939 19.0317 47.79C19.5695 48.2163 20.058 48.7054 20.4875 49.2475C20.5841 49.3563 20.6657 49.4784 20.7301 49.6103Z" fill="white"/>
<path d="M23.281 48.7406C23.1023 49.1733 22.8924 49.5914 22.653 49.9914C22.4424 50.4093 22.2011 50.8098 21.9313 51.1895C22.1094 50.7566 22.3193 50.3384 22.5592 49.9387C22.769 49.5203 23.0103 49.1197 23.281 48.7406Z" fill="white"/>
<path d="M25.7272 48.8155C25.7048 48.8366 25.3949 48.4865 24.9708 48.1047C24.5467 47.7229 24.1736 47.4508 24.1899 47.4234C24.5047 47.5718 24.7929 47.7743 25.0421 48.0224C25.3131 48.2439 25.5448 48.5122 25.7272 48.8155Z" fill="white"/>
<path d="M26.9913 29.2476C26.7914 29.619 26.5608 29.9719 26.3021 30.3022C26.0724 30.6569 25.8139 30.9906 25.5294 31.2999C25.7288 30.9286 25.9587 30.5758 26.2165 30.2453C26.4468 29.8905 26.706 29.5567 26.9913 29.2476Z" fill="white"/>
<path d="M30.0863 29.1269C29.758 28.8001 29.4547 28.4475 29.179 28.0723C28.8796 27.7183 28.607 27.341 28.3635 26.9438C28.6911 27.2712 28.9944 27.6238 29.2707 27.9984C29.5696 28.3529 29.8422 28.7301 30.0863 29.1269Z" fill="white"/>
<path d="M30.4939 35.9778C30.2173 35.6376 29.9843 35.2619 29.8007 34.8599C29.5859 34.4754 29.4187 34.0643 29.3032 33.6365C29.3318 33.6365 29.5662 34.166 29.8945 34.8093C30.2227 35.4526 30.5184 35.9652 30.4939 35.9778Z" fill="white"/>
<path d="M34.5064 33.7659C34.0424 33.6514 33.5878 33.4998 33.1465 33.3124C32.6923 33.1609 32.2494 32.9755 31.8212 32.7577C32.285 32.872 32.7396 33.023 33.1811 33.2091C33.6351 33.3618 34.078 33.5479 34.5064 33.7659Z" fill="white"/>
<path d="M35.2139 28.4058C35.2282 28.4332 34.8836 28.6589 34.4922 28.9816C34.1007 29.3043 33.8092 29.6017 33.7867 29.5785C33.9572 29.3121 34.1743 29.081 34.4269 28.8972C34.6569 28.6834 34.9239 28.5167 35.2139 28.4058Z" fill="white"/>
<path d="M32.9488 41.0635C32.8208 40.5433 32.7268 40.0148 32.6675 39.4815C32.574 38.9533 32.5147 38.4191 32.4901 37.8827C32.6195 38.4027 32.7142 38.9312 32.7735 39.4647C32.8683 39.9927 32.9269 40.5269 32.9488 41.0635Z" fill="white"/>
<path d="M32.2679 44.3662C31.8139 44.1507 31.3757 43.9011 30.9569 43.6195C30.5204 43.369 30.1014 43.087 29.703 42.7758C30.1562 42.9917 30.5936 43.2412 31.0119 43.5225C31.4491 43.7731 31.8687 44.0551 32.2679 44.3662Z" fill="white"/>
<path d="M29.4317 48.7537C29.2628 48.3985 29.1263 48.0278 29.0239 47.6463C28.8883 47.2756 28.7852 46.893 28.7161 46.5031C28.8849 46.8583 29.0214 47.2291 29.1238 47.6105C29.2595 47.9812 29.3625 48.3638 29.4317 48.7537Z" fill="white"/>
<path d="M30.9182 53.1251C30.4902 52.9483 30.0764 52.7367 29.6807 52.4923C29.2687 52.2824 28.8727 52.0405 28.4961 51.7688C28.9234 51.9458 29.3365 52.1574 29.7316 52.4016C30.1442 52.6115 30.5409 52.8533 30.9182 53.1251Z" fill="white"/>
<path d="M35.1792 47.7413C35.0043 48.3563 34.7961 48.9605 34.5553 49.5511C34.3472 50.1549 34.1055 50.7458 33.8315 51.3208C34.0071 50.7061 34.2154 50.1019 34.4554 49.511C34.664 48.9074 34.9057 48.3165 35.1792 47.7413Z" fill="white"/>
<path d="M38.3497 45.238C38.3252 45.2634 37.8032 44.7128 37.0387 44.2024C36.2741 43.6919 35.583 43.4114 35.5952 43.3798C35.7558 43.41 35.9116 43.4632 36.058 43.538C36.7838 43.8544 37.4488 44.3031 38.0214 44.8626C38.1468 44.9717 38.2572 45.0981 38.3497 45.238Z" fill="white"/>
<path d="M41.2386 40.0706C40.9894 40.4259 40.7126 40.7595 40.4109 41.0683C40.1339 41.4005 39.8312 41.7088 39.5056 41.99C39.7539 41.6339 40.0308 41.3002 40.3334 40.9923C40.6091 40.6589 40.912 40.3505 41.2386 40.0706Z" fill="white"/>
<path d="M38.3495 39.4036C38.3169 39.4036 38.2231 38.8531 37.9723 38.214C37.7215 37.5748 37.4259 37.1024 37.4524 37.0834C37.7212 37.4027 37.9288 37.7721 38.0641 38.1718C38.2353 38.5594 38.3323 38.9777 38.3495 39.4036Z" fill="white"/>
<path d="M39.638 32.1183C39.6604 32.1394 39.2547 32.652 38.8041 33.3228C38.3535 33.9935 38.0253 34.563 37.9988 34.5461C38.0406 34.4067 38.1009 34.2739 38.1782 34.1517C38.5077 33.5377 38.8971 32.9603 39.3403 32.4284C39.4245 32.3106 39.5247 32.2062 39.638 32.1183Z" fill="white"/>
<path d="M38.7532 30.1796C38.536 29.8406 38.349 29.482 38.1946 29.108C38.0085 28.7507 37.8543 28.3765 37.7338 27.9901C37.9499 28.3294 38.1362 28.688 38.2904 29.0616C38.4766 29.4192 38.6315 29.7934 38.7532 30.1796Z" fill="white"/>
<path d="M44.8412 43.0735C44.5534 43.3969 44.2404 43.6954 43.9054 43.9657C43.5932 44.2642 43.2569 44.5345 42.9002 44.7736C43.1892 44.4514 43.5021 44.153 43.836 43.8813C44.1487 43.5835 44.4849 43.3132 44.8412 43.0735Z" fill="white"/>
<path d="M43.7322 37.5475C43.3222 37.4692 42.9197 37.3534 42.5293 37.2016C42.1283 37.0865 41.7374 36.9362 41.3611 36.7523C41.7701 36.8323 42.1718 36.948 42.562 37.0982C42.9634 37.2143 43.3548 37.3646 43.7322 37.5475Z" fill="white"/>
<path d="M44.4846 34.2294C44.6621 33.7851 44.8713 33.355 45.1105 32.9427C45.32 32.5133 45.5606 32.1008 45.8302 31.7088C45.6537 32.1536 45.4444 32.5838 45.2043 32.9955C44.9956 33.4255 44.755 33.838 44.4846 34.2294Z" fill="white"/>
<path d="M47.1982 28.3634C46.6109 28.294 46.0281 28.1883 45.4529 28.047C44.8703 27.9424 44.2943 27.8016 43.7281 27.6251C44.3155 27.6931 44.8983 27.7981 45.4733 27.9394C46.0559 28.0452 46.6319 28.1868 47.1982 28.3634Z" fill="white"/>
<path d="M48.4725 31.1837C48.6095 30.7556 48.7806 30.34 48.9842 29.9413C49.1558 29.5265 49.3604 29.1272 49.5959 28.7474C49.4569 29.1744 49.2851 29.5891 49.0821 29.9877C48.9098 30.4024 48.706 30.8024 48.4725 31.1837Z" fill="white"/>
<path d="M51.2719 36.1106C50.8532 35.7751 50.4561 35.4115 50.0833 35.0222C49.6876 34.6587 49.3157 34.2683 48.9701 33.8537C49.3886 34.1887 49.7851 34.5523 50.1567 34.9421C50.5533 35.3054 50.9259 35.6957 51.2719 36.1106Z" fill="white"/>
<path d="M50.7761 40.4608C50.9902 40.1076 51.2338 39.7745 51.504 39.4652C51.7482 39.1317 52.0211 38.8217 52.3195 38.5392C52.1049 38.892 51.8613 39.2251 51.5917 39.5348C51.3468 39.8678 51.0739 40.1777 50.7761 40.4608Z" fill="white"/>
<path d="M46.8842 49.689C47.0702 49.1477 47.2894 48.6193 47.5407 48.107C47.76 47.5794 48.0113 47.0665 48.293 46.5715C48.107 47.1127 47.8877 47.6411 47.6365 48.1534C47.4171 48.6811 47.1658 49.194 46.8842 49.689Z" fill="white"/>
<path d="M45.3204 52.4685C44.9563 52.0278 44.6205 51.5627 44.3153 51.0764C43.9807 50.6106 43.6743 50.1239 43.3978 49.6189C43.7603 50.0618 44.096 50.5274 44.403 51.0131C44.7369 51.4786 45.0433 51.9647 45.3204 52.4685Z" fill="white"/>
<path d="M41.3528 54.3794C41.2096 54.7893 41.033 55.1859 40.8247 55.5648C40.6479 55.9608 40.4399 56.341 40.2029 56.7017C40.3458 56.291 40.5224 55.8937 40.7309 55.5142C40.9089 55.1195 41.1169 54.7401 41.3528 54.3794Z" fill="white"/>
<path d="M37.8276 57.2418C37.2147 56.5145 36.6578 55.7387 36.1619 54.9216C36.4794 55.2754 36.7717 55.6525 37.0365 56.05C37.3291 56.4259 37.5936 56.8243 37.8276 57.2418Z" fill="white"/>
<path d="M30.3982 56.841C30.1328 56.5551 29.8926 56.2452 29.6806 55.915C29.4403 55.6051 29.2287 55.2725 29.0485 54.9216C29.3137 55.2085 29.5538 55.5191 29.7662 55.8497C30.0061 56.1591 30.2177 56.491 30.3982 56.841Z" fill="white"/>
<path d="M39.8951 50.4731C39.8646 50.4731 39.8401 50.0513 39.73 49.5704C39.6199 49.0894 39.4711 48.6992 39.4996 48.6844C39.6678 48.9448 39.7817 49.2387 39.834 49.5471C39.9173 49.8479 39.9381 50.1635 39.8951 50.4731Z" fill="white"/>
<path d="M39.5036 53.3899C39.4329 53.0849 39.4329 52.7669 39.5036 52.4619C39.5742 52.7669 39.5742 53.0849 39.5036 53.3899Z" fill="white"/>
<path d="M53.4065 48.0201C53.3902 48.0475 52.9682 47.8092 52.4197 47.5729C51.8713 47.3367 51.4125 47.189 51.4207 47.1511C51.7814 47.1958 52.1327 47.3013 52.4605 47.4632C52.8029 47.5946 53.1224 47.7827 53.4065 48.0201Z" fill="white"/>
<path d="M55.392 43.711C55.0972 43.7841 54.7898 43.7841 54.4949 43.711C54.7898 43.6379 55.0972 43.6379 55.392 43.711Z" fill="white"/>
<g opacity="0.3">
<path d="M41.1939 27.7851C40.4456 29.0507 40.2927 30.5989 40.4844 32.0606C40.676 33.5224 41.1857 34.9145 41.6934 36.2919C42.8623 39.4699 44.0312 42.6478 45.2002 45.8258C45.5386 46.7518 45.8913 47.6968 46.5152 48.4477C46.8564 48.8272 47.2818 49.115 47.7546 49.2862C48.2274 49.4575 48.7334 49.507 49.2289 49.4306C48.393 48.5996 47.1901 47.4331 47.1391 47.2981C46.9026 46.5282 47.0881 45.1888 46.9842 44.3936C46.8251 43.166 46.0606 41.9047 45.5468 40.7867C44.3235 38.115 43.0954 35.4474 41.8626 32.7841C41.4365 31.856 41.0022 30.7887 41.3774 29.8311C41.5384 29.424 41.8422 29.0697 41.9075 28.6351C41.9727 28.2006 41.5935 27.6628 41.202 27.8357" fill="black"/>
</g>
<g opacity="0.3">
<path d="M26.4143 51.6075C27.8986 51.078 28.4817 49.2767 29.1035 47.7854C30.7727 43.7834 32.4431 39.7828 34.115 35.7836C34.4616 34.9399 34.8143 34.0962 34.8734 33.1934C34.9326 32.2906 34.641 31.3077 33.9274 30.7825C31.6582 33.7502 29.3951 36.7623 27.7905 40.1625C26.661 42.5544 26.8792 44.6299 27.5357 46.9691C27.921 48.3423 26.4143 49.6733 26.4143 49.8673C26.4143 50.711 26.4143 51.1666 26.4143 51.6075Z" fill="black"/>
</g>
<path d="M31.7864 20.7701C31.3685 19.3695 30.9566 17.9584 30.7792 16.503C30.6019 15.0476 30.6671 13.5373 31.187 12.1705C31.2645 11.9596 31.923 10.578 32.1371 10.6033C32.29 10.6202 31.8761 11.9174 31.9516 12.0566C32.6692 13.377 32.8466 14.9548 32.7059 16.465C32.5569 17.9307 32.2505 19.3746 31.7925 20.7701" fill="#263238"/>
<path d="M39.6115 29.0171C39.638 27.9814 39.6604 27.1651 39.6686 27.1651C39.6767 27.1651 43.106 26.8614 43.3833 23.3452C43.5179 21.6472 43.5179 18.1247 43.4832 14.9397C43.4645 13.2887 42.8459 11.7055 41.7504 10.5049C40.6549 9.30432 39.1627 8.57426 37.5706 8.45993L37.2424 8.43672C33.6887 8.39665 31.6723 11.4973 31.7375 15.1738L31.554 28.0405L37.1098 32.9488L39.6115 29.0171Z" fill="#FFBE9D"/>
<path d="M39.6934 27.1677C38.1223 27.051 36.6166 26.4705 35.3548 25.495C35.3548 25.495 36.2641 28.1316 39.6792 28.0578L39.6934 27.1677Z" fill="#FFBE9D"/>
<path d="M41.9806 17.5707C41.9732 17.7016 41.9166 17.8243 41.8229 17.9126C41.7292 18.0009 41.6058 18.0478 41.4791 18.0431C41.417 18.044 41.3554 18.032 41.2979 18.0078C41.2404 17.9836 41.1881 17.9477 41.1442 17.9023C41.1003 17.8569 41.0656 17.8029 41.0423 17.7434C41.0189 17.6839 41.0073 17.6201 41.0081 17.5559C41.016 17.425 41.0727 17.3023 41.1662 17.2138C41.2598 17.1253 41.3829 17.0778 41.5096 17.0813C41.5719 17.0804 41.6337 17.0925 41.6913 17.1168C41.749 17.1412 41.8013 17.1772 41.8452 17.2229C41.8892 17.2685 41.9238 17.3228 41.947 17.3825C41.9703 17.4423 41.9817 17.5063 41.9806 17.5707Z" fill="#263238"/>
<path d="M42.6495 16.3615C42.5863 16.4227 42.2417 16.1147 41.7136 16.0789C41.1856 16.043 40.79 16.2898 40.737 16.2139C40.7105 16.1843 40.7799 16.0704 40.9552 15.9565C41.1924 15.8107 41.467 15.7437 41.7422 15.7646C42.0143 15.7828 42.2737 15.8907 42.4823 16.0725C42.6495 16.2012 42.6902 16.3236 42.6495 16.3615Z" fill="#263238"/>
<path d="M37.1019 17.4628C37.095 17.5941 37.0386 17.7173 36.9449 17.8061C36.8511 17.8948 36.7274 17.942 36.6003 17.9374C36.5382 17.9379 36.4765 17.9256 36.419 17.9012C36.3615 17.8768 36.3092 17.8408 36.2654 17.7952C36.2215 17.7496 36.1869 17.6954 36.1635 17.6358C36.1402 17.5762 36.1286 17.5123 36.1294 17.448C36.1373 17.3173 36.194 17.1948 36.2876 17.1067C36.3813 17.0185 36.5044 16.9714 36.6309 16.9755C36.693 16.9747 36.7546 16.9867 36.8121 17.0109C36.8696 17.0351 36.9219 17.0709 36.9658 17.1163C37.0097 17.1618 37.0443 17.2158 37.0677 17.2753C37.0911 17.3348 37.1027 17.3986 37.1019 17.4628Z" fill="#263238"/>
<path d="M37.5239 16.2031C37.4587 16.2643 37.1161 15.9564 36.5861 15.9205C36.056 15.8846 35.6625 16.1314 35.6115 16.0576C35.585 16.026 35.6543 15.9121 35.8296 15.7982C36.0666 15.6519 36.3416 15.5856 36.6166 15.6083C36.8884 15.6268 37.1475 15.7339 37.3567 15.9142C37.5076 16.0534 37.5525 16.1757 37.5239 16.2031Z" fill="#263238"/>
<path d="M39.1202 20.4917C39.1202 20.4622 39.4505 20.4263 39.9806 20.3947C40.1152 20.3947 40.2436 20.3715 40.2722 20.2787C40.2944 20.1349 40.2731 19.9875 40.211 19.8568C40.107 19.513 40.0071 19.1544 39.8868 18.7768C39.4383 17.2413 39.1223 15.982 39.1834 15.963C39.2446 15.9441 39.6544 17.1759 40.103 18.7051L40.4108 19.7914C40.4826 19.9641 40.4942 20.1572 40.4434 20.3377C40.4212 20.3851 40.3886 20.4265 40.3483 20.4587C40.3079 20.4909 40.261 20.513 40.211 20.5233C40.1359 20.5387 40.0592 20.5443 39.9827 20.5402C39.4505 20.5444 39.1202 20.5233 39.1202 20.4917Z" fill="#263238"/>
<path d="M38.7245 22.6518C38.641 22.6645 38.5879 22.0802 38.066 21.7089C37.5441 21.3377 36.9467 21.46 36.9365 21.3799C36.9243 21.344 37.0609 21.2533 37.3137 21.2217C37.6454 21.1862 37.9787 21.272 38.2556 21.4643C38.524 21.6514 38.7106 21.9399 38.7755 22.2679C38.8143 22.4999 38.7633 22.6518 38.7245 22.6518Z" fill="#263238"/>
<path d="M35.2383 14.8701C35.2383 14.714 35.7521 14.5917 36.3026 14.3006C36.8531 14.0095 37.2629 13.6678 37.3832 13.7606C37.4382 13.807 37.4036 13.9716 37.2629 14.1825C37.0708 14.442 36.824 14.6528 36.5414 14.799C36.2588 14.9451 35.9478 15.0229 35.6318 15.0262C35.3872 15.0114 35.2404 14.9439 35.2383 14.8701Z" fill="#263238"/>
<path d="M40.572 13.8307C40.7106 13.7379 41.1122 13.9699 41.6281 14.1028C42.1439 14.2357 42.6047 14.2589 42.676 14.4087C42.7066 14.4804 42.6087 14.5837 42.3906 14.6491C42.0925 14.7246 41.7806 14.7188 41.4853 14.6323C41.1891 14.5571 40.917 14.4029 40.6963 14.1851C40.5414 14.01 40.5108 13.8708 40.572 13.8307Z" fill="#263238"/>
<path d="M31.8436 17.8001C31.7886 17.7706 29.554 16.9185 29.4684 19.3294C29.3828 21.7403 31.7397 21.3332 31.7458 21.2636C31.7519 21.194 31.8436 17.8001 31.8436 17.8001Z" fill="#FFBE9D"/>
<path d="M31.0566 20.3231C31.0566 20.3231 31.0159 20.3526 30.9445 20.3822C30.847 20.4226 30.7382 20.4226 30.6407 20.3822C30.3981 20.2788 30.2065 19.8675 30.2105 19.433C30.2116 19.2261 30.2576 19.0221 30.3451 18.8361C30.3695 18.7611 30.4113 18.6935 30.4667 18.6391C30.5221 18.5847 30.5896 18.5452 30.6632 18.5239C30.7101 18.5126 30.7595 18.5189 30.8024 18.5416C30.8454 18.5644 30.8791 18.6022 30.8976 18.6483C30.9262 18.7179 30.9098 18.7643 30.9221 18.7707C30.9343 18.777 30.9731 18.7306 30.9588 18.6315C30.9485 18.5714 30.9182 18.5169 30.8732 18.4775C30.8422 18.4508 30.8064 18.4308 30.7679 18.4185C30.7294 18.4062 30.689 18.4018 30.6489 18.4058C30.5526 18.422 30.4619 18.4635 30.3856 18.5262C30.3092 18.589 30.2496 18.671 30.2126 18.7643C30.1055 18.9691 30.0488 19.198 30.0474 19.4309C30.0474 19.9181 30.2697 20.3801 30.602 20.4855C30.6638 20.5066 30.7293 20.5131 30.7938 20.5048C30.8584 20.4964 30.9203 20.4732 30.9751 20.437C31.0505 20.3822 31.0648 20.3294 31.0566 20.3231Z" fill="#FFBE9D"/>
<path d="M42.0825 10.9028C42.4658 10.6918 41.3689 9.40096 40.4515 8.93902C39.0691 8.24085 36.9386 7.77259 35.6378 8.11429C34.0699 8.5256 32.7549 9.28706 31.9332 10.7298C31.1116 12.1726 30.7731 13.8705 30.7731 15.5432C30.7731 16.0537 30.8098 16.5873 31.0606 17.0197C31.3726 17.5618 31.9883 17.9162 31.9393 18.6502C31.9158 18.919 31.9956 19.1865 32.1616 19.3948C32.5693 19.8757 33.1096 19.4496 33.3624 19.0151C33.9007 18.0849 33.9884 16.9606 34.0618 15.8786C34.1148 15.1108 34.1678 14.3261 33.9782 13.5816C33.8742 13.1745 33.7009 12.7906 33.6193 12.3793C33.5676 12.1762 33.5591 11.9639 33.5943 11.7571C33.6295 11.5503 33.7076 11.3538 33.8232 11.1812C33.885 11.1099 33.9533 11.0449 34.0271 10.9871C34.3604 10.7038 34.7605 10.5172 35.1865 10.4464C35.6125 10.3756 36.049 10.4232 36.4513 10.5843C37.7521 11.101 39.9744 11.8857 40.5718 11.4406C41.4322 10.8079 41.6462 10.386 41.6462 10.386L42.0825 10.9028Z" fill="#263238"/>
<path d="M39.1833 8.35638C39.3336 8.45042 39.4668 8.57108 39.5768 8.71285C39.8761 9.02828 40.1191 9.39605 40.2945 9.79914C40.4716 10.2108 40.5208 10.6693 40.4351 11.1111C40.4127 11.2969 40.3325 11.4701 40.2068 11.6047C40.1823 11.592 40.2802 11.4106 40.323 11.09C40.369 10.6725 40.3078 10.2498 40.1456 9.86452C39.9733 9.47949 39.7533 9.11929 39.4912 8.79301C39.2873 8.53356 39.1609 8.37326 39.1833 8.35638Z" fill="#455A64"/>
<path d="M40.7658 9.55914C40.7842 9.55914 40.8535 9.66672 40.9004 9.87765C40.9577 10.1547 40.9523 10.4417 40.8843 10.7162C40.8164 10.9907 40.6879 11.2452 40.5089 11.4596C40.3682 11.622 40.2541 11.6874 40.2418 11.6705C40.2296 11.6537 40.5823 11.2761 40.725 10.6728C40.8677 10.0696 40.7189 9.5718 40.7658 9.55914Z" fill="#455A64"/>
<path d="M37.5767 18.176C37.4898 18.255 37.3877 18.3139 37.277 18.3489C36.751 18.5578 36.1679 18.5518 35.646 18.3321C35.5357 18.2959 35.4347 18.2347 35.3503 18.1528C35.7065 18.2888 36.0804 18.3692 36.4595 18.3911C36.84 18.376 37.2164 18.3035 37.5767 18.176Z" fill="#FFBE9D"/>
<path d="M36.9121 18.8215C36.9121 18.8342 36.8367 18.8869 36.6899 18.9312C36.4948 18.9874 36.2901 18.9982 36.0905 18.9628C35.8914 18.9288 35.7016 18.8511 35.5339 18.735C35.4075 18.6443 35.3484 18.5663 35.3565 18.5557C35.5923 18.6915 35.8456 18.7916 36.1088 18.8531C36.3767 18.8816 36.6471 18.871 36.9121 18.8215Z" fill="#FFBE9D"/>
<path d="M42.9512 17.8616C42.9512 17.8616 42.8921 17.9987 42.7188 18.1569C42.4884 18.3627 42.204 18.4928 41.9018 18.5303C41.5996 18.5679 41.2934 18.5113 41.0225 18.3678C40.9071 18.3187 40.806 18.2395 40.7289 18.1379C40.7391 18.1232 40.8512 18.2097 41.0551 18.2982C41.3188 18.4128 41.607 18.4537 41.8908 18.4166C42.1746 18.3796 42.4439 18.266 42.6719 18.0873C42.8533 17.9629 42.9369 17.849 42.9512 17.8616Z" fill="#FFBE9D"/>
<path d="M42.2558 35.0709C42.3292 35.1848 46.2764 45.3664 48.2296 47.0411C50.0747 45.282 53.2838 42.4366 50.2949 39.6059L44.7126 31.2679L42.2558 35.0709Z" fill="#FFBE9D"/>
<path d="M42.2746 35.16C42.3622 35.2676 41.4794 33.0507 41.2551 32.1205C41.1226 31.57 40.6292 30.509 40.9248 29.7476C41.1398 29.2125 41.3855 28.6913 41.6609 28.1867L40.4376 27.1215C40.4376 27.1215 37.8605 26.5119 37.677 26.0669C37.4935 25.6218 37.677 25.3814 37.677 25.3814L39.8116 25.6851C39.8116 25.6851 36.8309 23.8964 37.7504 22.7152C37.7504 22.7152 39.1776 23.8648 40.2194 24.0778L41.8342 24.989C41.8342 24.989 42.1278 24.8498 42.0544 23.8542C41.981 22.8586 41.8342 22.5528 41.8342 22.5528C41.8342 22.5528 40.407 20.6123 40.6557 19.7348L40.9514 19.1273L42.6436 21.0679L43.086 21.9812C43.086 21.9812 42.9005 19.0113 43.9688 18.8594L44.3358 22.287L43.9688 24.7043C44.1298 25.1946 44.2525 25.6976 44.3358 26.2082C44.4092 26.8178 44.7048 31.1946 44.7048 31.1946L45.4021 32.2492" fill="#FFBE9D"/>
<path d="M45.406 32.2382C45.3887 32.2173 45.3723 32.1955 45.3571 32.1728L45.2205 31.9767C45.1002 31.7974 44.9228 31.54 44.6945 31.2047C44.6435 30.5529 44.5742 29.6649 44.4906 28.566C44.4498 28.0175 44.4029 27.4143 44.354 26.7646C44.3168 26.0675 44.1793 25.3801 43.9462 24.7249V24.706C44.0604 23.9529 44.1827 23.1409 44.3112 22.2887V22.2993C44.195 21.2446 44.0685 20.0845 43.9381 18.8738L43.9911 18.916C43.8668 18.947 43.752 19.0098 43.6573 19.0986C43.5626 19.1874 43.4908 19.2994 43.4487 19.4243C43.3396 19.6826 43.2648 19.9551 43.2265 20.2343C43.1448 20.8145 43.1196 21.4017 43.1511 21.9871L43.1633 22.2318L43.0573 22.0208C42.9186 21.7382 42.7678 21.4239 42.6149 21.1075V21.1202L40.9226 19.1796L41.0083 19.167C40.9145 19.3568 40.8146 19.5656 40.7126 19.7766C40.6656 20.0165 40.6862 20.2654 40.7718 20.4937C40.8481 20.7382 40.945 20.9754 41.0613 21.2024C41.2984 21.6712 41.5711 22.1198 41.8768 22.5439C41.9757 22.8377 42.0387 23.1431 42.0644 23.453C42.0991 23.7229 42.1154 23.995 42.1133 24.2672C42.1112 24.405 42.0948 24.5422 42.0644 24.6764C42.0487 24.7454 42.0261 24.8126 41.9971 24.8768C41.9668 24.9499 41.9165 25.0122 41.8523 25.0561L41.8299 25.0688L41.8034 25.054L40.2029 24.1154H40.2172C39.7508 23.994 39.3047 23.8006 38.894 23.5416C38.4891 23.3005 38.0995 23.0328 37.7278 22.7401H37.7991C37.6975 22.866 37.6393 23.0233 37.634 23.1873C37.6368 23.3521 37.6751 23.5142 37.7461 23.6619C37.8976 23.9572 38.0953 24.2244 38.3313 24.4528C38.7917 24.9033 39.2991 25.2994 39.8441 25.634L40.048 25.7585L39.8155 25.7269L37.6809 25.4189L37.7237 25.402C37.687 25.4689 37.6634 25.5427 37.6543 25.6191C37.6452 25.6955 37.6508 25.7729 37.6707 25.8471C37.6858 25.9205 37.7105 25.9915 37.7441 26.058C37.7894 26.1178 37.8455 26.1679 37.9092 26.2057C38.1781 26.3605 38.4616 26.4863 38.7553 26.5811C39.3344 26.792 39.9052 26.9397 40.4557 27.0768H40.4659L41.677 28.1441L41.7015 28.1652L41.6851 28.1947C41.4264 28.6676 41.1929 29.1549 40.9858 29.6543C40.7819 30.1226 40.8655 30.6288 40.9695 31.0612C41.0735 31.4936 41.2346 31.8944 41.3202 32.2741C41.4058 32.6538 41.5384 32.9828 41.6403 33.2844C41.8442 33.8835 42.0154 34.3496 42.1296 34.6702C42.1847 34.8284 42.2275 34.9487 42.2519 35.0309C42.2631 35.0611 42.2719 35.0921 42.2784 35.1237C42.2803 35.1328 42.2803 35.1421 42.2784 35.1512C42.2366 34.9897 42.1813 34.8324 42.1133 34.6808C41.9951 34.3665 41.8197 33.9046 41.6056 33.3034C41.4996 33.0039 41.3834 32.6706 41.2753 32.2931C41.1673 31.9155 41.0307 31.5232 40.9165 31.0802C40.8542 30.8516 40.8153 30.6169 40.8003 30.3799C40.7844 30.1233 40.8285 29.8665 40.9287 29.6311C41.1336 29.1255 41.3664 28.6326 41.626 28.1546V28.2032L40.4027 27.1485H40.4211C39.8645 27.0135 39.2936 26.8595 38.7085 26.6592C38.4078 26.562 38.1174 26.4333 37.8419 26.2753C37.7669 26.2315 37.7015 26.1719 37.6503 26.1002C37.6092 26.0222 37.5797 25.9383 37.5626 25.8513C37.5391 25.7634 37.5334 25.6714 37.5456 25.581C37.5579 25.4907 37.588 25.4039 37.634 25.3261L37.6462 25.305H37.6748L39.8094 25.6087L39.7788 25.7015C39.2266 25.3636 38.7123 24.9632 38.2456 24.5077C37.9982 24.2721 37.7914 23.9946 37.634 23.6872C37.5542 23.5259 37.5122 23.3474 37.5117 23.1662C37.5173 22.9785 37.5833 22.7981 37.6992 22.6536L37.7298 22.6157L37.7706 22.6452C38.1384 22.9348 38.5239 23.1998 38.9246 23.4383C39.3263 23.6899 39.7619 23.8783 40.2172 23.9972L41.8319 24.9169H41.7851C41.8262 24.8837 41.8585 24.8401 41.8788 24.7903C41.9055 24.7338 41.9261 24.6744 41.94 24.6131C41.9675 24.4857 41.9825 24.3556 41.9849 24.225C41.9866 23.9584 41.9703 23.692 41.9359 23.4277C41.9104 23.1313 41.8515 22.8389 41.7606 22.5566C41.4494 22.1274 41.1719 21.6732 40.9308 21.1982C40.8119 20.9655 40.7123 20.7228 40.6331 20.4726C40.5419 20.2228 40.5221 19.9512 40.576 19.6901L40.8717 19.0805L40.9063 19.0109L40.9573 19.0699L42.6475 21.0105L43.0879 21.9238L42.9941 21.9512C42.9619 21.358 42.9885 20.7628 43.0736 20.1752C43.1134 19.8845 43.1909 19.6007 43.304 19.3315C43.3613 19.1964 43.4422 19.0735 43.5425 18.9687C43.6444 18.8608 43.7776 18.7904 43.9217 18.7683H43.9686V18.8189C44.0971 20.0297 44.2194 21.1834 44.3316 22.2444V22.2571C44.199 23.1008 44.0747 23.9213 43.9585 24.6743V24.6553C44.0726 25.0111 44.1678 25.3626 44.2439 25.71C44.282 25.879 44.3106 26.0501 44.3295 26.2225C44.3417 26.3913 44.3519 26.5579 44.3642 26.7203C44.4111 27.3721 44.4539 27.9754 44.4926 28.5259C44.5681 29.6248 44.6313 30.5149 44.6761 31.1667L45.1899 31.9471L45.3204 32.1581C45.351 32.1823 45.3796 32.2091 45.406 32.2382Z" fill="#FFBE9D"/>
<path d="M42.8534 29.2407C42.5954 29.156 42.3563 29.0191 42.15 28.8378C41.9193 28.6827 41.7439 28.4538 41.6505 28.186C41.8271 28.3865 42.0157 28.5754 42.2153 28.7513C42.4387 28.899 42.6519 29.0625 42.8534 29.2407Z" fill="#FFBE9D"/>
<path d="M41.9541 31.9264C41.8969 31.783 41.8605 31.6316 41.8461 31.4771C41.7299 30.7357 41.8095 29.9756 42.0765 29.2771C42.1224 29.1263 42.1912 28.9839 42.2804 28.8553C42.317 28.8679 42.0214 29.5113 41.9297 30.3655C41.8379 31.2198 41.9929 31.9222 41.9541 31.9264Z" fill="#FFBE9D"/>
<path d="M43.2834 27.0408C43.1143 26.9677 42.9513 26.8803 42.7962 26.7792C42.4106 26.5613 42.013 26.3669 41.6055 26.197C41.1984 26.0269 40.7783 25.8922 40.3496 25.7942C40.169 25.7635 39.99 25.7234 39.8134 25.6739C39.9979 25.6616 40.1831 25.6758 40.3638 25.7161C40.8025 25.7938 41.2318 25.9204 41.6442 26.0937C42.0562 26.2655 42.4538 26.4722 42.8329 26.7117C42.9944 26.8038 43.1455 26.9141 43.2834 27.0408Z" fill="#FFBE9D"/>
<path d="M43.9359 25.936C43.8184 25.9332 43.7021 25.9111 43.5913 25.8706C43.3183 25.7972 43.0505 25.7042 42.79 25.5922C42.4159 25.4471 42.0704 25.2327 41.7706 24.9594C41.789 24.9298 42.2334 25.2378 42.8308 25.4993C43.4282 25.7609 43.9461 25.9001 43.9359 25.936Z" fill="#FFBE9D"/>
<path d="M43.9726 24.7042C43.8825 24.5925 43.8134 24.4645 43.7687 24.3266C43.64 24.0056 43.5284 23.6774 43.4343 23.3437C43.3222 22.9556 43.2304 22.6012 43.1632 22.3439C43.1167 22.2071 43.084 22.0658 43.0653 21.9221C43.142 22.0432 43.1992 22.1764 43.2345 22.3165C43.3202 22.5675 43.4241 22.9197 43.5363 23.3079C43.6484 23.696 43.7524 24.0461 43.8401 24.295C43.8926 24.4284 43.9369 24.565 43.9726 24.7042Z" fill="#FFBE9D"/>
<path d="M32.8978 34.3286C33.24 34.146 33.5342 33.8801 33.7551 33.5538C33.976 33.2276 34.117 32.8507 34.166 32.4556C34.3168 31.114 34.4371 29.4899 34.4371 29.4899C34.5915 29.2209 34.7231 28.9386 34.8306 28.6462C34.8898 28.3952 38.2253 26.461 38.2253 26.461C38.2253 26.461 38.3435 25.9357 37.3649 25.9927C36.3863 26.0496 34.5574 26.9609 34.5574 26.9609L35.1018 25.2734C35.6747 24.6965 36.1823 24.054 36.6146 23.3582C36.7329 23.145 36.7738 22.8952 36.7301 22.6536C36.6864 22.412 36.5609 22.1944 36.3761 22.0399L36.2864 21.9661C36.2864 21.9661 36.2864 21.3712 35.9765 21.2468C35.9765 21.2468 33.4116 22.7465 33.326 22.9342C33.2403 23.122 34.533 20.9051 32.9019 20.4368L31.9375 23.122L31.5502 24.088C31.5502 24.088 31.387 25.7986 31.3259 26.3597C31.2647 26.9208 31.0017 30.9896 30.6388 31.5823" fill="#FFBE9D"/>
<path d="M30.6346 31.5823L30.6836 31.4557C30.726 31.3319 30.7594 31.205 30.7835 31.0761C30.8548 30.7365 30.9282 30.2323 30.9996 29.5764C31.071 28.9204 31.1443 28.1273 31.2177 27.2034C31.2911 26.2795 31.3992 25.2333 31.5052 24.0838V24.0711L31.8396 23.2274C31.9538 22.9384 32.0435 22.6368 32.1658 22.331L32.8509 20.4157L32.8672 20.3735L32.91 20.3862C33.1464 20.4455 33.3598 20.5779 33.5216 20.7659C33.6805 20.9703 33.7668 21.2249 33.7663 21.4872C33.7679 21.7464 33.7294 22.0042 33.6521 22.2508C33.6156 22.3757 33.572 22.4982 33.5216 22.6178C33.4972 22.679 33.4707 22.738 33.4421 22.7971L33.3993 22.8857L33.3748 22.93L33.3626 22.9532V22.9658C33.2974 23.008 33.2505 22.8519 33.277 22.9131V22.9026C33.3202 22.8422 33.3734 22.7901 33.434 22.7486L33.593 22.6368C33.699 22.5623 33.8071 22.492 33.9172 22.4259C34.1353 22.2867 34.3575 22.1474 34.5818 22.004C35.0304 21.7228 35.4884 21.4486 35.956 21.1814L35.9784 21.1666L36.0029 21.1772C36.0678 21.2109 36.1251 21.2584 36.1711 21.3165C36.2171 21.3747 36.2508 21.4422 36.27 21.5147C36.3158 21.6505 36.3412 21.7927 36.3454 21.9365L36.3271 21.8943C36.4584 21.9919 36.5699 22.1151 36.6553 22.2571C36.7424 22.4077 36.7934 22.5777 36.8042 22.7528C36.8124 22.8908 36.7944 23.0291 36.7511 23.1599C36.7061 23.2863 36.6465 23.4067 36.5738 23.5185C36.4375 23.737 36.2905 23.9482 36.1334 24.1513C35.8253 24.549 35.4951 24.9279 35.1445 25.2861L35.1568 25.2629C34.9733 25.8352 34.7918 26.3977 34.6124 26.9503L34.541 26.8849C35.1765 26.5704 35.8334 26.3047 36.5065 26.0897C36.8315 25.9834 37.1689 25.9231 37.5096 25.9104C37.6808 25.9051 37.8513 25.9352 38.0111 25.999C38.093 26.0354 38.1636 26.0945 38.215 26.1699C38.2418 26.2093 38.2608 26.2538 38.271 26.3009C38.2811 26.3479 38.2822 26.3966 38.2741 26.4441V26.463L38.2538 26.4757C37.4484 26.944 36.6879 27.3975 35.9866 27.8362C35.6379 28.0598 35.2954 28.2728 34.9957 28.507C34.9595 28.5352 34.9254 28.5662 34.8938 28.5998C34.8775 28.623 34.8775 28.6145 34.8673 28.6483C34.8571 28.682 34.853 28.6968 34.8448 28.72C34.8113 28.8106 34.7732 28.8993 34.7307 28.9858C34.6491 29.1587 34.5635 29.3211 34.4758 29.4793V29.4646C34.3963 30.2935 34.3249 31.0423 34.2719 31.6983C34.2556 31.8628 34.2413 32.021 34.225 32.1729C34.2154 32.3202 34.197 32.4667 34.17 32.6116C34.1216 32.8659 34.0335 33.1102 33.909 33.3351C33.7344 33.6427 33.4988 33.9087 33.2178 34.1155C33.1453 34.1687 33.0697 34.2173 32.9915 34.2611C32.965 34.2767 32.937 34.2895 32.9079 34.2991C32.9079 34.2991 32.9344 34.2843 32.9854 34.2505C33.0616 34.2036 33.1351 34.1522 33.2056 34.0966C33.4787 33.8867 33.7065 33.6201 33.8743 33.314C33.9935 33.0916 34.0774 32.8509 34.1231 32.6011C34.1471 32.4572 34.1641 32.3122 34.1741 32.1666C34.1863 32.0147 34.2006 31.8565 34.2148 31.692C34.2719 31.036 34.3372 30.2872 34.4187 29.4582C34.5043 29.3022 34.59 29.1376 34.6695 28.9689C34.7082 28.8845 34.747 28.798 34.7776 28.7094C34.7776 28.6862 34.7939 28.6651 34.8 28.6419C34.807 28.6128 34.821 28.5859 34.8408 28.5639C34.8756 28.5266 34.9131 28.4921 34.9529 28.4605C35.2608 28.2159 35.5992 28.0049 35.9478 27.7792C36.6492 27.3342 37.4097 26.8807 38.215 26.4082L38.1926 26.4398C38.1988 26.3671 38.1811 26.2944 38.1422 26.2335C38.1033 26.1726 38.0456 26.1271 37.9785 26.1045C37.8304 26.0485 37.6733 26.0228 37.5157 26.0285C37.1846 26.0413 36.8567 26.1009 36.5411 26.2057C35.8735 26.4193 35.222 26.6837 34.592 26.9967L34.484 27.0494L34.5207 26.9334L35.063 25.246V25.2333H35.0732C35.4203 24.8787 35.7471 24.5033 36.0518 24.1091C36.208 23.9068 36.353 23.6955 36.4861 23.4763C36.5545 23.3725 36.6106 23.2606 36.6533 23.143C36.6902 23.0246 36.7061 22.9003 36.7002 22.776C36.6907 22.6179 36.6446 22.4645 36.5656 22.3288C36.4857 22.1994 36.3826 22.087 36.2618 21.9977L36.2435 21.9829V21.9555C36.2392 21.8205 36.2158 21.6869 36.1742 21.559C36.1599 21.5016 36.1344 21.4479 36.0994 21.4011C36.0643 21.3543 36.0204 21.3154 35.9703 21.2869H36.0172C35.5509 21.5583 35.0929 21.8318 34.643 22.1074C34.4187 22.2445 34.1965 22.3816 33.9783 22.5292C33.8703 22.5988 33.7622 22.6706 33.6582 22.7402L33.5012 22.8498C33.4569 22.8819 33.4159 22.9186 33.3789 22.9595C33.3789 22.9595 33.3667 22.949 33.3483 22.9448C33.3451 22.9462 33.3416 22.9469 33.3381 22.9469C33.3346 22.9469 33.3312 22.9462 33.3279 22.9448L33.3076 22.9258C33.2872 22.9089 33.2912 22.9258 33.2912 22.9258L33.3035 22.9047L33.3259 22.8646L33.3667 22.7781C33.3952 22.7212 33.4197 22.6621 33.4442 22.6052C33.493 22.488 33.5359 22.3683 33.5726 22.2466C33.647 22.011 33.6842 21.7646 33.6827 21.5168C33.6834 21.2779 33.6058 21.0459 33.4625 20.8587C33.3112 20.6855 33.113 20.5635 32.8937 20.5085L32.9528 20.479C32.7122 21.1385 32.4818 21.7762 32.2616 22.3921C32.1475 22.6959 32.0455 22.9996 31.9313 23.2865L31.5929 24.1302V24.1175C31.4808 25.2692 31.3605 26.3133 31.2891 27.2351C31.2177 28.1568 31.1321 28.9562 31.0506 29.608C30.9961 30.1111 30.9164 30.611 30.812 31.1056C30.7847 31.2358 30.7472 31.3635 30.6999 31.4874C30.6571 31.5485 30.6346 31.5823 30.6346 31.5823Z" fill="#FFBE9D"/>
<path d="M34.7144 26.8871C34.5772 27.0112 34.4179 27.1065 34.2454 27.1676C34.0875 27.2605 33.9138 27.3214 33.7337 27.3469C33.8709 27.2228 34.0302 27.1275 34.2026 27.0664C34.3606 26.9734 34.5343 26.9126 34.7144 26.8871Z" fill="#FFBE9D"/>
<path d="M36.282 21.9264C36.2645 21.9957 36.237 22.0618 36.2004 22.1226C36.1114 22.294 36.0091 22.4576 35.8946 22.612C35.5058 23.1107 35.076 23.5736 34.6101 23.9957C34.157 24.421 33.7939 24.9388 33.5438 25.5165C33.3522 25.9615 33.2808 26.2568 33.2625 26.2505C33.2647 26.1787 33.277 26.1076 33.2991 26.0396C33.3441 25.8504 33.4027 25.6649 33.4745 25.4848C33.7092 24.8847 34.0724 24.3474 34.5367 23.9134C34.9983 23.4939 35.4322 23.0429 35.8355 22.5634C36.125 22.188 36.2657 21.9159 36.282 21.9264Z" fill="#FFBE9D"/>
<path d="M33.3626 22.8879C33.3013 23.0396 33.2196 23.1816 33.12 23.3098C33.0262 23.4493 32.9404 23.5943 32.8631 23.7443C32.7734 23.9331 32.705 24.132 32.6592 24.337C32.5104 24.7589 32.4431 25.166 32.3657 25.4571C32.3368 25.6165 32.2824 25.7698 32.2046 25.9106C32.2252 25.7515 32.2545 25.5937 32.2923 25.4381C32.3537 25.0543 32.4423 24.6757 32.5573 24.3054C32.604 24.0932 32.6773 23.8883 32.7755 23.6958C32.857 23.5416 32.9512 23.3948 33.0568 23.2571C33.1487 23.1255 33.251 23.002 33.3626 22.8879Z" fill="#FFBE9D"/>
<path d="M21.8677 42.4833C21.9676 42.3272 24.7506 39.5303 25.5518 38.6106C26.3531 37.691 30.3859 32.384 30.6347 31.5825C30.8834 30.7809 33.175 33.8689 33.175 33.8689C33.175 33.8689 30.392 40.7558 29.3013 42.7174C28.2105 44.679 26.4224 48.3281 26.4224 48.3281C26.4224 48.3281 23.4722 48.5854 22.3244 46.107C21.1765 43.6286 21.8677 42.4833 21.8677 42.4833Z" fill="#FFBE9D"/>
<path d="M27.3337 46.4631C27.3337 46.4631 27.3521 46.4821 27.3765 46.5264C27.4159 46.5894 27.45 46.6557 27.4785 46.7247C27.5864 46.9796 27.6373 47.2565 27.6273 47.5347C27.6039 47.9463 27.491 48.3472 27.297 48.7074C27.0642 49.1458 26.7778 49.5513 26.4448 49.9139C25.8556 50.5843 25.1675 51.1538 24.406 51.6014C24.1749 51.7342 23.9374 51.8546 23.6944 51.9621C23.6069 52.0053 23.5154 52.0392 23.4212 52.0633C23.5021 52.0087 23.5874 51.9615 23.6761 51.922C23.8432 51.8376 24.0838 51.711 24.3672 51.5339C25.1089 51.0706 25.7808 50.4971 26.3612 49.8317C26.6891 49.477 26.9733 49.0817 27.2073 48.6547C27.3991 48.308 27.5153 47.9221 27.5478 47.5241C27.5628 47.256 27.5247 46.9875 27.4357 46.7352C27.3745 46.5623 27.3256 46.4674 27.3337 46.4631Z" fill="#263238"/>
<path d="M27.1543 48.0836C27.1283 48.1042 27.0994 48.1206 27.0687 48.1322C26.9871 48.1757 26.9026 48.2131 26.8159 48.2439C26.4949 48.3618 26.1574 48.4245 25.8168 48.4296C25.2527 48.4386 24.6935 48.32 24.1782 48.082C23.663 47.8441 23.2043 47.4927 22.834 47.0522C22.6289 46.7985 22.4415 46.5299 22.2733 46.2486C22.121 45.9835 21.9894 45.7063 21.8798 45.4196C21.6949 44.9326 21.5941 44.4156 21.5822 43.8925C21.5775 43.5409 21.6228 43.1905 21.7167 42.8526C21.7414 42.7608 21.7713 42.6707 21.8064 42.5826C21.8289 42.5214 21.8431 42.4898 21.8472 42.4919C21.8513 42.494 21.8126 42.6248 21.7575 42.8632C21.6797 43.1993 21.6461 43.5449 21.6576 43.8904C21.6798 44.403 21.786 44.9079 21.9716 45.3838C22.0811 45.6634 22.212 45.9335 22.363 46.1916C22.5287 46.4679 22.7134 46.7316 22.9156 46.9805C23.3096 47.456 23.8091 47.8258 24.3713 48.0583C24.8296 48.2517 25.3198 48.3512 25.8148 48.3515C26.149 48.3532 26.4815 48.3034 26.8016 48.2039C27.034 48.13 27.1543 48.0752 27.1543 48.0836Z" fill="#263238"/>
<path d="M49.7447 49.857C49.6804 49.8239 49.6208 49.782 49.5673 49.7325C49.4572 49.646 49.3002 49.5216 49.1065 49.3571C48.7232 49.0322 48.1809 48.604 47.6345 48.0577C47.5024 47.9253 47.3784 47.7844 47.2634 47.6359C47.1544 47.4909 47.0753 47.3244 47.031 47.1465C46.9608 46.8513 46.9286 46.5477 46.9352 46.2438C46.9361 46.0405 46.9504 45.8375 46.978 45.6363C46.9849 45.564 47.0014 45.493 47.0269 45.4254C47.0432 45.4254 46.9963 45.7417 47.0106 46.2501C47.0137 46.5456 47.052 46.8396 47.1248 47.1254C47.1982 47.4482 47.449 47.7181 47.7099 47.9945C48.2482 48.5323 48.7864 48.9732 49.1534 49.3107C49.341 49.4794 49.4898 49.6165 49.5938 49.7135C49.65 49.7543 49.7007 49.8025 49.7447 49.857Z" fill="#263238"/>
<path d="M51.5224 40.7621C51.5479 40.8592 51.5629 40.959 51.5672 41.0595C51.5886 41.3333 51.5886 41.6084 51.5672 41.8821C51.5085 42.7938 51.2049 43.6705 50.6905 44.4133C50.0585 45.2422 49.4672 45.9931 48.9677 46.4508C48.7733 46.6341 48.5691 46.8059 48.3561 46.9655C48.2802 47.0287 48.1974 47.0825 48.1094 47.1258C48.1778 47.0545 48.2522 46.9895 48.3316 46.9318C48.4764 46.8094 48.6843 46.6301 48.9249 46.3939C49.5338 45.7534 50.098 45.069 50.6131 44.3458C51.1143 43.6212 51.4197 42.7715 51.4979 41.8842C51.5253 41.5109 51.5334 41.1363 51.5224 40.7621Z" fill="#263238"/>
<path d="M53.0883 42.62C53.144 42.3711 53.1707 42.1161 53.1678 41.8606C53.153 41.5854 53.0944 41.3146 52.9945 41.0591C52.8721 40.7464 52.6873 40.4639 52.4522 40.2301C52.0057 39.8213 51.4564 39.5514 50.868 39.4518C50.6211 39.4279 50.3727 39.4279 50.1259 39.4518C50.1907 39.4224 50.2594 39.4032 50.3297 39.3949C50.5127 39.3611 50.6994 39.354 50.8843 39.3738C51.4973 39.4542 52.0723 39.7248 52.5337 40.15C52.9821 40.5988 53.2402 41.2132 53.2514 41.8585C53.2525 42.0504 53.2271 42.2415 53.1759 42.4259C53.1576 42.4953 53.1279 42.5609 53.0883 42.62Z" fill="#263238"/>
<path d="M30.1983 55.7531C30.1983 55.7531 25.6232 51.5556 23.6169 51.5915C21.6107 51.6273 15.0233 51.1696 17.7859 60.6129C20.5709 70.13 25.5538 84.682 25.6904 84.161L34.2699 80.2588L30.7834 66.7214C30.7834 66.7214 42.4782 66.8585 44.7352 66.5505C46.9922 66.2426 51.2187 63.1757 51.2187 63.1757L50.5479 80.2736L59.5188 79.7568C59.5188 79.7568 60.7767 59.2102 61.1498 54.9874C61.4658 51.3088 57.4799 47.1831 53.4023 48.1154C50.7518 48.7228 41.2325 55.6666 41.2325 55.6666L30.1983 55.7531Z" fill="#263238"/>
<path d="M51.5264 54.0716C51.5359 54.2214 51.5325 54.3717 51.5162 54.5209C51.4999 54.8373 51.4795 55.2465 51.455 55.7379C51.4101 56.7652 51.3775 58.1868 51.3531 59.7603C51.3286 61.3339 51.3001 62.7555 51.247 63.7849C51.2246 64.3016 51.194 64.7172 51.1675 65.004C51.1616 65.1539 51.1425 65.3028 51.1104 65.4491C51.0976 65.2996 51.0976 65.1493 51.1104 64.9998C51.1104 64.6834 51.1308 64.2742 51.1431 63.7806C51.1594 62.726 51.1818 61.3149 51.2042 59.7561C51.2266 58.1974 51.2776 56.7609 51.351 55.7316C51.3877 55.2169 51.4244 54.8014 51.4591 54.5145C51.4685 54.3651 51.4911 54.2168 51.5264 54.0716Z" fill="#455A64"/>
<path d="M51.1637 62.0802C51.0044 61.9415 50.8705 61.7743 50.7682 61.5867C50.4905 61.1547 50.2742 60.6838 50.126 60.1882C49.9772 59.6926 49.8962 59.1778 49.8854 58.659C49.8684 58.4463 49.887 58.2323 49.9404 58.0262C49.9894 58.0262 49.92 59.0091 50.2707 60.1481C50.6214 61.2871 51.2127 62.0528 51.1637 62.0802Z" fill="#455A64"/>
<path d="M38.9633 65.5462C38.9491 65.5462 38.9287 65.3142 38.8594 64.8944C38.7629 64.305 38.6057 63.728 38.3904 63.1733C38.0712 62.3509 37.6341 61.5829 37.0937 60.8952C36.4299 60.0562 35.6166 59.3566 34.6981 58.8345C32.7531 57.6701 31.0425 56.5269 29.8477 55.6326C29.2503 55.1875 28.7814 54.8057 28.4695 54.5252C28.3125 54.3881 28.1963 54.2721 28.1188 54.1961C28.0413 54.1202 28.0005 54.0759 28.0046 54.0717C28.0087 54.0675 28.184 54.2151 28.5082 54.4788C28.8324 54.7424 29.3054 55.1116 29.9089 55.544C31.1159 56.4109 32.8326 57.5372 34.7735 58.7079C35.7107 59.2384 36.5373 59.9552 37.2059 60.8172C37.7486 61.5168 38.1827 62.2996 38.4924 63.1374C38.7021 63.7021 38.8465 64.2904 38.9226 64.8902C38.9448 65.0525 38.9591 65.2158 38.9654 65.3796C38.9703 65.435 38.9696 65.4909 38.9633 65.5462Z" fill="#455A64"/>
<path d="M42.1275 55.525C42.0897 55.6616 42.0399 55.7943 41.9787 55.9215C41.8706 56.1704 41.7258 56.5374 41.5709 56.993C40.6992 59.3736 40.2924 61.9093 40.3741 64.4536C40.3884 64.9408 40.4128 65.3353 40.4373 65.6074C40.457 65.747 40.4624 65.8884 40.4536 66.0292C40.4153 65.8915 40.39 65.7502 40.3782 65.6074C40.3354 65.3374 40.2966 64.9429 40.266 64.4536C40.1236 61.8927 40.5317 59.3311 41.4608 56.9529C41.6402 56.4995 41.8013 56.1388 41.9257 55.8983C41.9808 55.7672 42.0484 55.6422 42.1275 55.525Z" fill="#455A64"/>
<path d="M24.9261 54.2944C24.9706 54.3174 25.0123 54.3457 25.0505 54.3787L25.395 54.6361C25.4684 54.6951 25.552 54.7584 25.6417 54.8259C25.7314 54.8934 25.8171 54.9883 25.9149 55.079C26.1411 55.2787 26.3537 55.4944 26.551 55.7245L26.8997 56.1231C27.0098 56.2708 27.1199 56.4269 27.2381 56.5872L27.4155 56.834C27.4726 56.9204 27.5256 57.0111 27.5806 57.1018C27.6887 57.2832 27.807 57.4667 27.9171 57.6629C28.3737 58.5231 28.7584 59.4221 29.067 60.3501C29.4054 61.3331 29.6623 62.2907 29.8825 63.1597L30.4799 65.4799C30.6532 66.138 30.7938 66.6696 30.8999 67.0345C30.9488 67.2095 30.9855 67.3509 31.0161 67.4563C31.0318 67.505 31.0427 67.5552 31.0487 67.6061C31.0262 67.5603 31.0085 67.5123 30.9957 67.4627L30.8611 67.0408C30.7429 66.6801 30.59 66.1507 30.4065 65.4947C30.223 64.8387 30.0211 64.0519 29.7948 63.1871C29.5685 62.3223 29.3035 61.3647 28.965 60.386C28.6594 59.4639 28.2795 58.5699 27.8294 57.7135C27.7234 57.5174 27.6072 57.336 27.4991 57.1525C27.4461 57.0639 27.3951 56.9732 27.338 56.8867L27.1647 56.642C27.0505 56.4817 26.9425 56.3235 26.8324 56.178L26.4939 55.7772C26.3006 55.5455 26.0929 55.3271 25.8721 55.1233C25.7763 55.0326 25.6927 54.9398 25.6071 54.866L25.3665 54.6698L25.0362 54.3956C24.9968 54.3651 24.96 54.3312 24.9261 54.2944Z" fill="#455A64"/>
<path d="M30.1047 55.6661C31.7357 56.7819 33.534 57.0435 35.4546 57.4232C36.5637 57.6341 37.7238 57.845 38.8044 57.5117C41.1246 56.803 43.3673 54.0715 44.8577 53.097L40.2377 51.6078L30.1047 55.6661Z" fill="#0E7490"/>
<path d="M33.3953 56.7756C33.4904 56.3872 33.6201 56.0087 33.7827 55.6451C33.9126 55.2669 34.0757 54.9019 34.27 54.5546C34.1736 54.9429 34.0433 55.3213 33.8806 55.6851C33.7508 56.063 33.5884 56.428 33.3953 56.7756Z" fill="white"/>
<path d="M39.52 56.3643C39.221 56.2955 38.9309 56.1907 38.6555 56.0521C38.3683 55.9458 38.0945 55.8042 37.84 55.6302C38.4267 55.8063 38.9924 56.0504 39.5261 56.3579L39.52 56.3643Z" fill="white"/>
<path d="M41.1001 53.4304C40.7626 53.4812 40.4209 53.4946 40.0807 53.4705C39.7395 53.4832 39.3979 53.4598 39.0613 53.4009C39.3987 53.3502 39.7405 53.3368 40.0807 53.3608C40.4219 53.3482 40.7635 53.3715 41.1001 53.4304Z" fill="white"/>
<path d="M9.39795 19.936L5.61546 16.8392L10.2971 17.3956L8.08528 11.4091L12.5355 14.2631L13.5798 8.59182L16.6008 13.5365L20.3712 11.6175L19.2862 17.2135L24.5658 18.7468L18.8703 19.6435L20.3056 24.6295L15.5345 22.6179L12.8651 27.6472L11.7601 22.682L6.75386 23.9718L9.39795 19.936Z" fill="white"/>
<path d="M9.37384 19.8746C9.37384 19.8746 9.3185 19.9651 9.20491 20.1368L8.69241 20.9125L6.70744 23.8908L6.67909 23.8444L11.6986 22.6028L11.7354 22.5902L11.7486 22.6317C12.0664 24.1216 12.4263 25.8014 12.8126 27.6075L12.7319 27.5892L15.4472 22.5883L15.4678 22.5531L15.5045 22.5686L20.2596 24.6407L20.1929 24.7095C19.7516 23.124 19.2853 21.4449 18.8027 19.7075L18.7822 19.643L18.8396 19.6234L24.5418 18.8095L24.5393 18.9304L19.5589 17.4156L19.2804 17.3322L19.2251 17.3154L19.2378 17.2549L20.3804 11.6766L20.4581 11.7496L16.6666 13.6202L16.6236 13.6349L16.5959 13.5907L13.623 8.60981L13.7162 8.59578C13.3316 10.5629 12.9638 12.4468 12.6127 14.2475L12.5989 14.3186L12.5419 14.282L8.12228 11.3774L8.18375 11.3206C8.97838 13.541 9.69486 15.5508 10.3322 17.3322L10.3512 17.3921L10.294 17.3836L5.61479 16.7617L5.63032 16.7104L8.42301 19.074L9.14736 19.6687C9.30586 19.8034 9.38203 19.8718 9.38203 19.8718C9.38203 19.8718 9.29488 19.8046 9.13229 19.6713L8.40253 19.081L5.60587 16.7622L5.52911 16.6991L5.6214 16.7109L10.3029 17.3116L10.2675 17.3645C9.6261 15.5845 8.90347 13.5769 8.10401 11.3556L8.06311 11.2265L8.16957 11.2973L12.5973 14.1991L12.5236 14.2244C12.8706 12.4251 13.2359 10.5403 13.6195 8.57015L13.6452 8.43621L13.714 8.5531L16.6916 13.5273L16.6232 13.5048L20.4122 11.6478L20.5184 11.5961L20.4919 11.7201C20.1212 13.5497 19.7412 15.4097 19.352 17.3001L19.3093 17.2227L19.5878 17.3061L24.5771 18.8204L24.8479 18.9013L24.579 18.927L18.8708 19.7506L18.9134 19.6773C19.3931 21.4054 19.8596 23.0921 20.2988 24.6783L20.3339 24.7889L20.2362 24.7458L15.4913 22.6702L15.5486 22.6506C14.5774 24.4287 13.6565 26.1079 12.8181 27.6464L12.7629 27.7445L12.7272 27.6316C12.3457 25.8264 11.992 24.1445 11.6762 22.6539L11.7228 22.6865L6.69588 23.8973L6.62624 23.9212L6.66972 23.8578L8.66755 20.9057L9.19116 20.1364L9.37384 19.8746Z" fill="#263238"/>
<path d="M22.1123 21.7252C22.1123 21.7252 22.0287 21.7692 21.9044 21.8858C21.7304 22.0545 21.6103 22.2811 21.5606 22.5347C21.5242 22.707 21.5234 22.8879 21.5582 23.0642C21.6008 23.2647 21.6942 23.45 21.8272 23.5978C21.9728 23.7796 22.1635 23.9097 22.3732 23.9704C22.5829 24.0312 22.8014 24.0195 22.9988 23.9371C23.1962 23.8547 23.363 23.7055 23.4763 23.5099C23.5896 23.3143 23.644 23.0819 23.6319 22.8444C23.6326 22.6402 23.5793 22.4374 23.4787 22.2609C23.3887 22.1044 23.2687 21.9708 23.1279 21.8703C22.9266 21.7216 22.6916 21.6433 22.4551 21.6461C22.3685 21.6519 22.2825 21.6626 22.1974 21.6782L22.2608 21.6564C22.2868 21.6453 22.3135 21.6361 22.3407 21.6291C22.378 21.6213 22.4158 21.6161 22.4538 21.6133C22.6987 21.5967 22.9455 21.669 23.1571 21.8194C23.3057 21.9204 23.4329 22.0569 23.5288 22.2182C23.64 22.4053 23.6994 22.6226 23.6992 22.8418C23.7038 23.0844 23.6483 23.3206 23.5388 23.5249C23.4215 23.7451 23.2427 23.9154 23.0278 24.0115C22.8089 24.0971 22.5679 24.1018 22.3395 24.0251C22.1273 23.9598 21.933 23.8308 21.7788 23.6527C21.6371 23.4922 21.5388 23.2916 21.4959 23.0754C21.4581 22.8501 21.4736 22.6206 21.5408 22.4094C21.6081 22.1983 21.7248 22.0128 21.8794 21.8714C21.9088 21.8452 21.94 21.8217 21.9729 21.801C21.9955 21.784 22.0202 21.7704 22.0464 21.7606C22.0891 21.7306 22.1109 21.7206 22.1123 21.7252Z" fill="#263238"/>
<path d="M25.6295 23.7389C25.6295 23.7389 25.5786 23.7716 25.5023 23.8463C25.3968 23.9539 25.3239 24.0953 25.2928 24.2526C25.2679 24.3659 25.2701 24.4857 25.2993 24.6006C25.3286 24.7154 25.3838 24.8213 25.4597 24.908C25.5518 25.0125 25.6685 25.0858 25.7951 25.1188C25.9218 25.1517 26.0526 25.1428 26.1712 25.0932C26.2898 25.0436 26.3908 24.9555 26.4614 24.8399C26.5321 24.7244 26.5693 24.5866 26.5682 24.444C26.5671 24.3261 26.5383 24.209 26.4849 24.1043C26.4314 23.9995 26.3549 23.9106 26.263 23.8463C26.1387 23.7536 25.9938 23.7035 25.8473 23.7026C25.7429 23.7026 25.6863 23.7245 25.6841 23.7176C25.7306 23.684 25.7851 23.6653 25.8418 23.6636C25.9978 23.651 26.1556 23.6945 26.2921 23.7878C26.387 23.8533 26.4688 23.9403 26.5319 24.0428C26.6022 24.1638 26.6408 24.303 26.6431 24.4439C26.6505 24.6064 26.6127 24.765 26.5349 24.8985C26.457 25.0319 26.3428 25.1337 26.2077 25.19C26.0727 25.2463 25.9233 25.2544 25.7799 25.2132C25.6364 25.172 25.5058 25.0835 25.4057 24.9597C25.3151 24.8558 25.2527 24.7263 25.2262 24.587C25.2049 24.4678 25.2083 24.3461 25.2361 24.2312C25.2721 24.0638 25.3584 23.9174 25.4811 23.8152C25.5239 23.7768 25.5747 23.7507 25.6295 23.7389Z" fill="#263238"/>
<path d="M12.4612 15.9697L13.285 18.4969C13.318 18.5966 13.382 18.6814 13.4651 18.7355C13.5482 18.7897 13.6448 18.8096 13.7371 18.7915C13.8358 18.7725 13.9223 18.7116 13.9783 18.6215C14.0344 18.5313 14.0558 18.419 14.0379 18.308L13.6074 15.6461C13.5969 15.601 13.5782 15.5583 13.5526 15.5207C13.5269 15.483 13.4949 15.4512 13.4583 15.4271C13.4218 15.4031 13.3816 15.3873 13.3401 15.3807C13.2987 15.3742 13.2568 15.377 13.2172 15.389L12.6602 15.5517C12.6215 15.5629 12.5855 15.5827 12.5544 15.6099C12.5233 15.6371 12.4978 15.6712 12.4792 15.7102C12.4607 15.7491 12.4496 15.7921 12.4465 15.8367C12.4434 15.8813 12.4484 15.9265 12.4612 15.9697Z" fill="#263238"/>
<path d="M14.7275 20.0812C14.7237 20.2089 14.6857 20.3307 14.6183 20.4312C14.551 20.5317 14.4573 20.6065 14.349 20.6459C14.2408 20.6854 14.1229 20.6879 14.0102 20.653C13.8976 20.6182 13.7953 20.5476 13.7161 20.4501C13.637 20.3527 13.5847 20.2328 13.5658 20.1056C13.5469 19.9784 13.5622 19.8495 13.6098 19.7354C13.6575 19.6213 13.7353 19.527 13.8334 19.4644C13.9316 19.4018 14.0457 19.3738 14.1613 19.3838C14.2381 19.3905 14.3137 19.4138 14.3838 19.4525C14.4538 19.4912 14.517 19.5444 14.5695 19.6092C14.6221 19.674 14.6631 19.749 14.6902 19.83C14.7173 19.911 14.73 19.9964 14.7275 20.0812Z" fill="#263238"/>
<path d="M14.2108 15.4851L15.0345 18.0122C15.0673 18.1125 15.1316 18.1978 15.2153 18.252C15.299 18.3061 15.3962 18.3254 15.4887 18.3062C15.5877 18.2885 15.6746 18.2282 15.731 18.1382C15.7873 18.0483 15.8086 17.9358 15.7902 17.8249L15.3598 15.163C15.3525 15.1155 15.3362 15.0698 15.312 15.0289C15.2877 14.9881 15.2561 14.9531 15.2192 14.9263C15.1822 14.8995 15.1409 14.8815 15.098 14.8735C15.0551 14.8655 15.0116 14.8678 14.9704 14.8801L14.4114 15.0435C14.3699 15.054 14.3314 15.0743 14.2983 15.1029C14.2652 15.1315 14.2382 15.1679 14.2193 15.2096C14.2003 15.2514 14.1898 15.2975 14.1883 15.3449C14.1868 15.3924 14.1945 15.4402 14.2108 15.4851Z" fill="#263238"/>
<path d="M16.4834 19.5974C16.4796 19.725 16.4416 19.8468 16.3743 19.9473C16.3069 20.0479 16.2132 20.1226 16.1049 20.1621C15.9967 20.2015 15.8788 20.204 15.7662 20.1691C15.6535 20.1343 15.5512 20.0637 15.4721 19.9662C15.393 19.8688 15.3406 19.7489 15.3217 19.6217C15.3028 19.4945 15.3181 19.3657 15.3658 19.2515C15.4134 19.1374 15.4912 19.0431 15.5894 18.9805C15.6875 18.918 15.8016 18.8899 15.9172 18.8999C15.994 18.9066 16.0697 18.93 16.1397 18.9686C16.2098 19.0073 16.2729 19.0605 16.3255 19.1253C16.3781 19.1901 16.4191 19.2651 16.4462 19.3461C16.4733 19.4271 16.4859 19.5125 16.4834 19.5974Z" fill="#263238"/>
</g>
<path d="M15.715 84.05C15.5217 83.6433 15.2417 83.33 14.875 83.11C14.5084 82.8833 14.0817 82.77 13.595 82.77C13.1084 82.77 12.6684 82.8833 12.275 83.11C11.8884 83.33 11.5817 83.65 11.355 84.07C11.135 84.4833 11.025 84.9633 11.025 85.51C11.025 86.0567 11.135 86.5367 11.355 86.95C11.5817 87.3633 11.8884 87.6833 12.275 87.91C12.6684 88.13 13.1084 88.24 13.595 88.24C14.275 88.24 14.835 88.0367 15.275 87.63C15.715 87.2233 15.9717 86.6733 16.045 85.98H13.265V85.24H17.015V85.94C16.9617 86.5133 16.7817 87.04 16.475 87.52C16.1684 87.9933 15.765 88.37 15.265 88.65C14.765 88.9233 14.2084 89.06 13.595 89.06C12.9484 89.06 12.3584 88.91 11.825 88.61C11.2917 88.3033 10.8684 87.88 10.555 87.34C10.2484 86.8 10.095 86.19 10.095 85.51C10.095 84.83 10.2484 84.22 10.555 83.68C10.8684 83.1333 11.2917 82.71 11.825 82.41C12.3584 82.1033 12.9484 81.95 13.595 81.95C14.335 81.95 14.9884 82.1333 15.555 82.5C16.1284 82.8667 16.545 83.3833 16.805 84.05H15.715ZM17.8782 86.24C17.8782 85.68 17.9916 85.19 18.2182 84.77C18.4449 84.3433 18.7549 84.0133 19.1482 83.78C19.5482 83.5467 19.9916 83.43 20.4782 83.43C20.9582 83.43 21.3749 83.5333 21.7282 83.74C22.0816 83.9467 22.3449 84.2067 22.5182 84.52V83.52H23.4382V89H22.5182V87.98C22.3382 88.3 22.0682 88.5667 21.7082 88.78C21.3549 88.9867 20.9416 89.09 20.4682 89.09C19.9816 89.09 19.5416 88.97 19.1482 88.73C18.7549 88.49 18.4449 88.1533 18.2182 87.72C17.9916 87.2867 17.8782 86.7933 17.8782 86.24ZM22.5182 86.25C22.5182 85.8367 22.4349 85.4767 22.2682 85.17C22.1016 84.8633 21.8749 84.63 21.5882 84.47C21.3082 84.3033 20.9982 84.22 20.6582 84.22C20.3182 84.22 20.0082 84.3 19.7282 84.46C19.4482 84.62 19.2249 84.8533 19.0582 85.16C18.8916 85.4667 18.8082 85.8267 18.8082 86.24C18.8082 86.66 18.8916 87.0267 19.0582 87.34C19.2249 87.6467 19.4482 87.8833 19.7282 88.05C20.0082 88.21 20.3182 88.29 20.6582 88.29C20.9982 88.29 21.3082 88.21 21.5882 88.05C21.8749 87.8833 22.1016 87.6467 22.2682 87.34C22.4349 87.0267 22.5182 86.6633 22.5182 86.25ZM27.6461 83.42C28.3127 83.42 28.8527 83.6233 29.2661 84.03C29.6794 84.43 29.8861 85.01 29.8861 85.77V89H28.9861V85.9C28.9861 85.3533 28.8494 84.9367 28.5761 84.65C28.3027 84.3567 27.9294 84.21 27.4561 84.21C26.9761 84.21 26.5927 84.36 26.3061 84.66C26.0261 84.96 25.8861 85.3967 25.8861 85.97V89H24.9761V83.52H25.8861V84.3C26.0661 84.02 26.3094 83.8033 26.6161 83.65C26.9294 83.4967 27.2727 83.42 27.6461 83.42ZM33.6325 83.43C34.1059 83.43 34.5192 83.5333 34.8725 83.74C35.2325 83.9467 35.4992 84.2067 35.6725 84.52V83.52H36.5925V89.12C36.5925 89.62 36.4859 90.0633 36.2725 90.45C36.0592 90.8433 35.7525 91.15 35.3525 91.37C34.9592 91.59 34.4992 91.7 33.9725 91.7C33.2525 91.7 32.6525 91.53 32.1725 91.19C31.6925 90.85 31.4092 90.3867 31.3225 89.8H32.2225C32.3225 90.1333 32.5292 90.4 32.8425 90.6C33.1559 90.8067 33.5325 90.91 33.9725 90.91C34.4725 90.91 34.8792 90.7533 35.1925 90.44C35.5125 90.1267 35.6725 89.6867 35.6725 89.12V87.97C35.4925 88.29 35.2259 88.5567 34.8725 88.77C34.5192 88.9833 34.1059 89.09 33.6325 89.09C33.1459 89.09 32.7025 88.97 32.3025 88.73C31.9092 88.49 31.5992 88.1533 31.3725 87.72C31.1459 87.2867 31.0325 86.7933 31.0325 86.24C31.0325 85.68 31.1459 85.19 31.3725 84.77C31.5992 84.3433 31.9092 84.0133 32.3025 83.78C32.7025 83.5467 33.1459 83.43 33.6325 83.43ZM35.6725 86.25C35.6725 85.8367 35.5892 85.4767 35.4225 85.17C35.2559 84.8633 35.0292 84.63 34.7425 84.47C34.4625 84.3033 34.1525 84.22 33.8125 84.22C33.4725 84.22 33.1625 84.3 32.8825 84.46C32.6025 84.62 32.3792 84.8533 32.2125 85.16C32.0459 85.4667 31.9625 85.8267 31.9625 86.24C31.9625 86.66 32.0459 87.0267 32.2125 87.34C32.3792 87.6467 32.6025 87.8833 32.8825 88.05C33.1625 88.21 33.4725 88.29 33.8125 88.29C34.1525 88.29 34.4625 88.21 34.7425 88.05C35.0292 87.8833 35.2559 87.6467 35.4225 87.34C35.5892 87.0267 35.6725 86.6633 35.6725 86.25ZM40.3904 83.43C40.8637 83.43 41.277 83.5333 41.6304 83.74C41.9904 83.9467 42.257 84.2067 42.4304 84.52V83.52H43.3504V89.12C43.3504 89.62 43.2437 90.0633 43.0304 90.45C42.817 90.8433 42.5104 91.15 42.1104 91.37C41.717 91.59 41.257 91.7 40.7304 91.7C40.0104 91.7 39.4104 91.53 38.9304 91.19C38.4504 90.85 38.167 90.3867 38.0804 89.8H38.9804C39.0804 90.1333 39.287 90.4 39.6004 90.6C39.9137 90.8067 40.2904 90.91 40.7304 90.91C41.2304 90.91 41.637 90.7533 41.9504 90.44C42.2704 90.1267 42.4304 89.6867 42.4304 89.12V87.97C42.2504 88.29 41.9837 88.5567 41.6304 88.77C41.277 88.9833 40.8637 89.09 40.3904 89.09C39.9037 89.09 39.4604 88.97 39.0604 88.73C38.667 88.49 38.357 88.1533 38.1304 87.72C37.9037 87.2867 37.7904 86.7933 37.7904 86.24C37.7904 85.68 37.9037 85.19 38.1304 84.77C38.357 84.3433 38.667 84.0133 39.0604 83.78C39.4604 83.5467 39.9037 83.43 40.3904 83.43ZM42.4304 86.25C42.4304 85.8367 42.347 85.4767 42.1804 85.17C42.0137 84.8633 41.787 84.63 41.5004 84.47C41.2204 84.3033 40.9104 84.22 40.5704 84.22C40.2304 84.22 39.9204 84.3 39.6404 84.46C39.3604 84.62 39.137 84.8533 38.9704 85.16C38.8037 85.4667 38.7204 85.8267 38.7204 86.24C38.7204 86.66 38.8037 87.0267 38.9704 87.34C39.137 87.6467 39.3604 87.8833 39.6404 88.05C39.9204 88.21 40.2304 88.29 40.5704 88.29C40.9104 88.29 41.2204 88.21 41.5004 88.05C41.787 87.8833 42.0137 87.6467 42.1804 87.34C42.347 87.0267 42.4304 86.6633 42.4304 86.25ZM49.7482 83.52V89H48.8382V88.19C48.6648 88.47 48.4215 88.69 48.1082 88.85C47.8015 89.0033 47.4615 89.08 47.0882 89.08C46.6615 89.08 46.2782 88.9933 45.9382 88.82C45.5982 88.64 45.3282 88.3733 45.1282 88.02C44.9348 87.6667 44.8382 87.2367 44.8382 86.73V83.52H45.7382V86.61C45.7382 87.15 45.8748 87.5667 46.1482 87.86C46.4215 88.1467 46.7948 88.29 47.2682 88.29C47.7548 88.29 48.1382 88.14 48.4182 87.84C48.6982 87.54 48.8382 87.1033 48.8382 86.53V83.52H49.7482ZM50.9446 86.24C50.9446 85.68 51.058 85.19 51.2846 84.77C51.5113 84.3433 51.8213 84.0133 52.2146 83.78C52.6146 83.5467 53.058 83.43 53.5446 83.43C54.0246 83.43 54.4413 83.5333 54.7946 83.74C55.148 83.9467 55.4113 84.2067 55.5846 84.52V83.52H56.5046V89H55.5846V87.98C55.4046 88.3 55.1346 88.5667 54.7746 88.78C54.4213 88.9867 54.008 89.09 53.5346 89.09C53.048 89.09 52.608 88.97 52.2146 88.73C51.8213 88.49 51.5113 88.1533 51.2846 87.72C51.058 87.2867 50.9446 86.7933 50.9446 86.24ZM55.5846 86.25C55.5846 85.8367 55.5013 85.4767 55.3346 85.17C55.168 84.8633 54.9413 84.63 54.6546 84.47C54.3746 84.3033 54.0646 84.22 53.7246 84.22C53.3846 84.22 53.0746 84.3 52.7946 84.46C52.5146 84.62 52.2913 84.8533 52.1246 85.16C51.958 85.4667 51.8746 85.8267 51.8746 86.24C51.8746 86.66 51.958 87.0267 52.1246 87.34C52.2913 87.6467 52.5146 87.8833 52.7946 88.05C53.0746 88.21 53.3846 88.29 53.7246 88.29C54.0646 88.29 54.3746 88.21 54.6546 88.05C54.9413 87.8833 55.168 87.6467 55.3346 87.34C55.5013 87.0267 55.5846 86.6633 55.5846 86.25ZM60.7125 83.42C61.3791 83.42 61.9191 83.6233 62.3325 84.03C62.7458 84.43 62.9525 85.01 62.9525 85.77V89H62.0525V85.9C62.0525 85.3533 61.9158 84.9367 61.6425 84.65C61.3691 84.3567 60.9958 84.21 60.5225 84.21C60.0425 84.21 59.6591 84.36 59.3725 84.66C59.0925 84.96 58.9525 85.3967 58.9525 85.97V89H58.0425V83.52H58.9525V84.3C59.1325 84.02 59.3758 83.8033 59.6825 83.65C59.9958 83.4967 60.3391 83.42 60.7125 83.42ZM12.5988 104L9.72883 100.82V104H8.81883V97.03H9.72883V100.26L12.6088 97.03H13.7588L10.5988 100.52L13.7888 104H12.5988ZM19.8052 101.05C19.8052 101.223 19.7952 101.407 19.7752 101.6H15.3952C15.4285 102.14 15.6118 102.563 15.9452 102.87C16.2852 103.17 16.6952 103.32 17.1752 103.32C17.5685 103.32 17.8952 103.23 18.1552 103.05C18.4218 102.863 18.6085 102.617 18.7152 102.31H19.6952C19.5485 102.837 19.2552 103.267 18.8152 103.6C18.3752 103.927 17.8285 104.09 17.1752 104.09C16.6552 104.09 16.1885 103.973 15.7752 103.74C15.3685 103.507 15.0485 103.177 14.8152 102.75C14.5818 102.317 14.4652 101.817 14.4652 101.25C14.4652 100.683 14.5785 100.187 14.8052 99.76C15.0318 99.3333 15.3485 99.0067 15.7552 98.78C16.1685 98.5467 16.6418 98.43 17.1752 98.43C17.6952 98.43 18.1552 98.5433 18.5552 98.77C18.9552 98.9967 19.2618 99.31 19.4752 99.71C19.6952 100.103 19.8052 100.55 19.8052 101.05ZM18.8652 100.86C18.8652 100.513 18.7885 100.217 18.6352 99.97C18.4818 99.7167 18.2718 99.5267 18.0052 99.4C17.7452 99.2667 17.4552 99.2 17.1352 99.2C16.6752 99.2 16.2818 99.3467 15.9552 99.64C15.6352 99.9333 15.4518 100.34 15.4052 100.86H18.8652ZM20.6663 101.25C20.6663 100.683 20.7797 100.19 21.0063 99.77C21.233 99.3433 21.5463 99.0133 21.9463 98.78C22.353 98.5467 22.8163 98.43 23.3363 98.43C24.0097 98.43 24.563 98.5933 24.9963 98.92C25.4363 99.2467 25.7263 99.7 25.8663 100.28H24.8863C24.793 99.9467 24.6097 99.6833 24.3363 99.49C24.0697 99.2967 23.7363 99.2 23.3363 99.2C22.8163 99.2 22.3963 99.38 22.0763 99.74C21.7563 100.093 21.5963 100.597 21.5963 101.25C21.5963 101.91 21.7563 102.42 22.0763 102.78C22.3963 103.14 22.8163 103.32 23.3363 103.32C23.7363 103.32 24.0697 103.227 24.3363 103.04C24.603 102.853 24.7863 102.587 24.8863 102.24H25.8663C25.7197 102.8 25.4263 103.25 24.9863 103.59C24.5463 103.923 23.9963 104.09 23.3363 104.09C22.8163 104.09 22.353 103.973 21.9463 103.74C21.5463 103.507 21.233 103.177 21.0063 102.75C20.7797 102.323 20.6663 101.823 20.6663 101.25ZM32.0805 101.05C32.0805 101.223 32.0705 101.407 32.0505 101.6H27.6705C27.7039 102.14 27.8872 102.563 28.2205 102.87C28.5605 103.17 28.9705 103.32 29.4505 103.32C29.8439 103.32 30.1705 103.23 30.4305 103.05C30.6972 102.863 30.8839 102.617 30.9905 102.31H31.9705C31.8239 102.837 31.5305 103.267 31.0905 103.6C30.6505 103.927 30.1039 104.09 29.4505 104.09C28.9305 104.09 28.4639 103.973 28.0505 103.74C27.6439 103.507 27.3239 103.177 27.0905 102.75C26.8572 102.317 26.7405 101.817 26.7405 101.25C26.7405 100.683 26.8539 100.187 27.0805 99.76C27.3072 99.3333 27.6239 99.0067 28.0305 98.78C28.4439 98.5467 28.9172 98.43 29.4505 98.43C29.9705 98.43 30.4305 98.5433 30.8305 98.77C31.2305 98.9967 31.5372 99.31 31.7505 99.71C31.9705 100.103 32.0805 100.55 32.0805 101.05ZM31.1405 100.86C31.1405 100.513 31.0639 100.217 30.9105 99.97C30.7572 99.7167 30.5472 99.5267 30.2805 99.4C30.0205 99.2667 29.7305 99.2 29.4105 99.2C28.9505 99.2 28.5572 99.3467 28.2305 99.64C27.9105 99.9333 27.7272 100.34 27.6805 100.86H31.1405ZM39.8717 98.42C40.2984 98.42 40.6784 98.51 41.0117 98.69C41.3451 98.8633 41.6084 99.1267 41.8017 99.48C41.9951 99.8333 42.0917 100.263 42.0917 100.77V104H41.1917V100.9C41.1917 100.353 41.0551 99.9367 40.7817 99.65C40.5151 99.3567 40.1517 99.21 39.6917 99.21C39.2184 99.21 38.8417 99.3633 38.5617 99.67C38.2817 99.97 38.1417 100.407 38.1417 100.98V104H37.2417V100.9C37.2417 100.353 37.1051 99.9367 36.8317 99.65C36.5651 99.3567 36.2017 99.21 35.7417 99.21C35.2684 99.21 34.8917 99.3633 34.6117 99.67C34.3317 99.97 34.1917 100.407 34.1917 100.98V104H33.2817V98.52H34.1917V99.31C34.3717 99.0233 34.6117 98.8033 34.9117 98.65C35.2184 98.4967 35.5551 98.42 35.9217 98.42C36.3817 98.42 36.7884 98.5233 37.1417 98.73C37.4951 98.9367 37.7584 99.24 37.9317 99.64C38.0851 99.2533 38.3384 98.9533 38.6917 98.74C39.0451 98.5267 39.4384 98.42 39.8717 98.42ZM43.2445 101.24C43.2445 100.68 43.3578 100.19 43.5845 99.77C43.8111 99.3433 44.1211 99.0133 44.5145 98.78C44.9145 98.5467 45.3578 98.43 45.8445 98.43C46.3245 98.43 46.7411 98.5333 47.0945 98.74C47.4478 98.9467 47.7111 99.2067 47.8845 99.52V98.52H48.8045V104H47.8845V102.98C47.7045 103.3 47.4345 103.567 47.0745 103.78C46.7211 103.987 46.3078 104.09 45.8345 104.09C45.3478 104.09 44.9078 103.97 44.5145 103.73C44.1211 103.49 43.8111 103.153 43.5845 102.72C43.3578 102.287 43.2445 101.793 43.2445 101.24ZM47.8845 101.25C47.8845 100.837 47.8011 100.477 47.6345 100.17C47.4678 99.8633 47.2411 99.63 46.9545 99.47C46.6745 99.3033 46.3645 99.22 46.0245 99.22C45.6845 99.22 45.3745 99.3 45.0945 99.46C44.8145 99.62 44.5911 99.8533 44.4245 100.16C44.2578 100.467 44.1745 100.827 44.1745 101.24C44.1745 101.66 44.2578 102.027 44.4245 102.34C44.5911 102.647 44.8145 102.883 45.0945 103.05C45.3745 103.21 45.6845 103.29 46.0245 103.29C46.3645 103.29 46.6745 103.21 46.9545 103.05C47.2411 102.883 47.4678 102.647 47.6345 102.34C47.8011 102.027 47.8845 101.663 47.8845 101.25ZM52.2823 104.09C51.8623 104.09 51.4856 104.02 51.1523 103.88C50.8189 103.733 50.5556 103.533 50.3623 103.28C50.1689 103.02 50.0623 102.723 50.0423 102.39H50.9823C51.0089 102.663 51.1356 102.887 51.3623 103.06C51.5956 103.233 51.8989 103.32 52.2723 103.32C52.6189 103.32 52.8923 103.243 53.0923 103.09C53.2923 102.937 53.3923 102.743 53.3923 102.51C53.3923 102.27 53.2856 102.093 53.0723 101.98C52.8589 101.86 52.5289 101.743 52.0823 101.63C51.6756 101.523 51.3423 101.417 51.0823 101.31C50.8289 101.197 50.6089 101.033 50.4223 100.82C50.2423 100.6 50.1523 100.313 50.1523 99.96C50.1523 99.68 50.2356 99.4233 50.4023 99.19C50.5689 98.9567 50.8056 98.7733 51.1123 98.64C51.4189 98.5 51.7689 98.43 52.1623 98.43C52.7689 98.43 53.2589 98.5833 53.6323 98.89C54.0056 99.1967 54.2056 99.6167 54.2323 100.15H53.3223C53.3023 99.8633 53.1856 99.6333 52.9723 99.46C52.7656 99.2867 52.4856 99.2 52.1323 99.2C51.8056 99.2 51.5456 99.27 51.3523 99.41C51.1589 99.55 51.0623 99.7333 51.0623 99.96C51.0623 100.14 51.1189 100.29 51.2323 100.41C51.3523 100.523 51.4989 100.617 51.6723 100.69C51.8523 100.757 52.0989 100.833 52.4123 100.92C52.8056 101.027 53.1256 101.133 53.3723 101.24C53.6189 101.34 53.8289 101.493 54.0023 101.7C54.1823 101.907 54.2756 102.177 54.2823 102.51C54.2823 102.81 54.1989 103.08 54.0323 103.32C53.8656 103.56 53.6289 103.75 53.3223 103.89C53.0223 104.023 52.6756 104.09 52.2823 104.09ZM55.2269 101.24C55.2269 100.68 55.3402 100.19 55.5669 99.77C55.7935 99.3433 56.1035 99.0133 56.4969 98.78C56.8969 98.5467 57.3402 98.43 57.8269 98.43C58.3069 98.43 58.7235 98.5333 59.0769 98.74C59.4302 98.9467 59.6935 99.2067 59.8669 99.52V98.52H60.7869V104H59.8669V102.98C59.6869 103.3 59.4169 103.567 59.0569 103.78C58.7035 103.987 58.2902 104.09 57.8169 104.09C57.3302 104.09 56.8902 103.97 56.4969 103.73C56.1035 103.49 55.7935 103.153 55.5669 102.72C55.3402 102.287 55.2269 101.793 55.2269 101.24ZM59.8669 101.25C59.8669 100.837 59.7835 100.477 59.6169 100.17C59.4502 99.8633 59.2235 99.63 58.9369 99.47C58.6569 99.3033 58.3469 99.22 58.0069 99.22C57.6669 99.22 57.3569 99.3 57.0769 99.46C56.7969 99.62 56.5735 99.8533 56.4069 100.16C56.2402 100.467 56.1569 100.827 56.1569 101.24C56.1569 101.66 56.2402 102.027 56.4069 102.34C56.5735 102.647 56.7969 102.883 57.0769 103.05C57.3569 103.21 57.6669 103.29 58.0069 103.29C58.3469 103.29 58.6569 103.21 58.9369 103.05C59.2235 102.883 59.4502 102.647 59.6169 102.34C59.7835 102.027 59.8669 101.663 59.8669 101.25ZM64.9947 98.42C65.6614 98.42 66.2014 98.6233 66.6147 99.03C67.028 99.43 67.2347 100.01 67.2347 100.77V104H66.3347V100.9C66.3347 100.353 66.198 99.9367 65.9247 99.65C65.6514 99.3567 65.278 99.21 64.8047 99.21C64.3247 99.21 63.9414 99.36 63.6547 99.66C63.3747 99.96 63.2347 100.397 63.2347 100.97V104H62.3247V98.52H63.2347V99.3C63.4147 99.02 63.658 98.8033 63.9647 98.65C64.278 98.4967 64.6214 98.42 64.9947 98.42Z" fill="#164E63"/>
<defs>
<clipPath id="clip0_2012_7986">
<rect width="76" height="73" rx="36.5" fill="white"/>
</clipPath>
</defs>
</svg>
