<svg width="76" height="108" viewBox="0 0 76 108" fill="none" xmlns="http://www.w3.org/2000/svg">
<g clip-path="url(#clip0_2012_8271)">
<rect width="76" height="73" rx="36.5" fill="#ECFEFF"/>
<path d="M43.8391 14.543C47.1871 13.3917 50.4793 12.0636 54.0245 11.753C59.1785 11.2917 64.5669 12.4858 67.4165 16.7397C71.5661 22.9223 69.7973 32.7468 65.6253 38.8272C63.4658 41.9761 60.4842 44.5578 57.3836 46.9089C49.8283 52.6377 41.0677 56.9157 31.4366 57.7434C29.5189 57.9245 27.5883 57.9245 25.6706 57.7434C16.8096 56.8134 9.91828 50.6103 5.41522 43.8492C-4.97474 24.4884 11.2166 14.0631 22.1924 14.7625C27.2498 15.0861 32.4931 16.8959 37.5969 16.1835C39.7322 15.8841 41.7987 15.2517 43.8391 14.543Z" fill="#0E7490"/>
<path opacity="0.9" d="M43.8391 14.543C47.1871 13.3917 50.4793 12.0636 54.0245 11.753C59.1785 11.2917 64.5669 12.4858 67.4165 16.7397C71.5661 22.9223 69.7973 32.7468 65.6253 38.8272C63.4658 41.9761 60.4842 44.5578 57.3836 46.9089C49.8283 52.6377 41.0677 56.9157 31.4366 57.7434C29.5189 57.9245 27.5883 57.9245 25.6706 57.7434C16.8096 56.8134 9.91828 50.6103 5.41522 43.8492C-4.97474 24.4884 11.2166 14.0631 22.1924 14.7625C27.2498 15.0861 32.4931 16.8959 37.5969 16.1835C39.7322 15.8841 41.7987 15.2517 43.8391 14.543Z" fill="white"/>
<path d="M23.9985 59.6266C16.6161 55.516 10.2605 56.9817 10.2605 56.9817C10.2605 56.9817 19.9567 66.6537 27.5585 67.1912C27.6924 64.3826 26.4444 60.9881 23.9985 59.6266Z" fill="#0E7490"/>
<path opacity="0.5" d="M23.9985 59.6266C16.6161 55.516 10.2605 56.9817 10.2605 56.9817C10.2605 56.9817 19.9567 66.6537 27.5585 67.1912C27.6924 64.3826 26.4444 60.9881 23.9985 59.6266Z" fill="white"/>
<path opacity="0.5" d="M10.2605 56.9811C10.2605 56.9811 19.9567 66.6531 27.5585 67.1906C25.9087 62.7378 18.9597 58.7239 10.2605 56.9811Z" fill="white"/>
<path d="M40.7292 25.4821C38.9789 21.4384 35.8839 20.0286 35.8839 20.0286C35.8839 20.0286 36.8269 27.1077 39.8029 29.7433C40.7497 28.6218 41.3095 26.8231 40.7292 25.4821Z" fill="#0E7490"/>
<path opacity="0.5" d="M40.7292 25.4821C38.9789 21.4384 35.8839 20.0286 35.8839 20.0286C35.8839 20.0286 36.8269 27.1077 39.8029 29.7433C40.7497 28.6218 41.3095 26.8231 40.7292 25.4821Z" fill="white"/>
<path opacity="0.5" d="M35.8839 20.0286C35.8839 20.0286 36.8269 27.1077 39.8029 29.7433C40.5321 27.3756 38.9306 23.5105 35.8839 20.0286Z" fill="white"/>
<path d="M51.1191 54.2898C56.6396 50.9641 61.524 51.9146 61.524 51.9146C61.524 51.9146 54.3835 59.5406 48.5989 60.1507C48.4259 58.0117 49.2889 55.3928 51.1191 54.2898Z" fill="#0E7490"/>
<path opacity="0.5" d="M51.1191 54.2898C56.6396 50.9641 61.524 51.9146 61.524 51.9146C61.524 51.9146 54.3835 59.5406 48.5989 60.1507C48.4259 58.0117 49.2889 55.3928 51.1191 54.2898Z" fill="white"/>
<path opacity="0.5" d="M61.5239 51.9148C61.5239 51.9148 54.3834 59.5408 48.5988 60.1509C49.7427 56.7136 54.9358 53.4716 61.5239 51.9148Z" fill="white"/>
<path d="M53.1334 57.474C57.112 57.0555 59.6081 58.8746 59.6081 58.8746C59.6081 58.8746 53.5873 61.2926 50.1742 60.1077C50.6411 58.8634 51.8221 57.6172 53.1334 57.474Z" fill="#0E7490"/>
<path opacity="0.5" d="M53.1334 57.474C57.112 57.0555 59.6081 58.8746 59.6081 58.8746C59.6081 58.8746 53.5873 61.2926 50.1742 60.1077C50.6411 58.8634 51.8221 57.6172 53.1334 57.474Z" fill="white"/>
<path opacity="0.5" d="M59.6081 58.8785C59.6081 58.8785 53.5873 61.2965 50.1742 60.1116C51.7217 58.4804 55.4938 58.0322 59.6081 58.8785Z" fill="white"/>
<path d="M33.5944 71.6454C31.9395 71.6497 30.3006 71.3214 28.7751 70.68C24.3483 68.82 21.5602 64.7764 20.4256 61.607C19.1236 57.9651 18.6325 53.648 19.1236 50.0619C19.7783 45.2055 22.1628 41.6529 26.0223 39.791C28.1315 38.7736 30.4696 37.3209 32.9434 35.7827C40.5898 31.0286 49.2556 25.6401 53.714 32.0423C57.7297 37.8083 58.4737 48.2522 55.4066 55.8168C54.0153 59.2169 51.2644 63.493 46.0564 64.5086C42.8739 65.1298 42.6432 66.1175 42.3754 67.2632C42.1597 68.1932 41.916 69.2311 39.9872 70.1239C37.7905 71.1376 35.6515 71.6454 33.5944 71.6454ZM48.1396 29.2932C43.7183 29.2932 38.1514 32.7546 33.0419 35.9315C30.5626 37.4716 28.2208 38.928 26.1023 39.9491C22.3023 41.7831 19.9531 45.2855 19.3077 50.0768C18.8297 53.6369 19.317 57.9186 20.6097 61.5344C21.7257 64.6667 24.4841 68.6657 28.8551 70.4978C32.2961 71.9411 36.0161 71.757 39.9146 69.9546C41.7616 69.1009 41.9848 68.1449 42.2006 67.2204C42.4703 66.0635 42.7251 64.9698 46.0266 64.3263C51.1639 63.3275 53.8702 59.1034 55.2336 55.7387C58.2803 48.2261 57.5437 37.8603 53.5596 32.139C52.133 30.1023 50.2655 29.2932 48.1303 29.2932H48.1396Z" fill="#0E7490"/>
<path d="M19.0228 53.9088C17.4735 51.0258 16.9471 52.67 17.3488 53.321C17.7506 53.972 19.0228 53.9088 19.0228 53.9088Z" fill="#0E7490"/>
<path d="M20.963 62.6691C18.917 60.1172 18.6938 61.8284 19.209 62.3939C19.7242 62.9593 20.963 62.6691 20.963 62.6691Z" fill="#0E7490"/>
<path d="M19.447 57.4129C21.0559 54.5615 21.5488 56.2151 21.1322 56.8549C20.7155 57.4948 19.447 57.4129 19.447 57.4129Z" fill="#0E7490"/>
<path d="M25.0382 68.2416C23.5502 65.327 25.1982 65.8236 25.5051 66.5285C25.812 67.2335 25.0382 68.2416 25.0382 68.2416Z" fill="#0E7490"/>
<path d="M52.6481 60.3757C55.5218 58.8096 55.0661 60.4743 54.3704 60.7979C53.6748 61.1216 52.6481 60.3757 52.6481 60.3757Z" fill="#0E7490"/>
<path d="M51.1805 29.883C48.3905 28.1774 50.0645 27.7421 50.6857 28.1792C51.307 28.6163 51.1805 29.883 51.1805 29.883Z" fill="#0E7490"/>
<path d="M56.2695 53.0532C56.169 49.7814 54.9675 51.0072 55.0344 51.7791C55.1014 52.551 56.2695 53.0532 56.2695 53.0532Z" fill="#0E7490"/>
<path d="M19.1996 49.9894C20.8085 47.138 21.3014 48.7915 20.8847 49.4314C20.4681 50.0712 19.1996 49.9894 19.1996 49.9894Z" fill="#0E7490"/>
<path d="M9.74515 27.7141L9.08299 27.8777C9.06877 28.3039 8.97608 28.7239 8.80957 29.1165C9.04765 29.0904 9.13135 29.0328 9.16111 28.9882C9.12763 29.1407 9.08857 29.602 9.69679 29.9591C9.90399 29.6231 10.0177 29.2378 10.0262 28.8431C10.0347 28.4485 9.93768 28.0587 9.74515 27.7141Z" fill="#E0E0E0"/>
<path d="M18.0985 45.65L22.4528 42.7801L25.1554 40.9424C26.5559 42.1123 27.8765 43.7324 29.225 45.5682L22.1942 53.5048C20.1575 50.6999 18.0985 45.65 18.0985 45.65Z" fill="#263238"/>
<path d="M13.9449 35.3399C13.7273 35.8737 13.4985 36.3592 13.2492 36.8576C13 37.3561 12.7396 37.8397 12.4494 38.3215C12.1597 38.8157 11.8424 39.2933 11.499 39.7518C11.3177 39.9965 11.124 40.2318 10.9187 40.4567C10.6879 40.7106 10.4338 40.9423 10.1598 41.1487L10.0965 41.197C9.94145 41.3117 9.75805 41.382 9.56602 41.4004C9.37399 41.4187 9.18059 41.3844 9.00658 41.3012C8.726 41.1672 8.47351 40.9809 8.26258 40.7525C8.10166 40.5794 7.95603 40.3927 7.82734 40.1945C7.60855 39.8522 7.42177 39.4904 7.26934 39.1138C7.12527 38.7621 7.00107 38.4025 6.89734 38.0369C6.79221 37.6747 6.70959 37.3063 6.64996 36.9339C6.62643 36.7889 6.65367 36.6402 6.72705 36.513C6.80044 36.3857 6.9155 36.2877 7.05278 36.2355C7.19007 36.1832 7.34118 36.1799 7.4806 36.2262C7.62002 36.2725 7.73921 36.3654 7.81804 36.4894L7.83292 36.5135L8.39092 37.3729C8.57692 37.6574 8.76292 37.9309 8.94892 38.1968C9.12434 38.4445 9.31702 38.6794 9.52552 38.8999C9.6058 38.9889 9.69562 39.0687 9.79336 39.138C9.87148 39.1919 9.93472 39.2143 9.91612 39.1919L8.76292 39.3426C8.8981 39.2108 9.0225 39.0684 9.13492 38.9167C9.26698 38.7418 9.4009 38.554 9.5311 38.3587C9.78778 37.9569 10.0352 37.5235 10.2751 37.0808C10.515 36.6382 10.7438 36.1825 10.967 35.7212C11.1902 35.2599 11.4171 34.7912 11.6236 34.3448V34.3243C11.7583 34.0165 12.0097 33.7748 12.3226 33.6524C12.6355 33.5299 12.9842 33.5368 13.292 33.6715C13.5998 33.8061 13.8416 34.0576 13.964 34.3705C14.0864 34.6834 14.0796 35.0321 13.9449 35.3399Z" fill="#FFC3BD"/>
<path d="M7.88139 36.9468L7.78095 35.3863L6.12183 36.0708C6.12183 36.0708 6.30783 37.5588 7.16529 37.5104L7.88139 36.9468Z" fill="#FFC3BD"/>
<path d="M7.02015 34.5136L6.26499 34.7981C6.1723 34.8333 6.09453 34.8992 6.04474 34.9849C5.99494 35.0706 5.97617 35.1708 5.99157 35.2687L6.12177 36.0704L7.78089 35.3859L7.58187 34.7814C7.56356 34.7262 7.5343 34.6754 7.49584 34.6318C7.45737 34.5882 7.41051 34.5529 7.35805 34.5279C7.30559 34.5028 7.24862 34.4887 7.19056 34.4862C7.13249 34.4838 7.07453 34.4931 7.02015 34.5136Z" fill="#FFC3BD"/>
<path d="M12.1593 33.3182C10.9652 34.1608 10.1914 36.7648 10.1914 36.7648L12.7824 38.7252C13.3455 38.0285 13.7795 37.2367 14.0639 36.3872C14.2183 35.9259 13.5766 32.3213 12.1593 33.3182Z" fill="#263238"/>
<path d="M12.0274 33.4224C13.5748 32.2458 15.2615 31.265 17.0494 30.5022C17.4659 30.3353 17.9246 30.3052 18.3592 30.4162C18.7939 30.5272 19.182 30.7736 19.4674 31.1197C20.8289 32.7769 21.9803 35.2675 25.2855 40.9572C24.8205 41.6305 22.994 43.0237 21.4688 44.0355C21.3032 44.1453 20.6336 44.0746 20.6336 44.0746C20.6336 44.0746 20.5202 44.6326 20.3007 44.7721C19.2554 45.397 18.29 45.9123 17.9701 45.8602C17.4121 44.3889 15.2341 41.6789 13.8149 39.5046C13.1992 38.6917 12.1409 37.1368 11.7856 36.0487C11.4601 35.0182 11.1774 34.0901 12.0274 33.4224Z" fill="#263238"/>
<path d="M13.5712 28.9304C14.1887 29.8604 15.1075 31.0545 15.8329 31.4525C15.9092 32.2635 15.4256 33.3404 14.7783 34.209C13.7535 34.0119 13.3387 33.3683 13.2903 32.8364C13.4912 32.1128 13.0002 31.659 12.6914 31.3149L13.5712 28.9304Z" fill="#FFC3BD"/>
<path d="M14.7783 34.209C14.5563 34.1529 14.3522 34.0416 14.1849 33.8853C13.9543 33.6473 13.6437 34.1829 13.6437 34.1829C14.0133 34.2892 14.4041 34.2982 14.7783 34.209Z" fill="#E0E0E0"/>
<path d="M14.7782 34.2091C14.7284 34.0959 14.7144 33.9703 14.738 33.8489C14.7616 33.7276 14.8217 33.6164 14.9103 33.5302C15.111 33.3181 15.3571 33.154 15.6301 33.0503C15.6301 33.0503 15.2302 33.852 14.7782 34.2091Z" fill="#E0E0E0"/>
<path opacity="0.2" d="M13.4222 29.8939C13.385 29.8343 13.3441 29.7767 13.305 29.7209L12.6949 31.3168C12.9256 31.5379 13.1146 31.7987 13.2529 32.0868C13.6324 31.4339 13.7849 30.4593 13.4222 29.8939Z" fill="black"/>
<path d="M13.1341 27.6511C13.6103 29.0387 13.96 29.8273 13.5601 30.7982C12.9593 32.2583 11.023 32.316 10.1414 31.0958C9.34717 29.9965 8.70175 27.9134 9.81031 26.8401C10.0556 26.6019 10.3573 26.4299 10.6871 26.3401C11.017 26.2503 11.3643 26.2458 11.6964 26.3268C12.0285 26.4078 12.3347 26.5718 12.5861 26.8034C12.8376 27.0351 13.0261 27.3267 13.1341 27.6511Z" fill="#FFC3BD"/>
<path d="M11.9342 26.3637C11.4097 27.2937 9.65202 28.3316 8.29422 28.194C8.36688 28.1513 8.42805 28.0916 8.47244 28.0199C8.51684 27.9483 8.54313 27.867 8.54904 27.7829C8.54904 27.7829 7.6302 27.9038 7.20984 27.3737C8.19192 27.4239 8.61972 26.6985 8.93778 26.3377C9.35814 25.8653 9.71526 25.4877 10.5746 25.4412C9.85662 25.2366 9.83058 24.8832 9.83058 24.8832C9.83058 24.8832 12.3323 25.6681 11.9342 26.3637Z" fill="#E0E0E0"/>
<path d="M11.3503 26.698C11.7074 25.7773 11.8283 25.2397 11.7223 24.9533C11.9434 25.0975 12.1016 25.3202 12.165 25.5764C12.3575 25.4739 12.5726 25.4213 12.7907 25.4236C13.0088 25.4259 13.2228 25.4829 13.4131 25.5894C14.0938 25.9521 13.9562 27.8214 13.6697 28.2046C12.883 28.8556 12.6635 28.8853 12.6635 28.8853C12.6635 28.8853 12.3473 28.0465 12.4775 27.6373C12.2915 28.0335 12.0274 27.8958 12.0274 27.8958C12.0274 27.8958 12.2878 27.4234 12.0515 27.1295C11.8004 27.3769 11.1606 27.2188 11.3503 26.698Z" fill="#E0E0E0"/>
<path d="M10.7161 30.9523C10.7161 30.9523 11.0434 30.6361 12.1036 30.0037C12.1458 30.2316 12.1117 30.467 12.0064 30.6735C11.9011 30.88 11.7307 31.046 11.5214 31.1457C11.4577 31.1919 11.3848 31.2238 11.3076 31.2391C11.2303 31.2544 11.1507 31.2528 11.0742 31.2344C10.9977 31.2161 10.926 31.1813 10.8642 31.1326C10.8024 31.0839 10.7518 31.0224 10.7161 30.9523Z" fill="#263238"/>
<path d="M11.6293 30.7309C11.4113 30.846 11.2345 31.0261 11.1234 31.2462C11.2616 31.2559 11.3993 31.2207 11.5159 31.1457C11.7338 31.0311 11.9101 30.8508 12.0199 30.6305C11.8822 30.6197 11.7448 30.6551 11.6293 30.7309Z" fill="#ED847E"/>
<path d="M10.7532 30.9132C10.7841 30.948 10.8245 30.973 10.8694 30.9852C10.9143 30.9974 10.9618 30.9963 11.0061 30.982C11.3217 30.7935 11.6204 30.5782 11.8989 30.3385C11.9471 30.3033 11.9861 30.257 12.0126 30.2036C12.0392 30.1502 12.0525 30.0912 12.0515 30.0316C11.596 30.2905 11.1618 30.5853 10.7532 30.9132Z" fill="white"/>
<path opacity="0.2" d="M12.0275 29.7915C12.0275 29.7915 12.3046 29.5907 12.3995 29.8566C12.2972 29.7748 12.0275 29.7915 12.0275 29.7915Z" fill="black"/>
<path opacity="0.2" d="M11.6461 28.6774C11.7091 28.5936 11.7881 28.523 11.8784 28.4697C11.9687 28.4164 12.0687 28.3815 12.1725 28.3668C12.0188 28.5035 11.84 28.609 11.6461 28.6774Z" fill="black"/>
<path opacity="0.2" d="M11.7223 28.7968C11.7944 28.7341 11.8795 28.6879 11.9714 28.6616C12.0633 28.6352 12.1598 28.6293 12.2542 28.6443C12.09 28.733 11.9086 28.785 11.7223 28.7968Z" fill="black"/>
<path opacity="0.2" d="M9.7452 29.4549C9.7452 29.4549 9.52386 29.3805 9.44946 29.4884C9.54921 29.5059 9.6519 29.4943 9.7452 29.4549Z" fill="black"/>
<path opacity="0.2" d="M9.79933 29.5477C9.79933 29.5477 9.61333 29.5254 9.59473 29.6668C9.67597 29.6557 9.74951 29.6129 9.79933 29.5477Z" fill="black"/>
<path d="M14.0345 28.2381C14.0655 28.4178 14.0607 28.6017 14.0205 28.7795C13.9803 28.9573 13.9054 29.1254 13.8001 29.2742C13.5137 29.6703 13.0561 29.4899 12.8868 29.064C12.7269 28.679 12.6841 28.0112 13.0933 27.762C13.184 27.7098 13.2863 27.681 13.3909 27.6781C13.4955 27.6753 13.5991 27.6986 13.6925 27.7458C13.7859 27.7931 13.866 27.8628 13.9257 27.9488C13.9854 28.0347 14.0228 28.1341 14.0345 28.2381Z" fill="#FFC3BD"/>
<path d="M11.4806 28.8297C11.5271 28.9395 11.5048 29.0529 11.4323 29.0827C11.3597 29.1125 11.2649 29.0455 11.2184 28.9358C11.1719 28.826 11.1961 28.7126 11.2686 28.6828C11.3411 28.653 11.436 28.7237 11.4806 28.8297Z" fill="#263238"/>
<path d="M10.1023 29.3875C10.1469 29.4991 10.1246 29.6107 10.0521 29.6405C9.97954 29.6703 9.88468 29.6033 9.84004 29.4936C9.7954 29.3838 9.81586 29.2704 9.8884 29.2406C9.96094 29.2108 10.0558 29.2815 10.1023 29.3875Z" fill="#263238"/>
<path d="M10.5023 29.2245C10.5341 29.6132 10.5116 30.0045 10.4353 30.387C10.5335 30.4037 10.6342 30.3991 10.7305 30.3734C10.8268 30.3477 10.9164 30.3016 10.9933 30.2382L10.5023 29.2245Z" fill="#ED847E"/>
<path d="M11.5029 28.0543C11.5141 28.0494 11.5233 28.0409 11.529 28.0301C11.5385 28.0141 11.5414 27.9949 11.5368 27.9768C11.5323 27.9587 11.5208 27.9431 11.5048 27.9334C11.41 27.8745 11.3026 27.839 11.1914 27.8296C11.0801 27.8202 10.9683 27.8373 10.865 27.8795C10.8565 27.8834 10.8489 27.8891 10.8427 27.896C10.8364 27.903 10.8317 27.9112 10.8287 27.9201C10.8258 27.929 10.8246 27.9384 10.8254 27.9477C10.8262 27.957 10.8289 27.9661 10.8333 27.9743C10.8417 27.9906 10.8561 28.003 10.8734 28.0089C10.8908 28.0148 10.9098 28.0138 10.9263 28.006C11.0085 27.9734 11.0972 27.9608 11.1851 27.9692C11.2731 27.9776 11.3578 28.0068 11.4323 28.0543C11.4429 28.0607 11.4552 28.0641 11.4676 28.0641C11.48 28.0641 11.4923 28.0607 11.5029 28.0543Z" fill="#263238"/>
<path d="M9.36931 28.9286C9.38075 28.9258 9.39124 28.9201 9.39973 28.9119C9.40822 28.9037 9.41441 28.8935 9.41767 28.8821C9.44178 28.7972 9.48571 28.7192 9.54586 28.6545C9.606 28.5898 9.68064 28.5404 9.76363 28.5101C9.77247 28.5078 9.78075 28.5037 9.78799 28.4981C9.79522 28.4925 9.80127 28.4855 9.80577 28.4775C9.81028 28.4696 9.81315 28.4608 9.81421 28.4517C9.81528 28.4426 9.81452 28.4334 9.81199 28.4246C9.80962 28.4157 9.80552 28.4075 9.79992 28.4002C9.79432 28.393 9.78733 28.3869 9.77936 28.3824C9.7714 28.3779 9.76261 28.3751 9.75352 28.374C9.74443 28.3729 9.73522 28.3737 9.72643 28.3762C9.62132 28.4113 9.52622 28.4713 9.44917 28.5509C9.37211 28.6306 9.31537 28.7276 9.28375 28.8338C9.27786 28.8516 9.27925 28.8709 9.28761 28.8877C9.29598 28.9044 9.31064 28.9171 9.32839 28.9231C9.34125 28.9287 9.35541 28.9306 9.36931 28.9286Z" fill="#263238"/>
<path d="M19.1399 30.4812C19.67 30.6969 20.161 30.922 20.6614 31.1638C21.1617 31.4056 21.6509 31.6586 22.1364 31.9338C22.38 32.0678 22.6237 32.211 22.8655 32.3523C23.1073 32.4937 23.3472 32.6499 23.5853 32.8118C24.0925 33.1431 24.5709 33.5164 25.0156 33.9278L25.0752 33.9836C25.1805 34.0823 25.264 34.202 25.3204 34.3349C25.3768 34.4679 25.4048 34.6111 25.4025 34.7555C25.398 35.0539 25.3536 35.3504 25.2705 35.6371C25.2009 35.8783 25.1164 36.115 25.0175 36.3458C24.8327 36.7639 24.6176 37.168 24.3739 37.5548C24.1377 37.9268 23.8866 38.2839 23.6206 38.6243C23.3553 38.9674 23.0715 39.2958 22.7706 39.6082C22.6669 39.716 22.5285 39.7839 22.3797 39.7998C22.2309 39.8156 22.0813 39.7786 21.9571 39.6951C21.833 39.6115 21.7422 39.4869 21.7009 39.3431C21.6595 39.1994 21.6701 39.0456 21.7309 38.9088L21.742 38.8865L22.2256 37.7891C22.3819 37.4171 22.5344 37.0563 22.6702 36.6954C22.8045 36.3494 22.9194 35.996 23.0143 35.6371C23.0557 35.4806 23.0868 35.3215 23.1073 35.1609C23.1236 35.0468 23.1236 34.931 23.1073 34.8168L23.4942 35.6445C23.1144 35.3636 22.7168 35.1076 22.3038 34.8782C21.8685 34.6308 21.4128 34.3928 20.9515 34.1603C20.4903 33.9278 20.0215 33.7008 19.5491 33.4795L18.1374 32.8229H18.1206C17.8234 32.6816 17.5927 32.4303 17.4773 32.1221C17.3619 31.8139 17.3708 31.4729 17.5021 31.1711C17.6334 30.8693 17.8769 30.6304 18.1811 30.5048C18.4854 30.3792 18.8265 30.3767 19.1325 30.4979L19.1399 30.4812Z" fill="#FFC3BD"/>
<path d="M17.1425 30.4706C18.7012 29.7786 21.4912 31.4266 21.4912 31.4266L21.2197 34.8378C20.2975 34.9019 19.3864 34.6066 18.677 34.0139C17.7098 33.242 15.5522 31.1718 17.1425 30.4706Z" fill="#263238"/>
<path d="M22.168 38.3772L20.9962 39.3072L22.4619 40.3451C22.4619 40.3451 23.4198 39.3742 22.9864 38.7808L22.168 38.3772Z" fill="#FFC3BD"/>
<path d="M20.8065 40.8514L21.3812 41.1286C21.492 41.1814 21.6179 41.1933 21.7367 41.1624C21.8554 41.1314 21.9595 41.0595 22.0304 40.9593L22.4619 40.3455L20.9962 39.3076L20.5684 40.1483C20.5373 40.21 20.5188 40.2773 20.514 40.3462C20.5091 40.4151 20.5181 40.4843 20.5402 40.5497C20.5624 40.6152 20.5973 40.6755 20.643 40.7273C20.6887 40.7791 20.7443 40.8213 20.8065 40.8514Z" fill="#FFC3BD"/>
<path d="M15.2249 30.9036C15.4688 31.3149 15.5703 31.7953 15.5135 32.2701C15.4566 32.745 15.2447 33.1878 14.9105 33.5299C15.7754 33.0315 16.7501 33.5913 16.7501 33.5913C16.7501 33.5913 16.9268 31.6346 15.8201 30.9576L15.2249 30.9036Z" fill="white"/>
<path d="M13.2719 32.2076C13.4579 32.4884 13.4579 33.2324 14.1851 33.8816C13.6978 34.1271 13.5285 34.899 13.5285 34.899C13.0649 34.2969 12.8161 33.5571 12.8217 32.7972C12.9252 32.5691 13.0791 32.3675 13.2719 32.2076Z" fill="white"/>
<path d="M32.5393 26.3062L31.5665 27.4427L33.2033 28.1867C33.2033 28.1867 33.9585 27.0502 33.4191 26.5517L32.5393 26.3062Z" fill="#FFC3BD"/>
<path d="M31.6783 28.9934L32.2939 29.1553C32.4132 29.1858 32.5394 29.1733 32.6504 29.1198C32.7613 29.0664 32.8498 28.9755 32.9003 28.8632L33.2035 28.1788L31.5667 27.4348L31.31 28.3424C31.2897 28.4094 31.2833 28.4797 31.291 28.5492C31.2987 28.6187 31.3204 28.6859 31.3549 28.7467C31.3893 28.8076 31.4357 28.8608 31.4913 28.9032C31.5469 28.9456 31.6105 28.9763 31.6783 28.9934Z" fill="#FFC3BD"/>
<path d="M25.3859 10.1056L25.9569 9.73358C26.2799 10.012 26.6512 10.2288 27.0524 10.3734C26.8664 10.5315 26.7716 10.5594 26.7213 10.5445C26.8553 10.6227 27.2198 10.9165 27.0692 11.5954C26.6813 11.5197 26.3207 11.3416 26.0247 11.0797C25.7287 10.8177 25.5082 10.4814 25.3859 10.1056Z" fill="#E0E0E0"/>
<path d="M32.8926 28.4188L27.8278 29.6687L24.6435 30.4127C24.5524 32.2337 24.8537 34.3187 25.2796 36.5396L35.8816 36.7646C35.2027 33.3571 32.8926 28.4188 32.8926 28.4188Z" fill="#263238"/>
<path d="M30.246 16.5946C30.7259 16.9033 31.15 17.2121 31.5852 17.545C32.0205 17.878 32.439 18.2202 32.8482 18.5885C33.2677 18.9605 33.6664 19.3554 34.0423 19.7714C34.4601 20.2234 34.8234 20.7228 35.1248 21.2594L35.162 21.3264C35.2113 21.4161 35.2447 21.5136 35.2606 21.6147C35.3414 22.2033 35.3124 22.8018 35.175 23.3798C35.0639 23.8783 34.9134 24.3672 34.7249 24.8418C34.5433 25.2954 34.3385 25.7393 34.1111 26.1717C33.8868 26.602 33.6384 27.0193 33.3671 27.4216C33.2819 27.5453 33.1555 27.6348 33.0105 27.674C32.8655 27.7132 32.7112 27.6997 32.5752 27.6358C32.4393 27.572 32.3304 27.4619 32.2679 27.3253C32.2055 27.1886 32.1936 27.0343 32.2344 26.8897V26.8636C32.3516 26.4451 32.4818 26.0024 32.5934 25.5746C32.705 25.1468 32.811 24.7153 32.8947 24.2912C32.9819 23.885 33.044 23.4738 33.0807 23.0599C33.1137 22.7278 33.0936 22.3925 33.0212 22.0667L33.1551 22.4219C32.901 22.0744 32.6152 21.7512 32.3013 21.4566C31.9628 21.133 31.5945 20.8168 31.2151 20.5043C30.8357 20.1918 30.4432 19.8886 30.0433 19.591C29.6434 19.2934 29.2286 18.9902 28.8455 18.715L28.825 18.7019C28.5455 18.5135 28.3524 18.2218 28.288 17.8909C28.2237 17.5601 28.2934 17.2172 28.4818 16.9377C28.6703 16.6583 28.962 16.4651 29.2929 16.4008C29.6237 16.3364 29.9666 16.4061 30.246 16.5946Z" fill="#FFC3BD"/>
<path d="M28.5161 15.6558C29.9781 15.7116 32.6844 18.2319 32.6844 18.2319L31.1462 21.1075C30.2964 20.8264 29.5034 20.3962 28.8044 19.8371C28.4175 19.5395 26.7863 15.5888 28.5161 15.6558Z" fill="#263238"/>
<path d="M28.0346 15.6607C26.1194 15.999 24.2533 16.5725 22.4788 17.3682C22.0718 17.5605 21.7366 17.8775 21.5219 18.2731C21.3072 18.6687 21.2241 19.1225 21.2846 19.5685C21.5785 21.6927 22.6276 24.2297 24.5601 30.5184C25.3711 30.6355 27.6347 30.2375 29.4128 29.8041C29.5988 29.7576 30.008 29.2182 30.008 29.2182C30.008 29.2182 30.5009 29.5195 30.752 29.4489C31.9201 29.1048 32.8352 28.7383 33.0157 28.4668C32.3182 27.0532 31.9201 23.6308 31.2859 21.1086C31.0999 20.1061 30.6888 18.2684 30.1252 17.2733C29.5877 16.3321 29.1004 15.4896 28.0346 15.6607Z" fill="#263238"/>
<path d="M23.6876 13.7452C23.9462 14.8258 24.2047 16.3157 24.0038 17.1192C24.5488 17.7237 25.6685 18.0994 26.7455 18.2148C27.3035 17.3275 27.1044 16.5873 26.7455 16.1929C26.0759 15.8488 26.0759 15.1792 26.0349 14.7198L23.6876 13.7452Z" fill="#FFC3BD"/>
<path d="M26.7455 18.2148C26.8536 18.0135 26.9105 17.7886 26.911 17.5601C26.8924 17.229 27.4969 17.363 27.4969 17.363C27.3227 17.706 27.0641 17.9992 26.7455 18.2148Z" fill="#E0E0E0"/>
<path d="M26.7456 18.2148C26.6949 18.1021 26.6112 18.0074 26.5056 17.9433C26.4 17.8792 26.2774 17.8487 26.1541 17.8558C25.8622 17.8597 25.5749 17.929 25.3134 18.0585C25.3134 18.0585 26.182 18.3096 26.7456 18.2148Z" fill="#E0E0E0"/>
<path opacity="0.2" d="M24.4968 14.2904C24.4782 14.2234 24.4634 14.1527 24.4485 14.0858L26.0351 14.7219C26.0413 15.0405 26.1042 15.3554 26.2211 15.6519C25.4882 15.4919 24.6661 14.9414 24.4968 14.2904Z" fill="black"/>
<path d="M23.0405 12.562C23.7361 13.8528 24.0765 14.6433 25.0623 15.0097C26.5503 15.5677 27.8969 14.1764 27.6012 12.7015C27.3334 11.3716 26.2415 9.48365 24.6996 9.56921C24.3581 9.58776 24.027 9.69269 23.7372 9.87416C23.4473 10.0556 23.2083 10.3077 23.0425 10.6068C22.8767 10.9059 22.7895 11.2422 22.7892 11.5841C22.7888 11.9261 22.8753 12.2625 23.0405 12.562Z" fill="#FFC3BD"/>
<path d="M26.5689 13.1483C26.3946 13.1423 26.2209 13.1722 26.0586 13.2362C25.8964 13.3002 25.7491 13.3969 25.6258 13.5203C25.6208 13.5247 25.6168 13.53 25.614 13.536C25.6113 13.542 25.6098 13.5486 25.6097 13.5552C25.6097 13.5618 25.611 13.5683 25.6137 13.5744C25.6164 13.5804 25.6204 13.5858 25.6253 13.5902C25.6302 13.5946 25.636 13.5979 25.6424 13.5999C25.6487 13.6019 25.6553 13.6025 25.6619 13.6017C25.6685 13.6009 25.6748 13.5987 25.6804 13.5952C25.6861 13.5918 25.6909 13.5872 25.6947 13.5817C25.8338 13.4475 26.0027 13.3481 26.1876 13.2915C26.3725 13.235 26.5681 13.2229 26.7586 13.2562C26.7646 13.2573 26.7708 13.2571 26.7767 13.2557C26.7826 13.2543 26.7882 13.2516 26.7931 13.248C26.798 13.2443 26.802 13.2397 26.8051 13.2344C26.8081 13.2291 26.81 13.2232 26.8107 13.2172C26.8123 13.2051 26.8091 13.1929 26.8018 13.1832C26.7945 13.1734 26.7836 13.1669 26.7716 13.1651C26.7044 13.156 26.6367 13.1505 26.5689 13.1483Z" fill="#263238"/>
<path d="M22.9138 10.8007C23.9498 11.0443 25.9066 10.4603 26.7287 9.37032C26.6481 9.39408 26.563 9.39821 26.4805 9.38235C26.3979 9.3665 26.3204 9.33112 26.2544 9.27918C26.2544 9.27918 26.9668 8.68584 26.8626 8.01624C26.2321 8.77326 25.4099 8.59284 24.9282 8.57424C24.2977 8.56122 23.7769 8.57424 23.1593 9.16758C23.496 8.49984 23.2561 8.23758 23.2561 8.23758C23.2561 8.23758 22.127 10.6165 22.9138 10.8007Z" fill="#E0E0E0"/>
<path d="M23.55 10.602C22.6293 10.23 22.155 9.96214 22.0155 9.68872C21.9727 9.94753 22.0285 10.213 22.1717 10.4327C21.9653 10.505 21.7805 10.6281 21.6342 10.7906C21.4879 10.9531 21.3849 11.1499 21.3347 11.3627C21.1487 12.1067 22.6107 13.2822 23.0813 13.325C24.0931 13.1892 24.2642 13.0497 24.2642 13.0497C24.2642 13.0497 23.8625 12.2481 23.4719 12.0639C23.8848 12.2034 23.9704 11.9096 23.9704 11.9096C23.9704 11.9096 23.4458 11.7812 23.39 11.4074C23.749 11.3906 24.0671 10.814 23.55 10.602Z" fill="#E0E0E0"/>
<path opacity="0.2" d="M25.274 13.7416C25.274 13.7416 25.3819 14.0671 25.607 13.8997C25.4842 13.9127 25.274 13.7416 25.274 13.7416Z" fill="black"/>
<path opacity="0.2" d="M27.0487 13.2317C27.0487 13.2317 27.1138 13.533 26.8627 13.507C26.965 13.4605 27.0487 13.2317 27.0487 13.2317Z" fill="black"/>
<path opacity="0.2" d="M24.8129 12.1553C24.6028 12.1339 24.3927 12.1968 24.2289 12.3301C24.433 12.31 24.6313 12.2506 24.8129 12.1553Z" fill="black"/>
<path opacity="0.2" d="M24.8521 12.2961C24.757 12.3067 24.6654 12.3377 24.5835 12.3872C24.5016 12.4367 24.4314 12.5033 24.3778 12.5826C24.5548 12.5226 24.7166 12.4248 24.8521 12.2961Z" fill="black"/>
<path opacity="0.2" d="M26.6692 11.2919C26.6692 11.2919 26.7659 11.0798 26.8942 11.1059C26.8383 11.1879 26.7603 11.2524 26.6692 11.2919Z" fill="black"/>
<path opacity="0.2" d="M26.712 11.3943C26.712 11.3943 26.8199 11.2437 26.9371 11.3236C26.9063 11.3499 26.8704 11.3698 26.8318 11.3819C26.7931 11.3941 26.7524 11.3983 26.712 11.3943Z" fill="black"/>
<path d="M22.8655 13.6172C22.9776 13.7629 23.1175 13.8848 23.2772 13.9758C23.4369 14.0669 23.6131 14.1252 23.7955 14.1473C24.281 14.205 24.454 13.753 24.2605 13.3327C24.0857 12.9607 23.6244 12.4696 23.165 12.6035C23.0647 12.6339 22.9735 12.6888 22.8996 12.7631C22.8258 12.8375 22.7715 12.9291 22.7419 13.0296C22.7122 13.1301 22.7079 13.2365 22.7295 13.339C22.7511 13.4416 22.7978 13.5372 22.8655 13.6172Z" fill="#FFC3BD"/>
<path d="M25.0381 12.1456C25.0883 12.2535 25.185 12.313 25.2557 12.2814C25.3264 12.2497 25.3431 12.1326 25.2929 12.0247C25.2427 11.9168 25.146 11.8554 25.0753 11.8889C25.0046 11.9224 24.986 12.0358 25.0381 12.1456Z" fill="#263238"/>
<path d="M26.3827 11.5114C26.4329 11.6193 26.5296 11.6788 26.6003 11.6472C26.671 11.6155 26.6877 11.4984 26.6375 11.3905C26.5873 11.2826 26.4906 11.2212 26.4199 11.2547C26.3492 11.2882 26.3399 11.4016 26.3827 11.5114Z" fill="#263238"/>
<path d="M25.9865 11.6919C26.2503 11.9807 26.5534 12.2311 26.8867 12.4359C26.8323 12.5204 26.7602 12.592 26.6754 12.646C26.5907 12.6999 26.4952 12.7348 26.3956 12.7484L25.9865 11.6919Z" fill="#ED847E"/>
<path d="M25.3039 11.7697C25.3137 11.7761 25.3214 11.7851 25.3263 11.7958C25.3304 11.8039 25.3328 11.8128 25.3335 11.822C25.3341 11.8311 25.3329 11.8402 25.33 11.8489C25.327 11.8576 25.3224 11.8655 25.3163 11.8724C25.3102 11.8792 25.3029 11.8848 25.2946 11.8888C25.1955 11.9403 25.0855 11.9672 24.9738 11.9672C24.8621 11.9672 24.752 11.9403 24.6529 11.8888C24.6449 11.8844 24.6378 11.8783 24.6322 11.8711C24.6266 11.8638 24.6225 11.8555 24.6202 11.8466C24.618 11.8377 24.6176 11.8284 24.619 11.8194C24.6205 11.8103 24.6238 11.8016 24.6288 11.7939C24.6332 11.7859 24.6392 11.7789 24.6464 11.7732C24.6536 11.7675 24.6619 11.7634 24.6707 11.7609C24.6795 11.7585 24.6888 11.7579 24.6979 11.7591C24.7069 11.7603 24.7157 11.7632 24.7236 11.7679C24.8025 11.8083 24.8898 11.8294 24.9784 11.8294C25.0671 11.8294 25.1544 11.8083 25.2333 11.7679C25.2441 11.7618 25.2564 11.7587 25.2689 11.759C25.2813 11.7594 25.2934 11.763 25.3039 11.7697Z" fill="#263238"/>
<path d="M26.1427 11.3182C26.145 11.3069 26.1502 11.2964 26.1576 11.2876C26.1651 11.2788 26.1747 11.2721 26.1854 11.2679C26.2688 11.238 26.3438 11.1886 26.4043 11.1239C26.4647 11.0592 26.509 10.9811 26.5333 10.8959C26.5373 10.8777 26.5483 10.8618 26.564 10.8517C26.5797 10.8416 26.5987 10.8381 26.617 10.842C26.6348 10.8464 26.6503 10.8576 26.66 10.8733C26.6697 10.8889 26.673 10.9077 26.669 10.9257C26.6402 11.0329 26.5857 11.1314 26.5101 11.2128C26.4346 11.2941 26.3404 11.3558 26.2357 11.3926C26.2181 11.3987 26.1989 11.3979 26.1819 11.3903C26.165 11.3827 26.1516 11.3688 26.1445 11.3516C26.1409 11.3408 26.1403 11.3293 26.1427 11.3182Z" fill="#263238"/>
<path d="M23.3808 19.8706C23.1558 20.3728 22.9084 20.9029 22.687 21.4274C22.4657 21.9519 22.2425 22.4764 22.0323 23.0009C21.8221 23.5255 21.6306 24.05 21.4743 24.5652C21.3925 24.8219 21.3218 25.0786 21.2604 25.3241C21.203 25.5464 21.1626 25.7727 21.1395 26.0011L21.0856 25.6291C21.1592 25.8923 21.2908 26.1357 21.4706 26.3415C21.5803 26.4736 21.7012 26.6112 21.8333 26.7451C21.9654 26.879 22.1123 27.0092 22.2611 27.1413C22.5606 27.4017 22.8879 27.6528 23.2246 27.8965C23.5612 28.1401 23.9239 28.3801 24.2587 28.6051L24.2904 28.6256C24.4135 28.7088 24.5036 28.8327 24.5447 28.9756C24.5858 29.1184 24.5755 29.2712 24.5155 29.4072C24.4554 29.5432 24.3495 29.6538 24.2163 29.7197C24.083 29.7856 23.9308 29.8025 23.7863 29.7676C23.3302 29.6521 22.8827 29.5048 22.4471 29.3268C22.007 29.1482 21.5794 28.94 21.1674 28.7037C20.7268 28.4517 20.3146 28.153 19.938 27.8128C19.4808 27.4056 19.1269 26.8956 18.9057 26.3248C18.8692 26.2259 18.8503 26.1214 18.8499 26.016V25.949C18.8635 25.262 18.9616 24.5792 19.1419 23.9161C19.2944 23.2967 19.4785 22.7052 19.6831 22.1267C19.8877 21.5483 20.1072 20.9791 20.3434 20.4211C20.5797 19.8631 20.8215 19.3181 21.1079 18.7583C21.2608 18.4686 21.5198 18.2493 21.8308 18.1462C22.1417 18.0432 22.4805 18.0645 22.7761 18.2055C23.0717 18.3466 23.3013 18.5966 23.4168 18.9031C23.5323 19.2097 23.5247 19.549 23.3957 19.8501L23.3808 19.8706Z" fill="#FFC3BD"/>
<path d="M22.3932 17.4131C20.7639 17.9134 19.739 20.9861 19.739 20.9861L22.1812 23.3837C22.919 22.8267 23.4134 22.0065 23.5613 21.094C23.7827 19.8776 24.0486 16.9053 22.3932 17.4131Z" fill="#263238"/>
<path d="M23.831 28.3368L25.2334 28.8576L24.1639 30.2972C24.1639 30.2972 22.9493 29.6723 23.1781 28.9729L23.831 28.3368Z" fill="#FFC3BD"/>
<path d="M25.8936 30.2655L25.4323 30.7063C25.3436 30.7913 25.2276 30.842 25.105 30.8495C24.9824 30.857 24.8611 30.8208 24.7627 30.7472L24.1638 30.2971L25.2333 28.8575L25.9011 29.5234C25.9498 29.5723 25.9883 29.6305 26.0143 29.6944C26.0404 29.7584 26.0534 29.8269 26.0527 29.896C26.052 29.9651 26.0376 30.0333 26.0103 30.0967C25.983 30.1602 25.9433 30.2175 25.8936 30.2655Z" fill="#FFC3BD"/>
<path d="M24.0132 16.299C24.1498 16.7574 24.4334 17.1582 24.8203 17.4395C25.2072 17.7208 25.6758 17.8671 26.1541 17.8558C25.2017 18.1515 24.9525 19.2489 24.9525 19.2489C24.9525 19.2489 23.3957 18.0511 23.6505 16.7788C23.8123 16.5649 24.0132 16.299 24.0132 16.299Z" fill="white"/>
<path d="M26.2971 15.7502C26.3845 16.0702 26.9221 16.5835 26.9109 17.56C27.4206 17.374 28.1032 17.7683 28.1032 17.7683C27.9759 17.0186 27.6014 16.3331 27.0393 15.8209C26.8004 15.7415 26.5467 15.7173 26.2971 15.7502Z" fill="white"/>
<path d="M46.069 10.4365L45.4831 10.0887C45.173 10.3814 44.8117 10.6147 44.4173 10.7769C44.6033 10.9257 44.7056 10.9424 44.7558 10.9331C44.6256 11.0168 44.2741 11.3181 44.4545 11.9989C44.8384 11.9059 45.1905 11.712 45.4743 11.4373C45.7581 11.1627 45.9634 10.8171 46.069 10.4365Z" fill="#E0E0E0"/>
<path d="M39.3897 29.0676L44.5028 30.0887L47.7169 30.6895C47.8899 32.5048 47.6815 34.5955 47.3579 36.8405L36.7764 37.5399C37.3139 34.1044 39.3897 29.0676 39.3897 29.0676Z" fill="#263238"/>
<path d="M43.673 16.1039C45.6012 16.3576 47.4909 16.8474 49.2995 17.5622C49.7164 17.7364 50.0666 18.0395 50.2989 18.427C50.5311 18.8146 50.6333 19.2663 50.5904 19.7161C50.3914 21.8513 49.4595 24.433 47.8097 30.8017C47.0043 30.9542 44.7258 30.6584 42.9309 30.3069C42.7356 30.2678 42.3097 29.7489 42.3097 29.7489C42.3097 29.7489 41.8298 30.0725 41.5824 30.0112C40.3994 29.721 39.4676 29.3955 39.276 29.1332C39.9084 27.6899 40.1539 24.2489 40.6747 21.7044C40.8086 20.6944 41.1434 18.84 41.6624 17.8207C42.1497 16.8461 42.5998 15.983 43.673 16.1039Z" fill="#263238"/>
<path d="M47.9291 13.9965C47.7189 15.0865 47.5273 16.5875 47.7636 17.3799C47.2465 18.0104 46.1454 18.4363 45.0759 18.5982C44.4862 17.737 44.6425 16.9893 44.9847 16.5801C45.6376 16.2081 45.6078 15.5366 45.6283 15.0753L47.9291 13.9965Z" fill="#FFC3BD"/>
<path d="M45.0758 18.5998C44.9575 18.4044 44.8903 18.1825 44.8804 17.9543C44.8804 17.6214 44.2871 17.7832 44.2871 17.7832C44.4752 18.1188 44.7469 18.4001 45.0758 18.5998Z" fill="#E0E0E0"/>
<path d="M45.0757 18.5998C45.12 18.4845 45.1984 18.3856 45.3004 18.3161C45.4025 18.2467 45.5233 18.21 45.6467 18.211C45.9388 18.2009 46.2293 18.2568 46.4967 18.3747C46.4967 18.3747 45.643 18.6686 45.0757 18.5998Z" fill="#E0E0E0"/>
<path opacity="0.2" d="M47.146 14.5784C47.1609 14.5096 47.1739 14.4389 47.1851 14.3701L45.6283 15.0769C45.6385 15.3971 45.5912 15.7164 45.4888 16.0199C46.2086 15.8228 47.0065 15.235 47.146 14.5784Z" fill="black"/>
<path d="M48.5224 12.7856C47.8863 14.1062 47.5812 14.9116 46.614 15.3208C45.1577 15.9365 43.7441 14.6177 43.9728 13.1297C44.1812 11.7887 45.1874 9.85428 46.7312 9.87102C47.073 9.87437 47.4084 9.96441 47.7059 10.1327C48.0035 10.301 48.2534 10.542 48.4324 10.8333C48.6113 11.1245 48.7135 11.4564 48.7292 11.7978C48.745 12.1393 48.6738 12.4792 48.5224 12.7856Z" fill="#FFC3BD"/>
<path d="M48.5706 11.0207C47.5476 11.3109 45.5648 10.8143 44.6962 9.76153C44.7775 9.78189 44.8626 9.78239 44.9442 9.76296C45.0258 9.74354 45.1015 9.70477 45.1649 9.64993C45.1649 9.64993 44.4209 9.09193 44.5009 8.41675C45.163 9.14401 45.9796 8.92825 46.4576 8.89663C47.0881 8.85385 47.6089 8.83897 48.2525 9.40999C47.8805 8.75899 48.113 8.49115 48.113 8.49115C48.113 8.49115 49.348 10.8013 48.5706 11.0207Z" fill="#E0E0E0"/>
<path d="M47.916 10.8472C48.8181 10.4436 49.2793 10.1478 49.404 9.86884C49.4592 10.127 49.4154 10.3966 49.2812 10.624C49.4901 10.6865 49.68 10.8005 49.8334 10.9555C49.9868 11.1106 50.0988 11.3016 50.1591 11.5112C50.386 12.2552 48.9706 13.4847 48.5019 13.5572C47.4844 13.4661 47.3077 13.3359 47.3077 13.3359C47.3077 13.3359 47.6797 12.5156 48.0517 12.3147C47.6463 12.4728 47.5477 12.1827 47.5477 12.1827C47.5477 12.1827 48.0666 12.032 48.1057 11.6544C47.7634 11.647 47.4175 11.0834 47.916 10.8472Z" fill="#E0E0E0"/>
<path opacity="0.2" d="M46.2251 13.5244C46.2251 13.5244 46.5636 13.5764 46.4371 13.8257C46.4278 13.7011 46.2251 13.5244 46.2251 13.5244Z" fill="black"/>
<path opacity="0.2" d="M46.7328 12.4617C46.9425 12.4307 47.1559 12.4843 47.3261 12.6105C47.1206 12.5998 46.9191 12.5492 46.7328 12.4617Z" fill="black"/>
<path opacity="0.2" d="M46.707 12.6012C46.8027 12.6076 46.8958 12.6347 46.9799 12.6806C47.0641 12.7266 47.1372 12.7902 47.1944 12.8672C47.015 12.8139 46.8489 12.7232 46.707 12.6012Z" fill="black"/>
<path opacity="0.2" d="M44.8393 11.6789C44.8393 11.6789 44.7352 11.4706 44.6068 11.4929C44.6647 11.576 44.7455 11.6406 44.8393 11.6789Z" fill="black"/>
<path opacity="0.2" d="M44.8115 11.7834C44.8115 11.7834 44.6962 11.6365 44.5846 11.7239C44.6166 11.7483 44.6532 11.7661 44.6921 11.7763C44.731 11.7865 44.7716 11.7889 44.8115 11.7834Z" fill="black"/>
<path d="M48.7436 13.8309C48.6395 13.9803 48.5069 14.1077 48.3533 14.2057C48.1998 14.3037 48.0284 14.3704 47.849 14.4019C47.3672 14.4819 47.1738 14.0299 47.3486 13.6095C47.5049 13.2245 47.9438 12.7186 48.4088 12.8321C48.5098 12.8588 48.6026 12.9101 48.6788 12.9816C48.755 13.053 48.8122 13.1422 48.8454 13.2412C48.8786 13.3403 48.8867 13.446 48.8689 13.5489C48.8512 13.6518 48.8081 13.7487 48.7436 13.8309Z" fill="#FFC3BD"/>
<path d="M46.5117 12.4619C46.4652 12.5716 46.3703 12.6367 46.2997 12.6069C46.229 12.5772 46.2048 12.4637 46.2513 12.3521C46.2978 12.2405 46.3908 12.1773 46.4633 12.207C46.5359 12.2368 46.5563 12.3484 46.5117 12.4619Z" fill="#263238"/>
<path d="M45.3508 13.7635C45.2857 13.9216 45.1648 13.7635 45.0086 13.7002C44.8524 13.637 44.6719 13.6575 44.737 13.4994C44.7756 13.4236 44.8416 13.3653 44.9216 13.3363C45.0016 13.3074 45.0896 13.31 45.1678 13.3437C45.2459 13.3773 45.3083 13.4394 45.3423 13.5174C45.3763 13.5954 45.3794 13.6833 45.3508 13.7635Z" fill="#263238"/>
<path d="M45.1369 11.8854C45.0923 11.9951 44.9974 12.0602 44.9249 12.0305C44.8524 12.0007 44.8319 11.8854 44.8765 11.7756C44.9212 11.6659 45.016 11.6008 45.0886 11.6306C45.1611 11.6603 45.1816 11.7756 45.1369 11.8854Z" fill="#263238"/>
<path d="M45.5406 12.0491C45.2897 12.3492 44.9986 12.6133 44.6757 12.834C44.7335 12.916 44.8086 12.9843 44.8957 13.0341C44.9828 13.0839 45.0797 13.114 45.1797 13.1223L45.5406 12.0491Z" fill="#ED847E"/>
<path d="M46.8687 11.4424C46.8572 11.4387 46.8448 11.4387 46.8333 11.4424C46.8152 11.4456 46.799 11.4557 46.7883 11.4707C46.7775 11.4856 46.773 11.5042 46.7757 11.5224C46.7913 11.6332 46.8333 11.7386 46.898 11.8298C46.9627 11.9211 47.0483 11.9955 47.1477 12.0469C47.1559 12.0509 47.1649 12.0531 47.1741 12.0535C47.1832 12.0538 47.1924 12.0523 47.2009 12.049C47.2094 12.0457 47.2172 12.0407 47.2237 12.0342C47.2303 12.0278 47.2354 12.0201 47.2388 12.0116C47.2464 11.9945 47.2469 11.9752 47.2403 11.9578C47.2337 11.9404 47.2204 11.9263 47.2035 11.9186C47.1261 11.8764 47.0597 11.8165 47.01 11.7437C46.9602 11.671 46.9283 11.5875 46.917 11.5001C46.9148 11.487 46.9092 11.4748 46.9007 11.4647C46.8922 11.4545 46.8811 11.4469 46.8687 11.4424Z" fill="#263238"/>
<path d="M45.5778 10.8364C45.5674 10.8313 45.556 10.8287 45.5444 10.8287C45.5328 10.8287 45.5213 10.8313 45.5109 10.8364C45.4364 10.8824 45.3521 10.9103 45.2649 10.9177C45.1776 10.9252 45.0899 10.912 45.0087 10.8792C45.0005 10.8751 44.9916 10.8726 44.9825 10.872C44.9734 10.8714 44.9642 10.8725 44.9555 10.8755C44.9469 10.8784 44.9389 10.8831 44.9321 10.8891C44.9252 10.8952 44.9196 10.9026 44.9157 10.9108C44.9115 10.9191 44.909 10.9282 44.9084 10.9374C44.9077 10.9467 44.9089 10.956 44.9118 10.9648C44.9148 10.9736 44.9194 10.9818 44.9255 10.9888C44.9316 10.9958 44.939 11.0015 44.9473 11.0057C45.0494 11.0494 45.1605 11.0678 45.2713 11.0594C45.382 11.051 45.4891 11.016 45.5834 10.9573C45.5942 10.9511 45.6032 10.9422 45.6095 10.9314C45.6158 10.9206 45.6191 10.9084 45.6191 10.8959C45.6191 10.8835 45.6158 10.8712 45.6095 10.8604C45.6032 10.8497 45.5942 10.8407 45.5834 10.8346L45.5778 10.8364Z" fill="#263238"/>
<path d="M50.8807 20.1158C50.8676 20.6868 50.8286 21.2318 50.7802 21.7805C50.7319 22.3292 50.6686 22.8798 50.5831 23.4322C50.544 23.7075 50.4956 23.9902 50.4491 24.2617C50.4026 24.5333 50.3413 24.8197 50.2743 25.0987C50.1464 25.6884 49.9697 26.2663 49.7461 26.8267L49.7145 26.9029C49.6589 27.0361 49.5764 27.1563 49.472 27.2558C49.3676 27.3554 49.2437 27.4322 49.1081 27.4814C48.8271 27.5827 48.5336 27.6452 48.2357 27.6674C47.9883 27.687 47.7398 27.6914 47.4917 27.6804C47.0354 27.6577 46.5814 27.5999 46.134 27.5074C45.6987 27.4182 45.2783 27.3103 44.8654 27.1819C44.4508 27.0549 44.0435 26.9052 43.6453 26.7337C43.5088 26.6741 43.3976 26.5686 43.331 26.4355C43.2643 26.3023 43.2465 26.15 43.2806 26.0051C43.3146 25.8602 43.3985 25.7318 43.5174 25.6423C43.6364 25.5528 43.783 25.5079 43.9317 25.5154H43.9559L45.1537 25.5786C45.5518 25.5954 45.9479 25.6102 46.3348 25.6084C46.7075 25.6107 47.08 25.5933 47.4508 25.5563C47.6072 25.5414 47.7626 25.5165 47.9158 25.4819C48.0285 25.4586 48.1374 25.4198 48.2395 25.3666L47.6015 26.0213C47.731 25.5665 47.8298 25.1036 47.8972 24.6356C47.9753 24.1427 48.0349 23.6331 48.0832 23.1197C48.1316 22.6063 48.1837 22.0855 48.2227 21.5647L48.338 20.0135V19.9949C48.3686 19.6697 48.5235 19.3688 48.7703 19.1549C49.0172 18.941 49.3371 18.8306 49.6634 18.8466C49.9896 18.8627 50.2971 19.004 50.5218 19.2411C50.7465 19.4782 50.871 19.7929 50.8695 20.1195L50.8807 20.1158Z" fill="#FFC3BD"/>
<path d="M50.1868 18.2427C51.3846 19.4554 50.8303 22.649 50.8303 22.649L47.5437 23.6013C47.1569 22.7619 47.1102 21.8053 47.4135 20.9322C47.7948 19.7549 48.9703 17.0114 50.1868 18.2427Z" fill="#263238"/>
<path d="M44.5679 25.7403L43.2827 24.9739L42.8307 26.7112C42.8307 26.7112 44.0787 27.2692 44.4805 26.6498L44.5679 25.7403Z" fill="#FFC3BD"/>
<path d="M41.7778 25.3422L41.722 25.9764C41.7088 26.1006 41.7408 26.2255 41.8123 26.328C41.8837 26.4305 41.9897 26.5038 42.1108 26.5344L42.8362 26.7204L43.2881 24.9832L42.3581 24.8809C42.2896 24.8723 42.2201 24.8776 42.1537 24.8962C42.0872 24.9149 42.0251 24.9466 41.9711 24.9896C41.917 25.0325 41.8721 25.0859 41.8389 25.1464C41.8057 25.2069 41.785 25.2735 41.7778 25.3422Z" fill="#FFC3BD"/>
<path d="M43.435 18.7951L43.063 19.3531L42.691 19.9278C42.4474 20.3129 42.2167 20.7035 41.9935 21.0903C41.8838 21.2763 41.7778 21.4809 41.6792 21.6762C41.5806 21.8715 41.4802 22.065 41.3927 22.2584C41.2242 22.6174 41.0885 22.991 40.9873 23.3744L40.7641 22.4891C40.7343 22.4705 40.7306 22.4891 40.7901 22.5374C40.8814 22.5966 40.982 22.6399 41.0877 22.6658C41.4043 22.7445 41.7287 22.7876 42.0549 22.7941C42.4139 22.8108 42.7989 22.7941 43.1709 22.7848C43.5429 22.7755 43.9484 22.7309 44.3185 22.703H44.3557C44.5039 22.6902 44.6518 22.73 44.7737 22.8153C44.8955 22.9005 44.9836 23.0259 45.0223 23.1695C45.0611 23.3131 45.0482 23.4658 44.9858 23.6008C44.9235 23.7358 44.8157 23.8446 44.6812 23.9082C44.2901 24.0941 43.8868 24.2532 43.4741 24.3844C43.0552 24.5205 42.6269 24.6256 42.1925 24.6987C41.7151 24.7836 41.2286 24.8055 40.7455 24.7638C40.45 24.734 40.1598 24.6652 39.8824 24.5592C39.5201 24.4187 39.1999 24.1875 38.9524 23.8878C38.8596 23.7737 38.7917 23.6414 38.7529 23.4995C38.7142 23.3577 38.7055 23.2092 38.7274 23.0638V22.9931C38.8061 22.4311 38.947 21.8797 39.1477 21.3489C39.3262 20.8572 39.5349 20.377 39.7727 19.9111C40.0015 19.4498 40.2544 19.009 40.5167 18.5756C40.6487 18.3617 40.7827 18.1478 40.9259 17.9376C41.0691 17.7275 41.2067 17.5284 41.3741 17.3034C41.5673 17.0279 41.8619 16.8404 42.1933 16.7821C42.5247 16.7239 42.8656 16.7996 43.1411 16.9928C43.4167 17.1859 43.6042 17.4805 43.6624 17.8119C43.7207 18.1433 43.6449 18.4842 43.4518 18.7598L43.435 18.7951Z" fill="#FFC3BD"/>
<path d="M43.2864 16.1074C41.592 16.3139 40.0426 19.1578 40.0426 19.1578L42.0254 21.9478C42.8499 21.53 43.481 20.8096 43.7868 19.9372C44.2202 18.7858 45.0051 15.8991 43.2864 16.1074Z" fill="#263238"/>
<path d="M43.7607 22.8593L45.0962 22.1823L45.4273 23.9455C45.4273 23.9455 44.1439 24.4124 43.7868 23.7707L43.7607 22.8593Z" fill="#FFC3BD"/>
<path d="M46.5765 22.6527L46.5895 23.2907C46.5915 23.4136 46.5498 23.5333 46.4718 23.6283C46.3938 23.7233 46.2845 23.7876 46.1636 23.8096L45.4196 23.9454L45.0885 22.1821L46.0315 22.1449C46.101 22.1409 46.1706 22.151 46.2361 22.1746C46.3016 22.1982 46.3616 22.2349 46.4125 22.2823C46.4635 22.3298 46.5043 22.3871 46.5324 22.4507C46.5606 22.5144 46.5756 22.5831 46.5765 22.6527Z" fill="#FFC3BD"/>
<path d="M47.7186 16.5632C47.6019 17.027 47.3358 17.4395 46.9613 17.737C46.5868 18.0345 46.1248 18.2005 45.6466 18.2093C46.6119 18.4623 46.9114 19.5467 46.9114 19.5467C46.9114 19.5467 48.4124 18.28 48.1037 17.0208C47.9307 16.8181 47.7186 16.5632 47.7186 16.5632Z" fill="white"/>
<path d="M45.4107 16.1164C45.34 16.44 44.8248 16.9776 44.8806 17.9522C44.3616 17.783 43.6976 18.2126 43.6976 18.2126C43.7926 17.4585 44.1362 16.7576 44.6741 16.2206C44.9085 16.1302 45.1604 16.0946 45.4107 16.1164Z" fill="white"/>
<path d="M59.9746 46.8311L60.6609 48.161L58.8995 48.5033C58.8995 48.5033 58.4233 47.2236 59.0632 46.8627L59.9746 46.8311Z" fill="#FFC3BD"/>
<path d="M60.1921 49.6449L59.5541 49.6616C59.4311 49.6646 59.311 49.6238 59.2152 49.5465C59.1195 49.4692 59.0544 49.3603 59.0315 49.2394L58.892 48.4954L60.6534 48.1531L60.6962 49.0962C60.7004 49.1656 60.6907 49.2352 60.6674 49.3007C60.6442 49.3663 60.6079 49.4265 60.5609 49.4777C60.5138 49.529 60.4569 49.5702 60.3935 49.5989C60.3302 49.6276 60.2617 49.6432 60.1921 49.6449Z" fill="#FFC3BD"/>
<path d="M62.4243 26.6649L63.1013 26.756C63.161 27.1784 63.2991 27.5859 63.5086 27.9576C63.2687 27.9576 63.1794 27.9092 63.1366 27.8683C63.185 28.0152 63.2743 28.4691 62.7088 28.8913C62.4676 28.5791 62.314 28.2081 62.264 27.8167C62.214 27.4254 62.2693 27.0277 62.4243 26.6649Z" fill="#E0E0E0"/>
<path d="M56.0853 45.4121L51.4353 43.035L48.5467 41.5042C47.2838 42.8192 46.1492 44.5844 45.0127 46.5467L52.8675 53.6686C54.588 50.6554 56.0853 45.4121 56.0853 45.4121Z" fill="#263238"/>
<path d="M61.6225 36.0412L61.2784 37.4976L60.9361 38.9577C60.8282 39.4432 60.7204 39.9268 60.6274 40.4048C60.5344 40.8828 60.4414 41.359 60.4023 41.8035V41.7105L60.3744 43.1613C60.3651 43.6468 60.3465 44.1341 60.3316 44.6214C60.2944 45.5979 60.2479 46.5763 60.1568 47.5546C60.1419 47.7058 60.0734 47.8467 59.9637 47.9517C59.8539 48.0568 59.7102 48.1191 59.5585 48.1274C59.4069 48.1358 59.2572 48.0895 59.1367 47.9971C59.0161 47.9046 58.9326 47.7721 58.9013 47.6235C58.7041 46.6544 58.5572 45.6853 58.427 44.7107C58.3656 44.2252 58.3005 43.7379 58.2521 43.2487C58.2038 42.7596 58.1498 42.2722 58.1145 41.7756V41.6826C58.1245 41.1309 58.1648 40.5801 58.2354 40.0328C58.2968 39.499 58.3786 38.9782 58.4716 38.4592C58.5646 37.9403 58.6706 37.4288 58.7822 36.9192C58.8938 36.4095 59.0203 35.9092 59.1673 35.3921C59.2521 35.0665 59.4628 34.788 59.753 34.6178C60.0433 34.4475 60.3892 34.3996 60.7148 34.4844C61.0404 34.5693 61.3189 34.78 61.4891 35.0702C61.6593 35.3604 61.7073 35.7064 61.6225 36.0319V36.0412Z" fill="#FFC3BD"/>
<path d="M61.3453 33.2158C62.4167 35.2413 61.4141 38.4721 61.4141 38.4721L58.1536 38.541C57.9819 37.6632 57.9687 36.7617 58.1145 35.8793C58.1833 35.3957 60.5362 31.685 61.3453 33.2158Z" fill="#263238"/>
<path d="M60.7836 32.5944C59.1165 31.5931 57.3315 30.8027 55.4695 30.2415C55.0362 30.1188 54.5751 30.1376 54.1532 30.2951C53.7314 30.4527 53.3708 30.7408 53.1241 31.1175C51.9523 32.9143 51.0781 35.5164 48.4146 41.5335C48.9502 42.1529 50.9181 43.3377 52.5456 44.1766C52.7316 44.2677 53.3789 44.1245 53.3789 44.1245C53.3789 44.1245 53.5537 44.6825 53.7844 44.783C54.9004 45.2889 55.955 45.8134 56.2675 45.726C56.6692 44.2045 58.4846 41.1541 59.6583 38.844C60.1809 37.9679 61.07 36.3069 61.2988 35.1872C61.5145 34.1196 61.7005 33.1654 60.7836 32.5944Z" fill="#263238"/>
<path d="M58.76 28.2981C58.2447 29.282 57.458 30.5785 56.7865 31.0528C56.7995 31.8656 57.3984 32.8849 58.135 33.6772C59.132 33.3685 59.4742 32.6858 59.4612 32.1502C59.1822 31.4527 59.6211 30.9467 59.8908 30.5729L58.76 28.2981Z" fill="#FFC3BD"/>
<path d="M58.1349 33.6773C58.35 33.5973 58.5418 33.465 58.6929 33.2923C58.8975 33.03 59.2639 33.5266 59.2639 33.5266C58.9069 33.6736 58.5179 33.7256 58.1349 33.6773Z" fill="#E0E0E0"/>
<path d="M58.135 33.6769C58.1716 33.5586 58.1715 33.432 58.1347 33.3137C58.0978 33.1955 58.0259 33.0913 57.9286 33.0147C57.706 32.8266 57.4441 32.6906 57.1622 32.6167C57.1622 32.6167 57.6477 33.3793 58.135 33.6769Z" fill="#E0E0E0"/>
<path opacity="0.2" d="M59.011 29.239C59.0426 29.1758 59.0761 29.1144 59.1095 29.053L59.8889 30.5727C59.6832 30.8187 59.5221 31.0988 59.4127 31.4004C58.9719 30.7977 58.7134 29.8417 59.011 29.239Z" fill="black"/>
<path d="M59.0465 26.9794C58.7247 28.4098 58.4624 29.2319 58.9665 30.1544C59.7235 31.5401 61.6523 31.3858 62.3982 30.0763C63.0678 28.8971 63.4807 26.7562 62.2606 25.8095C61.9907 25.5998 61.6721 25.462 61.3345 25.409C60.9969 25.356 60.6514 25.3895 60.3303 25.5064C60.0092 25.6233 59.723 25.8198 59.4984 26.0774C59.2739 26.335 59.1184 26.6453 59.0465 26.9794Z" fill="#FFC3BD"/>
<path d="M61.3249 29.7376C61.1976 29.6181 61.0469 29.5263 60.8824 29.468C60.7178 29.4097 60.5429 29.3863 60.3688 29.3991C60.3568 29.4009 60.346 29.4074 60.3386 29.4172C60.3313 29.4269 60.3281 29.4391 60.3297 29.4512C60.3304 29.4571 60.3323 29.4627 60.3352 29.4679C60.3381 29.4731 60.342 29.4776 60.3467 29.4812C60.3514 29.4849 60.3567 29.4875 60.3624 29.4891C60.3681 29.4906 60.3741 29.491 60.38 29.4902C60.5732 29.4799 60.7661 29.5155 60.943 29.5941C61.1198 29.6726 61.2755 29.7919 61.3974 29.9422C61.4016 29.9467 61.4066 29.9502 61.4122 29.9526C61.4178 29.9551 61.4238 29.9563 61.4299 29.9563C61.436 29.9563 61.4421 29.9551 61.4477 29.9526C61.4533 29.9502 61.4583 29.9467 61.4625 29.9422C61.4706 29.9333 61.4751 29.9217 61.4751 29.9097C61.4751 29.8976 61.4706 29.886 61.4625 29.8771C61.4197 29.8277 61.3737 29.7811 61.3249 29.7376Z" fill="#263238"/>
<path d="M60.1048 25.5676C60.7279 26.4307 62.5879 27.2751 63.9234 26.9887C63.8478 26.9548 63.7813 26.9034 63.7296 26.8387C63.6778 26.774 63.6422 26.6979 63.6258 26.6167C63.6258 26.6167 64.5558 26.6353 64.9111 26.0587C63.9401 26.2186 63.4361 25.5416 63.0808 25.2198C62.6121 24.7939 62.2159 24.4591 61.3566 24.5056C62.0485 24.2247 62.0355 23.8732 62.0355 23.8732C62.0355 23.8732 59.6342 24.9129 60.1048 25.5676Z" fill="#E0E0E0"/>
<path d="M60.7223 25.837C60.2666 24.9591 60.0899 24.4401 60.1643 24.1425C59.9606 24.3103 59.8277 24.5488 59.7923 24.8103C59.7923 24.8103 59.2343 24.3601 58.5535 24.9609C57.9769 25.4724 58.2578 27.245 58.5833 27.5872C59.437 28.1452 59.6565 28.1545 59.6565 28.1545C59.6565 28.1545 59.8797 27.2859 59.7068 26.8935C59.7671 26.9948 59.8631 27.0699 59.9759 27.1043C60.0887 27.1387 60.2102 27.1298 60.3168 27.0795C60.3168 27.0795 59.8704 26.6535 60.075 26.3355C60.3503 26.5605 60.9697 26.3336 60.7223 25.837Z" fill="#E0E0E0"/>
<path opacity="0.2" d="M60.9363 30.0428C60.9363 30.0428 60.8619 29.7098 60.6219 29.8568C60.7503 29.8531 60.9363 30.0428 60.9363 30.0428Z" fill="black"/>
<path opacity="0.2" d="M60.6458 27.8438C60.5665 27.7762 60.4745 27.725 60.3752 27.693C60.2759 27.6611 60.1713 27.6492 60.0674 27.6578C60.2465 27.7564 60.4429 27.8195 60.6458 27.8438Z" fill="black"/>
<path opacity="0.2" d="M60.5922 27.978C60.5076 27.9311 60.4138 27.9035 60.3173 27.897C60.2209 27.8906 60.1242 27.9055 60.0342 27.9408C60.2154 27.993 60.4057 28.0056 60.5922 27.978Z" fill="black"/>
<path opacity="0.2" d="M62.6194 28.4021C62.6194 28.4021 62.8482 28.3574 62.9077 28.4727C62.8068 28.4771 62.7068 28.4526 62.6194 28.4021Z" fill="black"/>
<path opacity="0.2" d="M62.5952 28.5246C62.5952 28.5246 62.7812 28.5246 62.7812 28.6604C62.7038 28.6413 62.6369 28.5926 62.5952 28.5246Z" fill="black"/>
<path d="M58.2226 27.6616C58.2116 27.8434 58.2367 28.0255 58.2964 28.1976C58.3561 28.3696 58.4492 28.5282 58.5704 28.6641C58.8978 29.0268 59.3256 28.798 59.4539 28.3554C59.5711 27.9555 59.5413 27.2859 59.1061 27.0868C59.0103 27.0454 58.9058 27.0283 58.8018 27.0371C58.6978 27.0459 58.5976 27.0802 58.5101 27.1371C58.4226 27.1941 58.3506 27.2717 58.3004 27.3632C58.2503 27.4547 58.2235 27.5572 58.2226 27.6616Z" fill="#FFC3BD"/>
<path d="M60.8263 27.9743C60.7929 28.0878 60.8263 28.1975 60.9007 28.2199C60.9751 28.2422 61.0644 28.1641 61.0979 28.0506C61.1314 27.9371 61.0979 27.8255 61.0216 27.8051C60.9454 27.7846 60.858 27.859 60.8263 27.9743Z" fill="#263238"/>
<path d="M62.2586 28.3775C62.2251 28.4929 62.2586 28.6026 62.3348 28.6231C62.4111 28.6435 62.4967 28.5691 62.5301 28.4538C62.5636 28.3385 62.5301 28.2306 62.4539 28.2083C62.3776 28.186 62.292 28.2715 62.2586 28.3775Z" fill="#263238"/>
<path d="M61.842 28.2552C61.85 28.6446 61.9127 29.0309 62.028 29.4029C61.9316 29.4307 61.8302 29.4374 61.731 29.4223C61.6318 29.4072 61.537 29.3707 61.4532 29.3154L61.842 28.2552Z" fill="#ED847E"/>
<path d="M61.4663 27.2156C61.4761 27.222 61.4838 27.231 61.4887 27.2417C61.4927 27.2499 61.4951 27.259 61.4956 27.2682C61.4961 27.2774 61.4947 27.2866 61.4916 27.2953C61.4885 27.3039 61.4836 27.3119 61.4774 27.3187C61.4711 27.3254 61.4636 27.3309 61.4552 27.3347C61.3546 27.3837 61.2439 27.4083 61.1321 27.4064C61.0202 27.4044 60.9104 27.376 60.8116 27.3235C60.7958 27.3134 60.7847 27.2974 60.7807 27.2791C60.7767 27.2608 60.7801 27.2416 60.7902 27.2259C60.8003 27.2101 60.8163 27.1989 60.8346 27.1949C60.8529 27.1909 60.8721 27.1944 60.8879 27.2045C60.9665 27.2446 61.0535 27.2656 61.1418 27.2656C61.23 27.2656 61.317 27.2446 61.3957 27.2045C61.4073 27.1997 61.4201 27.1982 61.4326 27.2001C61.445 27.2021 61.4567 27.2075 61.4663 27.2156Z" fill="#263238"/>
<path d="M62.7182 27.5595C62.7289 27.5629 62.7386 27.5689 62.7464 27.577C62.7543 27.5852 62.7599 27.5951 62.7628 27.606C62.7837 27.6913 62.8244 27.7704 62.8816 27.837C62.9388 27.9035 63.0109 27.9557 63.092 27.9892C63.1098 27.9951 63.1244 28.0078 63.1328 28.0246C63.1412 28.0413 63.1426 28.0607 63.1367 28.0784C63.1303 28.0959 63.1175 28.1103 63.1009 28.1186C63.0843 28.1269 63.0652 28.1285 63.0474 28.1231C62.9442 28.0823 62.8522 28.0175 62.7791 27.934C62.706 27.8506 62.6539 27.7509 62.627 27.6432C62.6225 27.6252 62.6252 27.6061 62.6346 27.5901C62.644 27.5741 62.6593 27.5624 62.6772 27.5576C62.6907 27.5536 62.7051 27.5542 62.7182 27.5595Z" fill="#263238"/>
<path d="M54.51 32.7194C54.0115 32.95 53.4758 33.19 52.9662 33.4392C52.4566 33.6884 51.9413 33.9395 51.4391 34.1981C50.9369 34.4566 50.4478 34.7282 49.9846 35.009C49.7558 35.1485 49.5345 35.2973 49.328 35.4406C49.1387 35.5712 48.9596 35.7161 48.7924 35.8739L48.997 35.554C48.8807 35.8013 48.8204 36.0712 48.8203 36.3445C48.8203 36.5175 48.8203 36.6998 48.8296 36.8876C48.8389 37.0755 48.8668 37.2689 48.8928 37.4661C48.9486 37.8604 49.0304 38.264 49.1253 38.6695C49.2202 39.075 49.3355 39.4935 49.4415 39.8822L49.4508 39.9176C49.4919 40.0618 49.4804 40.2159 49.4183 40.3524C49.3563 40.4889 49.2478 40.599 49.1121 40.6629C48.9765 40.7268 48.8225 40.7404 48.6778 40.7014C48.533 40.6623 48.4068 40.573 48.3218 40.4495C48.054 40.0654 47.8128 39.6633 47.6001 39.2461C47.3846 38.8222 47.1981 38.3841 47.0421 37.9348C46.8749 37.4557 46.7602 36.9599 46.6999 36.4561C46.6185 35.8509 46.6823 35.2351 46.8859 34.6594C46.9231 34.5604 46.9779 34.4691 47.0477 34.3897L47.0905 34.3394C47.5527 33.8307 48.0748 33.3798 48.6454 32.9965C49.1662 32.6245 49.6945 32.3046 50.2283 32.0014C50.7621 31.6982 51.2996 31.4137 51.8446 31.1477C52.3896 30.8817 52.929 30.6287 53.5186 30.3925C53.8246 30.2713 54.1657 30.2738 54.4699 30.3994C54.7742 30.525 55.0176 30.7639 55.149 31.0657C55.2803 31.3674 55.2892 31.7085 55.1738 32.0167C55.0584 32.3249 54.8277 32.5762 54.5305 32.7175L54.51 32.7194Z" fill="#FFC3BD"/>
<path d="M55.3766 30.2171C53.8179 29.5252 51.028 31.1731 51.028 31.1731L51.2995 34.5844C52.2214 34.6487 53.1324 34.3541 53.8421 33.7622C54.8093 32.9885 56.9595 30.9202 55.3766 30.2171Z" fill="#263238"/>
<path d="M49.2963 39.4055L50.0142 40.7187L48.2621 41.1056C48.2621 41.1056 47.7562 39.837 48.3867 39.4595L49.2963 39.4055Z" fill="#FFC3BD"/>
<path d="M49.5901 42.2215L48.954 42.2531C48.8311 42.2586 48.7101 42.2206 48.6125 42.1458C48.5148 42.0709 48.4467 41.964 48.4202 41.8439L48.2639 41.111L50.016 40.726L50.083 41.6672C50.0878 41.7361 50.0788 41.8053 50.0564 41.8707C50.0341 41.936 49.999 41.9963 49.9531 42.048C49.9072 42.0996 49.8514 42.1415 49.7891 42.1713C49.7268 42.2011 49.6591 42.2182 49.5901 42.2215Z" fill="#FFC3BD"/>
<path d="M57.3295 30.4385C57.1322 30.874 57.084 31.3624 57.1923 31.8281C57.3005 32.2938 57.5593 32.7108 57.9284 33.0146C57.0152 32.6147 56.1075 33.2788 56.1075 33.2788C56.1075 33.2788 55.7188 31.3537 56.7436 30.5594L57.3295 30.4385Z" fill="white"/>
<path d="M59.4145 31.5233C59.2694 31.8227 59.3382 32.5611 58.6891 33.2921C59.2006 33.4781 59.4535 34.2221 59.4535 34.2221C59.8488 33.5722 60.0151 32.8087 59.926 32.0534C59.7974 31.8405 59.6226 31.6593 59.4145 31.5233Z" fill="white"/>
<path d="M41.6387 73.7431L41.5829 73.5571C42.9375 73.1295 44.2043 72.4624 45.3233 71.5874L45.4387 71.7343C44.3018 72.625 43.0149 73.3053 41.6387 73.7431Z" fill="#0E7490"/>
<path d="M37.5002 27.3512C26.4574 27.3512 18.8128 36.9823 22.1701 55.1638C25.5274 73.3453 34.4796 73.6559 37.5002 73.6559C40.5209 73.6559 49.4749 73.349 52.8303 55.1656C56.1858 36.9823 48.543 27.3512 37.5002 27.3512Z" fill="#0E7490"/>
<path d="M25.386 48.2983C28.1927 47.266 31.8327 46.9405 33.5495 48.9121C35.2663 50.8837 29.3366 52.3829 25.386 48.2983Z" fill="#263238"/>
<path d="M49.6143 48.2983C46.8076 47.266 43.1675 46.9405 41.4508 48.9121C39.734 50.8837 45.6637 52.3829 49.6143 48.2983Z" fill="#263238"/>
<path opacity="0.2" d="M39.9349 55.9096C39.8084 55.3516 38.3855 56.0956 37.5002 56.0956C36.6148 56.0956 35.1919 55.3385 35.0654 55.9096C34.9389 56.4806 36.1089 57.0684 37.5002 57.0684C38.8914 57.0684 40.0614 56.4769 39.9349 55.9096Z" fill="black"/>
<path opacity="0.2" d="M39.5554 65.7356C39.4494 65.4994 38.2534 65.8156 37.5001 65.8156C36.7468 65.8156 35.5509 65.4994 35.4448 65.7356C35.3388 65.9718 36.3246 66.2155 37.5001 66.2155C38.6757 66.2155 39.6633 65.9718 39.5554 65.7356Z" fill="black"/>
<path opacity="0.2" d="M38.9268 62.0234C38.0953 62.0234 37.7364 62.1722 37.5913 62.2689C37.5639 62.2878 37.5315 62.2979 37.4983 62.2979C37.4651 62.2979 37.4326 62.2878 37.4053 62.2689C37.2602 62.1722 36.9012 62.0234 36.0698 62.0234C35.1398 62.0234 32.1638 62.9385 30.7428 63.3905C30.7086 63.4023 30.6795 63.4254 30.6603 63.4561C30.6411 63.4867 30.633 63.5231 30.6374 63.559C30.6417 63.5949 30.6583 63.6282 30.6842 63.6534C30.7102 63.6786 30.744 63.6941 30.78 63.6974C32.2828 63.8108 35.5564 64.0396 37.4964 64.0396C39.4364 64.0396 42.7044 63.8108 44.2129 63.6974C44.2489 63.6941 44.2827 63.6786 44.3086 63.6534C44.3346 63.6282 44.3511 63.5949 44.3555 63.559C44.3598 63.5231 44.3517 63.4867 44.3326 63.4561C44.3134 63.4254 44.2843 63.4023 44.2501 63.3905C42.8365 62.9385 39.8549 62.0234 38.9268 62.0234Z" fill="black"/>
<path opacity="0.1" d="M26.9931 64.9233C25.2652 60.5132 25.7599 56.1813 24.4542 49.8573C23.0388 43.0144 25.0271 35.9538 27.9287 30.4705C22.6035 34.6555 19.9307 42.9939 22.1627 55.1564C24.0339 65.299 27.6478 69.8783 31.0033 71.9448C30.4323 70.016 27.9399 67.332 26.9931 64.9233Z" fill="black"/>
<path opacity="0.1" d="M48.0072 64.9233C49.7352 60.5132 49.2404 56.1813 50.5461 49.8573C51.9616 43.0144 49.9733 35.9538 47.0717 30.4705C52.3968 34.6555 55.0697 42.9939 52.8377 55.1564C50.9665 65.299 47.3525 69.8783 43.9971 71.9448C44.5681 70.016 47.0605 67.332 48.0072 64.9233Z" fill="black"/>
</g>
<path d="M15.715 84.05C15.5217 83.6433 15.2417 83.33 14.875 83.11C14.5084 82.8833 14.0817 82.77 13.595 82.77C13.1084 82.77 12.6684 82.8833 12.275 83.11C11.8884 83.33 11.5817 83.65 11.355 84.07C11.135 84.4833 11.025 84.9633 11.025 85.51C11.025 86.0567 11.135 86.5367 11.355 86.95C11.5817 87.3633 11.8884 87.6833 12.275 87.91C12.6684 88.13 13.1084 88.24 13.595 88.24C14.275 88.24 14.835 88.0367 15.275 87.63C15.715 87.2233 15.9717 86.6733 16.045 85.98H13.265V85.24H17.015V85.94C16.9617 86.5133 16.7817 87.04 16.475 87.52C16.1684 87.9933 15.765 88.37 15.265 88.65C14.765 88.9233 14.2084 89.06 13.595 89.06C12.9484 89.06 12.3584 88.91 11.825 88.61C11.2917 88.3033 10.8684 87.88 10.555 87.34C10.2484 86.8 10.095 86.19 10.095 85.51C10.095 84.83 10.2484 84.22 10.555 83.68C10.8684 83.1333 11.2917 82.71 11.825 82.41C12.3584 82.1033 12.9484 81.95 13.595 81.95C14.335 81.95 14.9884 82.1333 15.555 82.5C16.1284 82.8667 16.545 83.3833 16.805 84.05H15.715ZM17.8782 86.24C17.8782 85.68 17.9916 85.19 18.2182 84.77C18.4449 84.3433 18.7549 84.0133 19.1482 83.78C19.5482 83.5467 19.9916 83.43 20.4782 83.43C20.9582 83.43 21.3749 83.5333 21.7282 83.74C22.0816 83.9467 22.3449 84.2067 22.5182 84.52V83.52H23.4382V89H22.5182V87.98C22.3382 88.3 22.0682 88.5667 21.7082 88.78C21.3549 88.9867 20.9416 89.09 20.4682 89.09C19.9816 89.09 19.5416 88.97 19.1482 88.73C18.7549 88.49 18.4449 88.1533 18.2182 87.72C17.9916 87.2867 17.8782 86.7933 17.8782 86.24ZM22.5182 86.25C22.5182 85.8367 22.4349 85.4767 22.2682 85.17C22.1016 84.8633 21.8749 84.63 21.5882 84.47C21.3082 84.3033 20.9982 84.22 20.6582 84.22C20.3182 84.22 20.0082 84.3 19.7282 84.46C19.4482 84.62 19.2249 84.8533 19.0582 85.16C18.8916 85.4667 18.8082 85.8267 18.8082 86.24C18.8082 86.66 18.8916 87.0267 19.0582 87.34C19.2249 87.6467 19.4482 87.8833 19.7282 88.05C20.0082 88.21 20.3182 88.29 20.6582 88.29C20.9982 88.29 21.3082 88.21 21.5882 88.05C21.8749 87.8833 22.1016 87.6467 22.2682 87.34C22.4349 87.0267 22.5182 86.6633 22.5182 86.25ZM27.6461 83.42C28.3127 83.42 28.8527 83.6233 29.2661 84.03C29.6794 84.43 29.8861 85.01 29.8861 85.77V89H28.9861V85.9C28.9861 85.3533 28.8494 84.9367 28.5761 84.65C28.3027 84.3567 27.9294 84.21 27.4561 84.21C26.9761 84.21 26.5927 84.36 26.3061 84.66C26.0261 84.96 25.8861 85.3967 25.8861 85.97V89H24.9761V83.52H25.8861V84.3C26.0661 84.02 26.3094 83.8033 26.6161 83.65C26.9294 83.4967 27.2727 83.42 27.6461 83.42ZM33.6325 83.43C34.1059 83.43 34.5192 83.5333 34.8725 83.74C35.2325 83.9467 35.4992 84.2067 35.6725 84.52V83.52H36.5925V89.12C36.5925 89.62 36.4859 90.0633 36.2725 90.45C36.0592 90.8433 35.7525 91.15 35.3525 91.37C34.9592 91.59 34.4992 91.7 33.9725 91.7C33.2525 91.7 32.6525 91.53 32.1725 91.19C31.6925 90.85 31.4092 90.3867 31.3225 89.8H32.2225C32.3225 90.1333 32.5292 90.4 32.8425 90.6C33.1559 90.8067 33.5325 90.91 33.9725 90.91C34.4725 90.91 34.8792 90.7533 35.1925 90.44C35.5125 90.1267 35.6725 89.6867 35.6725 89.12V87.97C35.4925 88.29 35.2259 88.5567 34.8725 88.77C34.5192 88.9833 34.1059 89.09 33.6325 89.09C33.1459 89.09 32.7025 88.97 32.3025 88.73C31.9092 88.49 31.5992 88.1533 31.3725 87.72C31.1459 87.2867 31.0325 86.7933 31.0325 86.24C31.0325 85.68 31.1459 85.19 31.3725 84.77C31.5992 84.3433 31.9092 84.0133 32.3025 83.78C32.7025 83.5467 33.1459 83.43 33.6325 83.43ZM35.6725 86.25C35.6725 85.8367 35.5892 85.4767 35.4225 85.17C35.2559 84.8633 35.0292 84.63 34.7425 84.47C34.4625 84.3033 34.1525 84.22 33.8125 84.22C33.4725 84.22 33.1625 84.3 32.8825 84.46C32.6025 84.62 32.3792 84.8533 32.2125 85.16C32.0459 85.4667 31.9625 85.8267 31.9625 86.24C31.9625 86.66 32.0459 87.0267 32.2125 87.34C32.3792 87.6467 32.6025 87.8833 32.8825 88.05C33.1625 88.21 33.4725 88.29 33.8125 88.29C34.1525 88.29 34.4625 88.21 34.7425 88.05C35.0292 87.8833 35.2559 87.6467 35.4225 87.34C35.5892 87.0267 35.6725 86.6633 35.6725 86.25ZM40.3904 83.43C40.8637 83.43 41.277 83.5333 41.6304 83.74C41.9904 83.9467 42.257 84.2067 42.4304 84.52V83.52H43.3504V89.12C43.3504 89.62 43.2437 90.0633 43.0304 90.45C42.817 90.8433 42.5104 91.15 42.1104 91.37C41.717 91.59 41.257 91.7 40.7304 91.7C40.0104 91.7 39.4104 91.53 38.9304 91.19C38.4504 90.85 38.167 90.3867 38.0804 89.8H38.9804C39.0804 90.1333 39.287 90.4 39.6004 90.6C39.9137 90.8067 40.2904 90.91 40.7304 90.91C41.2304 90.91 41.637 90.7533 41.9504 90.44C42.2704 90.1267 42.4304 89.6867 42.4304 89.12V87.97C42.2504 88.29 41.9837 88.5567 41.6304 88.77C41.277 88.9833 40.8637 89.09 40.3904 89.09C39.9037 89.09 39.4604 88.97 39.0604 88.73C38.667 88.49 38.357 88.1533 38.1304 87.72C37.9037 87.2867 37.7904 86.7933 37.7904 86.24C37.7904 85.68 37.9037 85.19 38.1304 84.77C38.357 84.3433 38.667 84.0133 39.0604 83.78C39.4604 83.5467 39.9037 83.43 40.3904 83.43ZM42.4304 86.25C42.4304 85.8367 42.347 85.4767 42.1804 85.17C42.0137 84.8633 41.787 84.63 41.5004 84.47C41.2204 84.3033 40.9104 84.22 40.5704 84.22C40.2304 84.22 39.9204 84.3 39.6404 84.46C39.3604 84.62 39.137 84.8533 38.9704 85.16C38.8037 85.4667 38.7204 85.8267 38.7204 86.24C38.7204 86.66 38.8037 87.0267 38.9704 87.34C39.137 87.6467 39.3604 87.8833 39.6404 88.05C39.9204 88.21 40.2304 88.29 40.5704 88.29C40.9104 88.29 41.2204 88.21 41.5004 88.05C41.787 87.8833 42.0137 87.6467 42.1804 87.34C42.347 87.0267 42.4304 86.6633 42.4304 86.25ZM49.7482 83.52V89H48.8382V88.19C48.6648 88.47 48.4215 88.69 48.1082 88.85C47.8015 89.0033 47.4615 89.08 47.0882 89.08C46.6615 89.08 46.2782 88.9933 45.9382 88.82C45.5982 88.64 45.3282 88.3733 45.1282 88.02C44.9348 87.6667 44.8382 87.2367 44.8382 86.73V83.52H45.7382V86.61C45.7382 87.15 45.8748 87.5667 46.1482 87.86C46.4215 88.1467 46.7948 88.29 47.2682 88.29C47.7548 88.29 48.1382 88.14 48.4182 87.84C48.6982 87.54 48.8382 87.1033 48.8382 86.53V83.52H49.7482ZM50.9446 86.24C50.9446 85.68 51.058 85.19 51.2846 84.77C51.5113 84.3433 51.8213 84.0133 52.2146 83.78C52.6146 83.5467 53.058 83.43 53.5446 83.43C54.0246 83.43 54.4413 83.5333 54.7946 83.74C55.148 83.9467 55.4113 84.2067 55.5846 84.52V83.52H56.5046V89H55.5846V87.98C55.4046 88.3 55.1346 88.5667 54.7746 88.78C54.4213 88.9867 54.008 89.09 53.5346 89.09C53.048 89.09 52.608 88.97 52.2146 88.73C51.8213 88.49 51.5113 88.1533 51.2846 87.72C51.058 87.2867 50.9446 86.7933 50.9446 86.24ZM55.5846 86.25C55.5846 85.8367 55.5013 85.4767 55.3346 85.17C55.168 84.8633 54.9413 84.63 54.6546 84.47C54.3746 84.3033 54.0646 84.22 53.7246 84.22C53.3846 84.22 53.0746 84.3 52.7946 84.46C52.5146 84.62 52.2913 84.8533 52.1246 85.16C51.958 85.4667 51.8746 85.8267 51.8746 86.24C51.8746 86.66 51.958 87.0267 52.1246 87.34C52.2913 87.6467 52.5146 87.8833 52.7946 88.05C53.0746 88.21 53.3846 88.29 53.7246 88.29C54.0646 88.29 54.3746 88.21 54.6546 88.05C54.9413 87.8833 55.168 87.6467 55.3346 87.34C55.5013 87.0267 55.5846 86.6633 55.5846 86.25ZM60.7125 83.42C61.3791 83.42 61.9191 83.6233 62.3325 84.03C62.7458 84.43 62.9525 85.01 62.9525 85.77V89H62.0525V85.9C62.0525 85.3533 61.9158 84.9367 61.6425 84.65C61.3691 84.3567 60.9958 84.21 60.5225 84.21C60.0425 84.21 59.6591 84.36 59.3725 84.66C59.0925 84.96 58.9525 85.3967 58.9525 85.97V89H58.0425V83.52H58.9525V84.3C59.1325 84.02 59.3758 83.8033 59.6825 83.65C59.9958 83.4967 60.3391 83.42 60.7125 83.42ZM31.758 97.08V104H30.848V98.84L28.548 104H27.908L25.598 98.83V104H24.688V97.08H25.668L28.228 102.8L30.788 97.08H31.758ZM35.6913 104.09C35.1779 104.09 34.7113 103.973 34.2913 103.74C33.8779 103.507 33.5513 103.177 33.3113 102.75C33.0779 102.317 32.9613 101.817 32.9613 101.25C32.9613 100.69 33.0813 100.197 33.3213 99.77C33.5679 99.3367 33.9013 99.0067 34.3213 98.78C34.7413 98.5467 35.2113 98.43 35.7313 98.43C36.2513 98.43 36.7213 98.5467 37.1413 98.78C37.5613 99.0067 37.8913 99.3333 38.1313 99.76C38.3779 100.187 38.5013 100.683 38.5013 101.25C38.5013 101.817 38.3746 102.317 38.1213 102.75C37.8746 103.177 37.5379 103.507 37.1113 103.74C36.6846 103.973 36.2113 104.09 35.6913 104.09ZM35.6913 103.29C36.0179 103.29 36.3246 103.213 36.6113 103.06C36.8979 102.907 37.1279 102.677 37.3013 102.37C37.4813 102.063 37.5713 101.69 37.5713 101.25C37.5713 100.81 37.4846 100.437 37.3113 100.13C37.1379 99.8233 36.9113 99.5967 36.6313 99.45C36.3513 99.2967 36.0479 99.22 35.7213 99.22C35.3879 99.22 35.0813 99.2967 34.8013 99.45C34.5279 99.5967 34.3079 99.8233 34.1413 100.13C33.9746 100.437 33.8913 100.81 33.8913 101.25C33.8913 101.697 33.9713 102.073 34.1313 102.38C34.2979 102.687 34.5179 102.917 34.7913 103.07C35.0646 103.217 35.3646 103.29 35.6913 103.29ZM42.0877 104.09C41.5744 104.09 41.1077 103.973 40.6877 103.74C40.2744 103.507 39.9477 103.177 39.7077 102.75C39.4744 102.317 39.3577 101.817 39.3577 101.25C39.3577 100.69 39.4777 100.197 39.7177 99.77C39.9644 99.3367 40.2977 99.0067 40.7177 98.78C41.1377 98.5467 41.6077 98.43 42.1277 98.43C42.6477 98.43 43.1177 98.5467 43.5377 98.78C43.9577 99.0067 44.2877 99.3333 44.5277 99.76C44.7744 100.187 44.8977 100.683 44.8977 101.25C44.8977 101.817 44.7711 102.317 44.5177 102.75C44.2711 103.177 43.9344 103.507 43.5077 103.74C43.0811 103.973 42.6077 104.09 42.0877 104.09ZM42.0877 103.29C42.4144 103.29 42.7211 103.213 43.0077 103.06C43.2944 102.907 43.5244 102.677 43.6977 102.37C43.8777 102.063 43.9677 101.69 43.9677 101.25C43.9677 100.81 43.8811 100.437 43.7077 100.13C43.5344 99.8233 43.3077 99.5967 43.0277 99.45C42.7477 99.2967 42.4444 99.22 42.1177 99.22C41.7844 99.22 41.4777 99.2967 41.1977 99.45C40.9244 99.5967 40.7044 99.8233 40.5377 100.13C40.3711 100.437 40.2877 100.81 40.2877 101.25C40.2877 101.697 40.3677 102.073 40.5277 102.38C40.6944 102.687 40.9144 102.917 41.1877 103.07C41.4611 103.217 41.7611 103.29 42.0877 103.29ZM45.7542 101.24C45.7542 100.68 45.8676 100.19 46.0942 99.77C46.3209 99.3433 46.6309 99.0133 47.0242 98.78C47.4242 98.5467 47.8709 98.43 48.3642 98.43C48.7909 98.43 49.1876 98.53 49.5542 98.73C49.9209 98.9233 50.2009 99.18 50.3942 99.5V96.6H51.3142V104H50.3942V102.97C50.2142 103.297 49.9476 103.567 49.5942 103.78C49.2409 103.987 48.8276 104.09 48.3542 104.09C47.8676 104.09 47.4242 103.97 47.0242 103.73C46.6309 103.49 46.3209 103.153 46.0942 102.72C45.8676 102.287 45.7542 101.793 45.7542 101.24ZM50.3942 101.25C50.3942 100.837 50.3109 100.477 50.1442 100.17C49.9776 99.8633 49.7509 99.63 49.4642 99.47C49.1842 99.3033 48.8742 99.22 48.5342 99.22C48.1942 99.22 47.8842 99.3 47.6042 99.46C47.3242 99.62 47.1009 99.8533 46.9342 100.16C46.7676 100.467 46.6842 100.827 46.6842 101.24C46.6842 101.66 46.7676 102.027 46.9342 102.34C47.1009 102.647 47.3242 102.883 47.6042 103.05C47.8842 103.21 48.1942 103.29 48.5342 103.29C48.8742 103.29 49.1842 103.21 49.4642 103.05C49.7509 102.883 49.9776 102.647 50.1442 102.34C50.3109 102.027 50.3942 101.663 50.3942 101.25Z" fill="#164E63"/>
<defs>
<clipPath id="clip0_2012_8271">
<rect width="76" height="73" rx="36.5" fill="white"/>
</clipPath>
</defs>
</svg>
