<svg width="79" height="94" viewBox="0 0 79 94" fill="none" xmlns="http://www.w3.org/2000/svg">
<rect y="0.5" width="79" height="73" rx="36.5" fill="#ECFEFF"/>
<path d="M34.625 22.375H26.5C25.6025 22.375 24.875 23.1025 24.875 24V35.375C24.875 36.2725 25.6025 37 26.5 37H34.625C35.5225 37 36.25 36.2725 36.25 35.375V24C36.25 23.1025 35.5225 22.375 34.625 22.375Z" stroke="#0E7490" stroke-width="1.625" stroke-linecap="round" stroke-linejoin="round"/>
<path d="M52.5 22.375H44.375C43.4775 22.375 42.75 23.1025 42.75 24V28.875C42.75 29.7725 43.4775 30.5 44.375 30.5H52.5C53.3975 30.5 54.125 29.7725 54.125 28.875V24C54.125 23.1025 53.3975 22.375 52.5 22.375Z" stroke="#0E7490" stroke-width="1.625" stroke-linecap="round" stroke-linejoin="round"/>
<path d="M52.5 37H44.375C43.4775 37 42.75 37.7275 42.75 38.625V50C42.75 50.8975 43.4775 51.625 44.375 51.625H52.5C53.3975 51.625 54.125 50.8975 54.125 50V38.625C54.125 37.7275 53.3975 37 52.5 37Z" stroke="#0E7490" stroke-width="1.625" stroke-linecap="round" stroke-linejoin="round"/>
<path d="M34.625 43.5H26.5C25.6025 43.5 24.875 44.2275 24.875 45.125V50C24.875 50.8975 25.6025 51.625 26.5 51.625H34.625C35.5225 51.625 36.25 50.8975 36.25 50V45.125C36.25 44.2275 35.5225 43.5 34.625 43.5Z" stroke="#0E7490" stroke-width="1.625" stroke-linecap="round" stroke-linejoin="round"/>
<path d="M12.8255 88.76H15.2655V89.5H11.9155V82.53H12.8255V88.76ZM16.7019 83.13C16.5286 83.13 16.3819 83.07 16.2619 82.95C16.1419 82.83 16.0819 82.6833 16.0819 82.51C16.0819 82.3367 16.1419 82.19 16.2619 82.07C16.3819 81.95 16.5286 81.89 16.7019 81.89C16.8686 81.89 17.0086 81.95 17.1219 82.07C17.2419 82.19 17.3019 82.3367 17.3019 82.51C17.3019 82.6833 17.2419 82.83 17.1219 82.95C17.0086 83.07 16.8686 83.13 16.7019 83.13ZM17.1419 84.02V89.5H16.2319V84.02H17.1419ZM21.4129 83.92C21.8262 83.92 22.1995 84.01 22.5329 84.19C22.8662 84.3633 23.1262 84.6267 23.3129 84.98C23.5062 85.3333 23.6029 85.7633 23.6029 86.27V89.5H22.7029V86.4C22.7029 85.8533 22.5662 85.4367 22.2929 85.15C22.0195 84.8567 21.6462 84.71 21.1729 84.71C20.6929 84.71 20.3095 84.86 20.0229 85.16C19.7429 85.46 19.6029 85.8967 19.6029 86.47V89.5H18.6929V82.1H19.6029V84.8C19.7829 84.52 20.0295 84.3033 20.3429 84.15C20.6629 83.9967 21.0195 83.92 21.4129 83.92ZM24.7493 86.74C24.7493 86.18 24.8627 85.69 25.0893 85.27C25.316 84.8433 25.626 84.5133 26.0193 84.28C26.4193 84.0467 26.8627 83.93 27.3493 83.93C27.8293 83.93 28.246 84.0333 28.5993 84.24C28.9527 84.4467 29.216 84.7067 29.3893 85.02V84.02H30.3093V89.5H29.3893V88.48C29.2093 88.8 28.9393 89.0667 28.5793 89.28C28.226 89.4867 27.8127 89.59 27.3393 89.59C26.8527 89.59 26.4127 89.47 26.0193 89.23C25.626 88.99 25.316 88.6533 25.0893 88.22C24.8627 87.7867 24.7493 87.2933 24.7493 86.74ZM29.3893 86.75C29.3893 86.3367 29.306 85.9767 29.1393 85.67C28.9727 85.3633 28.746 85.13 28.4593 84.97C28.1793 84.8033 27.8693 84.72 27.5293 84.72C27.1893 84.72 26.8793 84.8 26.5993 84.96C26.3193 85.12 26.096 85.3533 25.9293 85.66C25.7627 85.9667 25.6793 86.3267 25.6793 86.74C25.6793 87.16 25.7627 87.5267 25.9293 87.84C26.096 88.1467 26.3193 88.3833 26.5993 88.55C26.8793 88.71 27.1893 88.79 27.5293 88.79C27.8693 88.79 28.1793 88.71 28.4593 88.55C28.746 88.3833 28.9727 88.1467 29.1393 87.84C29.306 87.5267 29.3893 87.1633 29.3893 86.75ZM32.9571 84.77V88C32.9571 88.2667 33.0138 88.4567 33.1271 88.57C33.2405 88.6767 33.4371 88.73 33.7171 88.73H34.3871V89.5H33.5671C33.0605 89.5 32.6805 89.3833 32.4271 89.15C32.1738 88.9167 32.0471 88.5333 32.0471 88V84.77H31.3371V84.02H32.0471V82.64H32.9571V84.02H34.3871V84.77H32.9571ZM39.0657 82.1V89.5H38.1557V82.1H39.0657ZM40.2767 86.74C40.2767 86.18 40.39 85.69 40.6167 85.27C40.8433 84.8433 41.1533 84.5133 41.5467 84.28C41.9467 84.0467 42.39 83.93 42.8767 83.93C43.3567 83.93 43.7733 84.0333 44.1267 84.24C44.48 84.4467 44.7433 84.7067 44.9167 85.02V84.02H45.8367V89.5H44.9167V88.48C44.7367 88.8 44.4667 89.0667 44.1067 89.28C43.7533 89.4867 43.34 89.59 42.8667 89.59C42.38 89.59 41.94 89.47 41.5467 89.23C41.1533 88.99 40.8433 88.6533 40.6167 88.22C40.39 87.7867 40.2767 87.2933 40.2767 86.74ZM44.9167 86.75C44.9167 86.3367 44.8333 85.9767 44.6667 85.67C44.5 85.3633 44.2733 85.13 43.9867 84.97C43.7067 84.8033 43.3967 84.72 43.0567 84.72C42.7167 84.72 42.4067 84.8 42.1267 84.96C41.8467 85.12 41.6233 85.3533 41.4567 85.66C41.29 85.9667 41.2067 86.3267 41.2067 86.74C41.2067 87.16 41.29 87.5267 41.4567 87.84C41.6233 88.1467 41.8467 88.3833 42.1267 88.55C42.4067 88.71 42.7167 88.79 43.0567 88.79C43.3967 88.79 43.7067 88.71 43.9867 88.55C44.2733 88.3833 44.5 88.1467 44.6667 87.84C44.8333 87.5267 44.9167 87.1633 44.9167 86.75ZM47.8445 83.13C47.6712 83.13 47.5245 83.07 47.4045 82.95C47.2845 82.83 47.2245 82.6833 47.2245 82.51C47.2245 82.3367 47.2845 82.19 47.4045 82.07C47.5245 81.95 47.6712 81.89 47.8445 81.89C48.0112 81.89 48.1512 81.95 48.2645 82.07C48.3845 82.19 48.4445 82.3367 48.4445 82.51C48.4445 82.6833 48.3845 82.83 48.2645 82.95C48.1512 83.07 48.0112 83.13 47.8445 83.13ZM48.2845 84.02V89.5H47.3745V84.02H48.2845ZM52.5054 83.92C53.1721 83.92 53.7121 84.1233 54.1254 84.53C54.5388 84.93 54.7454 85.51 54.7454 86.27V89.5H53.8454V86.4C53.8454 85.8533 53.7088 85.4367 53.4354 85.15C53.1621 84.8567 52.7888 84.71 52.3154 84.71C51.8354 84.71 51.4521 84.86 51.1654 85.16C50.8854 85.46 50.7454 85.8967 50.7454 86.47V89.5H49.8354V84.02H50.7454V84.8C50.9254 84.52 51.1688 84.3033 51.4754 84.15C51.7888 83.9967 52.1321 83.92 52.5054 83.92ZM60.9519 84.02L57.6519 92.08H56.7119L57.7919 89.44L55.5819 84.02H56.5919L58.3119 88.46L60.0119 84.02H60.9519ZM61.5267 86.74C61.5267 86.18 61.64 85.69 61.8667 85.27C62.0933 84.8433 62.4033 84.5133 62.7967 84.28C63.1967 84.0467 63.64 83.93 64.1267 83.93C64.6067 83.93 65.0233 84.0333 65.3767 84.24C65.73 84.4467 65.9933 84.7067 66.1667 85.02V84.02H67.0867V89.5H66.1667V88.48C65.9867 88.8 65.7167 89.0667 65.3567 89.28C65.0033 89.4867 64.59 89.59 64.1167 89.59C63.63 89.59 63.19 89.47 62.7967 89.23C62.4033 88.99 62.0933 88.6533 61.8667 88.22C61.64 87.7867 61.5267 87.2933 61.5267 86.74ZM66.1667 86.75C66.1667 86.3367 66.0833 85.9767 65.9167 85.67C65.75 85.3633 65.5233 85.13 65.2367 84.97C64.9567 84.8033 64.6467 84.72 64.3067 84.72C63.9667 84.72 63.6567 84.8 63.3767 84.96C63.0967 85.12 62.8733 85.3533 62.7067 85.66C62.54 85.9667 62.4567 86.3267 62.4567 86.74C62.4567 87.16 62.54 87.5267 62.7067 87.84C62.8733 88.1467 63.0967 88.3833 63.3767 88.55C63.6567 88.71 63.9667 88.79 64.3067 88.79C64.6467 88.79 64.9567 88.71 65.2367 88.55C65.5233 88.3833 65.75 88.1467 65.9167 87.84C66.0833 87.5267 66.1667 87.1633 66.1667 86.75Z" fill="#164E63"/>
</svg>
