<svg width="82" height="108" viewBox="0 0 82 108" fill="none" xmlns="http://www.w3.org/2000/svg">
<g clip-path="url(#clip0_2012_8130)">
<rect width="82" height="73" rx="36.5" fill="#ECFEFF"/>
<path d="M22.8732 34.2097L22.4257 34.373L22.8138 34.4775C22.8775 34.4951 22.9358 34.5276 22.9834 34.572C23.031 34.6164 23.0665 34.6715 23.0867 34.7323L23.2274 35.1438L23.3969 34.7307C23.418 34.6798 23.45 34.6338 23.4909 34.5958C23.5319 34.5578 23.5807 34.5286 23.6343 34.5102L24.0258 34.373L23.6004 34.2097C23.5497 34.1894 23.5039 34.1594 23.4658 34.1215C23.4276 34.0836 23.3978 34.0386 23.3783 33.9892L23.224 33.6055L23.1139 33.9615C23.0955 34.0175 23.0644 34.0689 23.0227 34.1119C22.9811 34.1549 22.93 34.1883 22.8732 34.2097Z" fill="#E0E0E0"/>
<path d="M29.3584 19.6395L28.9126 19.8028L29.2991 19.9089C29.3629 19.9261 29.4213 19.9582 29.4692 20.0024C29.5171 20.0465 29.553 20.1014 29.5737 20.162L29.7127 20.5752L29.8822 20.1604C29.9032 20.1095 29.9352 20.0635 29.9762 20.0255C30.0171 19.9875 30.0659 19.9583 30.1195 19.9399L30.511 19.8028L30.0873 19.6395C30.0364 19.6192 29.9904 19.5892 29.9519 19.5513C29.9135 19.5134 29.8834 19.4684 29.8635 19.419L29.7093 19.0352L29.6008 19.3929C29.5821 19.4488 29.5506 19.5 29.5086 19.5426C29.4667 19.5853 29.4153 19.6184 29.3584 19.6395Z" fill="#E0E0E0"/>
<path d="M60.3344 36.2218L59.3919 36.5631L60.2106 36.7868C60.3454 36.8232 60.4687 36.8911 60.5696 36.9846C60.6704 37.0781 60.7457 37.1942 60.7887 37.3225L61.0853 38.1945L61.4497 37.3192C61.494 37.2117 61.5615 37.1144 61.6477 37.0339C61.7339 36.9534 61.8369 36.8914 61.9498 36.8521L62.7787 36.5631L61.882 36.2071C61.7744 36.1651 61.6769 36.1023 61.5955 36.0225C61.5142 35.9427 61.4507 35.8477 61.4091 35.7433L61.0853 34.9268L60.8531 35.6812C60.8166 35.8042 60.7506 35.9171 60.6605 36.011C60.5704 36.1049 60.4587 36.1771 60.3344 36.2218Z" fill="#E0E0E0"/>
<path d="M63.1533 13.2509L61.9786 13.6755L62.9957 13.9548C63.1648 13.9993 63.3198 14.0834 63.447 14.1997C63.5742 14.316 63.6695 14.4607 63.7245 14.6211L64.0941 15.7087L64.5467 14.6178C64.6029 14.4844 64.6874 14.3638 64.7948 14.2636C64.9022 14.1635 65.0302 14.0861 65.1704 14.0364L66.2028 13.6755L65.0806 13.233C64.9469 13.1803 64.8257 13.1018 64.7246 13.0024C64.6234 12.903 64.5444 12.7847 64.4924 12.6549L64.089 11.644L63.7991 12.583C63.7522 12.7348 63.6695 12.874 63.5575 12.9899C63.4454 13.1057 63.3071 13.1951 63.1533 13.2509Z" fill="#E0E0E0"/>
<path d="M59.6563 8.10527L59.1257 8.29797L59.5851 8.42372C59.6608 8.44428 59.73 8.48244 59.7868 8.53484C59.8435 8.58724 59.886 8.65226 59.9106 8.72421L60.0801 9.21413L60.2852 8.72421C60.31 8.66366 60.348 8.6089 60.3965 8.56356C60.445 8.51823 60.503 8.48337 60.5666 8.46128L61.0327 8.29797L60.5242 8.09711C60.4636 8.07348 60.4087 8.03809 60.3629 7.99313C60.3171 7.94818 60.2814 7.89463 60.2581 7.83581L60.0767 7.38019L59.9462 7.80479C59.925 7.87293 59.8879 7.93548 59.8376 7.98758C59.7873 8.03969 59.7253 8.07995 59.6563 8.10527Z" fill="#E0E0E0"/>
<path d="M15.8909 38.9704L14.9484 39.3117L15.7671 39.5354C15.9019 39.5718 16.0252 39.6397 16.1261 39.7332C16.2269 39.8267 16.3022 39.9427 16.3452 40.0711L16.6418 40.9448L17.0063 40.0694C17.0505 39.9619 17.118 39.8647 17.2042 39.7841C17.2904 39.7036 17.3934 39.6417 17.5063 39.6024L18.3352 39.3117L17.4385 38.9573C17.3311 38.9146 17.2338 38.8513 17.1525 38.7713C17.0713 38.6913 17.0076 38.5962 16.9656 38.4919L16.6418 37.6754L16.4096 38.4298C16.3731 38.5528 16.3071 38.6657 16.217 38.7596C16.127 38.8535 16.0152 38.9257 15.8909 38.9704Z" fill="#E0E0E0"/>
<path d="M29.7958 15.6174L28.8923 15.944L29.6771 16.1596C29.8061 16.1946 29.9242 16.2597 30.0209 16.3491C30.1176 16.4386 30.1899 16.5496 30.2314 16.6724L30.5145 17.5085L30.8637 16.6691C30.9066 16.5663 30.9715 16.4733 31.0541 16.3962C31.1368 16.3191 31.2353 16.2597 31.3434 16.2216L32.1384 15.944L31.279 15.6043C31.1758 15.564 31.0823 15.5036 31.0044 15.4269C30.9266 15.3501 30.866 15.2588 30.8264 15.1585L30.5145 14.3812L30.2924 15.1046C30.2564 15.2213 30.1928 15.3283 30.1066 15.4172C30.0205 15.5062 29.914 15.5747 29.7958 15.6174Z" fill="#E0E0E0"/>
<path d="M72.1661 54.2458C73.234 53.715 74.4918 53.6464 75.6766 53.8342C76.314 53.9355 76.9768 54.12 77.4107 54.5806C77.8446 55.0411 77.9192 55.8527 77.4277 56.2479C77.1327 56.4831 76.7191 56.519 76.3343 56.5157C75.4071 56.5043 74.3782 56.3524 73.6357 56.8848C73.2137 57.1918 72.9323 57.7014 72.4254 57.8532C71.9186 58.0051 71.3728 57.7193 71.1118 57.2898C70.8705 56.8417 70.8171 56.3214 70.9626 55.8364C71.0224 55.4999 71.1622 55.1812 71.371 54.9053C71.5797 54.6294 71.8519 54.4037 72.1661 54.2458Z" fill="#EBEBEB"/>
<path d="M69.7202 49.6959C70.3728 50.5941 71.6424 50.2969 72.2306 49.7482C72.8188 49.1995 73.068 48.4058 73.2935 47.6481C73.802 45.917 74.3325 44.0994 73.9478 42.3373C73.8552 41.8025 73.6119 41.3026 73.2443 40.892C72.8595 40.5017 72.2679 40.2698 71.7187 40.4021C71.0797 40.5654 70.6813 41.168 70.3949 41.7429C69.5469 43.438 69.1033 45.2944 69.0964 47.1761C69.0964 48.0514 69.1998 48.9725 69.7117 49.691" fill="#EBEBEB"/>
<path d="M67.9286 50.9846C68.6371 50.1681 68.7761 48.9923 68.4557 47.9782C68.1354 46.964 67.4285 46.0985 66.6064 45.393C65.6398 44.5648 64.5155 43.9253 63.2959 43.5101C62.823 43.3272 62.3149 43.2442 61.8059 43.2667C61.5519 43.2811 61.3053 43.355 61.0876 43.4819C60.87 43.6088 60.6877 43.785 60.5566 43.9951C60.2074 44.6353 60.5414 45.4126 60.9041 46.0462C61.5405 47.1636 62.2677 48.2306 63.0789 49.2373C63.7298 50.0538 64.4774 50.8458 65.4707 51.2116C66.464 51.5775 67.5048 51.5383 68.0133 50.8703" fill="#EBEBEB"/>
<path d="M69.676 63.2473C69.7103 63.1136 69.7302 62.9768 69.7353 62.8391C69.7659 62.5419 69.8032 62.1679 69.8472 61.7253C69.9052 61.177 69.9923 60.6319 70.1083 60.0922C70.2598 59.4346 70.4656 58.7897 70.7236 58.1636C70.9763 57.5393 71.3186 56.9522 71.7406 56.4195C72.0872 55.9866 72.5288 55.633 73.034 55.3841C73.3766 55.2207 73.7439 55.1105 74.1222 55.0575C74.2647 55.0524 74.4062 55.0326 74.5443 54.9987C74.4012 54.9842 74.2569 54.9842 74.1138 54.9987C73.7212 55.0277 73.3372 55.124 72.9797 55.2829C72.4502 55.526 71.9862 55.8837 71.6237 56.328C71.1801 56.8669 70.8229 57.467 70.5642 58.1081C70.3014 58.7429 70.0966 59.3986 69.9523 60.0678C69.8418 60.6142 69.7665 61.1667 69.7269 61.7221C69.6896 62.1956 69.676 62.5778 69.6692 62.8423C69.6565 62.9772 69.6588 63.113 69.676 63.2473Z" fill="#E0E0E0"/>
<path d="M69.7557 62.39C69.768 62.3276 69.772 62.264 69.7675 62.2006C69.7675 62.0585 69.7675 61.874 69.7675 61.6584C69.7675 61.1881 69.7675 60.5153 69.793 59.6693C69.8353 57.9889 69.9862 56.1811 70.2761 53.627C70.5507 51.2296 70.9185 48.4403 71.3084 46.6276C71.3914 46.2145 71.4779 45.8437 71.5541 45.5188C71.6304 45.1938 71.6915 44.9178 71.7542 44.6859C71.8169 44.454 71.8508 44.2989 71.8864 44.16C71.9054 44.0995 71.9168 44.037 71.9203 43.9739C71.8908 44.03 71.8681 44.0892 71.8525 44.1502C71.8101 44.2874 71.7559 44.4589 71.683 44.6696C71.6101 44.8802 71.5355 45.1742 71.4507 45.4992C71.366 45.8241 71.2694 46.1916 71.1778 46.6048C70.6963 48.7495 70.3342 50.9175 70.093 53.0995C69.8031 55.6536 69.6726 57.9791 69.6607 59.6628C69.6506 60.5055 69.6607 61.1865 69.6912 61.6568C69.7048 61.8772 69.7167 62.0569 69.7252 62.199C69.7283 62.2635 69.7386 62.3275 69.7557 62.39Z" fill="#E0E0E0"/>
<path d="M69.7677 57.9039C69.7828 57.7158 69.7828 57.5269 69.7677 57.3388C69.7456 56.9747 69.6931 56.4488 69.588 55.8054C69.4586 55.0525 69.2854 54.3072 69.0693 53.573C68.8168 52.6691 68.4927 51.7851 68.0997 50.929C67.2844 49.0951 66.2012 47.5894 65.2503 46.6585C65.0373 46.4455 64.8109 46.2453 64.5722 46.0592C64.4688 45.9759 64.379 45.8959 64.2858 45.8257L64.0264 45.6542C63.8703 45.5396 63.7048 45.4375 63.5315 45.3488C63.5043 45.3847 64.2315 45.7979 65.152 46.7418C66.3217 47.9975 67.2607 49.4362 67.9285 50.996C68.313 51.8452 68.6386 52.7181 68.9032 53.6089C69.1574 54.4254 69.3253 55.1832 69.4541 55.8201C69.5829 56.457 69.6456 56.9763 69.688 57.3372C69.6989 57.5278 69.7255 57.7173 69.7677 57.9039Z" fill="#E0E0E0"/>
<path d="M65.2672 65.816L65.7334 71.9744H73.9461L74.4122 65.816H65.2672Z" fill="#E0E0E0"/>
<path d="M64.4756 63.3893H75.392V65.8161H64.4756V63.3893Z" fill="#E0E0E0"/>
<path d="M64.474 71.7394V72.4122H64.9876H75.2107V71.7394H64.474Z" fill="#EBEBEB"/>
<path d="M65.4908 73.5963L64.9874 72.4124H74.8206L74.2324 73.5963H65.4908Z" fill="#E0E0E0"/>
<path d="M74.2596 67.8301C74.2488 67.85 74.2357 67.8686 74.2207 67.8857L74.0986 68.049L73.6206 68.6401L73.5986 68.6663L73.5782 68.6385L72.4035 67.0593H72.4713L71.3136 68.6369L71.278 68.6875L71.2373 68.6401L69.8643 67.0675H69.944L69.8677 67.1573L68.6404 68.6467L68.5997 68.6957L68.5625 68.645L67.4047 67.0593H67.4725L66.0469 68.6254L66.0215 68.6532L66.0029 68.6205L65.5554 67.8987C65.5096 67.8203 65.4706 67.7567 65.4418 67.706C65.4273 67.6845 65.4154 67.6615 65.4062 67.6374C65.4248 67.656 65.4407 67.6769 65.4537 67.6995C65.4876 67.7469 65.5282 67.8089 65.5808 67.884L66.0486 68.5928H66.0046C66.3707 68.1813 66.8521 67.6423 67.4081 67.0087L67.442 66.9695L67.4742 67.012C67.8302 67.4888 68.2217 68.0179 68.6421 68.583H68.5641L69.788 67.0985L69.8643 67.0071L69.9033 66.9597L69.9423 67.0054L71.3119 68.5814H71.2339C71.656 68.0147 72.0492 67.4856 72.4035 67.012L72.4374 66.9646L72.4713 67.012L73.6206 68.5944H73.5799L74.0766 68.0196L74.2105 67.871C74.2342 67.8448 74.2579 67.8285 74.2596 67.8301Z" fill="#F5F5F5"/>
<path d="M74.5256 65.777C74.5256 65.8031 72.4678 65.826 69.9303 65.826C67.3927 65.826 65.3349 65.8031 65.3349 65.777C65.3349 65.7509 67.3927 65.7264 69.9303 65.7264C72.4678 65.7264 74.5256 65.7525 74.5256 65.777Z" fill="#F5F5F5"/>
<path d="M74.941 72.4777C74.941 72.5055 72.7052 72.5283 69.9473 72.5283C67.1894 72.5283 64.9536 72.5055 64.9536 72.4777C64.9536 72.4499 67.1877 72.4287 69.9473 72.4287C72.7069 72.4287 74.941 72.4483 74.941 72.4777Z" fill="#F5F5F5"/>
<path d="M6.22221 3.4082H25.1597V29.8542H6.22221V3.4082Z" fill="#E0E0E0"/>
<path d="M7.17143 3.4082H26.1089V29.8542H7.17143V3.4082Z" fill="#F5F5F5"/>
<path d="M9.52421 6.27289H23.7562V26.99H9.52421V6.27289Z" fill="white"/>
<path d="M9.52422 26.9883C9.52422 26.9883 9.52422 26.954 9.52422 26.887C9.52422 26.8201 9.52422 26.7237 9.52422 26.5947C9.52422 26.3334 9.52422 25.9529 9.52422 25.4516C9.52422 24.4587 9.52422 23.0118 9.53778 21.1827C9.53778 17.5312 9.55134 12.3641 9.55982 6.26624L9.51405 6.31033H23.7443L23.6918 6.26134C23.6918 14.0756 23.7002 21.2856 23.7019 26.9769L23.7443 26.9377L13.3839 26.9589L10.5226 26.9687H9.7717H9.51236C9.51236 26.9687 9.59542 26.9687 9.76323 26.9687H10.5057L13.3585 26.9785L23.7443 26.9997H23.785V26.9589C23.785 21.2644 23.785 14.0576 23.7952 6.24337V6.19275H23.7426H9.51236H9.48185V6.23847C9.48185 12.3413 9.4988 17.5246 9.50388 21.186C9.50388 23.0085 9.51405 24.4521 9.51744 25.4434C9.51744 25.9333 9.51744 26.3122 9.51744 26.5702C9.51744 26.696 9.51744 26.7923 9.51744 26.8593C9.51744 26.9262 9.52422 26.9883 9.52422 26.9883Z" fill="#E0E0E0"/>
<path d="M7.10868 3.4082C7.20709 3.5748 7.32053 3.73273 7.44769 3.88016C7.66805 4.16432 7.97995 4.54972 8.33592 4.96615C8.69189 5.38259 9.02582 5.75166 9.2733 6.01459C9.39934 6.16238 9.53828 6.29952 9.6886 6.42449C9.58282 6.26239 9.46197 6.10989 9.32754 5.96886L8.41559 4.90246L7.50533 3.83607C7.38659 3.68236 7.25385 3.53917 7.10868 3.4082Z" fill="#E0E0E0"/>
<path d="M9.45135 26.9232C8.74302 28.0067 7.90998 29.0098 6.96805 29.9133L9.45135 26.9232Z" fill="white"/>
<path d="M6.96805 29.9133C7.12647 29.8025 7.27197 29.6755 7.402 29.5344C7.73203 29.2112 8.04435 28.8716 8.33768 28.517C8.63151 28.1627 8.90647 27.7943 9.16149 27.4131C9.27469 27.2594 9.37179 27.0953 9.45135 26.9232C9.32281 27.0643 9.20605 27.215 9.10217 27.3739C8.89367 27.6564 8.59364 28.0418 8.25462 28.455C7.91561 28.8681 7.58507 29.2274 7.34436 29.4854C7.20904 29.6197 7.08332 29.7627 6.96805 29.9133Z" fill="#E0E0E0"/>
<path d="M26.1106 29.8331L23.6307 26.8854L26.1106 29.8331Z" fill="white"/>
<path d="M23.6308 26.8853C23.6087 26.9033 24.1393 27.5761 24.8309 28.391C25.2313 28.8932 25.6585 29.375 26.1107 29.8346C26.1327 29.8167 25.6021 29.1422 24.9105 28.329C24.2189 27.5157 23.6528 26.8657 23.6308 26.8853Z" fill="#E0E0E0"/>
<path d="M26.1089 3.40858C26.0869 3.39062 25.5479 4.01119 24.9037 4.79506C24.2596 5.57894 23.7596 6.22563 23.7816 6.2436C24.2085 5.80221 24.6103 5.33883 24.9851 4.85548C25.3864 4.39293 25.7615 3.90994 26.1089 3.40858Z" fill="#E0E0E0"/>
<path d="M13.9586 10.478H18.7234V23.5132H13.9586V10.478Z" fill="#E0E0E0"/>
<path d="M24.697 38.5176L23.8257 38.8328L24.5817 39.0401C24.7056 39.0734 24.819 39.1355 24.9121 39.2209C25.0052 39.3064 25.0751 39.4125 25.1157 39.5301L25.3886 40.3368L25.7276 39.5284C25.7685 39.4293 25.8308 39.3396 25.9102 39.2653C25.9897 39.191 26.0846 39.1338 26.1887 39.0973L26.9548 38.8295L26.1259 38.5029C26.027 38.4633 25.9374 38.4049 25.8625 38.3311C25.7876 38.2573 25.7291 38.1696 25.6903 38.0734L25.3903 37.3238L25.1767 38.0195C25.1424 38.1327 25.0812 38.2366 24.9979 38.3231C24.9146 38.4096 24.8116 38.4761 24.697 38.5176Z" fill="#164E63"/>
<path d="M54.429 19.0711L53.5578 19.3863L54.3138 19.592C54.4374 19.6257 54.5507 19.6879 54.6437 19.7733C54.7368 19.8587 54.8068 19.9646 54.8477 20.082L55.1206 20.8871L55.4596 20.0803C55.5007 19.981 55.5631 19.8912 55.6429 19.8168C55.7227 19.7425 55.818 19.6854 55.9224 19.6492L56.6869 19.3814L55.858 19.0548C55.7589 19.0155 55.6691 18.9571 55.5942 18.8833C55.5193 18.8094 55.4608 18.7216 55.4224 18.6253L55.1223 17.8773L54.9087 18.573C54.8744 18.6862 54.8132 18.7902 54.7299 18.8766C54.6467 18.9631 54.5437 19.0297 54.429 19.0711Z" fill="#164E63"/>
<path d="M56.8223 39.1561L56.4002 39.308L56.7663 39.4093C56.8264 39.4256 56.8815 39.4559 56.9267 39.4974C56.9719 39.539 57.0059 39.5906 57.0257 39.6477L57.1579 40.038L57.3274 39.6477C57.3473 39.5996 57.3775 39.5562 57.4161 39.5201C57.4546 39.4841 57.5007 39.4563 57.5511 39.4386L57.9224 39.308L57.5206 39.1447C57.4729 39.1253 57.4296 39.097 57.3932 39.0614C57.3568 39.0258 57.3281 38.9836 57.3087 38.9373L57.1647 38.5731L57.0613 38.9112C57.0442 38.9672 57.0136 39.0186 56.9721 39.0611C56.9306 39.1037 56.8792 39.1362 56.8223 39.1561Z" fill="#164E63"/>
<path d="M27.0363 34.4546L26.5904 34.6179L26.9786 34.724C27.042 34.7417 27.1 34.774 27.1475 34.8181C27.1951 34.8622 27.2308 34.9168 27.2515 34.9772L27.3922 35.3903L27.5617 34.9772C27.5829 34.9265 27.6148 34.8805 27.6554 34.8423C27.6959 34.8041 27.7443 34.7744 27.7974 34.7551L28.1906 34.6179L27.7651 34.4546C27.7145 34.4341 27.6686 34.404 27.6301 34.3661C27.5917 34.3283 27.5615 34.2834 27.5414 34.2341L27.3888 33.8503L27.2787 34.2064C27.2607 34.2629 27.2295 34.3146 27.1875 34.3577C27.1455 34.4007 27.0937 34.4339 27.0363 34.4546Z" fill="#164E63"/>
<path d="M56.3292 23.946L55.8834 24.1093L56.2699 24.2138C56.3338 24.2313 56.3923 24.2637 56.4402 24.3081C56.4881 24.3525 56.5239 24.4076 56.5445 24.4686L56.6852 24.8801L56.8547 24.4669C56.8764 24.4163 56.9087 24.3704 56.9495 24.3322C56.9903 24.294 57.0388 24.2643 57.092 24.2448L57.4869 24.1093L57.0615 23.946C57.0106 23.9257 56.9646 23.8957 56.9261 23.8578C56.8877 23.8199 56.8576 23.7749 56.8377 23.7255L56.6852 23.3417L56.575 23.6977C56.5567 23.7546 56.525 23.8066 56.4823 23.8497C56.4397 23.8927 56.3873 23.9257 56.3292 23.946Z" fill="#164E63"/>
<path d="M35.0421 15.4262C35.0421 15.4262 38.2729 12.9766 42.1784 13.7539C45.7652 14.4724 49.3825 17.0968 49.3825 17.0968L49.847 12.3886C49.847 12.3886 49.0486 13.3048 48.5824 13.1121C48.1163 12.9194 48.1146 9.44912 48.1146 9.44912C48.1146 9.44912 46.3805 11.6342 45.3804 11.4415C44.3803 11.2488 42.9785 6.87866 42.9785 6.87866C42.9785 6.87866 40.9105 10.6707 39.7104 10.798C38.5102 10.9254 37.5067 8.35659 37.5067 8.35659C37.5067 8.35659 36.7728 11.8269 35.9083 11.9869C35.0438 12.147 34.642 10.5416 34.642 10.5416L35.0421 15.4262Z" fill="#164E63"/>
<path d="M35.1438 10.5119C35.1438 10.6088 35.114 10.7035 35.0581 10.7841C35.0022 10.8646 34.9228 10.9274 34.8299 10.9645C34.737 11.0016 34.6347 11.0113 34.5361 10.9924C34.4374 10.9735 34.3468 10.9268 34.2757 10.8583C34.2046 10.7898 34.1561 10.7025 34.1365 10.6075C34.1169 10.5124 34.127 10.4139 34.1655 10.3244C34.2039 10.2349 34.2691 10.1584 34.3527 10.1045C34.4364 10.0507 34.5347 10.022 34.6353 10.022C34.7701 10.022 34.8995 10.0736 34.9949 10.1655C35.0902 10.2573 35.1438 10.382 35.1438 10.5119Z" fill="#164E63"/>
<path d="M37.4967 8.53288C37.2196 8.53288 36.9949 8.31646 36.9949 8.04949C36.9949 7.78252 37.2196 7.5661 37.4967 7.5661C37.7738 7.5661 37.9984 7.78252 37.9984 8.04949C37.9984 8.31646 37.7738 8.53288 37.4967 8.53288Z" fill="#164E63"/>
<path d="M43.004 7.10084C42.6969 7.10084 42.448 6.86102 42.448 6.56519C42.448 6.26936 42.6969 6.02954 43.004 6.02954C43.3111 6.02954 43.56 6.26936 43.56 6.56519C43.56 6.86102 43.3111 7.10084 43.004 7.10084Z" fill="#164E63"/>
<path d="M48.0571 9.79523C47.75 9.79523 47.5011 9.55542 47.5011 9.25959C47.5011 8.96376 47.75 8.72394 48.0571 8.72394C48.3642 8.72394 48.6131 8.96376 48.6131 9.25959C48.6131 9.55542 48.3642 9.79523 48.0571 9.79523Z" fill="#164E63"/>
<path d="M50.4521 12.1498C50.4521 12.2393 50.4246 12.3267 50.373 12.4011C50.3214 12.4755 50.2481 12.5335 50.1623 12.5677C50.0765 12.602 49.9821 12.6109 49.891 12.5935C49.7999 12.576 49.7163 12.5329 49.6506 12.4697C49.5849 12.4064 49.5402 12.3258 49.5221 12.2381C49.504 12.1503 49.5133 12.0594 49.5488 11.9767C49.5843 11.894 49.6445 11.8234 49.7217 11.7737C49.799 11.724 49.8897 11.6974 49.9826 11.6974C50.1071 11.6974 50.2266 11.7451 50.3146 11.8299C50.4027 11.9148 50.4521 12.0298 50.4521 12.1498Z" fill="#164E63"/>
<path d="M34.976 14.6257C34.976 14.6257 34.9896 14.6257 35.0116 14.6061L35.1099 14.5424C35.1981 14.4868 35.3167 14.3921 35.4863 14.2941C35.9558 14.0008 36.4543 13.753 36.9745 13.5544C37.7466 13.2616 38.5563 13.0709 39.3816 12.9877C39.8686 12.9392 40.3586 12.9239 40.8478 12.942C41.3723 12.9645 41.8945 13.0224 42.4107 13.1151C43.4087 13.3032 44.3828 13.5945 45.3161 13.9839C46.0782 14.3012 46.8182 14.6655 47.5315 15.0747C48.1418 15.4242 48.6232 15.728 48.952 15.9419L49.33 16.1901L49.4283 16.2522C49.4521 16.2669 49.4639 16.2734 49.4656 16.2718C49.4564 16.2621 49.4462 16.2534 49.4351 16.2457L49.3402 16.1754C49.2554 16.1166 49.1334 16.0252 48.9707 15.9158C48.6486 15.6921 48.1723 15.3801 47.5637 15.0241C46.8527 14.6047 46.1125 14.2331 45.3483 13.912C44.4113 13.5158 43.4319 13.2206 42.4276 13.0318C41.9071 12.9383 41.3803 12.8804 40.8512 12.8587C40.3579 12.8421 39.8639 12.8591 39.3731 12.9093C38.5419 12.9947 37.7272 13.1915 36.9525 13.4939C36.4303 13.6975 35.9324 13.9548 35.4676 14.2615C35.2981 14.3644 35.1845 14.464 35.0998 14.5228L35.0065 14.5946C34.9845 14.6159 34.9743 14.6257 34.976 14.6257Z" fill="#263238"/>
<g opacity="0.3">
<path d="M41.8886 10.8142C41.933 10.6792 42.0118 10.557 42.1178 10.4589C42.2238 10.3607 42.3537 10.2897 42.4955 10.2524C42.6149 10.2289 42.7387 10.2368 42.8538 10.2753C42.969 10.3138 43.0712 10.3815 43.1498 10.4712L43.1413 10.4565C43.3351 10.6692 43.4401 10.9436 43.436 11.2265C43.432 11.5095 43.3191 11.7809 43.1193 11.9884C43.0408 12.0775 42.9405 12.1465 42.8275 12.189C42.7144 12.2314 42.5922 12.2461 42.4718 12.2317C42.1887 12.1778 42.0039 11.9051 41.9124 11.6454C41.8124 11.3779 41.8041 11.0866 41.8886 10.8142Z" fill="black"/>
</g>
<path d="M43.0041 11.8972C43.0126 11.8972 43.0821 11.8384 43.1516 11.7045C43.241 11.5276 43.279 11.3306 43.2617 11.1346C43.2444 10.9385 43.1724 10.7506 43.0533 10.5907C42.9617 10.4699 42.8838 10.4176 42.8736 10.4274C42.8634 10.4372 42.9261 10.5042 43.0007 10.6267C43.0984 10.7844 43.1575 10.9616 43.1737 11.1446C43.1898 11.3277 43.1626 11.5119 43.0939 11.6833C43.0597 11.7528 43.0297 11.8242 43.0041 11.8972Z" fill="white"/>
<g opacity="0.3">
<path d="M46.3554 12.5423C46.4058 12.47 46.4744 12.4112 46.5547 12.3712C46.6349 12.3313 46.7244 12.3115 46.8148 12.3136C46.8881 12.3203 46.9582 12.3458 47.0178 12.3874C47.0775 12.4291 47.1244 12.4854 47.1538 12.5504V12.5406C47.2292 12.6989 47.2413 12.8784 47.1878 13.0448C47.1343 13.2111 47.019 13.3526 46.8639 13.4421C46.8015 13.4814 46.73 13.5051 46.6557 13.5111C46.5814 13.517 46.5068 13.5051 46.4384 13.4764C46.3645 13.4285 46.3048 13.3627 46.2656 13.2856C46.2263 13.2085 46.2088 13.1228 46.2147 13.0371C46.2052 12.8619 46.2545 12.6884 46.3554 12.5423Z" fill="black"/>
</g>
<path d="M46.806 13.3634C46.806 13.3634 46.8671 13.3487 46.9366 13.2817C47.0242 13.1906 47.083 13.0773 47.1061 12.9551C47.1327 12.834 47.1221 12.708 47.0756 12.5926C47.04 12.5044 46.9993 12.4619 46.9891 12.4668C47.0275 12.6207 47.0378 12.7798 47.0196 12.9371C46.9741 13.0899 46.9019 13.234 46.806 13.3634Z" fill="white"/>
<g opacity="0.3">
<path d="M37.4136 11.6734C37.4332 11.5886 37.4745 11.5098 37.5337 11.4442C37.5929 11.3787 37.6682 11.3283 37.7526 11.2978C37.8242 11.2766 37.9004 11.2747 37.973 11.2923C38.0456 11.3098 38.1118 11.3462 38.1645 11.3974C38.2941 11.5185 38.373 11.6813 38.3861 11.8547C38.3992 12.0282 38.3457 12.2002 38.2357 12.3381C38.1915 12.3956 38.1332 12.4417 38.0661 12.4724C37.9991 12.5032 37.9252 12.5176 37.8509 12.5145C37.7646 12.4953 37.6848 12.4552 37.6189 12.3981C37.5531 12.3409 37.5034 12.2686 37.4746 12.1879C37.3969 12.0273 37.3755 11.8467 37.4136 11.6734Z" fill="black"/>
</g>
<path d="M38.173 12.2923C38.1831 12.2923 38.2255 12.2547 38.2645 12.1698C38.3124 12.0549 38.3264 11.9294 38.3052 11.8073C38.2821 11.6851 38.2233 11.5718 38.1357 11.4807C38.0696 11.4121 38.0136 11.3876 38.0069 11.3957C38.1017 11.5249 38.1723 11.6692 38.2154 11.822C38.2291 11.9799 38.2148 12.139 38.173 12.2923Z" fill="white"/>
<g opacity="0.3">
<path d="M48.5181 14.3893C48.5641 14.3465 48.6204 14.3155 48.682 14.299C48.7435 14.2824 48.8084 14.2809 48.8707 14.2946C48.9218 14.3089 48.9679 14.3364 49.0041 14.3741C49.0402 14.4118 49.065 14.4583 49.0758 14.5085C49.1036 14.6291 49.0845 14.7553 49.022 14.8631C48.9594 14.9709 48.8579 15.0528 48.7368 15.0932C48.6875 15.1111 48.6344 15.1173 48.5821 15.111C48.5298 15.1047 48.4799 15.0863 48.4367 15.0572C48.3933 15.0131 48.3624 14.959 48.347 14.9001C48.3316 14.8412 48.3321 14.7795 48.3486 14.7208C48.3648 14.5951 48.4245 14.4783 48.5181 14.3893Z" fill="black"/>
</g>
<path d="M48.7165 15.0405C48.7165 15.0503 48.7657 15.0405 48.8267 15.0078C48.9022 14.9588 48.9611 14.8895 48.9962 14.8086C49.0338 14.7265 49.0445 14.6353 49.0267 14.5473C49.0132 14.4803 48.9877 14.4444 48.9776 14.4477C48.9674 14.4509 48.9911 14.611 48.9149 14.7743C48.8386 14.9376 48.7047 15.0192 48.7165 15.0405Z" fill="white"/>
<g opacity="0.3">
<path d="M35.1729 13.244C35.1598 13.1835 35.1627 13.1209 35.1814 13.0618C35.2 13.0027 35.2338 12.9491 35.2797 12.906C35.3198 12.872 35.3689 12.8493 35.4215 12.8404C35.4741 12.8315 35.5283 12.8366 35.578 12.8553C35.6984 12.8976 35.7984 12.9811 35.859 13.0898C35.9196 13.1985 35.9367 13.3248 35.9069 13.4449C35.8965 13.4949 35.8734 13.5417 35.8397 13.581C35.806 13.6203 35.7627 13.651 35.7136 13.6702C35.6521 13.681 35.5888 13.6766 35.5296 13.6574C35.4703 13.6383 35.417 13.6051 35.3746 13.5608C35.2728 13.4796 35.2019 13.3682 35.1729 13.244Z" fill="black"/>
</g>
<path d="M35.8491 13.4319C35.8609 13.4319 35.8796 13.3944 35.8796 13.3258C35.879 13.2362 35.8508 13.1488 35.7986 13.0746C35.7464 13.0005 35.6725 12.943 35.5863 12.9093C35.5202 12.8848 35.4761 12.8865 35.4728 12.8979C35.4694 12.9093 35.6219 12.973 35.7253 13.1233C35.8287 13.2735 35.8236 13.4303 35.8491 13.4319Z" fill="white"/>
<path d="M51.6811 13.5627C52.0479 13.5058 52.4095 13.4212 52.7626 13.3096C53.1233 13.2246 53.4764 13.1121 53.8186 12.9732C53.4522 13.0304 53.0912 13.1156 52.7388 13.228C52.3775 13.3122 52.0238 13.4241 51.6811 13.5627Z" fill="#263238"/>
<path d="M49.647 10.228C49.9982 9.82243 50.3264 9.39885 50.6302 8.95912C50.9591 8.53637 51.2636 8.0964 51.5421 7.64124C51.1915 8.04731 50.8634 8.47086 50.559 8.91013C50.23 9.33289 49.9255 9.77286 49.647 10.228Z" fill="#263238"/>
<path d="M45.5604 8.3923C45.5841 8.3923 45.7502 7.52514 45.9316 6.44894C46.113 5.37275 46.2401 4.48926 46.2164 4.48926C46.1927 4.48926 46.0265 5.35479 45.8452 6.43098C45.6638 7.50717 45.5367 8.3874 45.5604 8.3923Z" fill="#263238"/>
<path d="M38.9578 3C38.9508 3.0646 38.9508 3.12973 38.9578 3.19434C38.9578 3.32008 38.9764 3.49972 38.9968 3.72182C39.0358 4.16765 39.1053 4.78168 39.2087 5.45614C39.3121 6.1306 39.4273 6.7381 39.5223 7.17413C39.568 7.39296 39.6104 7.56934 39.6409 7.69182C39.6516 7.75603 39.671 7.81862 39.6985 7.87799C39.6974 7.81315 39.6894 7.74859 39.6748 7.68528C39.6494 7.54321 39.6189 7.3701 39.5833 7.16433C39.5036 6.7234 39.3985 6.1159 39.2951 5.44308C39.1917 4.77025 39.1137 4.15948 39.0578 3.71529C39.0318 3.50843 39.0098 3.33369 38.9917 3.19107C38.9883 3.12631 38.9769 3.06217 38.9578 3Z" fill="#263238"/>
<path d="M33.9523 6.89459C34.234 7.30236 34.5402 7.69388 34.8694 8.06714C35.176 8.45814 35.506 8.83165 35.8576 9.18579C35.575 8.77826 35.2682 8.38676 34.9389 8.01325C34.6325 7.62247 34.3031 7.24897 33.9523 6.89459Z" fill="#263238"/>
<path d="M30.9674 12.034C31.3871 12.1176 31.8125 12.1722 32.2404 12.1973C32.6658 12.2515 33.0945 12.2777 33.5236 12.2757C33.103 12.1935 32.6771 12.1389 32.2489 12.1124C31.824 12.0587 31.3959 12.0325 30.9674 12.034Z" fill="#263238"/>
<path d="M18.9135 47.8472C18.9135 47.8472 20.412 47.9566 20.3153 48.5348C20.2187 49.1129 19.4932 49.4362 18.605 49.3072L17.8134 48.3633L18.9135 47.8472Z" fill="#EB996E"/>
<path d="M20.8256 54.6475L19.0797 61.6207L13.6401 53.782L9.74143 54.9578C9.74143 54.9578 17.4405 71.8421 19.3017 71.5612C21.1629 71.2803 22.6919 71.1611 23.614 69.2749C24.5362 67.3887 26.733 60.422 26.733 60.422L27.3975 57.3388L21.0341 54.6475" fill="#FFBE9D"/>
<path d="M21.5732 44.9388C21.5732 44.9388 14.6725 45.9448 14.3928 46.1375C14.1131 46.3302 9.29737 51.0857 9.25669 52.4379C9.24502 53.2979 9.40857 54.1518 9.73809 54.9512L13.5503 54.1004L15.3149 52.0133C15.3149 52.0133 16.7591 52.0509 17.1202 51.819C17.4812 51.5871 17.883 51.0024 17.7982 50.6987C17.7982 50.6987 18.8814 50.6595 18.6 49.3073C18.6 49.3073 19.8442 48.5724 19.0017 47.9159C18.1593 47.2594 16.5947 47.0259 16.5947 47.0259C16.5947 47.0259 20.846 46.4086 21.3274 45.9448C21.4655 45.8183 21.5622 45.6558 21.6059 45.4771C21.6495 45.2984 21.6382 45.1114 21.5732 44.9388Z" fill="#FFBE9D"/>
<path d="M16.1419 48.4238C16.1419 48.45 16.7063 48.5349 17.3657 48.7749C18.0251 49.015 18.5133 49.3057 18.5269 49.2828C18.4351 49.1991 18.3312 49.1286 18.2184 49.0738C17.9564 48.9244 17.6813 48.7976 17.3962 48.6949C17.1114 48.5914 16.8176 48.5127 16.5182 48.4597C16.3953 48.4297 16.2685 48.4176 16.1419 48.4238Z" fill="#EB996E"/>
<path d="M15.5369 50.1074C15.5369 50.1319 16.037 50.2021 16.6404 50.3556C17.2439 50.5091 17.7202 50.6822 17.7303 50.6594C17.6382 50.5975 17.5371 50.5491 17.4303 50.5156C16.9297 50.3222 16.4057 50.1905 15.8708 50.1237C15.761 50.1019 15.6484 50.0964 15.5369 50.1074Z" fill="#EB996E"/>
<path d="M12.162 54.6881C12.4316 54.5966 12.6911 54.4795 12.9366 54.3386C13.1959 54.222 13.4419 54.0797 13.6706 53.914C13.4006 54.0047 13.1411 54.1218 12.8959 54.2635C12.6367 54.3801 12.3907 54.5224 12.162 54.6881Z" fill="#EB996E"/>
<path d="M19.2439 64.9441C19.2544 64.385 19.234 63.8257 19.1829 63.2686C19.1634 62.7096 19.1136 62.152 19.0337 61.598C19.01 61.598 19.0337 62.3492 19.0947 63.2735C19.1558 64.1978 19.2202 64.9458 19.2439 64.9441Z" fill="#EB996E"/>
<path d="M28.2974 42.1924C28.9043 41.3498 29.6959 40.6231 30.1451 39.6938C30.4134 39.0752 30.6007 38.4268 30.7028 37.7636L33.7692 22.2494L49.9115 20.5657C52.33 24.7665 53.6282 29.4801 53.6899 34.2835C53.717 36.7576 53.5305 39.5518 55.2985 41.3465C56.0443 42.1043 57.1241 42.653 57.4123 43.6687C57.6581 44.5277 57.2292 45.4423 57.3428 46.3274C57.475 47.366 58.3107 48.1662 58.9073 49.0399C59.7679 50.3062 60.1696 51.8111 60.0498 53.3202C59.9888 54.0388 59.7515 54.8275 59.1023 55.1868C58.7005 55.4089 58.2157 55.422 57.7462 55.4301C47.6164 55.6147 37.378 55.7894 27.4804 53.7089C27.0736 51.7672 26.6651 49.8107 26.6685 47.8298C26.6719 45.8489 27.1278 43.819 28.2974 42.1924Z" fill="#263238"/>
<path d="M52.6797 56.2301C52.6797 56.2301 52.6967 56.2089 52.7255 56.1664C52.7543 56.124 52.7967 56.0554 52.8509 55.9737C53.0043 55.7236 53.1402 55.4639 53.2577 55.1964C53.4389 54.7698 53.5746 54.3266 53.6629 53.8736C53.7772 53.2722 53.8086 52.6588 53.7561 52.0494C53.6874 51.3099 53.4885 50.587 53.1679 49.9118C52.8289 49.185 52.3288 48.4714 52.0135 47.6353C51.9357 47.4225 51.8756 47.204 51.8339 46.982C51.7946 46.7565 51.7776 46.528 51.783 46.2994C51.8079 45.8253 51.8927 45.3558 52.0356 44.9015C52.1695 44.4361 52.3373 43.9674 52.478 43.4807C52.6279 42.989 52.7172 42.482 52.7441 41.9701C52.7882 40.9282 52.5746 39.9255 52.3339 38.9816C52.0932 38.0377 51.8084 37.1379 51.6169 36.2642C51.2689 34.718 51.0636 33.1452 51.0033 31.5642C50.9652 30.4983 50.9918 29.4312 51.0829 28.3683C51.1168 27.9927 51.1456 27.7003 51.1711 27.5027C51.1812 27.4064 51.1897 27.3313 51.1948 27.2774C51.1999 27.2235 51.1948 27.2006 51.1948 27.2006C51.1888 27.2254 51.1842 27.2505 51.1812 27.2757C51.1728 27.3296 51.1626 27.4048 51.1473 27.4995C51.1168 27.6971 51.0829 27.9894 51.0439 28.365C50.9387 29.4293 50.9025 30.4988 50.9355 31.5675C50.987 33.1531 51.1867 34.731 51.5321 36.2821C51.722 37.1575 51.9983 38.0606 52.2441 39.0028C52.4899 39.9451 52.695 40.938 52.6509 41.9652C52.6068 42.9924 52.2169 43.9429 51.9457 44.8803C51.8006 45.3426 51.7146 45.8203 51.6898 46.3027C51.6848 46.5368 51.703 46.7708 51.744 47.0016C51.7871 47.2238 51.8489 47.4423 51.9288 47.6549C52.2508 48.504 52.7509 49.2144 53.0933 49.9412C53.413 50.6084 53.6136 51.3228 53.6866 52.0543C53.7426 52.6583 53.7152 53.2668 53.6052 53.8638C53.5214 54.3147 53.3919 54.7567 53.2187 55.1833C53.1042 55.4512 52.9735 55.7124 52.8272 55.9656C52.7763 56.0483 52.7373 56.1136 52.7102 56.1615C52.6916 56.2056 52.6797 56.2301 52.6797 56.2301Z" fill="#455A64"/>
<path d="M39.7884 15.109C42.8667 15.0143 45.8517 15.6855 48.0469 17.766C50.0606 19.6767 50.9573 21.4486 51.1217 24.2493C51.1777 25.2095 50.7505 27.3244 50.3471 28.203C49.9437 29.0815 48.8215 31.3058 47.8875 31.6324C46.9535 31.959 46.4976 30.4207 45.8534 29.6923C45.4551 29.2481 45.2754 28.6635 45.0991 28.1017C44.355 25.7239 43.4549 23.3478 41.914 21.3555C40.3732 19.3631 38.1052 17.7823 35.5405 17.521L33.9031 17.4851C35.9863 15.5385 37.7577 15.1727 39.7884 15.109Z" fill="#455A64"/>
<path d="M37.2389 18.24L45.6059 21.2546C46.0049 21.3388 46.3567 21.5643 46.5914 21.8863C46.8262 22.2084 46.927 22.6036 46.8738 22.9939L43.9599 40.9969C43.7619 42.2266 43.1475 43.3588 42.2123 44.2173L41.2292 45.122C38.9866 47.1846 35.2167 46.3991 34.1878 43.5804C34.1248 43.4194 34.0826 43.2516 34.0623 43.0807C34.0488 42.9412 34.0431 42.801 34.0454 42.661C34.0368 41.7375 34.1288 40.8158 34.32 39.9109C34.4895 38.2958 34.5624 37.6327 34.5607 37.6474C34.559 37.6621 31.0908 36.7051 30.8688 32.1848C30.7586 29.9361 31.2909 26.3253 31.8248 23.3858C32.3062 20.7386 34.5149 17.6651 37.2389 18.24Z" fill="#FFBE9D"/>
<path d="M33.1777 26.6223C33.1593 26.7712 33.2023 26.9212 33.2974 27.0399C33.3924 27.1587 33.532 27.2368 33.6862 27.2576C33.7609 27.2714 33.8377 27.2707 33.9121 27.2555C33.9864 27.2403 34.0569 27.2109 34.1193 27.1691C34.1817 27.1272 34.2348 27.0737 34.2754 27.0118C34.316 26.9499 34.3433 26.8807 34.3558 26.8085C34.3737 26.6596 34.3305 26.5099 34.2356 26.3912C34.1406 26.2726 34.0012 26.1944 33.8472 26.1732C33.7726 26.1591 33.6957 26.1597 33.6212 26.1748C33.5467 26.1899 33.4762 26.2192 33.4137 26.2611C33.3513 26.303 33.2982 26.3566 33.2576 26.4186C33.2171 26.4807 33.1899 26.5499 33.1777 26.6223Z" fill="#263238"/>
<path d="M32.2641 25.3568C32.3302 25.4385 32.815 25.1674 33.4506 25.2376C34.0863 25.3078 34.5185 25.6638 34.5948 25.5953C34.6338 25.5659 34.5745 25.4319 34.388 25.2588C34.1333 25.0457 33.8167 24.9134 33.4811 24.88C33.1502 24.844 32.816 24.9103 32.5268 25.0694C32.3149 25.1919 32.2319 25.3193 32.2641 25.3568Z" fill="#263238"/>
<path d="M39.1834 27.1729C39.165 27.3218 39.208 27.4718 39.3031 27.5905C39.3981 27.7093 39.5377 27.7874 39.6919 27.8082C39.7666 27.822 39.8433 27.8213 39.9177 27.8061C39.9921 27.7909 40.0626 27.7615 40.125 27.7197C40.1874 27.6778 40.2405 27.6244 40.2811 27.5624C40.3217 27.5005 40.349 27.4314 40.3615 27.3591C40.3798 27.2102 40.3368 27.0602 40.2418 26.9415C40.1467 26.8227 40.0071 26.7446 39.8529 26.7238C39.7783 26.71 39.7015 26.7107 39.6271 26.7259C39.5527 26.7411 39.4822 26.7705 39.4198 26.8123C39.3574 26.8542 39.3043 26.9076 39.2637 26.9696C39.2231 27.0315 39.1958 27.1006 39.1834 27.1729Z" fill="#263238"/>
<path d="M38.6663 25.9282C38.7308 26.0115 39.2172 25.7388 39.8529 25.809C40.4886 25.8792 40.9191 26.2352 40.9971 26.1666C41.0344 26.1372 40.9767 26.0033 40.7886 25.8302C40.5348 25.6168 40.2185 25.4844 39.8834 25.4513C39.552 25.4155 39.2172 25.4818 38.9274 25.6408C38.7172 25.7649 38.6375 25.8923 38.6663 25.9282Z" fill="#263238"/>
<path d="M35.8338 30.4389C35.8338 30.4046 35.4524 30.2968 34.8167 30.1498C34.6574 30.1155 34.5065 30.0682 34.4912 29.9588C34.4982 29.7948 34.5573 29.6368 34.6608 29.5064C34.8557 29.1439 35.0625 28.7634 35.2778 28.3633C36.1406 26.7384 36.7847 25.3927 36.7152 25.36C36.6457 25.3274 35.8931 26.6191 35.0303 28.2457L34.4319 29.3888C34.3506 29.5603 34.2217 29.7514 34.2777 29.9947C34.2949 30.0523 34.3255 30.1053 34.3672 30.1497C34.4089 30.1942 34.4606 30.2288 34.5184 30.2511C34.6053 30.2848 34.6965 30.3073 34.7896 30.318C35.4269 30.4291 35.827 30.4781 35.8338 30.4389Z" fill="#263238"/>
<path d="M34.5607 37.647C36.7284 37.9108 38.9296 37.5897 40.919 36.7194C40.919 36.7194 39.012 39.6296 34.4438 38.7216L34.5607 37.647Z" fill="#EB996E"/>
<path d="M35.9255 31.9481C36.0631 31.8138 36.2341 31.7157 36.4222 31.6631C36.6104 31.6105 36.8093 31.6051 37.0002 31.6476C37.139 31.6746 37.2707 31.7284 37.3872 31.8059C37.5038 31.8834 37.6028 31.9829 37.6782 32.0983C37.7502 32.2101 37.7855 32.3402 37.7794 32.4716C37.7734 32.603 37.7263 32.7296 37.6443 32.8348C37.446 33.0488 37.0815 33.0635 36.7866 32.9475C36.4978 32.8133 36.2397 32.6252 36.0272 32.3939C35.9583 32.3376 35.9009 32.2695 35.8577 32.193C35.8385 32.1565 35.8308 32.1154 35.8357 32.0748C35.8405 32.0342 35.8576 31.9958 35.8848 31.9644" fill="#EB996E"/>
<path d="M37.6576 31.0627C37.5542 31.0464 37.478 31.716 36.8321 32.121C36.1863 32.526 35.4591 32.379 35.4439 32.4721C35.4286 32.5113 35.593 32.6174 35.9015 32.6599C36.306 32.7082 36.7152 32.618 37.0576 32.4051C37.3851 32.1999 37.6173 31.8802 37.7051 31.5135C37.7644 31.2375 37.7051 31.0644 37.6576 31.0627Z" fill="#263238"/>
<path d="M38.7103 23.0214C38.7849 23.1847 39.4172 23.0606 40.1732 23.0949C40.9292 23.1292 41.5496 23.2843 41.6377 23.1275C41.6767 23.0524 41.5598 22.9022 41.2987 22.7585C40.9578 22.5823 40.5797 22.4833 40.1932 22.4692C39.8066 22.455 39.4218 22.526 39.068 22.6768C38.807 22.8026 38.6764 22.943 38.7103 23.0214Z" fill="#263238"/>
<path d="M35.232 23.8998C35.1133 23.7447 34.554 23.8198 33.903 23.7365C33.2521 23.6532 32.7165 23.4899 32.5707 23.619C32.5046 23.6826 32.5707 23.8329 32.7944 23.9946C33.1047 24.2021 33.4658 24.3282 33.842 24.3604C34.2143 24.4054 34.5924 24.3559 34.9387 24.2167C35.1879 24.1089 35.2845 23.9766 35.232 23.8998Z" fill="#263238"/>
<path d="M44.711 30.2971C44.75 29.9705 45.2365 29.2291 45.5823 29.2144C46.5044 29.1752 48.1249 29.4201 47.8876 31.6379C47.5605 34.6688 44.4703 33.7266 44.4737 33.6384C44.4771 33.5502 44.5703 31.4403 44.711 30.2971Z" fill="#FFBE9D"/>
<path d="M45.5585 32.5867C45.5738 32.5867 45.6094 32.6291 45.6975 32.6798C45.8221 32.7462 45.9684 32.7637 46.106 32.7288C46.445 32.6438 46.7841 32.1637 46.8603 31.6199C46.8972 31.3605 46.8729 31.0965 46.7892 30.8475C46.7693 30.75 46.7254 30.6586 46.6611 30.581C46.5967 30.5033 46.5139 30.4418 46.4196 30.4016C46.3585 30.3797 46.2914 30.3787 46.2296 30.399C46.1678 30.4192 46.1152 30.4594 46.0806 30.5127C46.0298 30.5943 46.0433 30.6564 46.0264 30.6597C46.0094 30.6629 45.9636 30.6025 46.0026 30.48C46.0287 30.4068 46.0794 30.3442 46.1467 30.302C46.2405 30.2482 46.3524 30.2318 46.4586 30.2563C46.6993 30.2955 46.8942 30.5323 46.9807 30.7821C47.0858 31.0587 47.1195 31.3557 47.079 31.6477C46.9926 32.2552 46.6061 32.7908 46.1382 32.8757C46.0511 32.8908 45.9616 32.8869 45.8762 32.8643C45.7909 32.8417 45.7119 32.8009 45.645 32.7451C45.5568 32.6602 45.5467 32.5916 45.5585 32.5867Z" fill="#EB996E"/>
<path d="M33.8912 17.3826C34.9829 16.4321 36.4084 15.8948 37.856 15.6368C39.1082 15.404 40.3958 15.4124 41.6446 15.6613C44.4516 15.8246 47.8248 19.8436 48.3249 22.5088C48.5639 23.7793 48.3774 25.0874 48.1367 26.3579C48.0147 27.0112 47.874 27.6644 47.5435 28.2343C47.2129 28.8043 46.662 29.3007 45.9925 29.4183C45.3229 29.5359 44.5499 29.1831 44.3499 28.5544C44.199 28.0841 44.377 27.5599 44.2363 27.0846C43.9143 26.0003 42.226 25.8353 41.7395 24.8081C41.3886 24.0684 41.7971 23.1359 41.4106 22.4124C41.0241 21.689 40.0935 21.5208 39.3392 21.1925C38.7181 20.9114 38.1751 20.4923 37.7549 19.9696C37.3347 19.447 37.0493 18.8357 36.922 18.186H36.8593C33.7929 18.0946 32.4114 21.2089 31.952 22.481C31.8297 21.5438 31.9419 20.592 32.2793 19.705C32.6166 18.8181 33.1693 18.0218 33.8912 17.3826Z" fill="#263238"/>
<path d="M46.5926 19.1642C46.56 19.1598 46.5269 19.1598 46.4943 19.1642L46.2146 19.1968C46.0925 19.2132 45.9434 19.2295 45.7705 19.2442C45.5976 19.2589 45.4009 19.2818 45.1823 19.2932C44.7466 19.3275 44.2246 19.3422 43.6465 19.3406C43.0685 19.3389 42.4328 19.303 41.7684 19.2393C41.1039 19.1756 40.4767 19.076 39.9038 18.9649C39.3308 18.8539 38.8308 18.7314 38.4121 18.6106C38.2002 18.5567 38.0121 18.4963 37.8476 18.4473C37.6832 18.3983 37.5391 18.3525 37.4239 18.3117L37.156 18.2252C37.1257 18.2126 37.0938 18.2038 37.0611 18.199C37.0885 18.2164 37.1181 18.2301 37.1493 18.2399L37.412 18.3427C37.5256 18.3885 37.6663 18.4391 37.8307 18.493C37.9951 18.5469 38.1833 18.6122 38.3935 18.671C38.8121 18.7984 39.3207 18.9225 39.8885 19.0433C40.4564 19.1642 41.0869 19.2556 41.7531 19.3259C42.4193 19.3961 43.0583 19.4173 43.6397 19.4206C44.2212 19.4238 44.7433 19.3977 45.1806 19.3553C45.3993 19.3406 45.5959 19.3144 45.7688 19.2932C45.9417 19.272 46.0908 19.2524 46.2112 19.2311L46.4909 19.1821C46.5253 19.1792 46.5593 19.1731 46.5926 19.1642Z" fill="#455A64"/>
<path d="M47.8097 20.946C47.7701 20.9493 47.7309 20.9565 47.6927 20.9672L47.3537 21.0423L47.113 21.0978C47.0249 21.1174 46.9282 21.1305 46.8248 21.1485C46.6164 21.1795 46.3824 21.2318 46.118 21.2513L45.7061 21.2938C45.562 21.3101 45.4111 21.3069 45.2552 21.315C44.945 21.3363 44.6128 21.315 44.2636 21.315C43.5086 21.2683 42.7599 21.1524 42.0277 20.9688C41.2957 20.7732 40.5841 20.5124 39.9021 20.1899L39.4478 19.9612C39.3004 19.891 39.1681 19.7979 39.0325 19.7261C38.8969 19.6542 38.7681 19.5791 38.6511 19.4974L38.3121 19.2688C38.0901 19.13 37.9104 18.9765 37.7426 18.8524C37.6612 18.7903 37.5815 18.7331 37.5137 18.676L37.3307 18.5127L37.073 18.2955C37.044 18.2691 37.0129 18.2451 36.9798 18.2236C37.0033 18.2544 37.0306 18.2824 37.0611 18.3069L37.3035 18.5568L37.4832 18.7201C37.5493 18.7789 37.6273 18.8377 37.7087 18.903C37.8782 19.0304 38.0477 19.1871 38.2731 19.3309L38.6121 19.5644C38.7291 19.6477 38.863 19.7179 38.9952 19.7995C39.1275 19.8812 39.2614 19.9629 39.4105 20.0396L39.8648 20.2731C40.5504 20.5999 41.2667 20.8629 42.004 21.0586C42.7445 21.2417 43.5019 21.3544 44.2653 21.3951C44.5984 21.4115 44.9322 21.4115 45.2654 21.3951C45.4213 21.3853 45.5739 21.3951 45.718 21.3689L46.1333 21.3216C46.3994 21.2987 46.6333 21.2399 46.8418 21.204C46.9452 21.1844 47.0418 21.1697 47.13 21.1468L47.3673 21.0831L47.6978 20.9933C47.7367 20.9813 47.7742 20.9654 47.8097 20.946Z" fill="#455A64"/>
<path d="M45.0281 34.3976C45.0281 34.3976 45.0281 34.4123 45.0281 34.44C45.0273 34.4812 45.0313 34.5222 45.04 34.5625C45.0767 34.7105 45.1624 34.8429 45.2841 34.9398C45.4635 35.0869 45.6893 35.1715 45.9248 35.1798C46.0696 35.1832 46.2133 35.1546 46.3449 35.0963C46.4765 35.038 46.5926 34.9515 46.6842 34.8434C46.7792 34.7383 46.8497 34.6149 46.8912 34.4814C46.9327 34.3479 46.9442 34.2074 46.9249 34.0693C46.8865 33.8463 46.7762 33.6406 46.6096 33.4814C46.5003 33.3738 46.3686 33.2898 46.2231 33.2348C46.1697 33.2119 46.1121 33.1991 46.0536 33.1973C46.2447 33.2712 46.4178 33.3824 46.5622 33.5239C46.711 33.6789 46.8079 33.8735 46.8402 34.0824C46.8549 34.2096 46.8416 34.3384 46.801 34.4603C46.7604 34.5822 46.6934 34.6944 46.6045 34.7895C46.5213 34.8883 46.4161 34.9678 46.2967 35.0221C46.1773 35.0764 46.0467 35.104 45.9146 35.1031C45.6955 35.0984 45.4839 35.0256 45.3112 34.8957C45.1939 34.809 45.106 34.6908 45.0586 34.556C45.0349 34.458 45.0383 34.3976 45.0281 34.3976Z" fill="#E0E0E0"/>
<path d="M37.3865 30.4683C37.3865 30.4944 37.7085 30.5777 38.0645 30.7818C38.4205 30.9859 38.6544 31.2178 38.673 31.1999C38.5209 31.001 38.3287 30.8336 38.108 30.7079C37.8872 30.5822 37.6424 30.5007 37.3882 30.4683H37.3865Z" fill="#EB996E"/>
<path d="M46.184 41.4638L44.038 40.724L34.2303 40.3663L30.8536 41.3151C30.8536 41.3151 35.1456 46.6014 38.8697 46.2372C42.5938 45.8731 46.184 41.4638 46.184 41.4638Z" fill="#FFBE9D"/>
<path d="M25.1632 43.5524L25.8175 46.5263L27.3939 58.6796C27.3939 58.6796 21.8527 58.0459 20.0779 55.0084V54.5022C20.0779 54.5022 23.6969 43.9607 25.1632 43.5524Z" fill="#164E63"/>
<path d="M25.1634 43.5527L31.1403 40.9578C31.1403 40.9578 32.3879 43.3616 37.5121 44.0606C42.6364 44.7596 46.4028 41.2844 46.4028 41.2844C46.4028 41.2844 48.2437 42.1695 50.8711 43.1183L50.5202 58.3663L49.4693 61.5312C49.4693 61.5312 50.388 65.9617 50.7168 67.2911C51.0457 68.6204 50.1253 69.1821 50.1253 69.1821L50.5863 73.5914H25.0295L26.6025 64.8823L25.1634 43.5527Z" fill="#164E63"/>
<path d="M50.871 43.1149C50.871 43.1149 54.1323 44.503 55.307 47.0784C56.3071 49.2716 58.2717 54.8175 58.2717 54.8175L49.9946 58.6797V47.7888L50.871 43.1149Z" fill="#164E63"/>
<path d="M52.2745 50.9796C52.2508 50.9796 51.766 52.825 51.2032 55.1129C50.6404 57.4009 50.1963 59.2593 50.22 59.2658C50.2438 59.2724 50.7286 57.4204 51.2896 55.1325C51.8507 52.8446 52.2982 50.9845 52.2745 50.9796Z" fill="#263238"/>
<path d="M25.4157 48.5662C25.4135 48.5797 25.4135 48.5935 25.4157 48.607C25.4157 48.6397 25.4157 48.6805 25.4157 48.7311C25.4225 48.8454 25.431 49.0022 25.4411 49.2014C25.4683 49.6162 25.5073 50.2058 25.553 50.9308C25.6564 52.4006 25.7971 54.4126 25.9531 56.6384C26.109 58.8643 26.27 60.8844 26.3802 62.3444C26.4379 63.0695 26.4853 63.6508 26.5192 64.0722C26.5379 64.2714 26.5514 64.4282 26.5616 64.5425C26.5616 64.5915 26.5718 64.6323 26.5752 64.6634C26.5734 64.6775 26.5734 64.6917 26.5752 64.7058C26.5771 64.6917 26.5771 64.6774 26.5752 64.6634C26.5752 64.6307 26.5752 64.5899 26.5752 64.5409C26.5752 64.4266 26.5599 64.2698 26.548 64.0705C26.5226 63.6541 26.4836 63.0646 26.4379 62.3395C26.3345 60.8697 26.1921 58.8578 26.0361 56.6237C25.8802 54.3897 25.7191 52.3859 25.6107 50.9194C25.5513 50.1943 25.5039 49.613 25.4717 49.19C25.453 48.9924 25.4395 48.8356 25.4293 48.7213C25.4293 48.6723 25.4191 48.6315 25.4157 48.5988C25.4173 48.588 25.4173 48.577 25.4157 48.5662Z" fill="#263238"/>
<path d="M29.8232 41.4982C29.8232 41.4982 29.8316 41.5129 29.8537 41.5374L29.9486 41.6419C30.0367 41.7317 30.152 41.877 30.33 42.0371C30.8151 42.5047 31.3523 42.9193 31.9319 43.2733C32.1115 43.3942 32.3149 43.4938 32.5184 43.6114C32.7218 43.7289 32.9472 43.8269 33.1777 43.938C33.6724 44.1572 34.1821 44.3433 34.7033 44.4949C35.9014 44.8378 37.1473 45.0003 38.3969 44.9766C39.6455 44.9414 40.8837 44.7459 42.0787 44.3952C43.0525 44.1101 43.9963 43.7372 44.8976 43.2815C45.5059 42.9765 46.0951 42.6373 46.6622 42.2657C46.8639 42.1367 47.0131 42.0256 47.1181 41.9538L47.2351 41.8705C47.249 41.862 47.2616 41.8515 47.2724 41.8395L47.2283 41.864L47.108 41.9407C46.9995 42.0077 46.8486 42.1138 46.6435 42.238C46.0707 42.5982 45.4783 42.9285 44.8688 43.2276C43.9674 43.6738 43.0256 44.0395 42.0549 44.3201C40.8664 44.6647 39.6359 44.8568 38.3952 44.8917C36.6102 44.9293 34.8393 44.5799 33.2133 43.8694C32.9845 43.7632 32.7624 43.6604 32.5556 43.5526C32.3488 43.4448 32.1488 43.3403 31.9708 43.226C31.3914 42.8775 30.8512 42.4719 30.3588 42.0159C30.1774 41.8607 30.0588 41.7186 29.9673 41.6337L29.8655 41.5341C29.8529 41.5206 29.8387 41.5085 29.8232 41.4982Z" fill="#263238"/>
<path d="M50.8422 57.2458C50.941 57.2243 51.0379 57.1953 51.1321 57.1592C51.3168 57.0972 51.5813 57.0041 51.9067 56.8849C52.5593 56.6464 53.4543 56.2986 54.429 55.8854C55.4037 55.4723 56.2733 55.0689 56.8954 54.7635C57.2073 54.6116 57.4564 54.4859 57.6276 54.3961C57.7191 54.3538 57.807 54.3047 57.8904 54.2491C57.7947 54.2813 57.7017 54.3206 57.6124 54.3667L56.8682 54.7096C56.2394 54.9987 55.3664 55.3939 54.3934 55.807C53.4204 56.2202 52.5288 56.5762 51.8847 56.8293L51.1202 57.1282C51.0247 57.1607 50.9317 57.2 50.8422 57.2458Z" fill="#263238"/>
<path d="M20.0525 54.5023C20.1117 54.5671 20.1764 54.6272 20.2458 54.6819C20.3746 54.7929 20.5661 54.9481 20.8068 55.1343C21.4405 55.6133 22.1096 56.0473 22.8087 56.4326C23.5089 56.8158 24.2376 57.1488 24.9886 57.4287C25.2785 57.5349 25.5141 57.6149 25.6785 57.6639C25.763 57.693 25.8497 57.716 25.9379 57.7325C25.8583 57.6929 25.7755 57.6596 25.6904 57.6329C25.5294 57.5741 25.2971 57.4859 25.0123 57.3732C23.5272 56.787 22.1267 56.0186 20.8458 55.0869C20.6 54.9089 20.4034 54.7603 20.2678 54.6574C20.2014 54.5991 20.1293 54.5472 20.0525 54.5023Z" fill="#263238"/>
<path d="M31.937 59.9009C31.937 59.9091 32.0794 59.8176 32.3574 59.7099C32.7532 59.5661 33.1734 59.4947 33.5965 59.4992C34.2237 59.5133 34.8434 59.6338 35.4272 59.8552C36.0916 60.0904 36.7968 60.4186 37.546 60.7387L41.3854 62.3897L42.5533 62.8797L42.8737 63.0087C42.9098 63.0263 42.9479 63.04 42.9872 63.0495C42.9534 63.028 42.9177 63.0094 42.8805 62.994L42.5686 62.8503L41.4108 62.3342L37.5833 60.6603C36.8324 60.3337 36.1272 60.0071 35.4543 59.7801C34.8592 59.5588 34.2275 59.4426 33.5897 59.4371C33.1604 59.4379 32.7355 59.5194 32.3387 59.6772C32.233 59.7223 32.1305 59.7741 32.0319 59.8323C31.9985 59.8528 31.9667 59.8757 31.937 59.9009Z" fill="#263238"/>
<g opacity="0.3">
<path d="M42.7717 62.9585C41.2241 63.8975 39.1646 63.8861 37.517 63.1137C35.8693 62.3412 34.6201 60.94 33.7505 59.3903C36.8881 60.326 39.8121 61.7223 42.7717 62.9585Z" fill="black"/>
</g>
<g opacity="0.3">
<path d="M52.1982 51.3812C52.5219 53.6218 51.8253 56.2559 50.4726 58.1046C50.9089 55.8304 51.4932 53.5848 52.2219 51.3812" fill="black"/>
</g>
<path d="M51.3506 54.7667C51.3625 54.788 52.6795 54.1641 54.295 53.3737C55.9104 52.5833 57.2105 51.9252 57.1986 51.904C57.1868 51.8827 55.8697 52.5066 54.2543 53.297C52.6389 54.0874 51.337 54.7455 51.3506 54.7667Z" fill="white"/>
<path d="M52.2745 50.6434C52.2864 50.663 53.1221 50.2204 54.1391 49.6537C55.1562 49.0871 55.9647 48.6118 55.9529 48.5922C55.941 48.5726 55.1053 49.0136 54.0883 49.5802C53.0712 50.1469 52.261 50.6222 52.2745 50.6434Z" fill="white"/>
<path d="M23.031 46.7778C23.031 46.7778 23.0581 46.7778 23.1124 46.7925L23.3514 46.8268L24.2718 46.9492C24.6719 47.0031 25.1617 47.0652 25.7313 47.1256C26.3008 47.186 26.9501 47.2661 27.6688 47.3281L28.796 47.4343C29.1893 47.4702 29.5978 47.498 30.0216 47.5322C30.8691 47.6025 31.7726 47.6531 32.7252 47.7103C34.6322 47.8099 36.7307 47.8736 38.9326 47.8883C41.1345 47.903 43.2365 47.8344 45.1434 47.7462C46.0978 47.6939 47.008 47.6482 47.8556 47.5829C48.2793 47.5518 48.6879 47.5257 49.0811 47.4914L50.21 47.3934C50.9288 47.3346 51.578 47.2595 52.1475 47.2007C52.7171 47.1419 53.2087 47.0832 53.6087 47.0374L54.5308 46.9198L54.7698 46.8872L54.8512 46.8725H54.7681L54.5274 46.897L53.6053 46.9982C53.2036 47.044 52.7137 47.0979 52.1424 47.1517C51.5712 47.2056 50.9237 47.2759 50.2033 47.3314L49.076 47.4245C48.6828 47.4571 48.2743 47.48 47.8505 47.511C47.0029 47.5731 46.0995 47.6155 45.1468 47.6662C43.2398 47.7494 41.143 47.805 38.9411 47.8017C36.7392 47.7984 34.6424 47.725 32.7371 47.6384C31.7844 47.5829 30.8725 47.5355 30.0334 47.4751C29.6113 47.4424 29.2011 47.4163 28.8096 47.382L27.6823 47.2824C26.9619 47.2236 26.3144 47.1485 25.7449 47.0913C25.1753 47.0342 24.6837 46.977 24.2837 46.928L23.3599 46.8202L23.1192 46.7957L23.031 46.7778Z" fill="white"/>
<path d="M25.9753 53.2661C25.9753 53.2889 31.686 53.3085 38.7308 53.3085C45.7756 53.3085 51.4863 53.2889 51.4863 53.2661C51.4863 53.2432 45.7756 53.222 38.7308 53.222C31.686 53.222 25.9753 53.2416 25.9753 53.2661Z" fill="white"/>
<path d="M35.5473 59.5939C35.5473 59.6168 38.7391 59.6364 42.6768 59.6364C46.6145 59.6364 49.7962 59.6168 49.7962 59.5939C49.7962 59.5711 46.606 59.5515 42.6768 59.5515C38.7476 59.5515 35.5473 59.5694 35.5473 59.5939Z" fill="white"/>
<path d="M26.2516 59.643C26.2516 59.6659 27.5687 59.6855 29.1943 59.6855C30.8199 59.6855 32.137 59.6659 32.137 59.643C32.137 59.6202 30.8199 59.6006 29.1943 59.6006C27.5687 59.6006 26.2516 59.6186 26.2516 59.643Z" fill="white"/>
<path d="M26.6381 64.9358C26.6381 64.9587 31.881 64.9783 38.3477 64.9783C44.8145 64.9783 50.0608 64.9587 50.0608 64.9358C50.0608 64.913 44.8179 64.8934 38.3477 64.8934C31.8776 64.8934 26.6381 64.9179 26.6381 64.9358Z" fill="white"/>
<path d="M25.6192 71.2198C25.6192 71.2427 31.0672 71.2623 37.7883 71.2623C44.5093 71.2623 49.959 71.2427 49.959 71.2198C49.959 71.197 44.511 71.1774 37.7883 71.1774C31.0655 71.1774 25.6192 71.197 25.6192 71.2198Z" fill="white"/>
<path d="M22.0528 49.7972C22.0903 49.8411 22.1336 49.8801 22.1816 49.9132C22.2663 49.985 22.3935 50.0847 22.5511 50.2055C22.8664 50.4472 23.3122 50.7722 23.8173 51.1135C24.3225 51.4548 24.7903 51.7471 25.1344 51.9496C25.3039 52.0525 25.448 52.1325 25.5463 52.1864C25.5955 52.2175 25.6485 52.2428 25.704 52.2616C25.6624 52.2212 25.6157 52.186 25.565 52.157L25.1683 51.899C24.8293 51.6834 24.3716 51.383 23.8682 51.0433C23.3648 50.7036 22.9139 50.39 22.5884 50.1582L22.2019 49.8871C22.1569 49.8504 22.1067 49.8202 22.0528 49.7972Z" fill="white"/>
<path d="M20.3999 53.0321C20.4617 53.0897 20.5293 53.1411 20.6017 53.1856C20.7339 53.2803 20.9288 53.4126 21.1712 53.5743C21.656 53.9009 22.3374 54.3271 23.1036 54.7795C23.8698 55.2319 24.58 55.6173 25.0987 55.8867C25.3581 56.0206 25.57 56.1268 25.7174 56.1986C25.7923 56.2392 25.8705 56.2736 25.9514 56.3015C25.8839 56.2504 25.8112 56.2061 25.7344 56.1692L25.1292 55.8345C24.6207 55.5519 23.9173 55.1584 23.1494 54.706C22.3815 54.2536 21.7001 53.8323 21.2051 53.5237L20.6203 53.1579C20.5506 53.1101 20.4769 53.068 20.3999 53.0321Z" fill="white"/>
<path d="M56.9209 55.4479L58.9939 63.8696L63.1995 55.5148H67.6067C67.6067 55.5148 65.7929 64.4575 62.4757 69.5201C59.9212 73.4198 57.5921 73.539 56.0818 72.9887C54.5715 72.4384 53.0866 70.397 51.7068 65.519C50.905 62.6824 50.4016 60.5414 50.2253 59.266C50.1931 59.0374 50.5253 58.3629 50.5253 58.3629L56.9209 55.4479Z" fill="#FFBE9D"/>
<path d="M57.0225 49.8236C57.0225 49.8236 55.3071 49.6995 55.3071 50.5519C55.3071 51.4044 57.7158 51.5089 57.7158 51.5089L58.0548 50.3151L57.0225 49.8236Z" fill="#EB996E"/>
<path d="M67.6013 55.5146C67.6013 55.5146 67.6013 53.1091 66.8131 52.0966C66.1757 51.28 62.7262 48.7129 61.4193 47.7542C61.0976 47.5176 60.6952 47.4063 60.2921 47.4423L53.2287 48.0596C53.2287 48.0596 53.0981 48.9448 53.7541 49.0721C54.4101 49.1995 57.1545 49.1848 57.1545 49.1848C57.1545 49.1848 56.8731 50.2479 57.007 50.7003C57.1409 51.1527 57.7461 51.4319 57.7461 51.4319C57.7461 51.4319 57.3765 52.059 58.4936 52.8184C58.4936 52.8184 58.4021 54.0906 59.6514 54.1249C60.0479 54.1309 60.4445 54.1096 60.8379 54.0612C60.8379 54.0612 62.872 55.4542 63.211 55.5179C63.5501 55.5816 67.6013 55.5146 67.6013 55.5146Z" fill="#FFBE9D"/>
<path d="M65.0809 55.9426C64.78 55.8353 64.4697 55.7544 64.1537 55.7009C63.8442 55.6189 63.5276 55.5643 63.2079 55.5376C63.5084 55.6462 63.8189 55.7276 64.1351 55.7809C64.4445 55.8629 64.7611 55.917 65.0809 55.9426Z" fill="#EB996E"/>
<path d="M60.2127 51.7996C59.896 51.912 59.5953 52.0623 59.3177 52.2471C59.0239 52.4093 58.7523 52.6063 58.5091 52.8334C58.5244 52.853 58.8939 52.6047 59.3652 52.3206C59.8364 52.0364 60.2229 51.8225 60.2127 51.7996Z" fill="#EB996E"/>
<path d="M57.7158 51.3816C57.7328 51.4012 58.0735 51.1024 58.5481 50.8117C59.0227 50.521 59.4431 50.343 59.4329 50.3218C59.0985 50.408 58.7824 50.55 58.4989 50.7415C58.2007 50.9086 57.9355 51.1254 57.7158 51.3816Z" fill="#EB996E"/>
<path d="M58.9667 48.8548C58.6595 48.8659 58.3541 48.9052 58.0547 48.9724C57.7499 49.0109 57.4496 49.0776 57.158 49.1716C57.4653 49.1624 57.7708 49.1236 58.07 49.0557C58.3748 49.016 58.675 48.9487 58.9667 48.8548Z" fill="#EB996E"/>
<path d="M57.158 66.5805C57.515 66.1425 57.8488 65.6874 58.1581 65.2168C58.4915 64.7627 58.8004 64.2923 59.0836 63.8075C58.7272 64.245 58.394 64.6996 58.0852 65.1695C57.7514 65.6243 57.442 66.0952 57.158 66.5805Z" fill="#EB996E"/>
<path d="M59.4869 28.3189C59.4869 30.3329 60.3173 32.2644 61.7955 33.6885C63.2737 35.1127 65.2786 35.9127 67.3691 35.9127C69.4595 35.9127 71.4644 35.1127 72.9426 33.6885C74.4208 32.2644 75.2512 30.3329 75.2512 28.3189C75.2512 24.1252 71.7237 20.6157 67.3708 20.6157C63.0178 20.6157 59.4869 24.1252 59.4869 28.3189Z" fill="white"/>
<path d="M68.7743 27.5387H68.2658L67.1657 26.0689V25.4157C67.1622 25.3737 67.147 25.3334 67.1217 25.2992C67.0963 25.2649 67.0617 25.2379 67.0217 25.2211C66.9816 25.2044 66.9375 25.1984 66.8942 25.2039C66.8509 25.2094 66.81 25.2262 66.7758 25.2524C66.6063 25.4157 66.4452 25.7129 66.4893 26.3204C66.5808 27.5909 66.4893 27.2676 66.4893 27.2676C66.4893 27.2676 64.8349 27.2676 64.6959 27.4113C64.5959 27.5125 64.5518 29.095 64.5264 29.954C64.5149 30.1607 64.5754 30.3651 64.6982 30.5349C64.821 30.7047 64.9992 30.8302 65.2044 30.8914C65.2598 30.9055 65.3167 30.9132 65.3739 30.9142C65.7875 30.9142 67.8962 30.5876 67.8962 30.5876H68.7743V27.5387Z" fill="#455A64"/>
<path d="M70.2185 27.2689V30.6428L69.0455 30.5922V27.3359L70.2185 27.2689Z" fill="#455A64"/>
<path d="M57.5003 30.264C57.5003 30.264 57.5732 30.3081 57.6816 30.411C57.8304 30.5588 57.9286 30.7468 57.963 30.9499C57.9881 31.088 57.9811 31.2296 57.9427 31.3647C57.8963 31.5189 57.8045 31.6568 57.6783 31.7616C57.5388 31.8869 57.3631 31.9685 57.1744 31.9956C56.9858 32.0227 56.793 31.994 56.6216 31.9133C56.4503 31.8326 56.3083 31.7037 56.2146 31.5437C56.1209 31.3836 56.0798 31.1999 56.0967 31.0169C56.1046 30.8564 56.1605 30.7016 56.2578 30.5711C56.3445 30.4584 56.4563 30.3657 56.5849 30.3C56.772 30.1993 56.9874 30.1581 57.2002 30.1824C57.3511 30.2004 57.4274 30.2363 57.4308 30.2297C57.4342 30.2232 57.4138 30.2167 57.3765 30.202C57.354 30.1908 57.3301 30.1826 57.3053 30.1775C57.2723 30.1665 57.2383 30.1589 57.2036 30.1546C57.0175 30.1276 56.8272 30.1487 56.6524 30.2159C56.4775 30.283 56.3244 30.3938 56.2086 30.5368C56.1023 30.6751 56.0399 30.8402 56.0289 31.012C56.0165 31.2015 56.0581 31.3907 56.1493 31.5591C56.2448 31.7431 56.3994 31.8926 56.59 31.9853C56.7832 32.0717 56.9998 32.0968 57.2087 32.0572C57.4024 32.0227 57.5825 31.9374 57.7291 31.8106C57.8636 31.6968 57.9603 31.5474 58.0071 31.3811C58.0468 31.2371 58.0515 31.0862 58.0207 30.9401C57.9804 30.7294 57.8704 30.5369 57.7071 30.3914C57.6824 30.3681 57.6557 30.3468 57.6274 30.3277C57.6072 30.3133 57.5856 30.3007 57.563 30.2902C57.5436 30.2784 57.5224 30.2696 57.5003 30.264Z" fill="#263238"/>
<path d="M59.826 25.9058C59.826 25.9058 59.843 25.8682 59.8752 25.7914L60.0142 25.455L60.1159 25.2052C60.1565 25.1154 60.2108 25.0223 60.265 24.9178L60.443 24.5911C60.4733 24.5281 60.5096 24.468 60.5515 24.4115C60.5905 24.3511 60.6329 24.289 60.6752 24.2253C61.0801 23.6016 61.5814 23.041 62.1618 22.5629C62.9253 21.9224 63.8099 21.43 64.7672 21.1127L65.1706 20.982C65.3079 20.9461 65.4503 20.9167 65.5927 20.8841L65.8097 20.8367C65.8813 20.8173 65.9544 20.8037 66.0283 20.7959L66.4792 20.7387L66.7081 20.711H66.9403L67.4217 20.6799C67.5793 20.6799 67.7404 20.6979 67.9014 20.7061L68.1455 20.7208C68.1862 20.7208 68.2269 20.7208 68.2675 20.7208L68.3896 20.7404C68.7215 20.7833 69.05 20.8482 69.3727 20.9347C69.5422 20.9804 69.7118 21.0163 69.8677 21.0702L70.3559 21.2515C70.4372 21.2825 70.5254 21.3087 70.6 21.3462L70.8441 21.4638C71.0017 21.5422 71.1644 21.6157 71.3204 21.7006C71.6348 21.8806 71.9366 22.0803 72.2239 22.2983L72.4425 22.4616C72.4798 22.4894 72.5171 22.5171 72.5527 22.5465L72.6527 22.6396L73.0477 23.0218C73.1782 23.154 73.2969 23.2977 73.4223 23.4366C73.4833 23.5084 73.5511 23.5737 73.6071 23.6505L73.7766 23.8791C74.003 24.1874 74.208 24.5099 74.3902 24.8443C74.4716 25.0174 74.5512 25.1921 74.6343 25.3685L74.6953 25.4991C74.7123 25.5449 74.7275 25.5906 74.7428 25.6363L74.8445 25.9058L74.9411 26.1817L75.0123 26.4675L75.0818 26.7599L75.1157 26.9036C75.1157 26.9526 75.1309 27.0016 75.1377 27.0505L75.2191 27.6401C75.2191 27.8377 75.2327 28.0386 75.2411 28.2378C75.2533 29.8785 74.7093 31.4783 73.6918 32.7941L73.307 33.2644L72.8782 33.6939L72.7714 33.8L72.6544 33.8947L72.4222 34.0875L72.2001 34.2769L71.951 34.4402L71.7052 34.6035L71.5814 34.6868L71.4509 34.757L70.9254 35.051C70.5737 35.2171 70.2107 35.3601 69.8389 35.4788L69.5643 35.5686C69.4727 35.5997 69.3778 35.6144 69.2846 35.6372C69.0981 35.6764 68.9134 35.7254 68.7269 35.7581L68.1658 35.8299L68.0268 35.8479H67.8861L67.6081 35.8561C67.2428 35.869 66.8769 35.8581 66.5131 35.8234C66.3334 35.8038 66.1572 35.7695 65.9826 35.7434L65.7198 35.7009C65.6317 35.6862 65.5503 35.6585 65.4639 35.6372L64.9553 35.5066C64.7858 35.456 64.6333 35.3906 64.4739 35.3335C64.1606 35.2191 63.8558 35.0837 63.562 34.9285L63.4518 34.8746C63.4145 34.855 63.3823 34.8338 63.3467 34.8125L63.1416 34.6852C63.006 34.6002 62.8653 34.5218 62.7382 34.432L62.3669 34.1511L62.1839 34.0123L62.0144 33.8588L61.6872 33.5567C61.6318 33.5064 61.5808 33.4518 61.5347 33.3934L61.3906 33.2301C61.2956 33.1223 61.1973 33.0194 61.1092 32.9035L60.8634 32.5687C60.2895 31.7727 59.8798 30.8779 59.6565 29.9329C59.6311 29.8284 59.6039 29.7271 59.5819 29.6259C59.5599 29.5246 59.5531 29.4218 59.5395 29.3221C59.526 29.2225 59.5124 29.1262 59.4989 29.0315C59.4989 28.9841 59.4836 28.9367 59.4802 28.891V28.7506C59.4802 28.5677 59.4666 28.3913 59.4599 28.2231C59.4531 28.0549 59.4768 27.8965 59.4836 27.7446L59.4972 27.5258C59.4998 27.4562 59.5077 27.3868 59.5209 27.3184C59.5429 27.1861 59.5633 27.062 59.5836 26.9477C59.6039 26.8333 59.6175 26.7256 59.6395 26.6292C59.6616 26.5329 59.6887 26.4479 59.7107 26.3712C59.7514 26.2177 59.7836 26.1017 59.8057 26.0201C59.8277 25.9384 59.826 25.9058 59.826 25.9058C59.826 25.9058 59.8124 25.9466 59.7887 26.025C59.765 26.1034 59.7311 26.2226 59.6853 26.3745L59.6107 26.6325C59.5887 26.7288 59.5734 26.835 59.5514 26.9591L59.4853 27.3298C59.4721 27.3983 59.4642 27.4676 59.4616 27.5372C59.4616 27.6091 59.4497 27.6825 59.4446 27.7577C59.4446 27.9095 59.4175 28.0696 59.4175 28.2378C59.4175 28.406 59.4294 28.5824 59.4344 28.7685V28.9073C59.4344 28.9547 59.4463 29.0021 59.4514 29.0494L59.4921 29.3434C59.5056 29.4414 59.5192 29.5442 59.5328 29.6471C59.5463 29.75 59.5802 29.8513 59.6056 29.9574C59.8256 30.9151 60.2354 31.8228 60.8125 32.6307L61.0583 32.9688C61.1482 33.0766 61.2448 33.1811 61.3397 33.2954L61.4855 33.4587C61.5322 33.5166 61.5832 33.5712 61.6381 33.622L61.9805 33.9078C62.0364 33.9584 62.0923 34.0123 62.15 34.0613L62.333 34.2018L62.7077 34.4827C62.8365 34.5757 62.9772 34.646 63.1128 34.739L63.3196 34.8681L63.4247 34.9301L63.5349 34.984C63.8307 35.1412 64.1377 35.2782 64.4536 35.3939C64.6231 35.4511 64.774 35.5197 64.9401 35.5686L65.4486 35.7026C65.5334 35.7238 65.6181 35.7516 65.7063 35.7679L65.9707 35.8103C66.1402 35.8365 66.325 35.8724 66.5063 35.892C66.873 35.9264 67.2416 35.9379 67.6098 35.9263L67.8912 35.9181H68.0319L68.1726 35.9002L68.7388 35.8283C68.9269 35.7956 69.1134 35.7467 69.3015 35.7058C69.3948 35.683 69.4914 35.6683 69.5829 35.6389L69.8609 35.5409C70.2358 35.4203 70.6022 35.2763 70.9576 35.1098L71.4814 34.8223L71.6136 34.7505L71.7374 34.6672L71.9866 34.5039L72.2374 34.3406L72.4714 34.1479L72.7087 33.947L72.8256 33.8507L72.9341 33.7429L73.3647 33.3101C73.4952 33.1468 73.624 32.9949 73.7545 32.8349C74.7815 31.5075 75.3303 29.8933 75.3174 28.2378C75.3174 28.0353 75.3021 27.8344 75.2954 27.6336C75.2886 27.4327 75.2394 27.2367 75.2123 27.0391C75.2123 26.9901 75.1987 26.9395 75.1903 26.8905L75.1564 26.7468L75.0852 26.4561L75.014 26.1687L74.9123 25.8894L74.814 25.6118L74.7648 25.4746L74.7021 25.3407C74.6207 25.1643 74.5326 24.988 74.4563 24.8132C74.2727 24.4739 74.066 24.1465 73.8376 23.8334L73.6681 23.6031C73.6138 23.5264 73.5443 23.4594 73.4833 23.3876C73.3562 23.2471 73.2358 23.1018 73.1036 22.9679L72.6917 22.5874L72.59 22.4926C72.5544 22.4632 72.5171 22.4371 72.4798 22.4077L72.2595 22.2444C71.971 22.0264 71.6681 21.8267 71.3526 21.6467C71.195 21.5585 71.0288 21.4834 70.8712 21.4066L70.6305 21.2907C70.5508 21.2531 70.461 21.227 70.383 21.196L69.8914 21.0131C69.7219 20.9592 69.5524 20.9233 69.3931 20.8775C69.0659 20.7898 68.7329 20.7237 68.3964 20.6799L68.2743 20.6603C68.2336 20.6603 68.193 20.6603 68.1506 20.6603L67.9065 20.644C67.737 20.644 67.581 20.6195 67.4217 20.6195L66.9454 20.6358H66.7114C66.6335 20.644 66.5572 20.6554 66.4809 20.6652L66.0266 20.724C65.9522 20.7319 65.8785 20.7456 65.8063 20.7649L65.5893 20.8138C65.4469 20.8481 65.3028 20.8759 65.1638 20.9135L64.7587 21.0457C63.7967 21.3687 62.9086 21.8678 62.1432 22.5155C61.5627 22.9989 61.0625 23.565 60.66 24.1943L60.5362 24.3821C60.4959 24.4392 60.4602 24.4993 60.4295 24.5617L60.2599 24.8998C60.2057 25.0043 60.1532 25.1007 60.1125 25.1905C60.0718 25.2803 60.043 25.3668 60.0142 25.4403L59.8819 25.7816C59.848 25.86 59.826 25.9058 59.826 25.9058Z" fill="#263238"/>
</g>
<path d="M5.6927 84.07C5.6927 84.65 5.4927 85.1333 5.0927 85.52C4.69936 85.9 4.09603 86.09 3.2827 86.09H1.9427V89H1.0327V82.03H3.2827C4.06936 82.03 4.66603 82.22 5.0727 82.6C5.48603 82.98 5.6927 83.47 5.6927 84.07ZM3.2827 85.34C3.78936 85.34 4.1627 85.23 4.4027 85.01C4.6427 84.79 4.7627 84.4767 4.7627 84.07C4.7627 83.21 4.26936 82.78 3.2827 82.78H1.9427V85.34H3.2827ZM11.8237 86.05C11.8237 86.2233 11.8137 86.4067 11.7937 86.6H7.41371C7.44704 87.14 7.63038 87.5633 7.96371 87.87C8.30371 88.17 8.71371 88.32 9.19371 88.32C9.58704 88.32 9.91371 88.23 10.1737 88.05C10.4404 87.8633 10.627 87.6167 10.7337 87.31H11.7137C11.567 87.8367 11.2737 88.2667 10.8337 88.6C10.3937 88.9267 9.84704 89.09 9.19371 89.09C8.67371 89.09 8.20704 88.9733 7.79371 88.74C7.38704 88.5067 7.06704 88.1767 6.83371 87.75C6.60038 87.3167 6.48371 86.8167 6.48371 86.25C6.48371 85.6833 6.59704 85.1867 6.82371 84.76C7.05038 84.3333 7.36704 84.0067 7.77371 83.78C8.18704 83.5467 8.66038 83.43 9.19371 83.43C9.71371 83.43 10.1737 83.5433 10.5737 83.77C10.9737 83.9967 11.2804 84.31 11.4937 84.71C11.7137 85.1033 11.8237 85.55 11.8237 86.05ZM10.8837 85.86C10.8837 85.5133 10.807 85.2167 10.6537 84.97C10.5004 84.7167 10.2904 84.5267 10.0237 84.4C9.76371 84.2667 9.47371 84.2 9.15371 84.2C8.69371 84.2 8.30038 84.3467 7.97371 84.64C7.65371 84.9333 7.47038 85.34 7.42371 85.86H10.8837ZM15.6949 83.42C16.3615 83.42 16.9015 83.6233 17.3149 84.03C17.7282 84.43 17.9349 85.01 17.9349 85.77V89H17.0349V85.9C17.0349 85.3533 16.8982 84.9367 16.6249 84.65C16.3515 84.3567 15.9782 84.21 15.5049 84.21C15.0249 84.21 14.6415 84.36 14.3549 84.66C14.0749 84.96 13.9349 85.3967 13.9349 85.97V89H13.0249V83.52H13.9349V84.3C14.1149 84.02 14.3582 83.8033 14.6649 83.65C14.9782 83.4967 15.3215 83.42 15.6949 83.42ZM21.6814 83.43C22.1547 83.43 22.568 83.5333 22.9214 83.74C23.2814 83.9467 23.548 84.2067 23.7214 84.52V83.52H24.6414V89.12C24.6414 89.62 24.5347 90.0633 24.3214 90.45C24.108 90.8433 23.8014 91.15 23.4014 91.37C23.008 91.59 22.548 91.7 22.0214 91.7C21.3014 91.7 20.7014 91.53 20.2214 91.19C19.7414 90.85 19.458 90.3867 19.3714 89.8H20.2714C20.3714 90.1333 20.578 90.4 20.8914 90.6C21.2047 90.8067 21.5814 90.91 22.0214 90.91C22.5214 90.91 22.928 90.7533 23.2414 90.44C23.5614 90.1267 23.7214 89.6867 23.7214 89.12V87.97C23.5414 88.29 23.2747 88.5567 22.9214 88.77C22.568 88.9833 22.1547 89.09 21.6814 89.09C21.1947 89.09 20.7514 88.97 20.3514 88.73C19.958 88.49 19.648 88.1533 19.4214 87.72C19.1947 87.2867 19.0814 86.7933 19.0814 86.24C19.0814 85.68 19.1947 85.19 19.4214 84.77C19.648 84.3433 19.958 84.0133 20.3514 83.78C20.7514 83.5467 21.1947 83.43 21.6814 83.43ZM23.7214 86.25C23.7214 85.8367 23.638 85.4767 23.4714 85.17C23.3047 84.8633 23.078 84.63 22.7914 84.47C22.5114 84.3033 22.2014 84.22 21.8614 84.22C21.5214 84.22 21.2114 84.3 20.9314 84.46C20.6514 84.62 20.428 84.8533 20.2614 85.16C20.0947 85.4667 20.0114 85.8267 20.0114 86.24C20.0114 86.66 20.0947 87.0267 20.2614 87.34C20.428 87.6467 20.6514 87.8833 20.9314 88.05C21.2114 88.21 21.5214 88.29 21.8614 88.29C22.2014 88.29 22.5114 88.21 22.7914 88.05C23.078 87.8833 23.3047 87.6467 23.4714 87.34C23.638 87.0267 23.7214 86.6633 23.7214 86.25ZM31.1792 86.05C31.1792 86.2233 31.1692 86.4067 31.1492 86.6H26.7692C26.8025 87.14 26.9858 87.5633 27.3192 87.87C27.6592 88.17 28.0692 88.32 28.5492 88.32C28.9425 88.32 29.2692 88.23 29.5292 88.05C29.7958 87.8633 29.9825 87.6167 30.0892 87.31H31.0692C30.9225 87.8367 30.6292 88.2667 30.1892 88.6C29.7492 88.9267 29.2025 89.09 28.5492 89.09C28.0292 89.09 27.5625 88.9733 27.1492 88.74C26.7425 88.5067 26.4225 88.1767 26.1892 87.75C25.9558 87.3167 25.8392 86.8167 25.8392 86.25C25.8392 85.6833 25.9525 85.1867 26.1792 84.76C26.4058 84.3333 26.7225 84.0067 27.1292 83.78C27.5425 83.5467 28.0158 83.43 28.5492 83.43C29.0692 83.43 29.5292 83.5433 29.9292 83.77C30.3292 83.9967 30.6358 84.31 30.8492 84.71C31.0692 85.1033 31.1792 85.55 31.1792 86.05ZM30.2392 85.86C30.2392 85.5133 30.1625 85.2167 30.0092 84.97C29.8558 84.7167 29.6458 84.5267 29.3792 84.4C29.1192 84.2667 28.8292 84.2 28.5092 84.2C28.0492 84.2 27.6558 84.3467 27.3292 84.64C27.0092 84.9333 26.8258 85.34 26.7792 85.86H30.2392ZM38.9704 83.42C39.397 83.42 39.777 83.51 40.1104 83.69C40.4437 83.8633 40.707 84.1267 40.9004 84.48C41.0937 84.8333 41.1904 85.2633 41.1904 85.77V89H40.2904V85.9C40.2904 85.3533 40.1537 84.9367 39.8804 84.65C39.6137 84.3567 39.2504 84.21 38.7904 84.21C38.317 84.21 37.9404 84.3633 37.6604 84.67C37.3804 84.97 37.2404 85.4067 37.2404 85.98V89H36.3404V85.9C36.3404 85.3533 36.2037 84.9367 35.9304 84.65C35.6637 84.3567 35.3004 84.21 34.8404 84.21C34.367 84.21 33.9904 84.3633 33.7104 84.67C33.4304 84.97 33.2904 85.4067 33.2904 85.98V89H32.3804V83.52H33.2904V84.31C33.4704 84.0233 33.7104 83.8033 34.0104 83.65C34.317 83.4967 34.6537 83.42 35.0204 83.42C35.4804 83.42 35.887 83.5233 36.2404 83.73C36.5937 83.9367 36.857 84.24 37.0304 84.64C37.1837 84.2533 37.437 83.9533 37.7904 83.74C38.1437 83.5267 38.537 83.42 38.9704 83.42ZM43.5931 84.54C43.7798 84.2133 44.0531 83.9467 44.4131 83.74C44.7731 83.5333 45.1831 83.43 45.6431 83.43C46.1364 83.43 46.5798 83.5467 46.9731 83.78C47.3664 84.0133 47.6764 84.3433 47.9031 84.77C48.1298 85.19 48.2431 85.68 48.2431 86.24C48.2431 86.7933 48.1298 87.2867 47.9031 87.72C47.6764 88.1533 47.3631 88.49 46.9631 88.73C46.5698 88.97 46.1298 89.09 45.6431 89.09C45.1698 89.09 44.7531 88.9867 44.3931 88.78C44.0398 88.5733 43.7731 88.31 43.5931 87.99V89H42.6831V81.6H43.5931V84.54ZM47.3131 86.24C47.3131 85.8267 47.2298 85.4667 47.0631 85.16C46.8964 84.8533 46.6698 84.62 46.3831 84.46C46.1031 84.3 45.7931 84.22 45.4531 84.22C45.1198 84.22 44.8098 84.3033 44.5231 84.47C44.2431 84.63 44.0164 84.8667 43.8431 85.18C43.6764 85.4867 43.5931 85.8433 43.5931 86.25C43.5931 86.6633 43.6764 87.0267 43.8431 87.34C44.0164 87.6467 44.2431 87.8833 44.5231 88.05C44.8098 88.21 45.1198 88.29 45.4531 88.29C45.7931 88.29 46.1031 88.21 46.3831 88.05C46.6698 87.8833 46.8964 87.6467 47.0631 87.34C47.2298 87.0267 47.3131 86.66 47.3131 86.24ZM49.1009 86.24C49.1009 85.68 49.2142 85.19 49.4409 84.77C49.6676 84.3433 49.9776 84.0133 50.3709 83.78C50.7709 83.5467 51.2142 83.43 51.7009 83.43C52.1809 83.43 52.5976 83.5333 52.9509 83.74C53.3042 83.9467 53.5676 84.2067 53.7409 84.52V83.52H54.6609V89H53.7409V87.98C53.5609 88.3 53.2909 88.5667 52.9309 88.78C52.5776 88.9867 52.1642 89.09 51.6909 89.09C51.2042 89.09 50.7642 88.97 50.3709 88.73C49.9776 88.49 49.6676 88.1533 49.4409 87.72C49.2142 87.2867 49.1009 86.7933 49.1009 86.24ZM53.7409 86.25C53.7409 85.8367 53.6576 85.4767 53.4909 85.17C53.3242 84.8633 53.0976 84.63 52.8109 84.47C52.5309 84.3033 52.2209 84.22 51.8809 84.22C51.5409 84.22 51.2309 84.3 50.9509 84.46C50.6709 84.62 50.4476 84.8533 50.2809 85.16C50.1142 85.4667 50.0309 85.8267 50.0309 86.24C50.0309 86.66 50.1142 87.0267 50.2809 87.34C50.4476 87.6467 50.6709 87.8833 50.9509 88.05C51.2309 88.21 51.5409 88.29 51.8809 88.29C52.2209 88.29 52.5309 88.21 52.8109 88.05C53.0976 87.8833 53.3242 87.6467 53.4909 87.34C53.6576 87.0267 53.7409 86.6633 53.7409 86.25ZM58.8687 83.42C59.5354 83.42 60.0754 83.6233 60.4887 84.03C60.902 84.43 61.1087 85.01 61.1087 85.77V89H60.2087V85.9C60.2087 85.3533 60.072 84.9367 59.7987 84.65C59.5254 84.3567 59.152 84.21 58.6787 84.21C58.1987 84.21 57.8154 84.36 57.5287 84.66C57.2487 84.96 57.1087 85.3967 57.1087 85.97V89H56.1987V83.52H57.1087V84.3C57.2887 84.02 57.532 83.8033 57.8387 83.65C58.152 83.4967 58.4954 83.42 58.8687 83.42ZM64.8552 83.43C65.3285 83.43 65.7419 83.5333 66.0952 83.74C66.4552 83.9467 66.7219 84.2067 66.8952 84.52V83.52H67.8152V89.12C67.8152 89.62 67.7085 90.0633 67.4952 90.45C67.2819 90.8433 66.9752 91.15 66.5752 91.37C66.1819 91.59 65.7219 91.7 65.1952 91.7C64.4752 91.7 63.8752 91.53 63.3952 91.19C62.9152 90.85 62.6319 90.3867 62.5452 89.8H63.4452C63.5452 90.1333 63.7519 90.4 64.0652 90.6C64.3785 90.8067 64.7552 90.91 65.1952 90.91C65.6952 90.91 66.1019 90.7533 66.4152 90.44C66.7352 90.1267 66.8952 89.6867 66.8952 89.12V87.97C66.7152 88.29 66.4485 88.5567 66.0952 88.77C65.7419 88.9833 65.3285 89.09 64.8552 89.09C64.3685 89.09 63.9252 88.97 63.5252 88.73C63.1319 88.49 62.8219 88.1533 62.5952 87.72C62.3685 87.2867 62.2552 86.7933 62.2552 86.24C62.2552 85.68 62.3685 85.19 62.5952 84.77C62.8219 84.3433 63.1319 84.0133 63.5252 83.78C63.9252 83.5467 64.3685 83.43 64.8552 83.43ZM66.8952 86.25C66.8952 85.8367 66.8119 85.4767 66.6452 85.17C66.4785 84.8633 66.2519 84.63 65.9652 84.47C65.6852 84.3033 65.3752 84.22 65.0352 84.22C64.6952 84.22 64.3852 84.3 64.1052 84.46C63.8252 84.62 63.6019 84.8533 63.4352 85.16C63.2685 85.4667 63.1852 85.8267 63.1852 86.24C63.1852 86.66 63.2685 87.0267 63.4352 87.34C63.6019 87.6467 63.8252 87.8833 64.1052 88.05C64.3852 88.21 64.6952 88.29 65.0352 88.29C65.3752 88.29 65.6852 88.21 65.9652 88.05C66.2519 87.8833 66.4785 87.6467 66.6452 87.34C66.8119 87.0267 66.8952 86.6633 66.8952 86.25ZM69.013 86.24C69.013 85.68 69.1263 85.19 69.353 84.77C69.5797 84.3433 69.8897 84.0133 70.283 83.78C70.683 83.5467 71.1263 83.43 71.613 83.43C72.093 83.43 72.5097 83.5333 72.863 83.74C73.2163 83.9467 73.4797 84.2067 73.653 84.52V83.52H74.573V89H73.653V87.98C73.473 88.3 73.203 88.5667 72.843 88.78C72.4897 88.9867 72.0763 89.09 71.603 89.09C71.1163 89.09 70.6763 88.97 70.283 88.73C69.8897 88.49 69.5797 88.1533 69.353 87.72C69.1263 87.2867 69.013 86.7933 69.013 86.24ZM73.653 86.25C73.653 85.8367 73.5697 85.4767 73.403 85.17C73.2363 84.8633 73.0097 84.63 72.723 84.47C72.443 84.3033 72.133 84.22 71.793 84.22C71.453 84.22 71.143 84.3 70.863 84.46C70.583 84.62 70.3597 84.8533 70.193 85.16C70.0263 85.4667 69.943 85.8267 69.943 86.24C69.943 86.66 70.0263 87.0267 70.193 87.34C70.3597 87.6467 70.583 87.8833 70.863 88.05C71.143 88.21 71.453 88.29 71.793 88.29C72.133 88.29 72.443 88.21 72.723 88.05C73.0097 87.8833 73.2363 87.6467 73.403 87.34C73.5697 87.0267 73.653 86.6633 73.653 86.25ZM78.7808 83.42C79.4475 83.42 79.9875 83.6233 80.4008 84.03C80.8142 84.43 81.0208 85.01 81.0208 85.77V89H80.1208V85.9C80.1208 85.3533 79.9842 84.9367 79.7108 84.65C79.4375 84.3567 79.0642 84.21 78.5908 84.21C78.1108 84.21 77.7275 84.36 77.4408 84.66C77.1608 84.96 77.0208 85.3967 77.0208 85.97V89H76.1108V83.52H77.0208V84.3C77.2008 84.02 77.4442 83.8033 77.7508 83.65C78.0642 83.4967 78.4075 83.42 78.7808 83.42ZM36.0787 97.03C36.8387 97.03 37.4953 97.1733 38.0487 97.46C38.6087 97.74 39.0353 98.1433 39.3287 98.67C39.6287 99.1967 39.7787 99.8167 39.7787 100.53C39.7787 101.243 39.6287 101.863 39.3287 102.39C39.0353 102.91 38.6087 103.31 38.0487 103.59C37.4953 103.863 36.8387 104 36.0787 104H33.9087V97.03H36.0787ZM36.0787 103.25C36.9787 103.25 37.6653 103.013 38.1387 102.54C38.612 102.06 38.8487 101.39 38.8487 100.53C38.8487 99.6633 38.6087 98.9867 38.1287 98.5C37.6553 98.0133 36.972 97.77 36.0787 97.77H34.8187V103.25H36.0787ZM41.449 97.63C41.2757 97.63 41.129 97.57 41.009 97.45C40.889 97.33 40.829 97.1833 40.829 97.01C40.829 96.8367 40.889 96.69 41.009 96.57C41.129 96.45 41.2757 96.39 41.449 96.39C41.6157 96.39 41.7557 96.45 41.869 96.57C41.989 96.69 42.049 96.8367 42.049 97.01C42.049 97.1833 41.989 97.33 41.869 97.45C41.7557 97.57 41.6157 97.63 41.449 97.63ZM41.889 98.52V104H40.979V98.52H41.889ZM44.3499 99.41C44.5099 99.0967 44.7366 98.8533 45.0299 98.68C45.3299 98.5067 45.6933 98.42 46.1199 98.42V99.36H45.8799C44.8599 99.36 44.3499 99.9133 44.3499 101.02V104H43.4399V98.52H44.3499V99.41ZM47.6404 97.63C47.4671 97.63 47.3204 97.57 47.2004 97.45C47.0804 97.33 47.0204 97.1833 47.0204 97.01C47.0204 96.8367 47.0804 96.69 47.2004 96.57C47.3204 96.45 47.4671 96.39 47.6404 96.39C47.8071 96.39 47.9471 96.45 48.0604 96.57C48.1804 96.69 48.2404 96.8367 48.2404 97.01C48.2404 97.1833 48.1804 97.33 48.0604 97.45C47.9471 97.57 47.8071 97.63 47.6404 97.63ZM48.0804 98.52V104H47.1704V98.52H48.0804Z" fill="#164E63"/>
<defs>
<clipPath id="clip0_2012_8130">
<rect width="82" height="73" rx="36.5" fill="white"/>
</clipPath>
</defs>
</svg>
