<svg width="77" height="94" viewBox="0 0 77 94" fill="none" xmlns="http://www.w3.org/2000/svg">
<g clip-path="url(#clip0_2012_7582)">
<rect y="0.5" width="77" height="73" rx="36.5" fill="#ECFEFF"/>
<path d="M12.0472 31.4193C6.52792 29.1145 4.79382 36.5932 4.79382 36.5932C3.64167 40.5528 3.4639 44.9229 5.08228 48.3408C6.08852 50.4481 8.79365 52.5747 11.0476 52.4978C12.3776 52.4506 13.5633 51.6486 14.6232 50.8098C15.6831 49.9711 16.7329 49.0433 18.0142 48.6693C19.2955 48.2954 20.8955 48.6693 21.5009 49.903C21.5559 49.2368 21.3935 48.5709 21.0402 48.0128C20.6869 47.4547 20.1632 47.0371 19.5538 46.8276C18.3798 46.4571 17.112 46.2317 15.9011 46.4327C13.8886 46.7664 11.908 46.0657 12.173 43.4482C12.173 43.4482 12.3306 41.582 12.879 40.1544C13.4274 38.7268 15.7384 32.9622 12.0472 31.4193Z" fill="#455A64" fill-opacity="0.7"/>
<path d="M8.58391 33.1981C7.90134 33.462 7.43176 34.2203 7.11479 34.9036C7.0132 35.0846 6.96209 35.2915 6.96721 35.5012C6.97339 35.6051 7.01649 35.703 7.0881 35.7756C7.15971 35.8483 7.25471 35.8906 7.35461 35.8943C7.60618 35.8716 7.71183 35.5571 7.79904 35.309C7.96204 34.8518 8.25445 34.4569 8.63758 34.1767C8.77625 34.0922 8.90512 33.9913 9.02163 33.8761C9.07939 33.8178 9.12095 33.7443 9.14191 33.6634C9.16287 33.5825 9.16246 33.4972 9.1407 33.4166C9.09736 33.3268 9.02639 33.2548 8.93913 33.212C8.85187 33.1693 8.75337 33.1582 8.65938 33.1807C8.4733 33.2315 8.30107 33.3266 8.15626 33.4585" fill="#263238"/>
<path d="M10.9738 33.5013C10.2895 33.7652 9.81994 34.5235 9.50297 35.2085C9.40118 35.3888 9.35005 35.5953 9.35539 35.8044C9.36194 35.9082 9.40515 36.0058 9.47668 36.0784C9.54822 36.151 9.64301 36.1934 9.7428 36.1975C9.99603 36.1748 10.1 35.8603 10.1889 35.6122C10.3513 35.1551 10.6439 34.7607 11.0274 34.4816C11.1656 34.3964 11.2944 34.2956 11.4115 34.1811C11.4694 34.1225 11.5111 34.0487 11.5324 33.9676C11.5536 33.8865 11.5536 33.8009 11.5322 33.7198C11.4886 33.6299 11.4173 33.5578 11.3298 33.515C11.2422 33.4723 11.1435 33.4613 11.0492 33.4839C10.8631 33.5344 10.6908 33.6295 10.5461 33.7617" fill="#263238"/>
<path d="M8.3286 36.5381C8.10762 36.5217 7.8863 36.5648 7.68596 36.6633C7.48563 36.7619 7.31304 36.9125 7.18483 37.1008C6.93225 37.4806 6.75598 37.9098 6.66661 38.3624C6.62804 38.5092 6.60624 38.6979 6.72363 38.787C6.77591 38.8166 6.83514 38.8301 6.89449 38.8261C6.95384 38.8221 7.01089 38.8007 7.05905 38.7643C7.39446 38.5721 7.58062 38.1859 7.87243 37.9273C7.92431 37.8772 7.98615 37.8396 8.05356 37.8172C8.08704 37.8056 8.12272 37.8028 8.15751 37.8089C8.19229 37.815 8.22512 37.8298 8.25313 37.8522C8.30133 37.9063 8.33236 37.9747 8.34201 38.0479C8.37723 38.1981 8.41077 38.3484 8.44432 38.4987C8.45289 38.5906 8.47985 38.6796 8.52347 38.7599C8.56709 38.8403 8.62639 38.9102 8.69755 38.9652C8.78267 38.9994 8.87602 39.0045 8.96407 38.9796C9.05212 38.9548 9.1303 38.9014 9.18726 38.8272C9.29786 38.6897 9.36312 38.5188 9.37342 38.3397C9.38244 38.1638 9.36833 37.9874 9.33149 37.8155C9.28439 37.4704 9.15205 37.1441 8.94744 36.8684C8.84223 36.7326 8.70149 36.6314 8.54226 36.5771C8.38303 36.5228 8.21212 36.5178 8.0502 36.5626" fill="#263238"/>
<path d="M52.8976 42.5C51.5458 40.7124 49.4814 39.5888 47.3347 39.1398C44.2388 38.4827 41.0255 39.1135 37.8743 38.8549C31.8821 38.3639 26.2924 34.3677 23.5873 28.7901C22.0343 23.4186 23.599 21.6486 25.3247 19.6478C27.0504 17.6471 29.2927 16.1968 31.6121 15.0103C33.3059 14.1366 35.3117 13.2437 36.8395 12.0887C37.1443 11.8454 37.4132 11.5569 37.6378 11.2325C38.2883 10.3404 38.6878 9.27741 38.7917 8.16233C39.0935 4.87028 36.7238 1.96091 33.5676 1.5992L33.43 1.58348C31.1392 1.30564 29.8964 1.77918 28.2495 2.15661C25.5 2.8047 22.9153 4.05785 20.6687 5.83202C18.4221 7.6062 16.5656 9.86039 15.2237 12.4434C12.5806 17.6121 11.6699 23.8188 13.7294 29.2688C14.5897 31.5404 17.6403 37.5042 19.626 38.8008C21.9739 41.1195 24.9558 42.7289 28.0852 43.613C32.0917 44.7453 36.3264 44.7628 40.4486 44.2491C42.4796 43.9957 44.5357 43.6165 46.5582 43.938C48.5808 44.2596 50.6184 45.4495 51.3547 47.4328C52.0909 49.416 50.9421 52.1192 48.9078 52.3481C51.088 52.6452 53.2682 51.0726 54.0363 48.9355C54.8044 46.7985 54.251 44.2945 52.8976 42.5Z" fill="#455A64" fill-opacity="0.7"/>
<path d="M47.5591 21.2242C47.0426 20.8101 45.1274 19.9923 45.1274 19.9923C45.1274 19.9923 47.2623 19.5712 48.2719 20.3313C49.2815 21.0914 50.8076 22.2656 50.8076 22.2656C50.8076 22.2656 49.7527 20.3435 48.614 19.842C47.7906 19.4768 46.6216 19.0452 46.0363 18.8338C45.9369 18.7973 45.8302 18.7883 45.7264 18.8076C45.6227 18.8269 45.5255 18.8738 45.4443 18.9439C44.9682 19.3248 44.386 19.5339 43.7857 19.5397C42.4122 19.6131 39.7054 18.1418 37.8203 18.6381C35.9353 19.1343 32.4201 24.8919 31.0332 24.9286C29.6462 24.9653 26.6074 17.1231 26.6074 17.1231L25.1416 19.5694C25.2774 19.7442 29.0609 30.1061 31.756 28.3675C34.4511 26.6288 35.781 21.5003 37.5252 21.2032C39.2693 20.9062 41.2936 22.2516 41.5585 22.5836C41.8235 22.9156 42.5514 23.0921 42.4205 23.7561C42.2897 24.4201 41.8889 27.4256 41.8889 27.4256C41.8889 27.4256 43.6716 23.4294 43.3295 22.9471C43.1037 22.5796 42.9556 22.1662 42.8952 21.7344C42.8952 21.7344 43.7169 22.028 43.9836 22.7706C44.2502 23.5133 45.8854 26.641 45.8854 26.641C45.8854 26.641 45.4779 23.0345 44.8406 22.2831C44.2033 21.5317 43.7521 21.0931 43.7521 21.0931L44.859 20.8939L47.1382 21.6977L49.0752 24.0182C49.0752 24.0182 48.0757 21.6366 47.5591 21.2242Z" fill="#455A64" fill-opacity="0.7"/>
<path d="M31.5685 12.6845C31.5182 12.4084 31.2331 12.2529 30.9581 12.2285C30.683 12.204 30.4197 12.2687 30.1531 12.2285C29.6281 12.1656 29.1938 11.727 29.0043 11.2132C28.8364 10.6882 28.8125 10.1248 28.9355 9.58643C28.9879 9.38745 29.0083 9.18079 28.9959 8.97485C28.9887 8.87223 28.9532 8.77395 28.8937 8.69181C28.8342 8.60968 28.7532 8.54717 28.6605 8.5118C28.6067 8.50034 28.5511 8.50278 28.4985 8.51893C28.4458 8.53508 28.3978 8.56443 28.3586 8.60441C28.2311 8.71275 28.2311 8.71275 28.216 8.7442C27.5955 9.6406 27.5553 11.1119 28.0835 12.0555C28.3616 12.5365 28.7689 12.9219 29.2551 13.1642C29.7413 13.4064 30.285 13.4948 30.8189 13.4184C31.01 13.3966 31.1928 13.3251 31.3505 13.2105C31.4291 13.1516 31.4909 13.0716 31.5293 12.9789C31.5677 12.8863 31.5813 12.7845 31.5685 12.6845Z" fill="#263238"/>
<path d="M31.1155 5.88885C31.1155 5.88885 28.8783 7.90882 29.96 8.75629C31.0417 9.60377 31.2933 9.36787 31.2933 9.36787L31.1155 5.88885Z" fill="#263238"/>
<path d="M34.7852 12.1765C34.7852 12.1765 32.335 12.9995 32.0666 11.7588C31.8754 10.8729 32.3685 10.5095 32.3685 10.5095L34.7852 12.1765Z" fill="#263238"/>
<path d="M66.6159 20.7641C66.2804 18.1011 65.6398 15.4102 64.1757 13.1997C62.7116 10.9893 60.2933 9.33281 57.7173 9.39921C55.1413 9.46561 52.6039 11.6166 52.5066 14.3006C52.4345 16.2891 53.59 18.0749 54.712 19.686C55.8339 21.2971 57.0246 23.0409 57.0381 25.0312C57.0515 27.0215 55.2268 29.1096 53.4172 28.4648C52.411 28.1153 51.7855 27.0669 50.9016 26.4588C49.2061 25.2793 46.5764 26.0552 45.7245 27.9825C45.9358 27.6523 47.5273 26.7139 48.9629 27.1997C52.8101 28.5015 52.0722 31.79 55.1077 33.1757C58.7772 34.8514 63.5384 33.2159 65.5341 29.5953C66.9764 26.9743 66.9915 23.7626 66.6159 20.7641Z" fill="#455A64" fill-opacity="0.7"/>
<path d="M61.1098 15.0648C59.8788 15.2203 59.2466 15.9856 59.0135 17.1039C58.9707 17.256 58.976 17.4183 59.0286 17.567C59.0622 17.6492 59.118 17.7195 59.1891 17.7694C59.2602 17.8193 59.3437 17.8467 59.4294 17.8483C59.6558 17.8326 59.7229 17.5827 59.7648 17.3818C59.8054 17.1526 59.8914 16.9349 60.0173 16.7423C60.1432 16.5497 60.3062 16.3867 60.496 16.2635C60.7205 16.1375 60.9733 16.0764 61.2281 16.0865C61.4828 16.0967 61.7304 16.1777 61.945 16.3211C62.1362 16.4557 62.3173 16.6531 62.5404 16.6601C62.5873 16.6619 62.6341 16.6535 62.6776 16.6353C62.7212 16.6171 62.7607 16.5895 62.7934 16.5544C62.8261 16.5194 62.8514 16.4775 62.8676 16.4316C62.8838 16.3857 62.8906 16.3367 62.8875 16.2879C62.8588 16.0783 62.7603 15.886 62.6091 15.7445C62.2117 15.3257 61.6748 15.0823 61.1098 15.0648Z" fill="#263238"/>
<path d="M58.9297 11.134C59.8889 11.3559 60.6503 12.2802 61.1937 13.133C61.3616 13.3546 61.4662 13.6211 61.4956 13.9018C61.4956 14.1814 61.3161 14.4872 61.0478 14.5012C60.7124 14.5186 60.5111 14.1185 60.3501 13.8022C60.0499 13.2214 59.5864 12.7502 59.0219 12.4515C58.8223 12.3643 58.6328 12.2541 58.4567 12.123C58.3694 12.0557 58.301 11.9652 58.2585 11.8611C58.216 11.7569 58.2011 11.6428 58.2152 11.5306C58.2575 11.4024 58.3397 11.2926 58.4488 11.2188C58.558 11.145 58.6877 11.1115 58.8173 11.1235C59.0765 11.1548 59.3252 11.2488 59.5435 11.3978" fill="#263238"/>
<path d="M56.2448 12.1076C57.204 12.3295 57.9654 13.2539 58.5088 14.1066C58.6765 14.3284 58.781 14.5948 58.8107 14.8755C58.8107 15.155 58.6312 15.4608 58.3629 15.4748C58.0275 15.4923 57.8262 15.0921 57.6652 14.7759C57.3645 14.1955 56.9011 13.7244 56.337 13.4251C56.1374 13.3408 55.9478 13.2329 55.7718 13.1036C55.6845 13.0363 55.6161 12.9459 55.5736 12.8417C55.5311 12.7376 55.5162 12.6235 55.5303 12.5113C55.5723 12.3829 55.6545 12.2729 55.7637 12.1991C55.8729 12.1252 56.0027 12.0918 56.1324 12.1041C56.3916 12.1355 56.6403 12.2294 56.8586 12.3785" fill="#263238"/>
<path d="M51.2868 30.9222C51.4804 29.643 50.9862 28.3786 50.6752 27.1271C50.2243 25.3025 50.1569 23.3966 50.0757 21.511C49.9945 19.6254 49.8701 17.7158 49.3155 15.9227C48.7609 14.1295 47.7104 12.4436 46.1589 11.5433C44.6073 10.6431 42.5168 10.6911 41.2106 11.9611L42.2835 16.7231C42.1959 23.5788 42.8428 30.4226 44.2117 37.1206C46.1397 37.2774 48.0783 37.1911 49.9876 36.8636C50.3798 36.7971 50.8307 36.6695 50.9828 36.2776C51.1676 35.8025 50.7875 35.3145 50.6096 34.8357C50.3763 34.2054 50.4938 33.4899 50.6977 32.8485C50.9016 32.207 51.1849 31.5933 51.2868 30.9222Z" fill="#263238"/>
<path d="M43.9022 12.974C43.3007 12.4188 42.5801 12.0314 41.8047 11.8464C41.4933 11.7488 41.1617 11.7533 40.8527 11.8593C40.5538 11.9868 40.3119 12.3251 40.3759 12.6634L42.4492 15.3439C42.8431 15.6841 43.4375 15.5768 43.8728 15.3014C44.2098 15.087 44.5121 14.7468 44.564 14.3383C44.6296 13.8077 44.2806 13.3234 43.9022 12.974Z" fill="#0E7490"/>
<path d="M30.4848 22.2839C30.5262 18.1578 33.5636 14.6048 37.4856 14.4033C41.6461 14.187 45.0878 17.6254 45.1465 21.9511L44.9737 39.3872C44.969 39.7237 44.8595 40.0489 44.6627 40.3115C43.6122 41.7293 41.8085 42.7664 40.2535 42.8792C38.7452 42.9882 37.2576 42.4595 36.0395 41.6092C35.8368 41.4661 35.673 41.2685 35.5644 41.0361C35.4558 40.8038 35.4063 40.5449 35.421 40.2856L35.6093 36.3998C35.6098 36.3964 35.6096 36.393 35.6087 36.3897C35.6078 36.3864 35.6062 36.3834 35.6041 36.3809C35.6019 36.3784 35.5992 36.3765 35.5962 36.3753C35.5932 36.3741 35.59 36.3736 35.5868 36.3739C35.2456 36.3755 34.9052 36.3395 34.5709 36.2667C33.6258 35.9432 31.2432 34.7527 30.6748 30.8448C30.4865 29.5433 30.4467 25.9034 30.4848 22.2839Z" fill="#FFBE9D"/>
<path d="M35.4466 28.3617C35.4466 28.3229 35.0509 28.2508 34.4099 28.1639C34.2458 28.1455 34.0903 28.1103 34.0644 27.992C34.0522 27.8131 34.0914 27.6345 34.1767 27.48L34.6708 26.1656C35.3619 24.293 35.8526 22.7531 35.78 22.7254C35.7075 22.6976 35.0889 24.1913 34.4099 26.0658C34.2458 26.5261 34.0868 26.9661 33.9365 27.3875C33.8743 27.5835 33.7637 27.8072 33.8484 28.066C33.8722 28.1275 33.9089 28.1823 33.9556 28.2262C34.0023 28.2701 34.0579 28.3019 34.1179 28.3192C34.2088 28.3448 34.3022 28.3584 34.3961 28.3599C35.0388 28.3969 35.4448 28.4006 35.4466 28.3617Z" fill="#263238"/>
<path d="M32.4246 25.2688C32.4232 25.4341 32.4826 25.5934 32.5899 25.7123C32.6971 25.8313 32.8438 25.9003 32.9983 25.9047C33.0738 25.9115 33.1499 25.9022 33.222 25.8772C33.2942 25.8523 33.361 25.8123 33.4186 25.7595C33.4761 25.7067 33.5233 25.6421 33.5573 25.5696C33.5913 25.4971 33.6116 25.4181 33.6168 25.3372C33.6182 25.1724 33.5591 25.0136 33.4521 24.895C33.3451 24.7764 33.1989 24.7075 33.0449 24.7031C32.9693 24.6958 32.8931 24.7047 32.8207 24.7293C32.7484 24.7539 32.6814 24.7937 32.6236 24.8464C32.5658 24.8991 32.5185 24.9636 32.4843 25.0361C32.4501 25.1087 32.4299 25.1878 32.4246 25.2688Z" fill="#263238"/>
<path d="M31.6353 23.0891C31.701 23.1944 32.1934 22.7988 32.8344 22.8506C33.4754 22.9023 33.9091 23.3553 33.9885 23.2591C34.0266 23.2185 33.9678 23.0299 33.7795 22.821C33.538 22.5561 33.2139 22.3956 32.869 22.37C32.522 22.3455 32.1786 22.4572 31.9031 22.6842C31.6872 22.8672 31.6042 23.0447 31.6353 23.0891Z" fill="#263238"/>
<path d="M38.5271 25.5223C38.5252 25.6874 38.5842 25.8467 38.6912 25.9657C38.7982 26.0847 38.9447 26.1538 39.099 26.1582C39.1746 26.165 39.2508 26.1557 39.323 26.1308C39.3953 26.1059 39.4622 26.0659 39.5199 26.0131C39.5776 25.9603 39.6249 25.8958 39.6591 25.8233C39.6934 25.7508 39.7138 25.6717 39.7192 25.5907C39.7202 25.426 39.6609 25.2675 39.554 25.149C39.4472 25.0305 39.3012 24.9614 39.1473 24.9566C39.0718 24.9495 38.9957 24.9586 38.9234 24.9833C38.8512 25.008 38.7842 25.0479 38.7265 25.1005C38.6688 25.1531 38.6214 25.2175 38.5872 25.29C38.553 25.3624 38.5325 25.4413 38.5271 25.5223Z" fill="#263238"/>
<path d="M37.7082 23.1691C37.7928 23.2652 38.2628 22.7993 38.9573 22.7531C39.6519 22.7069 40.1771 23.0933 40.2497 22.9861C40.2843 22.938 40.1961 22.7605 39.9646 22.5812C39.6619 22.3536 39.2954 22.244 38.9263 22.2706C38.5572 22.2971 38.2077 22.4583 37.9362 22.7272C37.7324 22.9398 37.6667 23.1265 37.7082 23.1691Z" fill="#263238"/>
<path d="M35.6106 36.3684C35.6106 36.3684 38.0934 36.5847 41.212 34.6215C41.212 34.6215 40.2133 38.0747 35.5484 37.6126L35.6106 36.3684Z" fill="#EB996E"/>
<path d="M35.7077 29.9945C35.8317 29.8328 35.9914 29.7067 36.1724 29.6277C36.3534 29.5486 36.55 29.519 36.7443 29.5416C36.8852 29.5547 37.0222 29.5979 37.1471 29.6688C37.2721 29.7396 37.3825 29.8365 37.4717 29.9538C37.5574 30.0664 37.6079 30.2049 37.6163 30.3498C37.6247 30.4946 37.5904 30.6387 37.5184 30.7617C37.3456 31.0168 36.981 31.076 36.6735 30.9854C36.3714 30.872 36.0931 30.6961 35.8545 30.4678C35.7827 30.4137 35.7206 30.346 35.6714 30.2681C35.6473 30.2309 35.6343 30.1868 35.6343 30.1415C35.6343 30.0962 35.6473 30.052 35.6714 30.0149" fill="#EB996E"/>
<path d="M36.917 20.5737C36.9774 20.7586 37.6219 20.6846 38.3735 20.7955C39.125 20.9064 39.7332 21.1338 39.8369 20.9711C39.8835 20.8935 39.7799 20.7179 39.538 20.5349C39.212 20.3098 38.843 20.1659 38.4582 20.1137C38.0733 20.0616 37.6824 20.1025 37.3143 20.2336C37.0344 20.3445 36.8928 20.4868 36.917 20.5737Z" fill="#263238"/>
<path d="M31.5418 21.5446C31.68 21.6943 32.2035 21.5187 32.8376 21.491C33.4717 21.4633 34.009 21.5575 34.13 21.393C34.1818 21.3135 34.0937 21.1619 33.857 21.0233C33.5271 20.8575 33.1639 20.7818 32.7999 20.8031C32.4359 20.8244 32.0826 20.942 31.7716 21.1453C31.5608 21.3117 31.4813 21.4707 31.5418 21.5446Z" fill="#263238"/>
<path d="M36.9703 13.4921C37.3469 12.9061 37.9879 12.675 38.698 12.614C41.5713 12.3681 44.6242 14.4386 46.0479 17.1191C47.4716 19.7995 47.3074 23.6261 45.9563 26.3491L44.8765 26.4674C42.665 26.1587 39.3649 19.2579 36.4917 15.3666C36.1271 14.8841 36.6455 13.9986 36.9703 13.4921Z" fill="#263238"/>
<path d="M31.3987 15.0762C32.6824 13.7193 34.7298 12.0999 37.1331 13.2904C37.4475 14.0576 36.6528 14.9542 36.0031 15.4773C35.0546 16.2316 34.2356 16.727 33.6102 17.2705C32.3437 18.3685 30.7421 20.2282 30.4829 22.3967C30.4674 22.5316 30.3672 22.5445 30.2411 22.5131C30.0769 22.4743 29.7521 21.5555 29.6346 20.3558C29.3824 17.801 30.1149 16.4349 31.3987 15.0762Z" fill="#263238"/>
<path d="M44.2548 25.0293C44.3239 24.9941 47.0192 24.0809 46.995 27.0479C46.9708 30.015 44.1892 29.3753 44.184 29.2903C44.1788 29.2053 44.2548 25.0293 44.2548 25.0293Z" fill="#FFBE9D"/>
<path d="M45.0374 28.173C45.0494 28.1638 45.084 28.21 45.1669 28.2507C45.2806 28.305 45.4095 28.3096 45.5263 28.2636C45.8218 28.1508 46.0723 27.6554 46.0913 27.1212C46.1 26.8674 46.0558 26.6148 45.9617 26.3817C45.9368 26.2886 45.8911 26.2034 45.8284 26.1335C45.7658 26.0636 45.6882 26.0111 45.6023 25.9806C45.5469 25.9648 45.4881 25.9699 45.4358 25.9952C45.3836 26.0205 45.3411 26.0643 45.3155 26.1192C45.2792 26.2024 45.2948 26.2616 45.281 26.2671C45.2671 26.2727 45.2222 26.2153 45.2447 26.0933C45.2609 26.0201 45.2999 25.9549 45.3553 25.9085C45.4322 25.8478 45.5284 25.8219 45.6231 25.8364C45.7368 25.8618 45.8425 25.918 45.9303 25.9995C46.018 26.0811 46.0847 26.1853 46.1241 26.3022C46.2405 26.56 46.2957 26.8444 46.2848 27.1304C46.2606 27.7275 45.9703 28.2858 45.5678 28.4041C45.4929 28.4266 45.4143 28.4308 45.3378 28.4164C45.2612 28.402 45.1886 28.3694 45.1255 28.3209C45.046 28.2451 45.0374 28.1786 45.0374 28.173Z" fill="#EB996E"/>
<path d="M30.8008 15.6385C31.0598 15.7288 31.3288 15.7822 31.6008 15.7975C32.254 15.8702 32.9118 15.8826 33.567 15.8345C34.2224 15.7873 34.8728 15.6791 35.5107 15.511C35.9979 15.3779 36.2899 15.2596 36.283 15.2374C36.2761 15.2152 35.9737 15.2855 35.4848 15.3834C34.8469 15.513 34.2025 15.6031 33.5549 15.6533C32.9078 15.6993 32.2588 15.7042 31.6112 15.6681C31.1136 15.6404 30.8043 15.6108 30.8008 15.6385Z" fill="#455A64"/>
<path d="M29.7659 17.7101C29.951 17.8123 30.1528 17.8751 30.3603 17.895C31.3595 18.0663 32.3838 17.8852 33.2785 17.3792C33.6154 17.1833 33.7968 17.0095 33.7847 16.9984C33.7588 16.9448 32.9657 17.5179 31.8306 17.7101C30.6955 17.9024 29.7746 17.651 29.7659 17.7101Z" fill="#455A64"/>
<path d="M46.3452 18.1485C46.3452 18.1097 45.7405 18.191 44.7764 18.1097C44.2124 18.0594 43.6524 17.9667 43.1005 17.8324C42.4268 17.6613 41.7647 17.4414 41.1188 17.1743C40.4759 16.895 39.8498 16.5733 39.2442 16.2112C38.7516 15.9108 38.2752 15.5812 37.817 15.224C37.0344 14.614 36.6076 14.1629 36.58 14.187C36.6652 14.3081 36.7619 14.4196 36.8685 14.5197C36.9846 14.6466 37.1069 14.7669 37.2348 14.8802C37.3816 15.017 37.5475 15.1741 37.7531 15.3294C38.2052 15.7045 38.6796 16.0479 39.1733 16.3572C39.7817 16.7291 40.4132 17.0559 41.0635 17.3351C41.7175 17.6089 42.3898 17.8302 43.0746 17.9969C43.6348 18.1266 44.204 18.2076 44.7764 18.2391C44.9961 18.2548 45.2164 18.2579 45.4364 18.2483C45.6028 18.2485 45.769 18.2374 45.934 18.2151C46.0728 18.2069 46.2105 18.1847 46.3452 18.1485Z" fill="#455A64"/>
<path d="M36.7148 15.2255C36.7684 15.3733 36.8355 15.5151 36.9152 15.6488C36.9977 15.8128 37.0882 15.972 37.1865 16.1257C37.3005 16.3106 37.418 16.5213 37.5787 16.7358C37.935 17.2527 38.3284 17.7391 38.7553 18.1906C39.282 18.741 39.8539 19.2397 40.464 19.6806C41.0809 20.1128 41.7332 20.484 42.4129 20.7898C42.9691 21.0336 43.5436 21.2266 44.1303 21.3665C44.3791 21.4368 44.6106 21.4663 44.8093 21.5033C44.9807 21.537 45.1538 21.5599 45.3277 21.5717C45.4746 21.5952 45.6234 21.602 45.7717 21.592C45.7717 21.5551 45.1428 21.5052 44.1597 21.2408C43.5849 21.0838 43.0218 20.8811 42.4751 20.6345C41.8081 20.3238 41.167 19.9528 40.559 19.5253C39.9574 19.0908 39.391 18.6029 38.8658 18.0668C38.4381 17.6264 38.0397 17.1545 37.6737 16.6544C37.0517 15.7985 36.7442 15.207 36.7148 15.2255Z" fill="#455A64"/>
<path d="M38.6914 12.6137C38.6914 12.5952 38.4789 12.5508 38.135 12.6137C37.6888 12.7242 37.2812 12.9685 36.9602 13.318C36.8682 13.4184 36.7855 13.528 36.7131 13.6452C36.6497 13.7571 36.5982 13.8761 36.5593 14.0001C36.4824 14.1993 36.4201 14.4045 36.3727 14.6139C36.3002 14.9836 36.3727 15.2184 36.3848 15.211C36.3969 15.2036 36.3848 14.9836 36.4902 14.6472C36.5525 14.4491 36.6246 14.2547 36.7062 14.0648C36.7452 13.9524 36.795 13.8446 36.8548 13.7432C36.9232 13.6382 36.9995 13.5393 37.0828 13.4474C37.3848 13.1212 37.7567 12.8788 38.1661 12.7412C38.4806 12.6488 38.6931 12.6451 38.6914 12.6137Z" fill="#455A64"/>
<path d="M43.1506 23.9432C43.1506 23.9007 42.4837 23.9303 41.4989 23.5383C40.2244 23.0018 39.123 22.0809 38.3284 20.8875C37.5502 19.6811 36.9872 18.3311 36.6681 16.9056C36.5367 16.351 36.4504 15.9129 36.3933 15.6115C36.3715 15.4491 36.3368 15.2889 36.2897 15.1328C36.2867 15.297 36.2994 15.4612 36.3277 15.6226C36.364 15.9369 36.4331 16.3898 36.5506 16.9444C36.8392 18.3999 37.396 19.7793 38.1885 21.0021C39.1474 22.4236 40.4467 23.3165 41.4574 23.6678C41.8554 23.8167 42.2692 23.9117 42.6893 23.9506C42.8042 23.9618 42.9196 23.9655 43.0348 23.9617C43.1091 23.9543 43.1506 23.9506 43.1506 23.9432Z" fill="#263238"/>
<path d="M29.3389 26.7876C29.449 26.8211 29.567 26.8086 29.6688 26.7524C29.7827 26.6814 29.8723 26.5732 29.9246 26.4437C29.9591 26.3589 29.977 26.2673 29.977 26.1748C29.977 26.0822 29.9591 25.9906 29.9246 25.9058C29.8357 25.6955 29.7116 25.5044 29.5583 25.342C29.3734 25.1494 29.2062 24.9383 29.0589 24.7116C28.9806 24.58 28.9277 24.4329 28.9035 24.279C28.8809 24.1159 28.8969 23.9494 28.9501 23.7947C29.0651 23.4867 29.242 23.2096 29.4684 22.9831C29.6882 22.7707 29.8774 22.5246 30.03 22.2529C30.1471 21.9922 30.1874 21.6995 30.1457 21.4137C30.0783 20.8591 29.8658 20.3748 29.8192 19.9348C29.7579 19.587 29.8046 19.2274 29.9522 18.9107C29.9974 18.8266 30.0558 18.7515 30.125 18.6888C30.1734 18.6482 30.1993 18.6278 30.201 18.6315C30.1257 18.7254 30.0591 18.8269 30.0023 18.9347C29.879 19.2463 29.8488 19.5912 29.9159 19.9219C29.9695 20.3452 30.1889 20.8166 30.2615 21.4007C30.3122 21.7148 30.2699 22.038 30.1405 22.325C29.984 22.6093 29.7883 22.8667 29.56 23.0885C29.3439 23.301 29.173 23.5607 29.0589 23.8501C29.0144 23.9831 28.9995 24.1254 29.0154 24.2657C29.0313 24.4059 29.0776 24.5402 29.1505 24.658C29.2918 24.8792 29.4521 25.0859 29.6291 25.2754C29.7874 25.4449 29.9151 25.6442 30.0058 25.8633C30.0427 25.9592 30.0607 26.0622 30.0586 26.1659C30.0565 26.2696 30.0344 26.3718 29.9937 26.4659C29.9304 26.6068 29.8253 26.7212 29.6948 26.7913C29.6117 26.8349 29.5169 26.8461 29.427 26.8227C29.3954 26.8188 29.3651 26.8067 29.3389 26.7876Z" fill="#263238"/>
<path d="M46.499 25.1827C46.5019 25.1304 46.5118 25.0787 46.5284 25.0293C46.5491 24.9295 46.5906 24.7853 46.6303 24.5949C46.7539 24.0637 46.8462 23.5247 46.9067 22.9811C46.9987 22.1768 47.0091 21.3642 46.9378 20.5575C46.8575 19.5695 46.6337 18.6009 46.2744 17.6867C46.0837 17.2176 45.848 16.7709 45.5712 16.3538C45.3091 15.9679 45.0154 15.6079 44.6935 15.2779C44.1446 14.7241 43.5348 14.2436 42.8776 13.8471C42.4308 13.5763 41.9692 13.3343 41.4954 13.1225C41.3226 13.043 41.1965 12.9912 41.1101 12.9487C41.0636 12.9319 41.019 12.9095 40.9771 12.8821C41.0258 12.8888 41.0735 12.9025 41.1188 12.9228C41.2086 12.9561 41.3451 13.0005 41.5144 13.0725C41.9958 13.2669 42.4635 13.4979 42.9139 13.7639C43.589 14.1527 44.2144 14.633 44.7747 15.1929C45.1047 15.5256 45.4054 15.8901 45.6731 16.2817C45.9571 16.7054 46.198 17.1603 46.3919 17.6386C46.7565 18.5658 46.9805 19.5493 47.0553 20.552C47.1198 21.3679 47.0978 22.189 46.9897 22.9995C46.921 23.5457 46.8147 24.0858 46.6718 24.6152C46.6251 24.8001 46.575 24.9443 46.5456 25.0423C46.534 25.0905 46.5184 25.1375 46.499 25.1827Z" fill="#455A64"/>
<path d="M44.3671 34.5791C44.3364 34.5515 44.3091 34.5198 44.2859 34.4848C44.2138 34.3904 44.1502 34.2889 44.0958 34.1817C43.8872 33.7887 43.7688 33.3484 43.7503 32.8969C43.7362 32.5854 43.7683 32.2734 43.8453 31.9726C43.9501 31.6357 44.0843 31.3102 44.2461 31.0002C44.393 30.6767 44.5087 30.2793 44.3239 29.9447C44.139 29.6101 43.7917 29.3901 43.555 29.0093C43.4939 28.9118 43.4567 28.7993 43.447 28.6823C43.4374 28.5653 43.4555 28.4476 43.4997 28.3401C43.5971 28.1553 43.713 27.9824 43.8453 27.8243C43.9457 27.6738 44.0085 27.4984 44.0278 27.3147C44.0472 27.1309 44.0224 26.9449 43.9559 26.7743C43.8403 26.4515 43.6724 26.153 43.46 25.8925C43.2751 25.6514 43.1092 25.3941 42.9641 25.1235C42.8517 24.9281 42.7864 24.7059 42.7741 24.4768C42.7617 24.2477 42.8027 24.019 42.8933 23.811C42.9468 23.7003 43.0259 23.6061 43.1231 23.5374C43.1551 23.5113 43.1914 23.4918 43.2302 23.4801C43.1062 23.5706 43.0057 23.6934 42.9382 23.8369C42.8606 24.0373 42.8297 24.2549 42.8481 24.471C42.8664 24.687 42.9335 24.8951 43.0436 25.0773C43.1924 25.3382 43.3612 25.5856 43.5481 25.8167C43.7704 26.0857 43.9459 26.3949 44.0664 26.7299C44.1308 26.9173 44.1596 27.1165 44.1511 27.316C44.1377 27.5281 44.0662 27.7312 43.9455 27.9001C43.823 28.0521 43.7143 28.2161 43.6207 28.39C43.5842 28.4774 43.5696 28.5733 43.578 28.6685C43.5865 28.7638 43.6179 28.855 43.6691 28.9335C43.8747 29.2736 44.2409 29.4881 44.4396 29.8763C44.5367 30.0643 44.5708 30.2821 44.5364 30.4937C44.5041 30.6865 44.4459 30.8733 44.3636 31.0483C44.2016 31.3512 44.0657 31.6692 43.9576 31.9985C43.8789 32.2884 43.8428 32.5896 43.8505 32.8913C43.8609 33.3309 43.9618 33.7626 44.1459 34.1558C44.272 34.4349 44.3774 34.5699 44.3671 34.5791Z" fill="#263238"/>
<path d="M53.1388 33.4414C53.1578 33.4783 53.106 33.5745 52.9349 33.6429C52.8055 33.6835 52.6695 33.6939 52.5359 33.6735C52.4024 33.6531 52.2745 33.6023 52.1609 33.5245C51.9904 33.4187 51.8435 33.2742 51.7307 33.1012C51.6624 32.9979 51.6072 32.8854 51.5666 32.7666C51.5256 32.6439 51.4972 32.5169 51.4819 32.3876C51.4403 31.8243 51.5368 31.2592 51.7618 30.7479C51.9639 30.2248 52.2076 29.709 52.2283 29.2413C52.249 28.7736 52.0555 28.2579 51.7307 27.6922C51.4059 27.1265 50.9377 26.5183 50.5852 25.729C50.2385 24.9456 49.991 24.1163 49.8492 23.2629C49.5503 21.5511 49.533 19.9595 49.3689 18.5823C49.2496 17.3824 48.9423 16.2125 48.4601 15.1217C48.1334 14.3978 47.6705 13.754 47.1003 13.2306C46.8895 13.055 46.7219 12.9089 46.601 12.8165C46.48 12.7241 46.4282 12.6409 46.4386 12.5965C46.4489 12.5521 46.5405 12.541 46.6995 12.5614C46.9299 12.5992 47.154 12.6727 47.3647 12.7795C48.1387 13.1976 48.7889 13.8376 49.2427 14.6281C49.9051 15.7766 50.3446 17.056 50.5351 18.39C50.7735 19.8578 50.8288 21.4439 51.107 22.9986C51.2275 23.738 51.4324 24.4588 51.7169 25.1448C51.9778 25.7826 52.3907 26.3667 52.7449 27.0452C52.9321 27.3887 53.0806 27.7549 53.1872 28.1359C53.2985 28.5297 53.3314 28.944 53.284 29.3522C53.2303 29.7136 53.1236 30.0636 52.9678 30.3893C52.8347 30.6795 52.6965 30.9273 52.579 31.1546C52.3695 31.5104 52.2384 31.9124 52.1955 32.3303C52.1918 32.41 52.1953 32.4899 52.2058 32.5688C52.215 32.6355 52.2319 32.7007 52.2559 32.7629C52.3015 32.8837 52.3691 32.9937 52.4546 33.0864C52.7794 33.4543 53.1043 33.3471 53.1388 33.4414Z" fill="#263238"/>
<path d="M37.8172 29.9827C37.8172 30.0418 37.2488 30.0548 36.5784 30.2249C35.908 30.3949 35.407 30.6815 35.3811 30.6334C35.3552 30.5853 35.832 30.2119 36.5369 30.0381C37.2419 29.8644 37.8207 29.9291 37.8172 29.9827Z" fill="#263238"/>
<path d="M31.7561 39.509L37.2037 39.0228L44.9735 39.387L50.1654 40.4019L41.9153 45.541L35.7784 44.698L31.7561 39.509Z" fill="#FFBE9D"/>
<path d="M31.6785 39.5089C31.6785 39.5089 27.3591 40.5774 25.9009 42.1376C24.4427 43.6978 22.9309 49.2788 22.6182 50.9203C22.3054 52.5619 21.3137 66.4394 21.9271 68.41C22.5404 70.3806 24.9264 72.0221 27.76 72.6784C30.5935 73.3346 35.3621 73.8282 35.3621 73.8282L37.7412 65.7923L29.7383 63.4927L31.6785 39.5089Z" fill="#0E7490"/>
<path d="M41.0964 64.1398L47.7673 64.4264C47.7673 64.4264 49.6471 62.1914 50.117 59.2854C50.587 56.3794 50.3779 54.3108 50.3779 54.3108L52.2595 41.0101C52.2595 41.0101 54.9219 40.8992 56.0191 44.3635C57.1162 47.8278 56.1279 58.0099 56.0191 60.6829C55.9309 62.8532 54.8528 67.9535 53.2909 70.9427C52.624 72.2201 51.463 72.8467 50.7442 72.8911C48.3409 73.0335 41.4472 71.8596 41.4472 71.8596L41.1016 64.3709" fill="#0E7490"/>
<path d="M31.6783 39.5089C31.6783 39.5089 36.1152 41.8012 42.3714 41.4869C48.6276 41.1727 48.7866 40.069 48.7866 40.069L52.6101 41.047L51.6477 61.5664L49.7766 70.3381L51.3557 76.4218L23.7859 76.3294L27.3555 65.3431L31.6783 39.5089Z" fill="#0E7490"/>
<path d="M42.183 63.6888C42.2903 63.6548 42.4001 63.6307 42.5113 63.6167C42.7255 63.5798 43.0434 63.5317 43.4512 63.4836C44.265 63.3801 45.4433 63.3302 46.8514 63.1139L46.7892 63.186C46.8825 61.2117 46.8842 58.7494 46.9741 56.0892C47.0328 54.4144 47.1469 52.8172 47.3196 51.3734C47.4764 50.0947 47.7154 48.8291 48.0349 47.5856C48.2529 46.7482 48.5218 45.9269 48.8401 45.127C48.9506 44.8442 49.0491 44.6279 49.1165 44.4837C49.1465 44.4078 49.1835 44.3353 49.2271 44.2674C49.2087 44.3477 49.1827 44.4257 49.1493 44.5003C49.0923 44.6501 49.0059 44.87 48.904 45.1547C48.613 45.9614 48.3638 46.7847 48.1576 47.6208C47.8569 48.8626 47.6324 50.1242 47.4855 51.3975C47.3127 52.8338 47.2056 54.4236 47.1399 56.0966C47.0501 58.753 47.0346 61.2154 46.9222 63.1952V63.2581L46.8652 63.2673C45.4416 63.4762 44.265 63.504 43.4495 63.5798C43.0417 63.613 42.7238 63.6481 42.5078 63.6703C42.4002 63.6856 42.2916 63.6918 42.183 63.6888Z" fill="#263238"/>
<path d="M28.0396 56.8114C28.0032 56.6823 27.9823 56.5487 27.9774 56.414C27.9463 56.157 27.9152 55.7836 27.8841 55.3214C27.8219 54.3971 27.7804 53.1179 27.8132 51.7037C27.8461 50.2895 27.9497 49.0122 28.0551 48.0934C28.1087 47.6331 28.1571 47.2615 28.2003 47.0064C28.2126 46.8722 28.2399 46.74 28.2815 46.6127C28.2948 46.747 28.2907 46.8826 28.2694 47.0157C28.2486 47.2874 28.2175 47.6571 28.1812 48.1063C28.1087 49.0306 28.0275 50.3006 27.9929 51.7074C27.9584 53.1142 27.9826 54.3916 28.0102 55.314C28.0258 55.767 28.0378 56.1367 28.0465 56.4084C28.0595 56.5426 28.0571 56.6779 28.0396 56.8114Z" fill="#263238"/>
<path d="M41.0359 71.2791C40.9813 71.3071 40.9231 71.3264 40.8632 71.3364C40.7526 71.3678 40.5884 71.4103 40.3777 71.464C39.9561 71.5656 39.341 71.708 38.5808 71.8559C36.5948 72.2443 34.5905 72.5171 32.5768 72.6729C31.3968 72.7617 30.2737 72.8245 29.244 72.8227C28.3352 72.8353 27.4289 72.7153 26.5504 72.4659C26.2121 72.3621 25.8835 72.2247 25.5691 72.0555C25.3345 71.9225 25.1108 71.7685 24.9004 71.5952L24.6775 71.3956C24.6188 71.3327 24.5704 71.2754 24.5307 71.2329C24.4512 71.1423 24.4132 71.0942 24.4184 71.0887C24.4681 71.1207 24.514 71.1592 24.5549 71.2033L24.7138 71.3512L24.9419 71.536C25.1554 71.696 25.3801 71.8381 25.614 71.9612C25.9264 72.1144 26.2507 72.2382 26.5833 72.3309C27.4589 72.5585 28.3586 72.6629 29.2595 72.6415C30.2772 72.6415 31.402 72.5657 32.5786 72.477C34.93 72.2921 37.0465 71.9834 38.5722 71.7191C39.3358 71.5878 39.9544 71.4658 40.3777 71.3863C40.5902 71.3456 40.756 71.3142 40.8683 71.2957C40.9233 71.2825 40.9796 71.2769 41.0359 71.2791Z" fill="#263238"/>
<path d="M48.5169 65.2896C48.465 65.3081 48.2871 64.6537 47.7722 64.0529C47.2573 63.4521 46.6785 63.1859 46.701 63.1286C46.701 63.1064 46.8738 63.1397 47.1018 63.2617C47.7141 63.5944 48.1894 64.1582 48.4357 64.8441C48.5238 65.1103 48.5393 65.2841 48.5169 65.2896Z" fill="#263238"/>
<g opacity="0.3">
<path d="M22.3484 65.3619C23.8205 66.5043 25.3841 67.6837 27.1861 67.8926C28.4612 68.0405 29.7449 67.6838 31.0269 67.7226C32.7305 67.7743 34.3529 68.523 35.8249 69.4418C37.297 70.3605 38.6671 71.466 40.165 72.3367C41.7891 73.2776 43.5722 73.9413 45.414 74.1003C47.2558 74.2592 49.1563 73.8951 50.7562 72.9061C48.5101 73.1926 45.5263 73.1039 43.1817 72.2886C40.5693 71.3828 40.1218 70.6526 38.6204 69.7523C36.675 68.5877 34.961 66.9702 32.8929 66.0847C31.1375 65.3361 29.216 65.1517 27.3641 65.5542C26.4397 65.7575 25.4532 66.1087 24.5893 65.6947C24.2058 65.5098 23.8844 65.1974 23.4957 65.0329C23.1069 64.8683 22.573 64.9164 22.3778 65.3138" fill="black"/>
</g>
<path d="M43.0901 59.581C42.996 59.6176 42.8966 59.6364 42.7964 59.6365C42.6819 59.6526 42.5664 59.66 42.4509 59.6587C42.2966 59.6678 42.1421 59.6678 41.9878 59.6587C41.8005 59.6507 41.6136 59.6322 41.428 59.6032C41.2276 59.5792 41.0168 59.5274 40.794 59.4794C39.8265 59.2356 38.9176 58.7771 38.1263 58.1336C37.9535 57.982 37.7808 57.8415 37.6322 57.6899C37.4924 57.5563 37.3591 57.415 37.233 57.2666C37.1121 57.1353 37.0205 57.0004 36.9341 56.8876C36.8597 56.792 36.791 56.6913 36.7285 56.5863C36.6663 56.5024 36.6162 56.4089 36.58 56.309C36.6076 56.2887 36.8478 56.6603 37.3246 57.1723C37.4456 57.298 37.5769 57.4367 37.7306 57.5716C37.8844 57.7066 38.0486 57.8471 38.2248 57.9912C38.6177 58.2912 39.0339 58.5547 39.4688 58.7788C39.9069 58.9947 40.3619 59.1691 40.8285 59.3001C41.0445 59.3537 41.2501 59.411 41.4453 59.4387C41.6406 59.4664 41.8237 59.4997 41.9913 59.5182C42.6668 59.5847 43.0884 59.5459 43.0901 59.581Z" fill="#263238"/>
<path d="M54.8423 66.8695C54.8103 67.1 54.7553 67.3263 54.6782 67.5443C54.5521 67.9731 54.3603 68.5906 54.0925 69.3411C53.9497 69.7537 53.7864 70.1579 53.6035 70.5519C53.3755 71.0018 53.0841 71.4114 52.7397 71.7665C51.9429 72.5879 50.8969 73.076 49.7921 73.1418C48.7128 73.1916 47.6316 73.1452 46.5595 73.0032C45.5729 72.8775 44.6918 72.7055 43.9575 72.5336C43.2232 72.3617 42.6392 72.1824 42.2384 72.0456C42.0379 71.9809 41.8842 71.9199 41.7805 71.8792C41.726 71.8632 41.6741 71.8382 41.6267 71.8053C41.8397 71.8487 42.0503 71.9048 42.2574 71.9735C42.6634 72.0881 43.2508 72.2434 43.9851 72.4005C44.7194 72.5577 45.5971 72.7111 46.5768 72.8257C47.6398 72.9577 48.7109 72.9991 49.78 72.9496C50.8426 72.8867 51.8498 72.4222 52.6222 71.6389C52.9579 71.2995 53.2434 70.9074 53.4688 70.4761C53.6744 70.0694 53.8264 69.6572 53.9716 69.2912C54.2532 68.5517 54.4622 67.9417 54.6091 67.5202C54.6782 67.3169 54.7335 67.1505 54.7819 67.0359C54.7957 66.978 54.816 66.9221 54.8423 66.8695Z" fill="#263238"/>
<path d="M24.4944 53.7282C24.4944 53.7282 28.3905 56.9596 28.5218 57.333C28.6531 57.7064 29.9662 59.9099 31.0598 60.8453C32.1535 61.7807 42.1831 63.975 42.1831 63.975L41.6078 71.6486C41.6078 71.6486 33.3802 66.3246 30.9285 66.4725C28.4768 66.6204 26.5521 67.1287 25.5017 66.7535C24.4512 66.3782 21.8129 64.5998 21.8129 64.5998C21.8129 64.5998 21.3585 63.6164 21.8544 63.1468C21.8544 63.1468 21.5537 62.1172 21.6228 61.6495C21.6228 61.6495 21.2255 60.5754 21.6125 60.1503C21.6125 60.1503 21.5174 58.5586 22.3485 58.5586C23.1795 58.5586 24.757 58.8396 25.5017 58.7934C25.7039 58.7913 25.9022 58.7342 26.0782 58.6275C26.2541 58.5208 26.4017 58.3679 26.5072 58.1833C26.5072 58.1833 26.5072 57.7619 25.8956 57.2942C25.284 56.8265 22.9619 54.8984 24.4944 53.7282Z" fill="#FFBE9D"/>
<path d="M23.7949 61.6812C23.7758 61.7274 23.204 61.5075 22.5854 61.0693C21.9669 60.6312 21.5367 60.1635 21.5695 60.1266C21.6023 60.0896 22.0706 60.4833 22.6839 60.9085C23.2973 61.3337 23.8156 61.6295 23.7949 61.6812Z" fill="#EB996E"/>
<path d="M23.9589 63.3487C23.9485 63.3949 23.2678 63.1952 22.556 62.6517C21.8441 62.1082 21.4502 61.4779 21.4882 61.452C21.5262 61.4261 21.9772 61.9751 22.6596 62.4946C23.3421 63.0141 23.9831 63.2951 23.9589 63.3487Z" fill="#EB996E"/>
<path d="M24.1435 64.6573C24.1435 64.7054 23.4766 64.5944 22.7889 64.1286C22.1013 63.6627 21.7177 63.0804 21.7523 63.0546C21.7868 63.0287 22.2205 63.5278 22.8822 63.9659C23.544 64.404 24.159 64.6 24.1435 64.6573Z" fill="#EB996E"/>
<path d="M27.7753 50.6929C27.7753 50.7557 26.6592 50.4877 25.2943 50.6688C23.9293 50.85 22.91 51.3713 22.8875 51.314C22.8789 51.2937 23.119 51.1291 23.5423 50.9443C24.6577 50.4694 25.8701 50.3158 27.0583 50.4988C27.511 50.5746 27.7788 50.6707 27.7753 50.6929Z" fill="white"/>
<path d="M46.7737 52.1124C46.7165 52.1433 46.6554 52.1651 46.5923 52.1771L46.0618 52.3268C45.8303 52.3915 45.5435 52.4655 45.2152 52.5394C44.887 52.6133 44.5069 52.7095 44.087 52.7871C43.6672 52.8648 43.2076 52.9609 42.7048 53.0385C42.202 53.1162 41.6682 53.192 41.117 53.2677C39.9957 53.4008 38.7569 53.5044 37.4559 53.5469C36.1549 53.5894 34.9109 53.5469 33.7844 53.4859C33.2212 53.4452 32.6856 53.4101 32.188 53.3509C31.6904 53.2918 31.2239 53.2419 30.8058 53.1827C30.3876 53.1236 30.0024 53.0589 29.6672 52.9979C29.332 52.9368 29.0452 52.8869 28.8033 52.8352L28.266 52.7187C28.2027 52.7082 28.1407 52.6902 28.0811 52.6651C28.1453 52.6604 28.2099 52.6654 28.2729 52.6799L28.8154 52.7612C29.0504 52.8001 29.3337 52.8481 29.6793 52.8906C30.0248 52.9331 30.3963 52.9979 30.8196 53.0422C31.2429 53.0866 31.7059 53.1476 32.2018 53.1864C32.6977 53.2252 33.2384 53.2677 33.7948 53.3029C34.9178 53.3602 36.1549 53.3842 37.4524 53.3491C38.75 53.314 39.9819 53.2086 41.0997 53.0866C41.6595 53.0163 42.1899 52.9553 42.6841 52.874C43.1782 52.7927 43.6395 52.7224 44.0663 52.6466C44.493 52.5708 44.8645 52.4932 45.1962 52.4285C45.528 52.3638 45.8148 52.3009 46.048 52.2436L46.5854 52.129C46.6474 52.1162 46.7105 52.1106 46.7737 52.1124Z" fill="white"/>
<path d="M55.8309 51.5416C55.8119 51.573 55.4249 51.2403 54.6923 50.939C53.732 50.5641 52.7095 50.4067 51.6894 50.4768C50.6671 50.5605 49.6542 50.7462 48.6641 51.0314C47.897 51.2347 47.4219 51.3623 47.415 51.3346C47.5156 51.2745 47.623 51.2285 47.7346 51.1978C47.9454 51.122 48.2529 51.0129 48.6313 50.9002C49.6232 50.5755 50.6462 50.3721 51.6808 50.2938C52.7248 50.2187 53.771 50.3982 54.7407 50.8188C55.0311 50.9502 55.3079 51.1138 55.5665 51.3068C55.6657 51.3697 55.7549 51.4489 55.8309 51.5416Z" fill="white"/>
<g opacity="0.3">
<path d="M36.7148 56.485L36.7701 56.6514C37.0085 58.2652 38.0244 59.7515 39.436 60.3801C40.8476 61.0086 42.6082 60.6962 43.6863 59.5389C41.0774 60.1453 38.1765 58.8753 36.7148 56.485Z" fill="black"/>
</g>
<g opacity="0.3">
<path d="M50.4936 65.4058C50.2621 64.7385 49.6643 64.3077 49.0769 63.9731C48.3156 63.54 47.5149 63.1913 46.6874 62.9324L46.7081 63.1819C47.6314 63.8871 48.407 64.7906 48.9853 65.8347C49.2082 66.2395 49.495 66.722 49.9321 66.7035C50.0618 66.69 50.1853 66.6375 50.2883 66.5522C50.3913 66.4668 50.4697 66.352 50.5144 66.221C50.5992 65.9555 50.5918 65.6661 50.4936 65.4058Z" fill="black"/>
</g>
</g>
<path d="M26.5337 89.57C26.0737 89.57 25.6604 89.49 25.2937 89.33C24.9337 89.1633 24.6504 88.9367 24.4437 88.65C24.237 88.3567 24.1304 88.02 24.1237 87.64H25.0937C25.127 87.9667 25.2604 88.2433 25.4937 88.47C25.7337 88.69 26.0804 88.8 26.5337 88.8C26.967 88.8 27.307 88.6933 27.5537 88.48C27.807 88.26 27.9337 87.98 27.9337 87.64C27.9337 87.3733 27.8604 87.1567 27.7137 86.99C27.567 86.8233 27.3837 86.6967 27.1637 86.61C26.9437 86.5233 26.647 86.43 26.2737 86.33C25.8137 86.21 25.4437 86.09 25.1637 85.97C24.8904 85.85 24.6537 85.6633 24.4537 85.41C24.2604 85.15 24.1637 84.8033 24.1637 84.37C24.1637 83.99 24.2604 83.6533 24.4537 83.36C24.647 83.0667 24.917 82.84 25.2637 82.68C25.617 82.52 26.0204 82.44 26.4737 82.44C27.127 82.44 27.6604 82.6033 28.0737 82.93C28.4937 83.2567 28.7304 83.69 28.7837 84.23H27.7837C27.7504 83.9633 27.6104 83.73 27.3637 83.53C27.117 83.3233 26.7904 83.22 26.3837 83.22C26.0037 83.22 25.6937 83.32 25.4537 83.52C25.2137 83.7133 25.0937 83.9867 25.0937 84.34C25.0937 84.5933 25.1637 84.8 25.3037 84.96C25.4504 85.12 25.627 85.2433 25.8337 85.33C26.047 85.41 26.3437 85.5033 26.7237 85.61C27.1837 85.7367 27.5537 85.8633 27.8337 85.99C28.1137 86.11 28.3537 86.3 28.5537 86.56C28.7537 86.8133 28.8537 87.16 28.8537 87.6C28.8537 87.94 28.7637 88.26 28.5837 88.56C28.4037 88.86 28.137 89.1033 27.7837 89.29C27.4304 89.4767 27.0137 89.57 26.5337 89.57ZM31.3029 84.77V88C31.3029 88.2667 31.3595 88.4567 31.4729 88.57C31.5862 88.6767 31.7829 88.73 32.0629 88.73H32.7329V89.5H31.9129C31.4062 89.5 31.0262 89.3833 30.7729 89.15C30.5195 88.9167 30.3929 88.5333 30.3929 88V84.77H29.6829V84.02H30.3929V82.64H31.3029V84.02H32.7329V84.77H31.3029ZM34.7454 84.91C34.9054 84.5967 35.1321 84.3533 35.4254 84.18C35.7254 84.0067 36.0888 83.92 36.5154 83.92V84.86H36.2754C35.2554 84.86 34.7454 85.4133 34.7454 86.52V89.5H33.8354V84.02H34.7454V84.91ZM42.5659 86.55C42.5659 86.7233 42.5559 86.9067 42.5359 87.1H38.1559C38.1892 87.64 38.3726 88.0633 38.7059 88.37C39.0459 88.67 39.4559 88.82 39.9359 88.82C40.3292 88.82 40.6559 88.73 40.9159 88.55C41.1826 88.3633 41.3692 88.1167 41.4759 87.81H42.4559C42.3092 88.3367 42.0159 88.7667 41.5759 89.1C41.1359 89.4267 40.5892 89.59 39.9359 89.59C39.4159 89.59 38.9492 89.4733 38.5359 89.24C38.1292 89.0067 37.8092 88.6767 37.5759 88.25C37.3426 87.8167 37.2259 87.3167 37.2259 86.75C37.2259 86.1833 37.3392 85.6867 37.5659 85.26C37.7926 84.8333 38.1092 84.5067 38.5159 84.28C38.9292 84.0467 39.4026 83.93 39.9359 83.93C40.4559 83.93 40.9159 84.0433 41.3159 84.27C41.7159 84.4967 42.0226 84.81 42.2359 85.21C42.4559 85.6033 42.5659 86.05 42.5659 86.55ZM41.6259 86.36C41.6259 86.0133 41.5492 85.7167 41.3959 85.47C41.2426 85.2167 41.0326 85.0267 40.7659 84.9C40.5059 84.7667 40.2159 84.7 39.8959 84.7C39.4359 84.7 39.0426 84.8467 38.7159 85.14C38.3959 85.4333 38.2126 85.84 38.1659 86.36H41.6259ZM45.7071 89.59C45.2871 89.59 44.9104 89.52 44.5771 89.38C44.2437 89.2333 43.9804 89.0333 43.7871 88.78C43.5937 88.52 43.4871 88.2233 43.4671 87.89H44.4071C44.4337 88.1633 44.5604 88.3867 44.7871 88.56C45.0204 88.7333 45.3237 88.82 45.6971 88.82C46.0437 88.82 46.3171 88.7433 46.5171 88.59C46.7171 88.4367 46.8171 88.2433 46.8171 88.01C46.8171 87.77 46.7104 87.5933 46.4971 87.48C46.2837 87.36 45.9537 87.2433 45.5071 87.13C45.1004 87.0233 44.7671 86.9167 44.5071 86.81C44.2537 86.6967 44.0337 86.5333 43.8471 86.32C43.6671 86.1 43.5771 85.8133 43.5771 85.46C43.5771 85.18 43.6604 84.9233 43.8271 84.69C43.9937 84.4567 44.2304 84.2733 44.5371 84.14C44.8437 84 45.1937 83.93 45.5871 83.93C46.1937 83.93 46.6837 84.0833 47.0571 84.39C47.4304 84.6967 47.6304 85.1167 47.6571 85.65H46.7471C46.7271 85.3633 46.6104 85.1333 46.3971 84.96C46.1904 84.7867 45.9104 84.7 45.5571 84.7C45.2304 84.7 44.9704 84.77 44.7771 84.91C44.5837 85.05 44.4871 85.2333 44.4871 85.46C44.4871 85.64 44.5437 85.79 44.6571 85.91C44.7771 86.0233 44.9237 86.1167 45.0971 86.19C45.2771 86.2567 45.5237 86.3333 45.8371 86.42C46.2304 86.5267 46.5504 86.6333 46.7971 86.74C47.0437 86.84 47.2537 86.9933 47.4271 87.2C47.6071 87.4067 47.7004 87.6767 47.7071 88.01C47.7071 88.31 47.6237 88.58 47.4571 88.82C47.2904 89.06 47.0537 89.25 46.7471 89.39C46.4471 89.5233 46.1004 89.59 45.7071 89.59ZM50.9317 89.59C50.5117 89.59 50.135 89.52 49.8017 89.38C49.4683 89.2333 49.205 89.0333 49.0117 88.78C48.8183 88.52 48.7117 88.2233 48.6917 87.89H49.6317C49.6583 88.1633 49.785 88.3867 50.0117 88.56C50.245 88.7333 50.5483 88.82 50.9217 88.82C51.2683 88.82 51.5417 88.7433 51.7417 88.59C51.9417 88.4367 52.0417 88.2433 52.0417 88.01C52.0417 87.77 51.935 87.5933 51.7217 87.48C51.5083 87.36 51.1783 87.2433 50.7317 87.13C50.325 87.0233 49.9917 86.9167 49.7317 86.81C49.4783 86.6967 49.2583 86.5333 49.0717 86.32C48.8917 86.1 48.8017 85.8133 48.8017 85.46C48.8017 85.18 48.885 84.9233 49.0517 84.69C49.2183 84.4567 49.455 84.2733 49.7617 84.14C50.0683 84 50.4183 83.93 50.8117 83.93C51.4183 83.93 51.9083 84.0833 52.2817 84.39C52.655 84.6967 52.855 85.1167 52.8817 85.65H51.9717C51.9517 85.3633 51.835 85.1333 51.6217 84.96C51.415 84.7867 51.135 84.7 50.7817 84.7C50.455 84.7 50.195 84.77 50.0017 84.91C49.8083 85.05 49.7117 85.2333 49.7117 85.46C49.7117 85.64 49.7683 85.79 49.8817 85.91C50.0017 86.0233 50.1483 86.1167 50.3217 86.19C50.5017 86.2567 50.7483 86.3333 51.0617 86.42C51.455 86.5267 51.775 86.6333 52.0217 86.74C52.2683 86.84 52.4783 86.9933 52.6517 87.2C52.8317 87.4067 52.925 87.6767 52.9317 88.01C52.9317 88.31 52.8483 88.58 52.6817 88.82C52.515 89.06 52.2783 89.25 51.9717 89.39C51.6717 89.5233 51.325 89.59 50.9317 89.59Z" fill="#164E63"/>
<defs>
<clipPath id="clip0_2012_7582">
<rect y="0.5" width="77" height="73" rx="36.5" fill="white"/>
</clipPath>
</defs>
</svg>
