<svg width="79" height="94" viewBox="0 0 79 94" fill="none" xmlns="http://www.w3.org/2000/svg">
<g clip-path="url(#clip0_2012_7801)">
<rect y="0.5" width="79" height="73" rx="36.5" fill="#ECFEFF"/>
<path d="M52.5418 16.6034L48.0755 14.6748L47.3597 18.8357L50.9638 21.1149L53.0461 19.1213L52.5418 16.6034Z" fill="#FFBE9D"/>
<path d="M27.1392 29.6645C26.8283 28.4372 27.2368 27.1611 27.4537 25.914C27.77 24.0938 27.6724 22.2321 27.6037 20.3884C27.535 18.5448 27.4952 16.6722 27.9218 14.8756C28.3484 13.0789 29.2991 11.3401 30.8355 10.3225C32.3719 9.30486 34.559 9.16388 36.0285 10.2827L35.3055 15.0166C35.9794 21.687 35.886 28.4126 35.0271 35.0617C33.0306 35.3891 31.0025 35.4807 28.9846 35.3347C28.5707 35.3057 28.0899 35.2226 27.9001 34.8557C27.667 34.4074 28.0194 33.8977 28.1658 33.4097C28.3574 32.7752 28.1658 32.0902 27.9074 31.4829C27.6489 30.8756 27.3018 30.3008 27.1392 29.6645Z" fill="#263238"/>
<path d="M33.3137 11.5029C33.8942 10.9088 34.6117 10.4663 35.4032 10.2141C35.72 10.0919 36.0658 10.0661 36.3973 10.14C36.7208 10.2376 37.001 10.5467 36.9612 10.8811L35.0308 13.6809C34.6494 14.0424 34.0204 13.9972 33.5432 13.7677C33.1817 13.5869 32.8311 13.2923 32.7407 12.8929C32.625 12.3868 32.9486 11.8807 33.3137 11.5029Z" fill="#0E7490"/>
<path d="M48.0881 19.3581C47.6941 15.3418 44.2273 12.157 40.1225 12.3089C35.7682 12.477 32.4731 16.1371 32.7768 20.3577L34.4379 37.3246C34.4701 37.6529 34.6113 37.9609 34.8392 38.1995C36.0538 39.4864 38.0222 40.3323 39.6525 40.2998C41.2341 40.2709 42.7379 39.6202 43.9381 38.673C44.1369 38.5153 44.2907 38.3079 44.384 38.0718C44.4772 37.8358 44.5068 37.5793 44.4695 37.3283L43.9435 33.5542C43.9427 33.551 43.9426 33.5476 43.9432 33.5444C43.9438 33.5411 43.9451 33.538 43.947 33.5353C43.9489 33.5326 43.9513 33.5303 43.9541 33.5285C43.957 33.5268 43.9601 33.5257 43.9634 33.5253C44.3194 33.4963 44.6713 33.4303 45.0136 33.3283C45.9715 32.9288 48.3538 31.5515 48.6141 27.6943C48.7009 26.429 48.4334 22.8791 48.0881 19.3581Z" fill="#FFBE9D"/>
<path d="M43.4301 25.7295C43.4301 25.6916 43.835 25.5849 44.502 25.4403C44.6719 25.4078 44.8309 25.3608 44.849 25.2433C44.8471 25.0679 44.7909 24.8975 44.6882 24.7553L44.0628 23.519C43.1897 21.7566 42.5408 20.3016 42.6168 20.2655C42.6927 20.2293 43.4554 21.6337 44.3285 23.396C44.5399 23.8298 44.7424 24.2438 44.934 24.6414C45.0171 24.8222 45.1473 25.0336 45.084 25.2939C45.0641 25.3555 45.0306 25.4117 44.9858 25.4583C44.941 25.505 44.8862 25.5409 44.8255 25.5632C44.733 25.5977 44.6364 25.6202 44.5381 25.6301C43.8585 25.7259 43.4374 25.7675 43.4301 25.7295Z" fill="#263238"/>
<path d="M47.4645 22.2593C47.4067 22.3678 46.8608 22.0262 46.1993 22.1364C45.5377 22.2467 45.1147 22.7257 45.0316 22.6389C44.9882 22.6028 45.0316 22.4148 45.2124 22.1925C45.4407 21.915 45.7617 21.7295 46.1161 21.6701C46.4758 21.616 46.843 21.6937 47.15 21.8888C47.3976 22.0442 47.5007 22.2087 47.4645 22.2593Z" fill="#263238"/>
<path d="M40.8455 22.6785C40.7659 22.7797 40.2345 22.3676 39.5079 22.3875C38.7813 22.4074 38.2644 22.8285 38.1812 22.7309C38.1415 22.6875 38.2192 22.5068 38.4433 22.3116C38.7394 22.0619 39.1124 21.9215 39.4997 21.914C39.8869 21.9064 40.2651 22.0321 40.5707 22.27C40.8003 22.4562 40.8852 22.6333 40.8455 22.6785Z" fill="#263238"/>
<path d="M43.9381 33.5417C43.9381 33.5417 41.3696 33.9791 37.9517 32.3505C37.9517 32.3505 39.2874 35.6221 44.108 34.7491L43.9381 33.5417Z" fill="#EB996E"/>
<path d="M43.4103 27.3039C43.1845 27.2329 42.9444 27.2195 42.7121 27.2649C42.4797 27.3104 42.2624 27.4133 42.08 27.5642C41.9462 27.6702 41.8349 27.8019 41.7526 27.9515C41.6704 28.1011 41.6188 28.2656 41.601 28.4354C41.5845 28.5975 41.6189 28.7608 41.6996 28.9024C41.7803 29.044 41.9032 29.1569 42.0511 29.2253C42.3855 29.3518 42.7886 29.1675 43.0416 28.8783C43.2757 28.5724 43.4477 28.2236 43.5477 27.8516C43.5873 27.7533 43.6082 27.6485 43.6092 27.5425C43.6094 27.4919 43.5946 27.4423 43.5666 27.4002C43.5386 27.358 43.4987 27.3251 43.4519 27.3057" fill="#EB996E"/>
<path d="M41.1726 21.5381C41.0171 21.6502 40.5092 21.2001 39.8043 20.8332C39.0994 20.4663 38.4541 20.2801 38.4577 20.0885C38.4577 19.9981 38.6475 19.9204 38.9584 19.9204C39.3637 19.938 39.7599 20.0464 40.1178 20.2376C40.4757 20.4287 40.7861 20.6977 41.0262 21.0248C41.2033 21.2833 41.2449 21.4839 41.1726 21.5381Z" fill="#263238"/>
<path d="M46.8228 19.6998C46.8029 19.9041 46.2697 20.1174 45.7383 20.515C45.2069 20.9127 44.8346 21.3392 44.6285 21.2941C44.5363 21.2669 44.5146 21.0952 44.6285 20.8331C44.7889 20.4858 45.0384 20.1871 45.3515 19.9673C45.6562 19.7374 46.017 19.5932 46.3962 19.5498C46.671 19.5299 46.8264 19.604 46.8228 19.6998Z" fill="#263238"/>
<path d="M40.5815 11.3818C40.1404 10.8395 39.4518 10.6787 38.7125 10.6841C35.6976 10.704 32.6917 12.9977 31.4355 15.7451C30.1793 18.4925 30.6746 22.1979 32.314 24.7284L33.4491 24.7464C35.7265 24.244 38.5824 17.2236 41.2466 13.1784C41.5774 12.6615 40.9574 11.8463 40.5815 11.3818Z" fill="#263238"/>
<path d="M46.5227 12.4211C45.0767 11.2155 42.7975 9.82369 40.3953 11.201C40.1332 11.9764 41.0388 12.7862 41.7582 13.229C42.8119 13.8761 43.7066 14.2846 44.4043 14.7582C45.8178 15.7143 47.6434 17.3754 48.0989 19.4667C48.126 19.5986 48.2308 19.6023 48.361 19.5607C48.5291 19.5065 48.7893 18.581 48.8092 17.4043C48.8562 14.8901 47.9778 13.6267 46.5227 12.4211Z" fill="#263238"/>
<path d="M33.9678 23.2803C33.8937 23.255 31.0035 22.6097 31.2837 25.4981C31.5639 28.3865 34.4053 27.5081 34.4034 27.4249C34.4016 27.3418 33.9678 23.2803 33.9678 23.2803Z" fill="#FFBE9D"/>
<path d="M33.4148 26.4165C33.4003 26.4165 33.3678 26.4563 33.2865 26.5033C33.1718 26.5668 33.0369 26.583 32.9105 26.5485C32.5942 26.4653 32.2905 26.0062 32.2273 25.4875C32.1953 25.2407 32.2194 24.9898 32.2978 24.7536C32.3168 24.6611 32.3583 24.5747 32.4185 24.5019C32.4787 24.4291 32.5557 24.3722 32.643 24.3361C32.6991 24.3153 32.7607 24.3148 32.8171 24.3346C32.8735 24.3544 32.9213 24.3933 32.9521 24.4445C32.9991 24.5223 32.9864 24.5819 33.0027 24.5855C33.019 24.5891 33.0587 24.5295 33.0244 24.4138C33.0013 24.3442 32.9554 24.2843 32.8942 24.2439C32.8089 24.1913 32.7063 24.1744 32.6087 24.1969C32.4921 24.2315 32.3864 24.2956 32.3019 24.383C32.2173 24.4704 32.1568 24.5781 32.1261 24.6958C32.0271 24.9579 31.9942 25.2403 32.0303 25.5182C32.1044 26.0984 32.455 26.6135 32.8852 26.6931C32.9648 26.7079 33.0467 26.7047 33.1249 26.6837C33.2031 26.6628 33.2756 26.6246 33.3371 26.572C33.4166 26.487 33.4256 26.4201 33.4148 26.4165Z" fill="#EB996E"/>
<path d="M35.0271 22.1255C35.018 22.0839 35.7211 22.0514 36.7135 21.5833C37.9941 20.9434 39.0615 19.9457 39.7862 18.7111C40.4952 17.4662 40.9676 16.1009 41.1798 14.684C41.2702 14.1418 41.3226 13.6971 41.3605 13.3899C41.3691 13.2298 41.3914 13.0707 41.4274 12.9145C41.4454 13.0743 41.4454 13.2355 41.4274 13.3953C41.4148 13.7044 41.3822 14.1526 41.3063 14.7021C41.1289 16.1461 40.6656 17.5403 39.9435 18.8033C39.0632 20.2764 37.7853 21.2633 36.7623 21.6953C36.3583 21.876 35.9332 22.0054 35.497 22.0803C35.3774 22.1016 35.2567 22.1161 35.1355 22.1237C35.0997 22.1298 35.0631 22.1304 35.0271 22.1255Z" fill="#263238"/>
<path d="M49.6624 23.64C49.5507 23.6827 49.4271 23.6827 49.3154 23.64C49.1902 23.5814 49.0875 23.4837 49.0226 23.3617C48.9803 23.282 48.9551 23.1944 48.9486 23.1045C48.942 23.0146 48.9543 22.9242 48.9846 22.8393C49.0589 22.6256 49.1723 22.4277 49.319 22.2555C49.4959 22.0516 49.6521 21.8306 49.7854 21.5958C49.856 21.4604 49.899 21.3123 49.9119 21.1602C49.9205 20.9991 49.8895 20.8383 49.8215 20.692C49.6719 20.4024 49.4609 20.1489 49.2033 19.9491C48.9559 19.7628 48.7377 19.5404 48.5563 19.2894C48.4123 19.0462 48.3455 18.7652 48.3647 18.4832C48.3882 17.941 48.5689 17.4457 48.5779 17.0101C48.6127 16.6655 48.534 16.319 48.3538 16.0232C48.3017 15.9455 48.2362 15.8775 48.1604 15.8226C48.108 15.7865 48.0791 15.7702 48.0773 15.7738C48.1644 15.8583 48.2426 15.9515 48.3104 16.0522C48.4672 16.3435 48.5303 16.6762 48.4912 17.0047C48.4713 17.4222 48.2815 17.9085 48.249 18.4778C48.2241 18.7859 48.2955 19.0941 48.4532 19.3599C48.64 19.6225 48.8654 19.8553 49.122 20.0503C49.3653 20.2376 49.5656 20.4749 49.7094 20.7462C49.7673 20.8717 49.7949 21.009 49.7902 21.1471C49.7855 21.2852 49.7486 21.4203 49.6823 21.5415C49.555 21.7703 49.4061 21.9864 49.2377 22.1868C49.0875 22.3724 48.9734 22.5845 48.9015 22.8122C48.8709 22.9092 48.8607 23.0114 48.8715 23.1126C48.8824 23.2137 48.9142 23.3114 48.9647 23.3996C49.0425 23.5314 49.1621 23.6332 49.3046 23.6888C49.3951 23.7216 49.4942 23.7216 49.5847 23.6888C49.6142 23.6791 49.6409 23.6624 49.6624 23.64Z" fill="#263238"/>
<path d="M34.662 32.5946C34.691 32.5645 34.7165 32.5311 34.7379 32.4952C34.8082 32.3971 34.8687 32.2924 34.9187 32.1825C35.1014 31.7802 35.1868 31.3406 35.1681 30.8992C35.1556 30.5933 35.0946 30.2913 34.9874 30.0045C34.8487 29.6885 34.6811 29.3859 34.4867 29.1007C34.306 28.7989 34.1523 28.4229 34.3168 28.0795C34.4813 27.7361 34.8229 27.4921 35.0398 27.0998C35.095 26.999 35.1239 26.8859 35.1239 26.7709C35.1239 26.6559 35.095 26.5428 35.0398 26.4419C34.9219 26.2675 34.7849 26.1068 34.6313 25.9629C34.5136 25.8254 34.433 25.66 34.3972 25.4825C34.3615 25.305 34.3717 25.1213 34.4271 24.9489C34.5202 24.6242 34.6694 24.3183 34.8681 24.0452C35.0428 23.798 35.1958 23.5361 35.3254 23.2625C35.4262 23.062 35.4756 22.8395 35.4689 22.6151C35.4623 22.3908 35.3999 22.1716 35.2874 21.9774C35.2224 21.874 35.1322 21.7888 35.0253 21.7298C34.9897 21.7081 34.9505 21.6928 34.9097 21.6846C35.0451 21.7629 35.1598 21.8726 35.244 22.0045C35.3424 22.1925 35.3937 22.4015 35.3937 22.6136C35.3937 22.8258 35.3424 23.0348 35.244 23.2228C35.1099 23.4881 34.9552 23.7425 34.7813 23.9837C34.5709 24.2658 34.4118 24.5827 34.3114 24.92C34.2619 25.1086 34.2496 25.3051 34.2752 25.4984C34.3073 25.701 34.3984 25.8897 34.5373 26.0406C34.6784 26.1771 34.8055 26.3273 34.9169 26.4889C34.9628 26.5703 34.987 26.6621 34.987 26.7555C34.987 26.8489 34.9628 26.9408 34.9169 27.0221C34.7361 27.3728 34.3746 27.6222 34.1939 28.0108C34.1086 28.203 34.092 28.4187 34.1469 28.6218C34.1983 28.8073 34.2763 28.9844 34.3782 29.1477C34.5722 29.4281 34.741 29.7251 34.8825 30.0352C34.9865 30.3111 35.0474 30.6012 35.0633 30.8956C35.091 31.327 35.0225 31.7592 34.8627 32.1608C34.747 32.4446 34.6512 32.5874 34.662 32.5946Z" fill="#263238"/>
<path d="M25.422 32.2891C25.4075 32.3271 25.4672 32.4139 25.6533 32.4699C25.7911 32.4981 25.9333 32.4965 26.0705 32.4653C26.2076 32.4342 26.3366 32.3741 26.4486 32.2891C26.7217 32.0995 26.9184 31.8188 27.0035 31.4975C27.0358 31.3745 27.0552 31.2485 27.0614 31.1215C27.0566 30.5687 26.9077 30.0266 26.6294 29.549C26.3745 29.0573 26.0763 28.5783 26.0148 28.1229C25.9534 27.6674 26.1052 27.1504 26.4035 26.5702C26.7017 25.99 27.1264 25.3538 27.4301 24.553C27.7248 23.7591 27.9121 22.9294 27.9868 22.0858C28.1549 20.3904 28.0356 18.8323 28.0917 17.4821C28.1138 16.3023 28.3344 15.1346 28.7442 14.028C29.0251 13.2924 29.456 12.6233 30.0094 12.0632C30.2137 11.8716 30.3709 11.7144 30.4956 11.615C30.6203 11.5156 30.6637 11.4342 30.6438 11.3854C30.624 11.3366 30.5336 11.3402 30.3709 11.3746C30.1334 11.432 29.9057 11.5239 29.6949 11.6475C28.9206 12.1262 28.2948 12.8108 27.8874 13.6249C27.2962 14.7991 26.9464 16.08 26.8589 17.3917C26.7342 18.8377 26.8101 20.3922 26.6547 21.9322C26.5912 22.6633 26.4382 23.3838 26.1992 24.0777C25.9823 24.723 25.6009 25.3303 25.2955 26.0207C25.1345 26.3738 25.0133 26.7435 24.934 27.1233C24.8508 27.5172 24.8508 27.9242 24.934 28.3181C25.02 28.6654 25.1609 28.9967 25.3515 29.2995C25.516 29.5707 25.6805 29.8002 25.8214 30.0117C26.0703 30.3389 26.2415 30.7184 26.3221 31.1215C26.3292 31.1985 26.3292 31.2759 26.3221 31.3529C26.3181 31.4192 26.306 31.4847 26.286 31.5481C26.2482 31.6698 26.1868 31.7828 26.1052 31.8806C25.7979 32.262 25.4509 32.1879 25.422 32.2891Z" fill="#263238"/>
<path d="M43.0416 29.285C43.0416 29.2976 42.9747 29.3121 42.8609 29.3374C42.686 29.375 42.5082 29.3967 42.3294 29.4025C42.2684 29.4012 42.2077 29.3927 42.1487 29.3772C42.0817 29.3605 42.0168 29.3363 41.9553 29.3049C41.8864 29.2686 41.8251 29.2195 41.7745 29.1603C41.7276 29.0992 41.6864 29.0338 41.6516 28.9651C41.5594 28.825 41.5012 28.6653 41.4817 28.4987C41.4799 28.4515 41.4835 28.4042 41.4926 28.3577L41.5197 28.233C41.5414 28.1517 41.5649 28.0667 41.5956 27.9836C41.6525 27.8148 41.7456 27.6606 41.8685 27.5317C41.9872 27.414 42.1304 27.3239 42.2879 27.2678C42.5461 27.1785 42.8224 27.1542 43.0922 27.1973C43.5423 27.2696 43.7953 27.3781 43.7917 27.3998C43.7881 27.4215 43.5115 27.3654 43.0796 27.3293C42.8342 27.3085 42.5872 27.3425 42.3566 27.4287C42.225 27.4809 42.1057 27.5597 42.0059 27.6601C41.9036 27.7722 41.826 27.9046 41.7782 28.0487C41.7503 28.1238 41.7268 28.2004 41.7077 28.2782L41.6806 28.3939C41.677 28.4263 41.677 28.4591 41.6806 28.4915C41.6972 28.631 41.7447 28.765 41.8197 28.8837C41.8623 29.0008 41.9416 29.1009 42.0457 29.1693C42.1407 29.225 42.2468 29.259 42.3566 29.2687C42.5662 29.2832 42.7488 29.2687 42.8735 29.2687C42.9982 29.2687 43.0416 29.2723 43.0416 29.285Z" fill="#263238"/>
<path d="M47.0741 35.0563L43.0849 36.4626C43.0849 36.4626 43.544 40.3433 43.5639 40.1029C43.5838 39.8625 47.0741 35.0563 47.0741 35.0563Z" fill="#FFBE9D"/>
<path d="M43.0416 29.285C43.0416 29.2976 42.9747 29.3121 42.8609 29.3374C42.686 29.375 42.5082 29.3967 42.3294 29.4025C42.2684 29.4012 42.2077 29.3927 42.1487 29.3772C42.0817 29.3605 42.0168 29.3363 41.9553 29.3049C41.8864 29.2686 41.8251 29.2195 41.7745 29.1603C41.7276 29.0992 41.6864 29.0338 41.6516 28.9651C41.5594 28.825 41.5012 28.6653 41.4817 28.4987C41.4799 28.4515 41.4835 28.4042 41.4926 28.3577L41.5197 28.233C41.5414 28.1517 41.5649 28.0667 41.5956 27.9836C41.6525 27.8148 41.7456 27.6606 41.8685 27.5317C41.9872 27.414 42.1304 27.3239 42.2879 27.2678C42.5461 27.1785 42.8224 27.1542 43.0922 27.1973C43.5423 27.2696 43.7953 27.3781 43.7917 27.3998C43.7881 27.4215 43.5115 27.3654 43.0796 27.3293C42.8342 27.3085 42.5872 27.3425 42.3566 27.4287C42.225 27.4809 42.1057 27.5597 42.0059 27.6601C41.9036 27.7722 41.826 27.9046 41.7782 28.0487C41.7503 28.1238 41.7268 28.2004 41.7077 28.2782L41.6806 28.3939C41.677 28.4263 41.677 28.4591 41.6806 28.4915C41.6972 28.631 41.7447 28.765 41.8197 28.8837C41.8623 29.0008 41.9416 29.1009 42.0457 29.1693C42.1407 29.225 42.2468 29.259 42.3566 29.2687C42.5662 29.2832 42.7488 29.2687 42.8735 29.2687C42.9982 29.2687 43.0416 29.2723 43.0416 29.285Z" fill="#263238"/>
<path d="M50.9637 21.115L57.252 25.0933L60.1802 19.9021L52.5417 16.6035" fill="#FFBE9D"/>
<path d="M27.2495 29.7767C27.2495 29.7767 29.2865 16.9037 29.7655 15.5842C30.2445 14.2647 33.4004 10.8847 35.3145 11.3023C37.2287 11.7198 38.5879 13.5598 38.7 16.4012C38.812 19.2426 35.0578 39.6619 35.0578 39.6619C35.0578 39.6619 29.5631 43.8842 27.4483 41.3031C25.3335 38.722 25.9661 36.1084 27.2495 29.7767Z" fill="#0E7490"/>
<path d="M31.0343 37.4006C31.0343 37.4006 40.5056 40.1227 41.1961 39.9799C44.0989 39.378 47.0741 35.0563 47.0741 35.0563L48.9358 34.5321C48.9358 34.5321 52.1477 44.7264 51.1229 50.0621C50.098 55.3979 48.8997 58.5664 48.8997 58.5664L50.5897 73.5H23L28.6267 57.3355L27.1464 40.8981L31.0343 37.4006Z" fill="#0E7490"/>
<path d="M56.558 25.4204L57.9515 26.6857L48.6176 34.6206L50.6818 46.5302C50.6818 46.5302 58.6962 38.9387 61.8702 35.8244C66.9023 30.8791 68.7206 27.3545 68.2362 26.0296C67.4264 23.8118 60.2435 19.4322 60.2435 19.4322L56.558 25.4204Z" fill="#0E7490"/>
<path d="M34.671 45.7946C34.6512 45.7946 34.4903 45.4801 34.3439 44.9252C34.2552 44.5994 34.1858 44.2686 34.136 43.9347C34.0775 43.5251 34.0455 43.1121 34.0402 42.6984C34.0403 42.2844 34.0669 41.8708 34.1198 41.4602C34.1648 41.1258 34.23 40.7945 34.315 40.4679C34.4632 39.9112 34.6096 39.584 34.6295 39.5931C34.6909 39.6075 34.2083 40.9577 34.23 42.6966C34.2517 44.4354 34.7325 45.7801 34.671 45.7946Z" fill="#263238"/>
<path d="M44.0772 49.1294C44.1102 49.2605 44.126 49.3954 44.1242 49.5307C44.1383 49.8977 44.122 50.2653 44.0754 50.6296C43.9245 51.8432 43.4774 53.0011 42.7735 54.0012C42.0697 55.0014 41.1307 55.8131 40.0393 56.3648C39.7117 56.5317 39.3707 56.6707 39.0198 56.7805C38.8939 56.829 38.7619 56.86 38.6276 56.8727C38.6149 56.8384 39.1698 56.692 39.976 56.2473C41.0262 55.6763 41.9305 54.8707 42.6186 53.8933C43.3067 52.9158 43.7601 51.7928 43.9435 50.6115C44.0881 49.7042 44.0411 49.1294 44.0772 49.1294Z" fill="#263238"/>
<path d="M54.0347 40.5042C54.0564 40.5241 53.7835 40.8368 53.3804 41.3664C52.8545 42.0556 52.3826 42.7844 51.9688 43.5462C51.5587 44.3103 51.2071 45.1042 50.9168 45.9213C50.6945 46.5503 50.5824 46.9479 50.5553 46.9407C50.5282 46.9335 50.6005 46.525 50.7921 45.8797C51.3054 44.197 52.1504 42.6341 53.2774 41.2832C53.7094 40.7699 54.0185 40.4879 54.0347 40.5042Z" fill="#263238"/>
<path d="M51.1212 49.3717C51.0456 49.3968 50.9673 49.4126 50.888 49.4187C50.7344 49.4404 50.5084 49.482 50.2138 49.5091C49.3844 49.6009 48.5503 49.6438 47.7158 49.6374C46.4781 49.6242 45.2421 49.5397 44.0141 49.3844C42.6259 49.2271 41.1112 48.9686 39.5224 48.7499C36.7999 48.4101 34.0444 48.4307 31.3272 48.8114C30.2843 48.9578 29.4493 49.1259 28.8727 49.2488L28.2111 49.3952C28.1346 49.4176 28.0557 49.4309 27.9761 49.435C28.0481 49.4021 28.1232 49.3767 28.2003 49.3591C28.3503 49.3157 28.5708 49.2488 28.8564 49.1783C29.4294 49.0319 30.2644 48.8439 31.3074 48.6794C32.5313 48.4905 33.7658 48.3776 35.0037 48.3414C35.7032 48.3234 36.437 48.3306 37.198 48.3613C37.959 48.392 38.7434 48.4643 39.5477 48.5619C41.1456 48.7825 42.653 49.0445 44.0358 49.2126C45.2577 49.3742 46.4873 49.4714 47.7194 49.5037C48.7714 49.5235 49.6227 49.4838 50.2102 49.4368C50.503 49.4205 50.7307 49.3898 50.8862 49.3807C50.9641 49.371 51.0427 49.368 51.1212 49.3717Z" fill="white"/>
<path d="M58.3203 39.4016C58.2805 39.4016 58.2932 38.7997 58.1197 37.8543C58.0962 37.7369 58.0709 37.6139 58.0456 37.4928C58.0203 37.3717 57.9769 37.2326 57.9425 37.097C57.8775 36.8223 57.7726 36.5385 57.6696 36.2384C57.1917 34.9443 56.4535 33.762 55.5006 32.7644C55.2747 32.5421 55.0668 32.3234 54.8481 32.1445C54.7415 32.0541 54.6421 31.9637 54.539 31.8787L54.2372 31.651C53.4636 31.0798 52.9159 30.8286 52.934 30.7943C53.0701 30.8327 53.2012 30.8873 53.3244 30.9569L53.5268 31.0563C53.6009 31.0943 53.6769 31.1431 53.76 31.1919C53.9516 31.298 54.1368 31.4151 54.3149 31.5426L54.6276 31.7649C54.736 31.8426 54.8391 31.9366 54.9493 32.027C55.1854 32.2209 55.4111 32.4273 55.6253 32.6451C56.6116 33.6473 57.3662 34.8535 57.8359 36.1788C57.9353 36.4861 58.0383 36.7771 58.098 37.0572C58.1287 37.1982 58.1685 37.3302 58.192 37.4621C58.2155 37.5941 58.2336 37.7188 58.2552 37.8399C58.2903 38.056 58.3144 38.2738 58.3275 38.4924C58.3275 38.5882 58.3456 38.6731 58.3474 38.7617V38.9768C58.3543 39.119 58.3452 39.2614 58.3203 39.4016Z" fill="white"/>
<path d="M37.8432 23.4487C37.7401 23.5243 37.6269 23.5851 37.507 23.6294C37.3726 23.6975 37.2344 23.7579 37.0931 23.8102C36.9304 23.8698 36.746 23.9457 36.5327 24.0036C36.3195 24.0614 36.0917 24.1373 35.8369 24.1843C35.582 24.2313 35.3127 24.2892 35.0253 24.3362C33.7695 24.5139 32.4915 24.4526 31.2585 24.1554C30.9765 24.0813 30.7162 24.0144 30.4632 23.9277C30.2101 23.8409 29.9914 23.7614 29.7872 23.6764C29.5829 23.5915 29.4058 23.5065 29.2449 23.4324C29.1093 23.3691 28.9771 23.2985 28.8491 23.2209C28.734 23.1659 28.6269 23.0953 28.5309 23.0113C28.5472 22.9805 29.019 23.248 29.8323 23.5535C30.0366 23.6276 30.2607 23.7108 30.5065 23.7776C30.7524 23.8445 31.0144 23.9186 31.2928 23.9855C31.9004 24.117 32.5175 24.2004 33.1383 24.2349C33.7592 24.2587 34.381 24.2346 34.9982 24.1626C35.282 24.1211 35.5531 24.0867 35.8007 24.0307C36.0483 23.9747 36.2833 23.924 36.493 23.8698C37.3425 23.6385 37.8287 23.4161 37.8432 23.4487Z" fill="white"/>
<path d="M29.583 15.2824C29.6167 15.1699 29.6673 15.0633 29.733 14.966C29.8952 14.6938 30.0815 14.4367 30.2897 14.1979C30.8121 13.5815 31.6887 12.8838 32.7226 12.2403C32.9793 12.0777 33.2323 11.924 33.4782 11.774C33.7154 11.6255 33.9645 11.4968 34.2229 11.389C34.4631 11.2892 34.7201 11.2358 34.9802 11.2318C35.2056 11.2331 35.4292 11.2722 35.6417 11.3474C35.9418 11.4562 36.2272 11.6019 36.4913 11.7812C36.5936 11.8373 36.6869 11.9086 36.7678 11.9927C36.6573 11.9564 36.5517 11.9066 36.4533 11.8445C36.1817 11.6971 35.8966 11.5761 35.602 11.483C35.4011 11.4221 35.1919 11.3935 34.982 11.398C34.7426 11.4079 34.5072 11.4625 34.2879 11.5589C34.0375 11.6672 33.7957 11.7947 33.5649 11.9403C33.3227 12.0921 33.0715 12.2494 32.813 12.4084C31.7863 13.0483 30.9151 13.7153 30.3801 14.2955C29.8451 14.8757 29.6119 15.2986 29.583 15.2824Z" fill="#263238"/>
</g>
<path d="M24.8823 82.53V83.27H22.9823V89.5H22.0723V83.27H20.1623V82.53H24.8823ZM26.9124 84.91C27.0724 84.5967 27.2991 84.3533 27.5924 84.18C27.8924 84.0067 28.2558 83.92 28.6824 83.92V84.86H28.4424C27.4224 84.86 26.9124 85.4133 26.9124 86.52V89.5H26.0024V84.02H26.9124V84.91ZM29.3929 86.74C29.3929 86.18 29.5062 85.69 29.7329 85.27C29.9596 84.8433 30.2696 84.5133 30.6629 84.28C31.0629 84.0467 31.5062 83.93 31.9929 83.93C32.4729 83.93 32.8896 84.0333 33.2429 84.24C33.5962 84.4467 33.8596 84.7067 34.0329 85.02V84.02H34.9529V89.5H34.0329V88.48C33.8529 88.8 33.5829 89.0667 33.2229 89.28C32.8696 89.4867 32.4562 89.59 31.9829 89.59C31.4962 89.59 31.0562 89.47 30.6629 89.23C30.2696 88.99 29.9596 88.6533 29.7329 88.22C29.5062 87.7867 29.3929 87.2933 29.3929 86.74ZM34.0329 86.75C34.0329 86.3367 33.9496 85.9767 33.7829 85.67C33.6162 85.3633 33.3896 85.13 33.1029 84.97C32.8229 84.8033 32.5129 84.72 32.1729 84.72C31.8329 84.72 31.5229 84.8 31.2429 84.96C30.9629 85.12 30.7396 85.3533 30.5729 85.66C30.4062 85.9667 30.3229 86.3267 30.3229 86.74C30.3229 87.16 30.4062 87.5267 30.5729 87.84C30.7396 88.1467 30.9629 88.3833 31.2429 88.55C31.5229 88.71 31.8329 88.79 32.1729 88.79C32.5129 88.79 32.8229 88.71 33.1029 88.55C33.3896 88.3833 33.6162 88.1467 33.7829 87.84C33.9496 87.5267 34.0329 87.1633 34.0329 86.75ZM41.3507 84.02V89.5H40.4407V88.69C40.2674 88.97 40.024 89.19 39.7107 89.35C39.404 89.5033 39.064 89.58 38.6907 89.58C38.264 89.58 37.8807 89.4933 37.5407 89.32C37.2007 89.14 36.9307 88.8733 36.7307 88.52C36.5374 88.1667 36.4407 87.7367 36.4407 87.23V84.02H37.3407V87.11C37.3407 87.65 37.4774 88.0667 37.7507 88.36C38.024 88.6467 38.3974 88.79 38.8707 88.79C39.3574 88.79 39.7407 88.64 40.0207 88.34C40.3007 88.04 40.4407 87.6033 40.4407 87.03V84.02H41.3507ZM49.4772 83.92C49.9039 83.92 50.2839 84.01 50.6172 84.19C50.9505 84.3633 51.2139 84.6267 51.4072 84.98C51.6005 85.3333 51.6972 85.7633 51.6972 86.27V89.5H50.7972V86.4C50.7972 85.8533 50.6605 85.4367 50.3872 85.15C50.1205 84.8567 49.7572 84.71 49.2972 84.71C48.8239 84.71 48.4472 84.8633 48.1672 85.17C47.8872 85.47 47.7472 85.9067 47.7472 86.48V89.5H46.8472V86.4C46.8472 85.8533 46.7105 85.4367 46.4372 85.15C46.1705 84.8567 45.8072 84.71 45.3472 84.71C44.8739 84.71 44.4972 84.8633 44.2172 85.17C43.9372 85.47 43.7972 85.9067 43.7972 86.48V89.5H42.8872V84.02H43.7972V84.81C43.9772 84.5233 44.2172 84.3033 44.5172 84.15C44.8239 83.9967 45.1605 83.92 45.5272 83.92C45.9872 83.92 46.3939 84.0233 46.7472 84.23C47.1005 84.4367 47.3639 84.74 47.5372 85.14C47.6905 84.7533 47.9439 84.4533 48.2972 84.24C48.6505 84.0267 49.0439 83.92 49.4772 83.92ZM52.8499 86.74C52.8499 86.18 52.9633 85.69 53.1899 85.27C53.4166 84.8433 53.7266 84.5133 54.1199 84.28C54.5199 84.0467 54.9633 83.93 55.4499 83.93C55.9299 83.93 56.3466 84.0333 56.6999 84.24C57.0533 84.4467 57.3166 84.7067 57.4899 85.02V84.02H58.4099V89.5H57.4899V88.48C57.3099 88.8 57.0399 89.0667 56.6799 89.28C56.3266 89.4867 55.9133 89.59 55.4399 89.59C54.9533 89.59 54.5133 89.47 54.1199 89.23C53.7266 88.99 53.4166 88.6533 53.1899 88.22C52.9633 87.7867 52.8499 87.2933 52.8499 86.74ZM57.4899 86.75C57.4899 86.3367 57.4066 85.9767 57.2399 85.67C57.0733 85.3633 56.8466 85.13 56.5599 84.97C56.2799 84.8033 55.9699 84.72 55.6299 84.72C55.2899 84.72 54.9799 84.8 54.6999 84.96C54.4199 85.12 54.1966 85.3533 54.0299 85.66C53.8633 85.9667 53.7799 86.3267 53.7799 86.74C53.7799 87.16 53.8633 87.5267 54.0299 87.84C54.1966 88.1467 54.4199 88.3833 54.6999 88.55C54.9799 88.71 55.2899 88.79 55.6299 88.79C55.9699 88.79 56.2799 88.71 56.5599 88.55C56.8466 88.3833 57.0733 88.1467 57.2399 87.84C57.4066 87.5267 57.4899 87.1633 57.4899 86.75Z" fill="#164E63"/>
<defs>
<clipPath id="clip0_2012_7801">
<rect y="0.5" width="79" height="73" rx="36.5" fill="white"/>
</clipPath>
</defs>
</svg>
