<svg width="33" height="32" viewBox="0 0 33 32" fill="none" xmlns="http://www.w3.org/2000/svg">
<g id="google" clip-path="url(#clip0_1658_2402)">
<path id="Vector" d="M31.5485 16.3544C31.5485 15.055 31.4502 14.11 31.2143 13.1257H16.4482V18.9729H25.1191C24.9422 20.4297 23.9984 22.615 21.8946 24.0916L21.8749 24.2885L26.5348 27.911L26.8494 27.9504C29.838 25.1941 31.5485 21.1385 31.5485 16.3544Z" fill="#4285F4"/>
<path id="Vector_2" d="M16.4482 31.75C20.6952 31.75 24.254 30.3522 26.869 27.9306L21.9142 24.0718C20.5772 24.9972 18.8077 25.6468 16.4679 25.6468C12.2996 25.6468 8.78011 22.8906 7.52175 19.1106L7.34479 19.1303L2.46865 22.8906L2.40967 23.0678C4.98537 28.2062 10.2941 31.75 16.4482 31.75Z" fill="#34A853"/>
<path id="Vector_3" d="M7.50209 19.1106C7.16784 18.1263 6.97122 17.0828 6.97122 16C6.97122 14.9172 7.16784 13.8738 7.48243 12.8894V12.6728L2.56696 8.85345L2.40967 8.9322C1.32827 11.0585 0.71875 13.4603 0.71875 16C0.71875 18.5397 1.32827 20.9416 2.39001 23.0678L7.50209 19.1106Z" fill="#FBBC05"/>
<path id="Vector_4" d="M16.4484 6.33344C19.3976 6.33344 21.4031 7.61312 22.5239 8.67625L26.9675 4.345C24.2345 1.80531 20.6953 0.25 16.4484 0.25C10.2942 0.25 4.9855 3.79375 2.39014 8.93219L7.48256 12.8894C8.76058 9.08969 12.28 6.33344 16.4484 6.33344Z" fill="#EB4335"/>
</g>
<defs>
<clipPath id="clip0_1658_2402">
<rect width="31.5" height="31.5" fill="white" transform="translate(0.71875 0.25)"/>
</clipPath>
</defs>
</svg>
